<svg width="330" height="38" viewBox="0 0 330 38" fill="none" xmlns="http://www.w3.org/2000/svg">
<g clip-path="url(#clip0_1_2003)">
<path fill-rule="evenodd" clip-rule="evenodd" d="M8.38786 14.2399C8.09666 14.2399 7.86065 14.0039 7.86065 13.7127V12.9466C7.86065 12.6555 8.09666 12.4194 8.38786 12.4194C8.67906 12.4194 8.91508 12.6555 8.91508 12.9466V13.7127C8.91508 14.0037 8.67906 14.2399 8.38786 14.2399ZM7.29448 15.3304H6.52844C6.23724 15.3304 6.00122 15.0943 6.00122 14.8031C6.00122 14.5119 6.23724 14.2759 6.52844 14.2759H7.29448C7.58568 14.2759 7.8217 14.5119 7.8217 14.8031C7.8217 15.0943 7.5855 15.3304 7.29448 15.3304ZM10.8256 25.2822C10.8588 25.5493 11.086 25.7447 11.3482 25.7447C11.3699 25.7447 11.3916 25.7433 11.4138 25.7407C13.8109 25.4437 15.5354 24.4796 16.5394 22.8749C18.4171 19.8738 17.0464 15.7663 16.9872 15.593C16.9142 15.3797 16.7137 15.2363 16.4882 15.2363C13.5362 15.2363 11.3061 16.0983 9.85973 17.7982C7.6485 20.397 8.07058 24.0215 8.14323 24.5322C7.54416 24.9783 6.93545 25.3419 6.34667 25.5582C6.0734 25.6587 5.93334 25.9617 6.03368 26.235C6.11189 26.4483 6.31381 26.5805 6.52856 26.5805C6.58902 26.5805 6.65035 26.5699 6.71028 26.548C10.0583 25.318 13.6992 20.1766 13.8526 19.9583C14.0201 19.72 13.9626 19.3914 13.7243 19.2239C13.486 19.0564 13.1574 19.114 12.9899 19.352C12.965 19.3875 11.2177 21.8545 9.13116 23.7203C9.07949 22.5662 9.18666 20.2163 10.6629 18.4813C11.8373 17.101 13.6634 16.3668 16.0955 16.2963C16.3652 17.3045 16.9654 20.2058 15.6452 22.3155C14.8178 23.6378 13.3506 24.4381 11.2839 24.6942C10.9952 24.73 10.7899 24.9933 10.8256 25.2822ZM9.47078 15.3306H10.2367C10.5278 15.3306 10.7639 15.0945 10.7639 14.8033C10.7639 14.5121 10.5278 14.2761 10.2367 14.2761H9.47078C9.17958 14.2761 8.94357 14.5121 8.94357 14.8033C8.94357 15.0945 9.17958 15.3306 9.47078 15.3306ZM7.86065 16.6596C7.86065 16.9508 8.09666 17.1869 8.38786 17.1869C8.67906 17.1869 8.91508 16.9507 8.91508 16.6596V15.8936C8.91508 15.6024 8.67906 15.3664 8.38786 15.3664C8.09666 15.3664 7.86065 15.6024 7.86065 15.8936V16.6596ZM19.1406 14.3082C19.0057 14.3082 18.8709 14.2567 18.7679 14.1537L18.1142 13.5C17.9082 13.2942 17.9082 12.9603 18.1142 12.7543C18.3201 12.5485 18.6537 12.5485 18.8596 12.7543L19.5134 13.408C19.7193 13.6138 19.7193 13.9477 19.5134 14.1537C19.4104 14.2567 19.2756 14.3082 19.1406 14.3082ZM20.9196 16.3081C21.0226 16.4111 21.1574 16.4626 21.2923 16.4626C21.4271 16.4626 21.5621 16.4111 21.6651 16.3081C21.871 16.1023 21.871 15.7684 21.6651 15.5626L21.0113 14.9088C20.8054 14.7029 20.4718 14.7029 20.2658 14.9088C20.0599 15.1146 20.0599 15.4485 20.2658 15.6543L20.9196 16.3081ZM20.6386 14.3081C20.5036 14.3081 20.3688 14.2566 20.2658 14.1538C20.0599 13.948 20.0599 13.6141 20.2658 13.4081L20.9196 12.7544C21.1252 12.5484 21.4591 12.5486 21.6651 12.7544C21.871 12.9602 21.871 13.2941 21.6651 13.5L21.0113 14.1538C20.9085 14.2566 20.7735 14.3081 20.6386 14.3081ZM18.1118 16.3085C18.2148 16.4113 18.3496 16.4628 18.4846 16.4628C18.6195 16.4628 18.7547 16.4113 18.8575 16.3085L19.5112 15.6546C19.717 15.4486 19.717 15.1147 19.5111 14.9089C19.3051 14.7031 18.9714 14.703 18.7654 14.9089L18.1117 15.5628C17.9059 15.7688 17.9059 16.1027 18.1118 16.3085ZM18.5295 24.7237H17.7634C17.4722 24.7237 17.2362 24.4877 17.2362 24.1965C17.2362 23.9053 17.4722 23.6693 17.7634 23.6693H18.5295C18.8207 23.6693 19.0567 23.9053 19.0567 24.1965C19.0567 24.4877 18.8207 24.7237 18.5295 24.7237ZM20.7058 24.7237H21.4718C21.763 24.7237 21.999 24.4877 21.999 24.1965C21.999 23.9053 21.763 23.6693 21.4718 23.6693H20.7058C20.4146 23.6693 20.1786 23.9053 20.1786 24.1965C20.1786 24.4877 20.4146 24.7237 20.7058 24.7237ZM19.6206 23.6336C19.3294 23.6336 19.0933 23.3976 19.0933 23.1064V22.3403C19.0933 22.0491 19.3294 21.8131 19.6206 21.8131C19.9117 21.8131 20.1478 22.0491 20.1478 22.3403V23.1064C20.1478 23.3976 19.9117 23.6336 19.6206 23.6336ZM19.0933 26.0534C19.0933 26.3446 19.3294 26.5806 19.6206 26.5806C19.9117 26.5806 20.1478 26.3446 20.1478 26.0534V25.2874C20.1478 24.9962 19.9117 24.7601 19.6206 24.7601C19.3294 24.7601 19.0933 24.9962 19.0933 25.2874V26.0534Z" fill="white"/>
</g>
<path d="M34.6953 12.5625V24H33.25V14.3672L30.3359 15.4297V14.125L34.4688 12.5625H34.6953ZM46.3984 22.8125V24H38.9531V22.9609L42.6797 18.8125C43.138 18.3021 43.4922 17.8698 43.7422 17.5156C43.9974 17.1562 44.1745 16.8359 44.2734 16.5547C44.3776 16.2682 44.4297 15.9766 44.4297 15.6797C44.4297 15.3047 44.3516 14.9661 44.1953 14.6641C44.0443 14.3568 43.8203 14.112 43.5234 13.9297C43.2266 13.7474 42.8672 13.6562 42.4453 13.6562C41.9401 13.6562 41.5182 13.7552 41.1797 13.9531C40.8464 14.1458 40.5964 14.4167 40.4297 14.7656C40.263 15.1146 40.1797 15.5156 40.1797 15.9688H38.7344C38.7344 15.3281 38.875 14.7422 39.1562 14.2109C39.4375 13.6797 39.8542 13.2578 40.4062 12.9453C40.9583 12.6276 41.638 12.4688 42.4453 12.4688C43.1641 12.4688 43.7786 12.5964 44.2891 12.8516C44.7995 13.1016 45.1901 13.4557 45.4609 13.9141C45.737 14.3672 45.875 14.8984 45.875 15.5078C45.875 15.8411 45.8177 16.1797 45.7031 16.5234C45.5938 16.862 45.4401 17.2005 45.2422 17.5391C45.0495 17.8776 44.8229 18.2109 44.5625 18.5391C44.3073 18.8672 44.0339 19.1901 43.7422 19.5078L40.6953 22.8125H46.3984ZM55.0859 17.4062V19.1406C55.0859 20.0729 55.0026 20.8594 54.8359 21.5C54.6693 22.1406 54.4297 22.6562 54.1172 23.0469C53.8047 23.4375 53.4271 23.7214 52.9844 23.8984C52.5469 24.0703 52.0521 24.1562 51.5 24.1562C51.0625 24.1562 50.6589 24.1016 50.2891 23.9922C49.9193 23.8828 49.5859 23.7083 49.2891 23.4688C48.9974 23.224 48.7474 22.9062 48.5391 22.5156C48.3307 22.125 48.1719 21.651 48.0625 21.0938C47.9531 20.5365 47.8984 19.8854 47.8984 19.1406V17.4062C47.8984 16.474 47.9818 15.6927 48.1484 15.0625C48.3203 14.4323 48.5625 13.9271 48.875 13.5469C49.1875 13.1615 49.5625 12.8854 50 12.7188C50.4427 12.5521 50.9375 12.4688 51.4844 12.4688C51.9271 12.4688 52.3333 12.5234 52.7031 12.6328C53.0781 12.737 53.4115 12.9062 53.7031 13.1406C53.9948 13.3698 54.2422 13.6771 54.4453 14.0625C54.6536 14.4427 54.8125 14.9089 54.9219 15.4609C55.0312 16.013 55.0859 16.6615 55.0859 17.4062ZM53.6328 19.375V17.1641C53.6328 16.6536 53.6016 16.2057 53.5391 15.8203C53.4818 15.4297 53.3958 15.0964 53.2812 14.8203C53.1667 14.5443 53.0208 14.3203 52.8438 14.1484C52.6719 13.9766 52.4714 13.8516 52.2422 13.7734C52.0182 13.6901 51.7656 13.6484 51.4844 13.6484C51.1406 13.6484 50.8359 13.7135 50.5703 13.8438C50.3047 13.9688 50.0807 14.1693 49.8984 14.4453C49.7214 14.7214 49.5859 15.0833 49.4922 15.5312C49.3984 15.9792 49.3516 16.5234 49.3516 17.1641V19.375C49.3516 19.8854 49.3802 20.3359 49.4375 20.7266C49.5 21.1172 49.5911 21.4557 49.7109 21.7422C49.8307 22.0234 49.9766 22.2552 50.1484 22.4375C50.3203 22.6198 50.5182 22.7552 50.7422 22.8438C50.9714 22.9271 51.224 22.9688 51.5 22.9688C51.8542 22.9688 52.1641 22.901 52.4297 22.7656C52.6953 22.6302 52.9167 22.4193 53.0938 22.1328C53.276 21.8411 53.4115 21.4688 53.5 21.0156C53.5885 20.5573 53.6328 20.0104 53.6328 19.375ZM64.0859 17.4062V19.1406C64.0859 20.0729 64.0026 20.8594 63.8359 21.5C63.6693 22.1406 63.4297 22.6562 63.1172 23.0469C62.8047 23.4375 62.4271 23.7214 61.9844 23.8984C61.5469 24.0703 61.0521 24.1562 60.5 24.1562C60.0625 24.1562 59.6589 24.1016 59.2891 23.9922C58.9193 23.8828 58.5859 23.7083 58.2891 23.4688C57.9974 23.224 57.7474 22.9062 57.5391 22.5156C57.3307 22.125 57.1719 21.651 57.0625 21.0938C56.9531 20.5365 56.8984 19.8854 56.8984 19.1406V17.4062C56.8984 16.474 56.9818 15.6927 57.1484 15.0625C57.3203 14.4323 57.5625 13.9271 57.875 13.5469C58.1875 13.1615 58.5625 12.8854 59 12.7188C59.4427 12.5521 59.9375 12.4688 60.4844 12.4688C60.9271 12.4688 61.3333 12.5234 61.7031 12.6328C62.0781 12.737 62.4115 12.9062 62.7031 13.1406C62.9948 13.3698 63.2422 13.6771 63.4453 14.0625C63.6536 14.4427 63.8125 14.9089 63.9219 15.4609C64.0312 16.013 64.0859 16.6615 64.0859 17.4062ZM62.6328 19.375V17.1641C62.6328 16.6536 62.6016 16.2057 62.5391 15.8203C62.4818 15.4297 62.3958 15.0964 62.2812 14.8203C62.1667 14.5443 62.0208 14.3203 61.8438 14.1484C61.6719 13.9766 61.4714 13.8516 61.2422 13.7734C61.0182 13.6901 60.7656 13.6484 60.4844 13.6484C60.1406 13.6484 59.8359 13.7135 59.5703 13.8438C59.3047 13.9688 59.0807 14.1693 58.8984 14.4453C58.7214 14.7214 58.5859 15.0833 58.4922 15.5312C58.3984 15.9792 58.3516 16.5234 58.3516 17.1641V19.375C58.3516 19.8854 58.3802 20.3359 58.4375 20.7266C58.5 21.1172 58.5911 21.4557 58.7109 21.7422C58.8307 22.0234 58.9766 22.2552 59.1484 22.4375C59.3203 22.6198 59.5182 22.7552 59.7422 22.8438C59.9714 22.9271 60.224 22.9688 60.5 22.9688C60.8542 22.9688 61.1641 22.901 61.4297 22.7656C61.6953 22.6302 61.9167 22.4193 62.0938 22.1328C62.276 21.8411 62.4115 21.4688 62.5 21.0156C62.5885 20.5573 62.6328 20.0104 62.6328 19.375ZM73.0859 17.4062V19.1406C73.0859 20.0729 73.0026 20.8594 72.8359 21.5C72.6693 22.1406 72.4297 22.6562 72.1172 23.0469C71.8047 23.4375 71.4271 23.7214 70.9844 23.8984C70.5469 24.0703 70.0521 24.1562 69.5 24.1562C69.0625 24.1562 68.6589 24.1016 68.2891 23.9922C67.9193 23.8828 67.5859 23.7083 67.2891 23.4688C66.9974 23.224 66.7474 22.9062 66.5391 22.5156C66.3307 22.125 66.1719 21.651 66.0625 21.0938C65.9531 20.5365 65.8984 19.8854 65.8984 19.1406V17.4062C65.8984 16.474 65.9818 15.6927 66.1484 15.0625C66.3203 14.4323 66.5625 13.9271 66.875 13.5469C67.1875 13.1615 67.5625 12.8854 68 12.7188C68.4427 12.5521 68.9375 12.4688 69.4844 12.4688C69.9271 12.4688 70.3333 12.5234 70.7031 12.6328C71.0781 12.737 71.4115 12.9062 71.7031 13.1406C71.9948 13.3698 72.2422 13.6771 72.4453 14.0625C72.6536 14.4427 72.8125 14.9089 72.9219 15.4609C73.0312 16.013 73.0859 16.6615 73.0859 17.4062ZM71.6328 19.375V17.1641C71.6328 16.6536 71.6016 16.2057 71.5391 15.8203C71.4818 15.4297 71.3958 15.0964 71.2812 14.8203C71.1667 14.5443 71.0208 14.3203 70.8438 14.1484C70.6719 13.9766 70.4714 13.8516 70.2422 13.7734C70.0182 13.6901 69.7656 13.6484 69.4844 13.6484C69.1406 13.6484 68.8359 13.7135 68.5703 13.8438C68.3047 13.9688 68.0807 14.1693 67.8984 14.4453C67.7214 14.7214 67.5859 15.0833 67.4922 15.5312C67.3984 15.9792 67.3516 16.5234 67.3516 17.1641V19.375C67.3516 19.8854 67.3802 20.3359 67.4375 20.7266C67.5 21.1172 67.5911 21.4557 67.7109 21.7422C67.8307 22.0234 67.9766 22.2552 68.1484 22.4375C68.3203 22.6198 68.5182 22.7552 68.7422 22.8438C68.9714 22.9271 69.224 22.9688 69.5 22.9688C69.8542 22.9688 70.1641 22.901 70.4297 22.7656C70.6953 22.6302 70.9167 22.4193 71.0938 22.1328C71.276 21.8411 71.4115 21.4688 71.5 21.0156C71.5885 20.5573 71.6328 20.0104 71.6328 19.375Z" fill="white"/>
<path d="M84.8379 16.7363C83.9473 16.7363 83.2383 17.1875 82.875 17.8965H82.8516V16.8359H81.627V25.0391H82.8926V21.9863H82.9219C83.2734 22.6719 83.9766 23.1055 84.8613 23.1055C86.4082 23.1055 87.4336 21.8691 87.4336 19.918C87.4336 17.9668 86.4023 16.7363 84.8379 16.7363ZM84.5039 22.0332C83.5312 22.0332 82.8867 21.2012 82.8867 19.918C82.8867 18.6465 83.5371 17.8027 84.5039 17.8027C85.5059 17.8027 86.1328 18.6289 86.1328 19.918C86.1328 21.2129 85.5059 22.0332 84.5039 22.0332ZM91.623 16.7363C90.7324 16.7363 90.0234 17.1875 89.6602 17.8965H89.6367V16.8359H88.4121V25.0391H89.6777V21.9863H89.707C90.0586 22.6719 90.7617 23.1055 91.6465 23.1055C93.1934 23.1055 94.2188 21.8691 94.2188 19.918C94.2188 17.9668 93.1875 16.7363 91.623 16.7363ZM91.2891 22.0332C90.3164 22.0332 89.6719 21.2012 89.6719 19.918C89.6719 18.6465 90.3223 17.8027 91.2891 17.8027C92.291 17.8027 92.918 18.6289 92.918 19.918C92.918 21.2129 92.291 22.0332 91.2891 22.0332ZM97.5117 23.1055C98.4082 23.1055 99.1113 22.6543 99.4746 21.9512H99.498V23H100.729V14.5449H99.457V17.8613H99.4336C99.0879 17.1816 98.3848 16.7363 97.5 16.7363C95.9531 16.7363 94.9219 17.9727 94.9219 19.918C94.9219 21.8633 95.9531 23.1055 97.5117 23.1055ZM97.8457 17.8027C98.8184 17.8027 99.4688 18.6406 99.4688 19.918C99.4688 21.207 98.8184 22.0332 97.8457 22.0332C96.8438 22.0332 96.2168 21.2188 96.2168 19.918C96.2168 18.623 96.8438 17.8027 97.8457 17.8027Z" fill="white"/>
<g clip-path="url(#clip1_1_2003)">
<path fill-rule="evenodd" clip-rule="evenodd" d="M131.366 14.0093C133.059 13.0095 134.42 12.4383 134.477 12.4144C134.711 12.3166 134.982 12.4015 135.119 12.6149C135.256 12.8288 135.219 13.1101 135.032 13.2818C134.947 13.3617 132.921 15.3103 134.235 18.6375C134.772 19.9996 135.366 22.0334 134.323 23.9638C133.408 25.6582 131.67 26.6257 129.89 26.6257C129.105 26.6257 128.312 26.4378 127.577 26.041C126.413 25.4121 125.568 24.3593 125.199 23.0764C124.83 21.7972 124.979 20.4422 125.617 19.2609C126.236 18.1147 127.262 16.9668 128.666 15.849C128.892 15.6694 129.221 15.7066 129.401 15.9325C129.581 16.1586 129.543 16.4876 129.317 16.6675C128.024 17.6969 127.089 18.7367 126.537 19.7581C126.03 20.697 125.912 21.7728 126.204 22.787C126.495 23.7978 127.159 24.6267 128.074 25.1209C129.967 26.1432 132.357 25.4013 133.402 23.4669C134.228 21.9377 133.761 20.2879 133.261 19.0216C132.441 16.9438 132.725 15.2999 133.206 14.1833C132.81 14.3902 132.366 14.6336 131.898 14.9099C131.65 15.0568 131.329 14.9744 131.182 14.7255C131.035 14.4769 131.118 14.1561 131.366 14.0093ZM136.418 18.7318C136.548 18.7839 139.599 20.0298 140.668 21.9488C141.364 23.1985 140.929 24.7729 139.698 25.4582C139.324 25.6668 138.899 25.7772 138.471 25.7772H138.471C137.533 25.7772 136.665 25.2622 136.204 24.4333C135.656 23.4518 135.937 22.4315 136.196 21.7495C136.716 20.3818 135.883 19.614 135.874 19.6065C135.685 19.4371 135.645 19.1562 135.779 18.9406C135.913 18.7248 136.183 18.6367 136.418 18.7318ZM138.471 24.7314C138.725 24.7314 138.967 24.6685 139.189 24.5445C139.916 24.1396 140.169 23.2034 139.754 22.4576C139.274 21.5958 138.233 20.8641 137.373 20.3718C137.457 20.8549 137.432 21.4422 137.173 22.1212C136.973 22.6484 136.786 23.3302 137.118 23.9244C137.395 24.4225 137.913 24.7314 138.471 24.7314Z" fill="white"/>
</g>
<path d="M151.555 17.6016H152.586C153.091 17.6016 153.508 17.5182 153.836 17.3516C154.169 17.1797 154.417 16.9479 154.578 16.6562C154.745 16.3594 154.828 16.026 154.828 15.6562C154.828 15.2188 154.755 14.8516 154.609 14.5547C154.464 14.2578 154.245 14.0339 153.953 13.8828C153.661 13.7318 153.292 13.6562 152.844 13.6562C152.438 13.6562 152.078 13.737 151.766 13.8984C151.458 14.0547 151.216 14.2786 151.039 14.5703C150.867 14.862 150.781 15.2057 150.781 15.6016H149.336C149.336 15.0234 149.482 14.4974 149.773 14.0234C150.065 13.5495 150.474 13.1719 151 12.8906C151.531 12.6094 152.146 12.4688 152.844 12.4688C153.531 12.4688 154.133 12.5911 154.648 12.8359C155.164 13.0755 155.565 13.4349 155.852 13.9141C156.138 14.388 156.281 14.9792 156.281 15.6875C156.281 15.974 156.214 16.2812 156.078 16.6094C155.948 16.9323 155.742 17.2344 155.461 17.5156C155.185 17.7969 154.826 18.0286 154.383 18.2109C153.94 18.388 153.409 18.4766 152.789 18.4766H151.555V17.6016ZM151.555 18.7891V17.9219H152.789C153.513 17.9219 154.112 18.0078 154.586 18.1797C155.06 18.3516 155.432 18.5807 155.703 18.8672C155.979 19.1536 156.172 19.4688 156.281 19.8125C156.396 20.151 156.453 20.4896 156.453 20.8281C156.453 21.3594 156.362 21.8307 156.18 22.2422C156.003 22.6536 155.75 23.0026 155.422 23.2891C155.099 23.5755 154.719 23.7917 154.281 23.9375C153.844 24.0833 153.367 24.1562 152.852 24.1562C152.357 24.1562 151.891 24.0859 151.453 23.9453C151.021 23.8047 150.638 23.6016 150.305 23.3359C149.971 23.0651 149.711 22.7344 149.523 22.3438C149.336 21.9479 149.242 21.4974 149.242 20.9922H150.688C150.688 21.388 150.773 21.7344 150.945 22.0312C151.122 22.3281 151.372 22.5599 151.695 22.7266C152.023 22.888 152.409 22.9688 152.852 22.9688C153.294 22.9688 153.674 22.8932 153.992 22.7422C154.315 22.5859 154.562 22.3516 154.734 22.0391C154.911 21.7266 155 21.3333 155 20.8594C155 20.3854 154.901 19.9974 154.703 19.6953C154.505 19.388 154.224 19.1615 153.859 19.0156C153.5 18.8646 153.076 18.7891 152.586 18.7891H151.555ZM160.273 18.5859L159.117 18.2891L159.688 12.625H165.523V13.9609H160.914L160.57 17.0547C160.779 16.9349 161.042 16.8229 161.359 16.7188C161.682 16.6146 162.052 16.5625 162.469 16.5625C162.995 16.5625 163.466 16.6536 163.883 16.8359C164.299 17.013 164.654 17.2682 164.945 17.6016C165.242 17.9349 165.469 18.3359 165.625 18.8047C165.781 19.2734 165.859 19.7969 165.859 20.375C165.859 20.9219 165.784 21.4245 165.633 21.8828C165.487 22.3411 165.266 22.7422 164.969 23.0859C164.672 23.4245 164.297 23.6875 163.844 23.875C163.396 24.0625 162.867 24.1562 162.258 24.1562C161.799 24.1562 161.365 24.0938 160.953 23.9688C160.547 23.8385 160.182 23.6432 159.859 23.3828C159.542 23.1172 159.281 22.7891 159.078 22.3984C158.88 22.0026 158.755 21.5391 158.703 21.0078H160.078C160.141 21.4349 160.266 21.7943 160.453 22.0859C160.641 22.3776 160.885 22.599 161.188 22.75C161.495 22.8958 161.852 22.9688 162.258 22.9688C162.602 22.9688 162.906 22.9089 163.172 22.7891C163.438 22.6693 163.661 22.4974 163.844 22.2734C164.026 22.0495 164.164 21.7786 164.258 21.4609C164.357 21.1432 164.406 20.7865 164.406 20.3906C164.406 20.0312 164.357 19.6979 164.258 19.3906C164.159 19.0833 164.01 18.8151 163.812 18.5859C163.62 18.3568 163.383 18.1797 163.102 18.0547C162.82 17.9245 162.497 17.8594 162.133 17.8594C161.648 17.8594 161.281 17.9245 161.031 18.0547C160.786 18.1849 160.534 18.362 160.273 18.5859ZM174.586 17.4062V19.1406C174.586 20.0729 174.503 20.8594 174.336 21.5C174.169 22.1406 173.93 22.6562 173.617 23.0469C173.305 23.4375 172.927 23.7214 172.484 23.8984C172.047 24.0703 171.552 24.1562 171 24.1562C170.562 24.1562 170.159 24.1016 169.789 23.9922C169.419 23.8828 169.086 23.7083 168.789 23.4688C168.497 23.224 168.247 22.9062 168.039 22.5156C167.831 22.125 167.672 21.651 167.562 21.0938C167.453 20.5365 167.398 19.8854 167.398 19.1406V17.4062C167.398 16.474 167.482 15.6927 167.648 15.0625C167.82 14.4323 168.062 13.9271 168.375 13.5469C168.688 13.1615 169.062 12.8854 169.5 12.7188C169.943 12.5521 170.438 12.4688 170.984 12.4688C171.427 12.4688 171.833 12.5234 172.203 12.6328C172.578 12.737 172.911 12.9062 173.203 13.1406C173.495 13.3698 173.742 13.6771 173.945 14.0625C174.154 14.4427 174.312 14.9089 174.422 15.4609C174.531 16.013 174.586 16.6615 174.586 17.4062ZM173.133 19.375V17.1641C173.133 16.6536 173.102 16.2057 173.039 15.8203C172.982 15.4297 172.896 15.0964 172.781 14.8203C172.667 14.5443 172.521 14.3203 172.344 14.1484C172.172 13.9766 171.971 13.8516 171.742 13.7734C171.518 13.6901 171.266 13.6484 170.984 13.6484C170.641 13.6484 170.336 13.7135 170.07 13.8438C169.805 13.9688 169.581 14.1693 169.398 14.4453C169.221 14.7214 169.086 15.0833 168.992 15.5312C168.898 15.9792 168.852 16.5234 168.852 17.1641V19.375C168.852 19.8854 168.88 20.3359 168.938 20.7266C169 21.1172 169.091 21.4557 169.211 21.7422C169.331 22.0234 169.477 22.2552 169.648 22.4375C169.82 22.6198 170.018 22.7552 170.242 22.8438C170.471 22.9271 170.724 22.9688 171 22.9688C171.354 22.9688 171.664 22.901 171.93 22.7656C172.195 22.6302 172.417 22.4193 172.594 22.1328C172.776 21.8411 172.911 21.4688 173 21.0156C173.089 20.5573 173.133 20.0104 173.133 19.375ZM183.586 17.4062V19.1406C183.586 20.0729 183.503 20.8594 183.336 21.5C183.169 22.1406 182.93 22.6562 182.617 23.0469C182.305 23.4375 181.927 23.7214 181.484 23.8984C181.047 24.0703 180.552 24.1562 180 24.1562C179.562 24.1562 179.159 24.1016 178.789 23.9922C178.419 23.8828 178.086 23.7083 177.789 23.4688C177.497 23.224 177.247 22.9062 177.039 22.5156C176.831 22.125 176.672 21.651 176.562 21.0938C176.453 20.5365 176.398 19.8854 176.398 19.1406V17.4062C176.398 16.474 176.482 15.6927 176.648 15.0625C176.82 14.4323 177.062 13.9271 177.375 13.5469C177.688 13.1615 178.062 12.8854 178.5 12.7188C178.943 12.5521 179.438 12.4688 179.984 12.4688C180.427 12.4688 180.833 12.5234 181.203 12.6328C181.578 12.737 181.911 12.9062 182.203 13.1406C182.495 13.3698 182.742 13.6771 182.945 14.0625C183.154 14.4427 183.312 14.9089 183.422 15.4609C183.531 16.013 183.586 16.6615 183.586 17.4062ZM182.133 19.375V17.1641C182.133 16.6536 182.102 16.2057 182.039 15.8203C181.982 15.4297 181.896 15.0964 181.781 14.8203C181.667 14.5443 181.521 14.3203 181.344 14.1484C181.172 13.9766 180.971 13.8516 180.742 13.7734C180.518 13.6901 180.266 13.6484 179.984 13.6484C179.641 13.6484 179.336 13.7135 179.07 13.8438C178.805 13.9688 178.581 14.1693 178.398 14.4453C178.221 14.7214 178.086 15.0833 177.992 15.5312C177.898 15.9792 177.852 16.5234 177.852 17.1641V19.375C177.852 19.8854 177.88 20.3359 177.938 20.7266C178 21.1172 178.091 21.4557 178.211 21.7422C178.331 22.0234 178.477 22.2552 178.648 22.4375C178.82 22.6198 179.018 22.7552 179.242 22.8438C179.471 22.9271 179.724 22.9688 180 22.9688C180.354 22.9688 180.664 22.901 180.93 22.7656C181.195 22.6302 181.417 22.4193 181.594 22.1328C181.776 21.8411 181.911 21.4688 182 21.0156C182.089 20.5573 182.133 20.0104 182.133 19.375ZM192.586 17.4062V19.1406C192.586 20.0729 192.503 20.8594 192.336 21.5C192.169 22.1406 191.93 22.6562 191.617 23.0469C191.305 23.4375 190.927 23.7214 190.484 23.8984C190.047 24.0703 189.552 24.1562 189 24.1562C188.562 24.1562 188.159 24.1016 187.789 23.9922C187.419 23.8828 187.086 23.7083 186.789 23.4688C186.497 23.224 186.247 22.9062 186.039 22.5156C185.831 22.125 185.672 21.651 185.562 21.0938C185.453 20.5365 185.398 19.8854 185.398 19.1406V17.4062C185.398 16.474 185.482 15.6927 185.648 15.0625C185.82 14.4323 186.062 13.9271 186.375 13.5469C186.688 13.1615 187.062 12.8854 187.5 12.7188C187.943 12.5521 188.438 12.4688 188.984 12.4688C189.427 12.4688 189.833 12.5234 190.203 12.6328C190.578 12.737 190.911 12.9062 191.203 13.1406C191.495 13.3698 191.742 13.6771 191.945 14.0625C192.154 14.4427 192.312 14.9089 192.422 15.4609C192.531 16.013 192.586 16.6615 192.586 17.4062ZM191.133 19.375V17.1641C191.133 16.6536 191.102 16.2057 191.039 15.8203C190.982 15.4297 190.896 15.0964 190.781 14.8203C190.667 14.5443 190.521 14.3203 190.344 14.1484C190.172 13.9766 189.971 13.8516 189.742 13.7734C189.518 13.6901 189.266 13.6484 188.984 13.6484C188.641 13.6484 188.336 13.7135 188.07 13.8438C187.805 13.9688 187.581 14.1693 187.398 14.4453C187.221 14.7214 187.086 15.0833 186.992 15.5312C186.898 15.9792 186.852 16.5234 186.852 17.1641V19.375C186.852 19.8854 186.88 20.3359 186.938 20.7266C187 21.1172 187.091 21.4557 187.211 21.7422C187.331 22.0234 187.477 22.2552 187.648 22.4375C187.82 22.6198 188.018 22.7552 188.242 22.8438C188.471 22.9271 188.724 22.9688 189 22.9688C189.354 22.9688 189.664 22.901 189.93 22.7656C190.195 22.6302 190.417 22.4193 190.594 22.1328C190.776 21.8411 190.911 21.4688 191 21.0156C191.089 20.5573 191.133 20.0104 191.133 19.375Z" fill="white"/>
<path d="M201.668 23H202.934V16.8359H201.668V23ZM202.301 15.9336C202.711 15.9336 203.039 15.6113 203.039 15.2129C203.039 14.8086 202.711 14.4863 202.301 14.4863C201.896 14.4863 201.568 14.8086 201.568 15.2129C201.568 15.6113 201.896 15.9336 202.301 15.9336ZM206.877 23.1172C208.641 23.1172 209.801 21.9043 209.801 19.918C209.801 17.9375 208.635 16.7246 206.877 16.7246C205.119 16.7246 203.953 17.9375 203.953 19.918C203.953 21.9043 205.113 23.1172 206.877 23.1172ZM206.877 22.0742C205.887 22.0742 205.242 21.2891 205.242 19.918C205.242 18.5527 205.887 17.7676 206.877 17.7676C207.867 17.7676 208.512 18.5527 208.512 19.918C208.512 21.2891 207.873 22.0742 206.877 22.0742ZM210.779 23H212.045V19.4082C212.045 18.4531 212.619 17.8203 213.51 17.8203C214.389 17.8203 214.822 18.3301 214.822 19.2559V23H216.094V19.0098C216.094 17.5977 215.314 16.7305 213.955 16.7305C213.006 16.7305 212.35 17.1641 212.016 17.8672H211.986V16.8359H210.779V23ZM217.207 18.582C217.207 19.4434 217.77 20.0234 218.883 20.293L219.984 20.5625C220.629 20.7266 220.863 20.9434 220.863 21.3359C220.863 21.834 220.395 22.1504 219.633 22.1504C218.859 22.1504 218.402 21.8223 218.303 21.2305H217.049C217.148 22.3613 218.115 23.1172 219.574 23.1172C221.086 23.1172 222.135 22.3438 222.135 21.2188C222.135 20.3105 221.666 19.8418 220.424 19.543L219.387 19.3027C218.748 19.1445 218.443 18.8867 218.443 18.5059C218.443 18.0195 218.9 17.6855 219.586 17.6855C220.295 17.6855 220.746 18.0312 220.805 18.5879H221.994C221.953 17.4922 220.992 16.7246 219.621 16.7246C218.18 16.7246 217.207 17.4805 217.207 18.582ZM223.617 24.8047L226.617 14.5449H225.492L222.492 24.8047H223.617ZM232.512 18.957C232.4 17.7441 231.434 16.7246 229.846 16.7246C228.094 16.7246 226.945 17.9609 226.945 19.918C226.945 21.9102 228.094 23.1172 229.857 23.1172C231.34 23.1172 232.389 22.2266 232.523 20.9141H231.305C231.158 21.6289 230.648 22.0566 229.869 22.0566C228.885 22.0566 228.234 21.2715 228.234 19.918C228.234 18.5938 228.879 17.7793 229.857 17.7793C230.684 17.7793 231.176 18.3008 231.305 18.957H232.512ZM233.42 23H234.686V19.1914C234.686 18.4004 235.219 17.8145 235.969 17.8145C236.684 17.8145 237.135 18.2656 237.135 18.9746V23H238.377V19.1504C238.377 18.3711 238.898 17.8145 239.648 17.8145C240.398 17.8145 240.826 18.2715 240.826 19.0684V23H242.098V18.7637C242.098 17.5391 241.301 16.7305 240.082 16.7305C239.203 16.7305 238.477 17.1875 238.16 17.9375H238.131C237.885 17.1699 237.264 16.7305 236.408 16.7305C235.576 16.7305 234.932 17.1875 234.656 17.873H234.627V16.8359H233.42V23ZM243.791 14.7734H244.283C244.658 14.7734 244.887 14.9551 244.887 15.2539C244.887 15.5293 244.646 15.7227 244.295 15.7227C243.932 15.7227 243.697 15.541 243.674 15.248H242.637C242.672 16.0566 243.322 16.5781 244.289 16.5781C245.32 16.5781 245.994 16.0918 245.994 15.3477C245.994 14.8086 245.619 14.4395 245.004 14.3809V14.3574C245.514 14.2637 245.848 13.9004 245.848 13.4199C245.848 12.7578 245.232 12.3184 244.312 12.3184C243.352 12.3184 242.719 12.8398 242.713 13.6309H243.697C243.709 13.3262 243.938 13.127 244.277 13.127C244.623 13.127 244.828 13.2969 244.828 13.5723C244.828 13.8477 244.617 14.0352 244.289 14.0352H243.791V14.7734Z" fill="white"/>
<path d="M285.202 20.1505C285.112 19.8938 284.83 19.7593 284.574 19.8493C284.317 19.9398 284.182 20.2211 284.273 20.4776C284.372 20.7602 284.422 21.0568 284.422 21.3593C284.422 22.8235 283.231 24.0145 281.767 24.0145H271.306C270.409 24.0145 269.679 23.2844 269.679 22.3868C269.679 21.5817 270.28 20.8896 271.078 20.7773C271.21 20.7589 271.328 20.688 271.406 20.5811C271.485 20.4742 271.517 20.3398 271.495 20.209C271.454 19.958 271.433 19.706 271.433 19.4596C271.433 16.9483 273.476 14.9052 275.987 14.9052C278.126 14.9052 279.951 16.3592 280.426 18.4413C280.456 18.5732 280.539 18.6867 280.656 18.7556C280.772 18.8245 280.911 18.842 281.041 18.8056C281.571 18.6545 282.139 18.674 282.65 18.8538C282.906 18.9442 283.188 18.8093 283.278 18.553C283.368 18.2963 283.234 18.015 282.977 17.9247C282.43 17.7316 281.837 17.6721 281.259 17.7546C280.528 15.4741 278.425 13.9199 275.987 13.9199C275.414 13.9199 274.86 14.0076 274.339 14.1702C273.486 13.4142 272.398 13 271.251 13C268.682 13 266.592 15.09 266.592 17.659C266.592 19.2925 267.434 20.7809 268.809 21.6265C268.735 21.8684 268.693 22.1236 268.693 22.387C268.693 23.8278 269.865 25 271.306 25H281.767C283.774 25 285.408 23.3669 285.408 21.3595C285.408 20.9453 285.338 20.5385 285.202 20.1505ZM267.578 17.659C267.578 15.6332 269.226 13.9853 271.251 13.9853C271.993 13.9853 272.702 14.207 273.305 14.6147C271.602 15.5611 270.447 17.3777 270.447 19.4598C270.447 19.6104 270.454 19.7625 270.466 19.9149C269.991 20.0769 269.581 20.3732 269.274 20.7538C268.22 20.0817 267.578 18.9259 267.578 17.659Z" fill="white"/>
<path d="M297.75 13.0625V24.5H296.305V14.8672L293.391 15.9297V14.625L297.523 13.0625H297.75ZM306.75 13.0625V24.5H305.305V14.8672L302.391 15.9297V14.625L306.523 13.0625H306.75ZM317.447 17.828C316.935 17.828 316.487 17.7267 316.103 17.524C315.73 17.3107 315.437 17.0227 315.223 16.66C315.01 16.2867 314.903 15.86 314.903 15.38C314.903 14.8893 315.005 14.4627 315.207 14.1C315.421 13.7267 315.714 13.4387 316.087 13.236C316.471 13.0227 316.925 12.916 317.447 12.916C317.949 12.916 318.391 13.0227 318.775 13.236C319.159 13.4387 319.458 13.7267 319.671 14.1C319.885 14.4627 319.991 14.8893 319.991 15.38C319.991 15.86 319.885 16.2867 319.671 16.66C319.458 17.0227 319.159 17.3107 318.775 17.524C318.391 17.7267 317.949 17.828 317.447 17.828ZM317.463 16.884C317.975 16.884 318.349 16.7453 318.583 16.468C318.829 16.1907 318.951 15.828 318.951 15.38C318.951 15.0707 318.893 14.804 318.775 14.58C318.669 14.3453 318.503 14.164 318.279 14.036C318.066 13.908 317.794 13.844 317.463 13.844C316.941 13.844 316.557 13.9827 316.311 14.26C316.066 14.5373 315.943 14.9107 315.943 15.38C315.943 15.828 316.066 16.1907 316.311 16.468C316.557 16.7453 316.941 16.884 317.463 16.884ZM326.391 14.18C325.783 14.18 325.234 14.2867 324.743 14.5C324.253 14.7027 323.837 15.0067 323.495 15.412C323.154 15.8067 322.893 16.292 322.711 16.868C322.53 17.4333 322.439 18.0733 322.439 18.788C322.439 19.7267 322.583 20.5427 322.871 21.236C323.17 21.9293 323.607 22.4627 324.183 22.836C324.77 23.2093 325.501 23.396 326.375 23.396C326.877 23.396 327.351 23.3533 327.799 23.268C328.247 23.1827 328.685 23.076 329.111 22.948V24.196C328.685 24.356 328.242 24.4733 327.783 24.548C327.335 24.6227 326.797 24.66 326.167 24.66C325.005 24.66 324.034 24.42 323.255 23.94C322.477 23.46 321.89 22.7773 321.495 21.892C321.111 21.0067 320.919 19.9667 320.919 18.772C320.919 17.908 321.037 17.1187 321.271 16.404C321.517 15.6893 321.869 15.0707 322.327 14.548C322.797 14.0253 323.373 13.6253 324.055 13.348C324.738 13.06 325.522 12.916 326.407 12.916C326.994 12.916 327.559 12.9747 328.103 13.092C328.647 13.2093 329.133 13.3747 329.559 13.588L328.983 14.804C328.631 14.644 328.237 14.5 327.799 14.372C327.373 14.244 326.903 14.18 326.391 14.18Z" fill="white"/>
<defs>
<clipPath id="clip0_1_2003">
<rect width="16" height="16" fill="white" transform="translate(6 11)"/>
</clipPath>
<clipPath id="clip1_1_2003">
<rect width="16" height="16" fill="white" transform="translate(125 11)"/>
</clipPath>
</defs>
</svg>
