<svg width="20" height="20" viewBox="0 0 20 20" fill="none" xmlns="http://www.w3.org/2000/svg">
<g clip-path="url(#clip0_1_23108)">
<path fill-rule="evenodd" clip-rule="evenodd" d="M14.0963 11.469V3.81606C14.0963 1.71189 12.3844 0 10.2802 0H9.68452C7.58036 0 5.86846 1.7117 5.86846 3.81606V11.469C5.86846 13.4764 7.42723 15.1228 9.39718 15.2708V19.4148C9.39718 19.738 9.65916 20 9.98238 20C10.3056 20 10.5676 19.738 10.5676 19.4148V15.2708C12.5375 15.123 14.0963 13.4764 14.0963 11.469ZM12.9259 11.469C12.9259 12.8308 11.8915 13.9549 10.5674 14.0985V12.9708C10.5674 12.6476 10.3054 12.3856 9.98218 12.3856C9.65895 12.3856 9.39698 12.6476 9.39698 12.9708V14.0985C8.07308 13.9547 7.03866 12.8308 7.03866 11.469V3.81606C7.03866 2.35717 8.22562 1.17039 9.68432 1.17039H10.28C11.7389 1.17039 12.9257 2.35717 12.9257 3.81606V11.469H12.9259ZM5.91081 14.0925C5.79747 14.1071 5.68199 14.1145 5.56749 14.1147V12.9707C5.56749 12.6474 5.30552 12.3855 4.9823 12.3855C4.65907 12.3855 4.3971 12.6474 4.3971 12.9707V14.0505C3.21286 13.788 2.32375 12.7309 2.32375 11.4689V8.53059C2.32375 7.16787 3.34453 6.0361 4.69847 5.89839C5.01994 5.86581 5.25422 5.57848 5.22145 5.25701C5.18868 4.93574 4.90329 4.70186 4.58007 4.73405C2.62649 4.93282 1.15356 6.56492 1.15356 8.53059V11.4689C1.15356 13.3781 2.56427 14.9597 4.39729 15.2373V19.4146C4.39729 19.7378 4.65926 19.9998 4.98249 19.9998C5.30571 19.9998 5.56768 19.7378 5.56768 19.4146V15.2851C5.73251 15.2849 5.89851 15.274 6.06178 15.2529C6.38247 15.2114 6.60836 14.9176 6.56661 14.5973C6.52467 14.2766 6.23032 14.0499 5.91081 14.0925ZM14.7785 5.25721C14.8112 4.93555 15.0974 4.70089 15.4199 4.73424C17.3734 4.93301 18.8464 6.56512 18.8466 8.53079V11.4691C18.8466 13.3783 17.4356 14.9599 15.6028 15.2375V19.4148C15.6028 19.738 15.3408 20 15.0176 20C14.6944 20 14.4324 19.738 14.4324 19.4148V15.2853C14.2682 15.2851 14.1022 15.2742 13.9389 15.2531C13.6182 15.2116 13.3923 14.918 13.4341 14.5975C13.4756 14.277 13.7702 14.0505 14.0897 14.0927C14.203 14.1073 14.3183 14.1147 14.4324 14.1149V12.9709C14.4324 12.6476 14.6944 12.3857 15.0176 12.3857C15.3408 12.3857 15.6028 12.6476 15.6028 12.9709V14.0507C16.7871 13.7884 17.6762 12.7313 17.6762 11.4691V8.53079C17.6762 7.16806 16.6552 6.0363 15.3014 5.89858C14.9798 5.86601 14.7457 5.57887 14.7785 5.25721Z" fill="#548B6C"/>
</g>
<defs>
<clipPath id="clip0_1_23108">
<rect width="20" height="20" fill="white"/>
</clipPath>
</defs>
</svg>
