<svg width="16" height="17" viewBox="0 0 16 17" fill="none" xmlns="http://www.w3.org/2000/svg">
<g clip-path="url(#clip0_273_6943)">
<path d="M15.546 11.5352H14.7918V11.4992C14.7918 11.235 14.5777 11.0209 14.3136 11.0209C14.0494 11.0209 13.8353 11.235 13.8353 11.4992V11.5352H13.0811C12.8169 11.5352 12.6028 11.7493 12.6028 12.0135C12.6028 12.2776 12.8169 12.4918 13.0811 12.4918H15.546C15.8102 12.4918 16.0243 12.2776 16.0243 12.0135C16.0243 11.7493 15.8102 11.5352 15.546 11.5352Z" fill="#6F6F6F" stroke="#6F6F6F" stroke-width="0.05"/>
<path d="M13.0811 4.43154H13.8353V4.85135C13.8353 5.11551 14.0494 5.32962 14.3136 5.32962C14.5777 5.32962 14.7918 5.11551 14.7918 4.85135V4.43154H15.546C15.8102 4.43154 16.0243 4.21743 16.0243 3.95327C16.0243 3.68911 15.8102 3.475 15.546 3.475H13.0811C12.8169 3.475 12.6028 3.68911 12.6028 3.95327C12.6028 4.21743 12.8168 4.43154 13.0811 4.43154Z" fill="#6F6F6F" stroke="#6F6F6F" stroke-width="0.05"/>
<path d="M14.7917 6.66421C14.7917 6.40004 14.5776 6.18594 14.3134 6.18594C14.0493 6.18594 13.8352 6.40004 13.8352 6.66421V7.26857C13.8352 7.53273 14.0493 7.74684 14.3134 7.74684C14.5776 7.74684 14.7917 7.53273 14.7917 7.26857V6.66421Z" fill="#6F6F6F" stroke="#6F6F6F" stroke-width="0.05"/>
<path d="M14.3134 8.60391C14.0493 8.60391 13.8352 8.81801 13.8352 9.08218V9.68654C13.8352 9.9507 14.0493 10.1648 14.3134 10.1648C14.5776 10.1648 14.7917 9.9507 14.7917 9.68654V9.08218C14.7917 8.81786 14.5776 8.60391 14.3134 8.60391Z" fill="#6F6F6F" stroke="#6F6F6F" stroke-width="0.05"/>
<path d="M11.5115 11.6186L11.5116 11.6185C11.5323 11.5979 11.5669 11.553 11.5669 11.4847C11.5669 11.452 11.5591 11.4214 11.5437 11.3938L11.5655 11.3816M11.5115 11.6186L11.7544 9.89293C11.6293 9.67612 11.3525 9.60163 11.1352 9.72703C10.9184 9.85214 10.844 10.1294 10.9693 10.3462L10.9477 10.3587L10.9477 10.3587L11.5294 11.3665C11.5339 11.3759 11.5387 11.3851 11.5438 11.394L11.5655 11.3816M11.5115 11.6186C11.491 11.6393 11.4462 11.6738 11.3777 11.6738H11.3775H1.13288L1.11977 11.6741C1.01553 11.6714 0.931541 11.5858 0.931541 11.481C0.931541 11.448 0.939609 11.4163 0.958711 11.3813C0.958755 11.3812 0.9588 11.3812 0.958844 11.3811L4.89019 4.57136L7.04966 8.30997C7.18774 8.57997 7.46946 8.75317 7.77404 8.75317C8.07863 8.75317 8.3605 8.57997 8.49874 8.30982L9.13116 7.21216L9.94154 8.61543C10.0737 8.84431 10.3658 8.92311 10.5949 8.79045C10.8236 8.65844 10.9021 8.36591 10.7699 8.13715L9.84892 6.54219L11.5115 11.6186ZM11.5655 11.3816C11.5605 11.3729 11.5558 11.3639 11.5516 11.3549L11.5292 11.6362C11.5527 11.6129 11.5919 11.562 11.5919 11.4847C11.5919 11.4478 11.583 11.413 11.5655 11.3816ZM12.3747 10.9173L11.776 9.88044L12.376 10.9753C12.3693 10.9598 12.3617 10.9447 12.3531 10.93L12.3748 10.9175L12.3748 10.9175C12.3747 10.9174 12.3747 10.9174 12.3747 10.9173ZM1.12442 12.6306L1.13953 12.6303L5.56919 3.88679C5.42822 3.64988 5.1691 3.5 4.89034 3.5C4.61218 3.5 4.35291 3.64958 4.21179 3.88634L4.19119 3.87218C4.19104 3.8724 4.19088 3.87263 4.19073 3.87285C4.18386 3.88288 4.17732 3.89333 4.17125 3.90391C4.17124 3.90393 4.17123 3.90395 4.17122 3.90397L0.125211 10.9121L0.125203 10.9121L0.12487 10.9127L0.118931 10.9237C0.11891 10.9237 0.118889 10.9237 0.118869 10.9238C0.0248628 11.0941 -0.025 11.2868 -0.025 11.481C-0.025 12.1149 0.490683 12.6306 1.12442 12.6306ZM5.60929 3.90363C5.60342 3.89343 5.59702 3.88311 5.59023 3.87327L9.84886 6.54209C9.84864 6.5417 9.8484 6.54128 9.84815 6.54083C9.84679 6.53843 9.84494 6.53516 9.84288 6.53199C9.70044 6.27558 9.42616 6.11228 9.13099 6.11228C8.8318 6.11228 8.55436 6.27959 8.41369 6.54185L8.4131 6.54287L8.41297 6.54309L8.41006 6.54154V6.54814L7.77417 7.65179L5.60929 3.90363Z" fill="#6F6F6F" stroke="#6F6F6F" stroke-width="0.05"/>
</g>
<defs>
<clipPath id="clip0_273_6943">
<rect width="16" height="16" fill="white" transform="translate(0 0.5)"/>
</clipPath>
</defs>
</svg>
