<svg width="30" height="30" viewBox="0 0 30 30" fill="none" xmlns="http://www.w3.org/2000/svg">
<path fill-rule="evenodd" clip-rule="evenodd" d="M22.4986 25.9095L23.1337 28.0322C23.1552 28.0824 23.1716 28.1356 23.1819 28.1909C23.2007 28.2883 23.2102 28.3876 23.2102 28.4855C23.2102 29.3196 22.532 29.9979 21.6981 29.9979H1.5251C0.678793 29.9979 0 29.3194 0 28.4855C0 28.4527 0.00132318 28.4196 0.00344028 28.3862C-0.00317564 28.2987 0.00476346 28.2095 0.0293747 28.1216L7.57231 1.10909C7.57813 1.08342 7.58528 1.05802 7.59375 1.03261C7.59472 1.02984 7.59567 1.02709 7.59662 1.02435C7.59903 1.01741 7.60141 1.01052 7.60407 1.0035C7.82689 0.403041 8.40539 0 9.04581 0C9.66691 0 10.2229 0.369697 10.4621 0.941577C10.4928 1.01515 10.5116 1.09083 10.5196 1.16705L16.0542 21.4414L17.1633 17.7354C17.1831 17.669 17.2114 17.606 17.2472 17.5481C17.4983 17.0347 18.0265 16.6994 18.6077 16.6994C19.1573 16.6994 19.6559 16.9939 19.9221 17.4631C19.9748 17.5338 20.0158 17.6142 20.0423 17.7023L21.1691 21.4673C21.2948 21.8873 21.0561 22.3298 20.6361 22.4555C20.2153 22.5814 19.7736 22.3425 19.6479 21.9225L18.6079 18.4476L17.5086 22.1202C17.4914 22.1776 17.4681 22.2321 17.439 22.2835C17.2022 22.8278 16.6544 23.1949 16.0515 23.1949C15.4453 23.1949 14.8959 22.8249 14.6603 22.2766C14.6299 22.2223 14.6058 22.1641 14.5892 22.1027L9.0376 1.76724L1.60026 28.4L1.59946 28.4103H21.5896L20.9775 26.3647C20.8518 25.9444 21.0905 25.5022 21.5105 25.3765C21.9307 25.2508 22.3729 25.4895 22.4986 25.9095ZM26.8664 1.58808H26.212C25.7735 1.58808 25.4181 1.23267 25.4181 0.794168C25.4181 0.355665 25.7735 0.000258434 26.212 0.000258434H29.2061C29.6446 0.000258434 30 0.355665 30 0.794168C30 1.23267 29.6446 1.58808 29.2061 1.58808H28.4543V2.19992C28.4543 2.63842 28.0989 2.99383 27.6603 2.99383C27.2218 2.99383 26.8664 2.63842 26.8664 2.19992V1.58808ZM28.454 28.4102H29.1682C29.6068 28.4102 29.9622 28.7656 29.9622 29.2041C29.9622 29.6426 29.6068 29.998 29.1682 29.998H26.1731C25.7346 29.998 25.3792 29.6426 25.3792 29.2041C25.3792 28.7656 25.7346 28.4102 26.1731 28.4102H26.8662V27.8695C26.8662 27.431 27.2216 27.0756 27.6601 27.0756C28.0986 27.0756 28.454 27.431 28.454 27.8695V28.4102ZM28.4543 18.8719C28.4543 18.4334 28.0989 18.078 27.6603 18.078C27.2218 18.078 26.8664 18.4334 26.8664 18.8719V20.1951C26.8664 20.6336 27.2218 20.989 27.6603 20.989C28.0989 20.989 28.4543 20.6336 28.4543 20.1951V18.8719ZM27.6603 13.5792C28.0989 13.5792 28.4543 13.9346 28.4543 14.3731V15.6963C28.4543 16.1348 28.0989 16.4902 27.6603 16.4902C27.2218 16.4902 26.8664 16.1348 26.8664 15.6963V14.3731C26.8664 13.9346 27.2218 13.5792 27.6603 13.5792ZM27.6603 22.5768C27.2218 22.5768 26.8664 22.9322 26.8664 23.3707V24.6939C26.8664 25.1324 27.2218 25.4878 27.6603 25.4878C28.0989 25.4878 28.4543 25.1324 28.4543 24.6939V23.3707C28.4543 22.9322 28.0986 22.5768 27.6603 22.5768ZM27.6603 4.58152C28.0989 4.58152 28.4543 4.93693 28.4543 5.37543V6.69861C28.4543 7.13712 28.0989 7.49252 27.6603 7.49252C27.2218 7.49252 26.8664 7.13712 26.8664 6.69861V5.37543C26.8664 4.93693 27.2218 4.58152 27.6603 4.58152ZM28.4543 9.87425C28.4543 9.43575 28.0989 9.08034 27.6603 9.08034C27.2218 9.08034 26.8664 9.43575 26.8664 9.87425V11.1974C26.8664 11.6359 27.2218 11.9913 27.6603 11.9913C28.0989 11.9913 28.4543 11.6359 28.4543 11.1974V9.87425Z" fill="#6F6F6F"/>
</svg>
