<svg width="20" height="20" viewBox="0 0 20 20" fill="none" xmlns="http://www.w3.org/2000/svg">
<path d="M10 14.0596C10.2075 14.0596 10.3984 13.9766 10.5479 13.8188L16.9893 7.24463C17.1304 7.09521 17.2051 6.9126 17.2051 6.69678C17.2051 6.27344 16.8813 5.94141 16.4497 5.94141C16.2422 5.94141 16.0513 6.02441 15.9102 6.15723L10 12.2002L4.08984 6.15723C3.94873 6.02441 3.76611 5.94141 3.55029 5.94141C3.11865 5.94141 2.79492 6.27344 2.79492 6.69678C2.79492 6.9126 2.86963 7.09521 3.01904 7.24463L9.45215 13.8188C9.60986 13.9766 9.79248 14.0596 10 14.0596Z" fill="#5FC080"/>
</svg>
