<svg width="20" height="20" viewBox="0 0 20 20" fill="none" xmlns="http://www.w3.org/2000/svg">
<path d="M17.025 4.91998L10 12.1029L2.97497 4.91998L2.96773 4.91258L2.96019 4.90548C2.69904 4.6597 2.35091 4.5 1.94355 4.5C1.12463 4.5 0.5 5.14222 0.5 5.94355C0.5 6.34157 0.643059 6.69703 0.924295 6.97933C0.924995 6.98003 0.925697 6.98073 0.926399 6.98143L8.9583 15.1896L8.95828 15.1896L8.96211 15.1934C9.24003 15.4713 9.59104 15.6406 10 15.6406C10.3999 15.6406 10.7669 15.478 11.0441 15.1871L19.0876 6.97781L19.0876 6.97787L19.0939 6.97119C19.3578 6.69181 19.5 6.34089 19.5 5.94355C19.5 5.14222 18.8754 4.5 18.0565 4.5C17.6623 4.5 17.3031 4.65766 17.0398 4.90549L17.0323 4.91258L17.025 4.91998Z" fill="#C3C3C3" stroke="#C3C3C3"/>
</svg>
