<svg width="16" height="17" viewBox="0 0 16 17" fill="none" xmlns="http://www.w3.org/2000/svg">
<g clip-path="url(#clip0_414_8860)">
<path d="M2.81841 6.92001L9.31293 4.19033C9.5666 4.08375 9.68582 3.79172 9.57922 3.53819L9.53313 3.55757L9.57922 3.53818C9.47247 3.28433 9.17998 3.16564 8.92709 3.2719L8.92709 3.27191L1.25515 6.49649L1.25514 6.49649L1.27451 6.54259M2.81841 6.92001L6.62522 9.37358C6.5945 9.34301 6.55739 9.32119 6.51518 9.30949L6.51454 9.30931C6.50349 9.30608 6.49153 9.30245 6.4797 9.29816M2.81841 6.92001L6.80221 8.35558C7.00054 8.41434 7.18248 8.52245 7.32959 8.6691L7.32972 8.66923C7.47691 8.81704 7.58504 8.99866 7.64382 9.19658L9.07968 13.1816L2.81841 6.92001ZM1.27451 6.54259C1.10425 6.61413 0.995372 6.7829 1.00015 6.96736C1.00493 7.15181 1.12247 7.31461 1.29617 7.37719L6.49674 9.25115M1.27451 6.54259L8.94647 3.318L1.27451 6.54259ZM6.49674 9.25115L6.4797 9.29816M6.49674 9.25115C6.50704 9.25489 6.51779 9.25817 6.52854 9.26131L6.4797 9.29816M6.49674 9.25115L6.47979 9.29819L6.4797 9.29816M11.2876 2.33404L11.2682 2.28795L11.2682 2.28795L14.3585 0.98904L11.6347 3.16028C11.4073 3.25602 11.1441 3.14908 11.048 2.92071C10.9522 2.69265 11.0594 2.42993 11.2876 2.33404ZM11.2876 2.33404L14.3779 1.0351L11.2876 2.33404ZM6.78663 8.40311C6.97751 8.45942 7.1527 8.56337 7.29429 8.70451C7.43603 8.84685 7.53999 9.02174 7.59629 9.21217L6.78663 8.40311Z" fill="#6F6F6F" stroke="#6F6F6F" stroke-width="0.1"/>
</g>
<defs>
<clipPath id="clip0_414_8860">
<rect width="16" height="16" fill="white" transform="translate(0 0.5)"/>
</clipPath>
</defs>
</svg>
