<svg width="44" height="44" viewBox="0 0 44 44" fill="none" xmlns="http://www.w3.org/2000/svg">
<g clip-path="url(#clip0_135_6978)">
<path fill-rule="evenodd" clip-rule="evenodd" d="M9.9591 15.9015H24.854C25.3791 15.9015 25.8047 15.4759 25.8047 14.9507C25.8047 14.4256 25.3791 14 24.854 14H9.9591C9.43398 14 9.00837 14.4256 9.00837 14.9507C9.00837 15.4759 9.43398 15.9015 9.9591 15.9015ZM9.9591 24.9301H19.7403C20.2654 24.9301 20.691 24.5045 20.691 23.9794C20.691 23.4543 20.2654 23.0287 19.7403 23.0287H9.9591C9.43398 23.0287 9.00837 23.4543 9.00837 23.9794C9.00837 24.5045 9.43398 24.9301 9.9591 24.9301ZM37.1464 14C37.553 14 37.9145 14.2583 38.0461 14.643C38.15 14.9479 40.5595 22.1678 37.2579 27.445C35.4918 30.2677 32.4589 31.9638 28.244 32.4858C28.204 32.4906 28.1648 32.4928 28.1258 32.4928C27.6526 32.4928 27.2429 32.1404 27.1833 31.659C27.1186 31.1377 27.4888 30.6629 28.0098 30.5983C31.6289 30.1502 34.1981 28.7497 35.6458 26.436C37.9491 22.7547 36.9128 17.6955 36.4377 15.9123C32.1933 16.039 29.0039 17.3209 26.951 19.7272C24.1929 22.9597 24.1603 27.4494 24.2839 29.2945C25.9822 27.6779 27.9584 25.1518 31.0113 21.1993C31.3323 20.7841 31.9293 20.7071 32.3448 21.0282C32.7603 21.3492 32.837 21.9459 32.5159 22.3617C24.3685 32.9105 23.1949 34 15.1885 34C14.6098 34 13.9953 33.9943 13.3396 33.9861L13.2932 33.9855C12.3047 33.9733 11.1872 33.9594 9.9591 33.9594C9.43398 33.9594 9.00837 33.5338 9.00837 33.0087C9.00837 32.4836 9.43398 32.058 9.9591 32.058C11.2182 32.058 12.3578 32.0722 13.3634 32.0849C17.9865 32.141 20.2749 32.1654 22.5668 30.6791C22.5329 30.6043 22.5047 30.5257 22.4908 30.4404C22.4442 30.1524 21.3927 23.3258 25.4945 18.5049C28.0377 15.5155 31.9579 14 37.1464 14Z" fill="white"/>
</g>
<defs>
<clipPath id="clip0_135_6978">
<rect width="44" height="44" fill="white"/>
</clipPath>
</defs>
</svg>
