<svg width="44" height="44" viewBox="0 0 44 44" fill="none" xmlns="http://www.w3.org/2000/svg">
<g style="mix-blend-mode:multiply" clip-path="url(#clip0_3_13760)">
<path fill-rule="evenodd" clip-rule="evenodd" d="M9.95904 15.9015H24.8539C25.379 15.9015 25.8046 15.4759 25.8046 14.9507C25.8046 14.4256 25.379 14 24.8539 14H9.95904C9.43391 14 9.0083 14.4256 9.0083 14.9507C9.0083 15.4759 9.43391 15.9015 9.95904 15.9015ZM9.95904 24.9301H19.7402C20.2653 24.9301 20.6909 24.5045 20.6909 23.9794C20.6909 23.4543 20.2653 23.0287 19.7402 23.0287H9.95904C9.43391 23.0287 9.0083 23.4543 9.0083 23.9794C9.0083 24.5045 9.43391 24.9301 9.95904 24.9301ZM37.1463 14C37.5529 14 37.9145 14.2583 38.046 14.643C38.1499 14.9479 40.5594 22.1678 37.2578 27.445C35.4917 30.2677 32.4588 31.9638 28.2439 32.4858C28.204 32.4906 28.1647 32.4928 28.1257 32.4928C27.6526 32.4928 27.2428 32.1404 27.1832 31.659C27.1186 31.1377 27.4887 30.6629 28.0097 30.5983C31.6288 30.1502 34.1981 28.7497 35.6457 26.436C37.949 22.7547 36.9127 17.6955 36.4377 15.9123C32.1933 16.039 29.0039 17.3209 26.9509 19.7272C24.1928 22.9597 24.1602 27.4494 24.2838 29.2945C25.9821 27.6779 27.9584 25.1518 31.0112 21.1993C31.3322 20.7841 31.9293 20.7071 32.3448 21.0282C32.7602 21.3492 32.8369 21.9459 32.5159 22.3617C24.3684 32.9105 23.1949 34 15.1884 34C14.6097 34 13.9952 33.9943 13.3396 33.9861L13.2931 33.9855C12.3046 33.9733 11.1871 33.9594 9.95904 33.9594C9.43391 33.9594 9.0083 33.5338 9.0083 33.0087C9.0083 32.4836 9.43391 32.058 9.95904 32.058C11.2181 32.058 12.3577 32.0722 13.3633 32.0849C17.9864 32.141 20.2748 32.1654 22.5668 30.6791C22.5328 30.6043 22.5046 30.5257 22.4907 30.4404C22.4441 30.1524 21.3926 23.3258 25.4944 18.5049C28.0376 15.5155 31.9578 14 37.1463 14Z" fill="#548B6C"/>
</g>
<defs>
<clipPath id="clip0_3_13760">
<rect width="44" height="44" fill="white"/>
</clipPath>
</defs>
</svg>
