<svg width="44" height="44" viewBox="0 0 44 44" fill="none" xmlns="http://www.w3.org/2000/svg">
<path fill-rule="evenodd" clip-rule="evenodd" d="M34.7833 13.0515C34.7833 14.7287 34.272 16.33 33.3233 17.6761C36.8567 19.1583 39.0003 21.7272 39 24.5801C39 27.7914 36.3037 30.6263 31.9628 31.9787C31.8749 32.0063 31.7847 32.0195 31.695 32.0195C31.5012 32.0195 31.3096 31.9568 31.1512 31.8365C30.9197 31.6608 30.7871 31.384 30.7958 31.0933C30.7973 31.0384 30.8018 30.9842 30.8069 30.9299L30.8111 30.8795C30.8111 28.1184 29.2785 25.5951 26.4961 23.7781C26.1481 23.5508 26.0012 23.1153 26.14 22.7236C26.506 21.6927 26.6916 20.6073 26.6916 19.4976C26.6916 15.4042 24.0813 11.7568 20.1961 10.4215C19.9439 10.3351 19.7432 10.141 19.6481 9.89211C19.5527 9.64317 19.5728 9.36483 19.7027 9.13209C21.125 6.58331 23.8186 5 26.7324 5C27.682 5 28.6132 5.16406 29.5004 5.48768C29.9674 5.65804 30.2076 6.17451 30.0373 6.6415C29.8669 7.10819 29.3502 7.34843 28.8835 7.17837C28.1945 6.92703 27.4708 6.79956 26.7324 6.79956C24.8189 6.79956 23.0274 7.67955 21.852 9.14919C25.8656 10.9976 28.4909 15.0233 28.4909 19.4979C28.4909 20.5779 28.3421 21.6396 28.0482 22.6633C30.638 24.5441 32.2328 27.0989 32.5516 29.8552C35.4114 28.6705 37.2007 26.6763 37.2007 24.5807C37.2007 22.2548 34.9792 20.0392 31.5414 18.9358C31.2436 18.8401 31.0168 18.5969 30.9425 18.2931C30.8678 17.9895 30.9566 17.6689 31.1764 17.4464C32.3419 16.2676 32.9838 14.7071 32.9838 13.0524C32.9832 12.015 32.724 10.988 32.2346 10.0829C31.9982 9.64557 32.1608 9.0997 32.5981 8.86336C33.0354 8.62731 33.5812 8.78957 33.8176 9.22687C34.4483 10.3933 34.7824 11.716 34.7833 13.0515ZM25.051 19.4973C25.051 21.1685 24.5399 22.7611 23.5913 24.0973C27.0647 25.5534 29.1705 28.0758 29.1708 30.8822C29.1708 35.388 23.8627 38.9176 17.0864 38.9176C10.309 38.9176 5 35.388 5 30.8822C5 28.0761 7.10519 25.5534 10.5777 24.0973C9.63087 22.7617 9.12069 21.1691 9.12069 19.4973C9.12069 15.107 12.694 11.5352 17.0864 11.5352C21.478 11.5352 25.051 15.107 25.051 19.4973ZM6.79956 30.8819C6.79956 34.2621 11.5102 37.1177 17.0864 37.1177C22.6612 37.1177 27.3709 34.2621 27.3709 30.8822C27.3709 28.6022 25.186 26.4334 21.8043 25.3561C21.505 25.261 21.277 25.0166 21.2029 24.7112C21.1289 24.4062 21.2191 24.0844 21.4414 23.8624C22.6084 22.6963 23.2514 21.146 23.2514 19.497C23.2514 16.0988 20.4858 13.3344 17.0864 13.3344C13.6865 13.3344 10.9203 16.0988 10.9203 19.497C10.9203 21.1469 11.5618 22.6975 12.727 23.8627C12.949 24.0847 13.0395 24.4065 12.9652 24.7115C12.8911 25.0166 12.6634 25.261 12.3641 25.3564C8.98393 26.4334 6.79956 28.6022 6.79956 30.8819Z" fill="black"/>
</svg>
