<svg width="44" height="44" viewBox="0 0 44 44" fill="none" xmlns="http://www.w3.org/2000/svg">
<g clip-path="url(#clip0_1_22792)">
<path fill-rule="evenodd" clip-rule="evenodd" d="M5 22.0012C5 12.6267 12.6255 5 21.9988 5C31.3736 5 39.0003 12.6267 39 22.0012C39 25.5635 37.9092 28.9748 35.8457 31.8661C35.5572 32.2696 34.9958 32.364 34.592 32.0752C34.1881 31.787 34.0944 31.2256 34.3826 30.8215C36.2274 28.2367 37.2025 25.1869 37.2025 22.0012C37.2025 13.618 30.382 6.79748 21.9985 6.79748C13.6165 6.79748 6.79718 13.618 6.79718 22.0012C6.79718 30.3832 13.6165 37.2028 21.9985 37.2028C25.1878 37.2028 28.2385 36.2283 30.8215 34.3844C31.2256 34.0959 31.7867 34.1893 32.0752 34.5935C32.3637 34.9976 32.2702 35.5587 31.8661 35.8472C28.9766 37.9098 25.5647 39.0003 21.9988 39.0003C12.6255 39.0003 5 31.3745 5 22.0012ZM30.8754 11.9286L18.3544 17.9322C18.1699 18.0206 18.021 18.1695 17.9326 18.3537L11.9263 30.8747C11.7615 31.2186 11.8316 31.6293 12.1013 31.8989C12.2735 32.0715 12.5036 32.1623 12.737 32.1623C12.8685 32.1623 13.0012 32.1332 13.1252 32.0739L25.6453 26.0679C25.8298 25.9792 25.9784 25.8306 26.0668 25.6464L32.074 13.1278C32.2391 12.7842 32.169 12.3732 31.8993 12.1036C31.6297 11.8333 31.219 11.7635 30.8754 11.9286ZM24.583 24.5838L14.6525 29.3477L19.4161 19.4163L29.3475 14.6542L24.583 24.5838ZM22.0003 23.8162C23.0012 23.8162 23.8157 23.0017 23.8157 22.0005C23.8157 20.9981 23.0012 20.1826 22.0003 20.1826C20.9988 20.1826 20.1839 20.9984 20.1839 22.0005C20.1839 23.002 20.9988 23.8162 22.0003 23.8162Z" fill="black"/>
</g>
<defs>
<clipPath id="clip0_1_22792">
<rect width="44" height="44" fill="white"/>
</clipPath>
</defs>
</svg>
