<svg width="303" height="293" viewBox="0 0 303 293" fill="none" xmlns="http://www.w3.org/2000/svg">
<path d="M147.166 0.5H144.666V14.333H147.166V0.5Z" fill="#FFA900"/>
<path d="M97.1586 8.96677L94.8096 9.82227L99.5432 22.8197L101.892 21.9642L97.1586 8.96677Z" fill="white"/>
<path d="M53.0888 34.0201L51.1748 35.627L60.0694 46.2216L61.9834 44.6148L53.0888 34.0201Z" fill="white"/>
<path d="M20.2287 72.6413L18.9795 74.8057L30.9603 81.7208L32.2095 79.5564L20.2287 72.6413Z" fill="white"/>
<path d="M2.55304 120.183L2.11938 122.643L15.7421 125.044L16.1758 122.584L2.55304 120.183Z" fill="white"/>
<path d="M2.20087 170.851L2.63452 173.312L16.2563 170.91L15.8226 168.45L2.20087 170.851Z" fill="white"/>
<path d="M19.2295 218.625L20.4788 220.789L32.4587 213.874L31.2094 211.71L19.2295 218.625Z" fill="white"/>
<path d="M51.5655 257.684L53.4797 259.291L62.373 248.695L60.4587 247.088L51.5655 257.684Z" fill="white"/>
<path d="M95.2811 283.353L97.6284 284.207L102.359 271.208L100.012 270.354L95.2811 283.353Z" fill="white"/>
<path d="M147.667 278.667H145.169V292.5H147.667V278.667Z" fill="white"/>
<path d="M195.156 284.049L197.504 283.195L192.777 270.195L190.429 271.049L195.156 284.049Z" fill="white"/>
<path d="M239.258 258.957L241.172 257.352L232.283 246.753L230.369 248.358L239.258 258.957Z" fill="white"/>
<path d="M272.13 220.374L273.38 218.211L261.404 211.29L260.154 213.453L272.13 220.374Z" fill="white"/>
<path d="M289.768 172.807L290.202 170.347L276.579 167.945L276.146 170.405L289.768 172.807Z" fill="white"/>
<path d="M290.146 122.138L289.712 119.678L276.089 122.079L276.523 124.539L290.146 122.138Z" fill="#FFA900"/>
<path d="M273.109 74.3641L271.86 72.1992L259.878 79.1083L261.126 81.2732L273.109 74.3641Z" fill="#FFA900"/>
<path d="M240.779 35.3146L238.865 33.708L229.972 44.3041L231.886 45.9107L240.779 35.3146Z" fill="#FFA900"/>
<path d="M197.046 9.6424L194.699 8.78809L189.968 21.7879L192.315 22.6422L197.046 9.6424Z" fill="#FFA900"/>
<path d="M141.511 0.568805L140.262 0.612305L140.606 10.4814L141.855 10.4379L141.511 0.568805Z" fill="white"/>
<path d="M136.413 0.835L135.166 0.921875L135.853 10.7742L137.1 10.6873L136.413 0.835Z" fill="white"/>
<path d="M131.329 1.24463L130.085 1.375L131.115 11.1957L132.359 11.0653L131.329 1.24463Z" fill="white"/>
<path d="M126.275 1.86434L125.037 2.03809L126.409 11.8173L127.647 11.6435L126.275 1.86434Z" fill="white"/>
<path d="M121.256 2.63867L120.024 2.85547L121.735 12.5814L122.967 12.3646L121.256 2.63867Z" fill="white"/>
<path d="M116.243 3.59368L115.019 3.85352L117.07 13.5132L118.294 13.2534L116.243 3.59368Z" fill="white"/>
<path d="M111.266 4.74073L110.052 5.04297L112.438 14.6257L113.652 14.3234L111.266 4.74073Z" fill="white"/>
<path d="M106.347 6.04259L105.145 6.38672L107.864 15.8805L109.065 15.5364L106.347 6.04259Z" fill="white"/>
<path d="M101.45 7.51408L100.26 7.90039L103.309 17.2925L104.499 16.9062L101.45 7.51408Z" fill="white"/>
<path d="M91.8642 10.9619L90.7051 11.4297L94.4003 20.5868L95.5594 20.119L91.8642 10.9619Z" fill="white"/>
<path d="M87.1667 12.9484L86.0244 13.4561L90.0347 22.4798L91.1769 21.9722L87.1667 12.9484Z" fill="white"/>
<path d="M82.5411 15.0881L81.4175 15.6357L85.7437 24.5124L86.8673 23.9648L82.5411 15.0881Z" fill="white"/>
<path d="M77.9904 17.3851L76.8855 17.9717L81.5159 26.6933L82.6208 26.1067L77.9904 17.3851Z" fill="white"/>
<path d="M73.542 19.8472L72.458 20.4717L77.3876 29.0284L78.4716 28.4039L73.542 19.8472Z" fill="white"/>
<path d="M69.1591 22.4548L68.0979 23.1172L73.3267 31.4941L74.3879 30.8317L69.1591 22.4548Z" fill="white"/>
<path d="M64.8914 25.2126L63.853 25.9121L69.3702 34.1024L70.4086 33.4029L64.8914 25.2126Z" fill="white"/>
<path d="M60.7055 28.1305L59.6924 28.8662L65.4955 36.8579L66.5086 36.1222L60.7055 28.1305Z" fill="white"/>
<path d="M56.6055 31.1736L55.6189 31.9443L61.6986 39.7266L62.6851 38.9559L56.6055 31.1736Z" fill="white"/>
<path d="M48.7962 37.7153L47.8655 38.5527L54.4715 45.8946L55.4023 45.0571L48.7962 37.7153Z" fill="white"/>
<path d="M45.0532 41.1869L44.1516 42.0557L51.0039 49.1667L51.9054 48.2979L45.0532 41.1869Z" fill="white"/>
<path d="M41.4335 44.7679L40.5637 45.667L47.6609 52.5331L48.5307 51.634L41.4335 44.7679Z" fill="white"/>
<path d="M37.961 48.4779L37.1221 49.4072L44.4515 56.0238L45.2905 55.0944L37.961 48.4779Z" fill="white"/>
<path d="M34.6123 52.3176L33.8059 53.2754L41.3595 59.6352L42.1659 58.6775L34.6123 52.3176Z" fill="white"/>
<path d="M31.3836 56.2793L30.6111 57.2646L38.3819 63.3569L39.1544 62.3716L31.3836 56.2793Z" fill="white"/>
<path d="M28.3124 60.3387L27.575 61.3506L35.5551 67.1664L36.2925 66.1545L28.3124 60.3387Z" fill="white"/>
<path d="M25.3536 64.5039L24.6523 65.541L32.832 71.0714L33.5332 70.0343L25.3536 64.5039Z" fill="white"/>
<path d="M22.5705 68.7683L21.9055 69.8291L30.2709 75.0726L30.9358 74.0118L22.5705 68.7683Z" fill="white"/>
<path d="M17.4482 77.5748L16.8594 78.6797L25.5732 83.3234L26.162 82.2185L17.4482 77.5748Z" fill="white"/>
<path d="M15.1103 82.1184L14.5605 83.2432L23.4305 87.5784L23.9802 86.4536L15.1103 82.1184Z" fill="white"/>
<path d="M12.9688 86.7353L12.459 87.8789L21.477 91.8992L21.9868 90.7556L12.9688 86.7353Z" fill="white"/>
<path d="M10.9462 91.4128L10.4763 92.5732L19.6276 96.2786L20.0975 95.1181L10.9462 91.4128Z" fill="white"/>
<path d="M9.09253 96.1474L8.66284 97.3232L17.9355 100.712L18.3652 99.5358L9.09253 96.1474Z" fill="white"/>
<path d="M7.44295 100.974L7.0542 102.164L16.4395 105.23L16.8282 104.039L7.44295 100.974Z" fill="white"/>
<path d="M5.93958 105.845L5.59277 107.048L15.0788 109.782L15.4256 108.579L5.93958 105.845Z" fill="white"/>
<path d="M4.58672 110.774L4.28198 111.988L13.8578 114.391L14.1626 113.177L4.58672 110.774Z" fill="white"/>
<path d="M3.43562 115.732L3.17383 116.956L12.8286 119.02L13.0904 117.796L3.43562 115.732Z" fill="white"/>
<path d="M1.64012 125.738L1.46436 126.977L11.2396 128.364L11.4154 127.125L1.64012 125.738Z" fill="white"/>
<path d="M0.98393 130.818L0.851074 132.062L10.6678 133.11L10.8007 131.866L0.98393 130.818Z" fill="white"/>
<path d="M0.545608 135.879L0.456787 137.127L10.3051 137.828L10.3939 136.58L0.545608 135.879Z" fill="white"/>
<path d="M0.248548 140.984L0.202637 142.234L10.0677 142.597L10.1136 141.347L0.248548 140.984Z" fill="white"/>
<path d="M10.0229 146.079H0.150879V147.33H10.0229V146.079Z" fill="white"/>
<path d="M0.21465 151.187L0.256592 152.438L10.1227 152.108L10.0807 150.857L0.21465 151.187Z" fill="white"/>
<path d="M0.459711 156.252L0.545654 157.5L10.3939 156.822L10.308 155.574L0.459711 156.252Z" fill="white"/>
<path d="M0.914604 161.344L1.04346 162.588L10.8631 161.571L10.7343 160.327L0.914604 161.344Z" fill="white"/>
<path d="M1.50927 166.408L1.68115 167.647L11.4593 166.291L11.2875 165.052L1.50927 166.408Z" fill="white"/>
<path d="M3.24298 176.427L3.50073 177.65L13.1605 175.615L12.9027 174.392L3.24298 176.427Z" fill="white"/>
<path d="M4.40155 181.398L4.70142 182.612L14.2852 180.246L13.9853 179.032L4.40155 181.398Z" fill="white"/>
<path d="M5.70349 186.33L6.04614 187.533L15.5401 184.83L15.1974 183.626L5.70349 186.33Z" fill="white"/>
<path d="M7.17739 191.225L7.56226 192.416L16.9555 189.382L16.5706 188.19L7.17739 191.225Z" fill="white"/>
<path d="M8.81245 196.051L9.23926 197.228L18.5199 193.862L18.0931 192.685L8.81245 196.051Z" fill="white"/>
<path d="M10.6156 200.821L11.0833 201.982L20.2405 198.295L19.7729 197.134L10.6156 200.821Z" fill="white"/>
<path d="M12.5939 205.503L13.1018 206.647L22.1248 202.642L21.6169 201.498L12.5939 205.503Z" fill="white"/>
<path d="M14.7323 210.135L15.28 211.261L24.1569 206.942L23.6092 205.816L14.7323 210.135Z" fill="white"/>
<path d="M17.0237 214.665L17.6106 215.771L26.3314 211.142L25.7445 210.036L17.0237 214.665Z" fill="white"/>
<path d="M22.103 223.506L22.7651 224.568L31.1435 219.347L30.4813 218.284L22.103 223.506Z" fill="white"/>
<path d="M24.865 227.782L25.5645 228.82L33.7531 223.304L33.0536 222.266L24.865 227.782Z" fill="white"/>
<path d="M27.7602 231.987L28.4954 233L36.4857 227.203L35.7506 226.19L27.7602 231.987Z" fill="white"/>
<path d="M30.8147 236.078L31.5854 237.064L39.3654 230.987L38.5947 230L30.8147 236.078Z" fill="white"/>
<path d="M34.0449 240.034L34.8499 240.994L42.4158 234.652L41.6108 233.692L34.0449 240.034Z" fill="white"/>
<path d="M37.373 243.873L38.2102 244.804L45.551 238.202L44.7138 237.271L37.373 243.873Z" fill="white"/>
<path d="M40.836 247.636L41.7048 248.536L48.8084 241.679L47.9396 240.779L40.836 247.636Z" fill="white"/>
<path d="M44.42 251.249L45.3196 252.118L52.1803 245.018L51.2807 244.149L44.42 251.249Z" fill="white"/>
<path d="M48.1477 254.745L49.0776 255.583L55.6876 248.249L54.7576 247.411L48.1477 254.745Z" fill="white"/>
<path d="M55.9224 261.285L56.908 262.056L62.9897 254.278L62.0042 253.507L55.9224 261.285Z" fill="white"/>
<path d="M59.9685 264.394L60.9805 265.13L66.7842 257.144L65.7723 256.409L59.9685 264.394Z" fill="white"/>
<path d="M64.1416 267.307L65.179 268.006L70.6974 259.82L69.6601 259.121L64.1416 267.307Z" fill="white"/>
<path d="M68.4017 270.122L69.4624 270.785L74.6956 262.415L73.6348 261.752L68.4017 270.122Z" fill="white"/>
<path d="M72.7684 272.766L73.8511 273.391L78.7851 264.84L77.7025 264.216L72.7684 272.766Z" fill="white"/>
<path d="M77.2512 275.213L78.356 275.8L82.9889 267.082L81.8841 266.495L77.2512 275.213Z" fill="white"/>
<path d="M81.7722 277.576L82.8962 278.123L87.2157 269.245L86.0917 268.698L81.7722 277.576Z" fill="white"/>
<path d="M86.3643 279.744L87.5066 280.252L91.516 271.23L90.3738 270.722L86.3643 279.744Z" fill="white"/>
<path d="M91.036 281.722L92.1963 282.189L95.8878 273.032L94.7275 272.565L91.036 281.722Z" fill="white"/>
<path d="M100.644 285.267L101.833 285.652L104.88 276.26L103.691 275.875L100.644 285.267Z" fill="white"/>
<path d="M105.469 286.744L106.671 287.089L109.392 277.598L108.19 277.253L105.469 286.744Z" fill="white"/>
<path d="M110.423 288.079L111.636 288.382L114.026 278.803L112.812 278.5L110.423 288.079Z" fill="white"/>
<path d="M115.401 289.246L116.625 289.506L118.675 279.849L117.451 279.589L115.401 289.246Z" fill="white"/>
<path d="M120.384 290.215L121.615 290.432L123.327 280.709L122.096 280.492L120.384 290.215Z" fill="white"/>
<path d="M125.406 291.05L126.644 291.224L128.016 281.447L126.778 281.274L125.406 291.05Z" fill="white"/>
<path d="M130.479 291.687L131.722 291.817L132.756 282L131.512 281.869L130.479 291.687Z" fill="white"/>
<path d="M135.532 292.143L136.779 292.229L137.465 282.38L136.218 282.293L135.532 292.143Z" fill="white"/>
<path d="M140.65 292.413L141.899 292.457L142.247 282.591L140.998 282.547L140.65 292.413Z" fill="white"/>
<path d="M150.818 292.468L152.067 292.425L151.728 282.56L150.479 282.603L150.818 292.468Z" fill="white"/>
<path d="M155.926 292.192L157.173 292.105L156.487 282.258L155.24 282.345L155.926 292.192Z" fill="white"/>
<path d="M160.997 291.77L162.24 291.64L161.215 281.821L159.972 281.951L160.997 291.77Z" fill="white"/>
<path d="M166.029 291.173L167.266 291L165.9 281.223L164.663 281.396L166.029 291.173Z" fill="white"/>
<path d="M171.075 290.371L172.306 290.154L170.594 280.43L169.363 280.647L171.075 290.371Z" fill="white"/>
<path d="M176.102 289.412L177.325 289.152L175.274 279.495L174.051 279.754L176.102 289.412Z" fill="white"/>
<path d="M181.087 288.303L182.3 288.001L179.916 278.42L178.703 278.722L181.087 288.303Z" fill="white"/>
<path d="M185.998 286.974L187.2 286.63L184.486 277.137L183.284 277.481L185.998 286.974Z" fill="white"/>
<path d="M187.823 276.131L189.013 275.746L192.063 285.135L190.874 285.518L187.823 276.131Z" fill="white"/>
<path d="M200.479 282.079L201.638 281.611L197.944 272.457L196.785 272.925L200.479 282.079Z" fill="white"/>
<path d="M205.16 280.1L206.303 279.591L202.287 270.573L201.144 271.082L205.16 280.1Z" fill="white"/>
<path d="M209.769 277.958L210.893 277.409L206.561 268.538L205.437 269.087L209.769 277.958Z" fill="white"/>
<path d="M214.321 275.636L215.424 275.048L210.781 266.333L209.678 266.921L214.321 275.636Z" fill="white"/>
<path d="M218.82 273.189L219.903 272.564L214.968 264.013L213.885 264.638L218.82 273.189Z" fill="white"/>
<path d="M223.168 270.556L224.229 269.893L218.988 261.523L217.928 262.187L223.168 270.556Z" fill="white"/>
<path d="M227.453 267.823L228.489 267.124L222.966 258.94L221.93 259.64L227.453 267.823Z" fill="white"/>
<path d="M231.632 264.93L232.643 264.193L226.833 256.211L225.821 256.947L231.632 264.93Z" fill="white"/>
<path d="M235.714 261.833L236.7 261.062L230.617 253.285L229.631 254.056L235.714 261.833Z" fill="white"/>
<path d="M243.551 255.337L244.481 254.499L237.871 247.165L236.941 248.003L243.551 255.337Z" fill="white"/>
<path d="M247.292 251.847L248.192 250.977L241.331 243.877L240.431 244.747L247.292 251.847Z" fill="white"/>
<path d="M250.898 248.269L251.766 247.369L244.663 240.513L243.795 241.413L250.898 248.269Z" fill="white"/>
<path d="M254.392 244.53L255.231 243.6L247.898 236.99L247.06 237.92L254.392 244.53Z" fill="white"/>
<path d="M257.742 240.691L258.547 239.733L250.988 233.384L250.183 234.342L257.742 240.691Z" fill="white"/>
<path d="M260.947 236.767L261.718 235.781L253.941 229.698L253.17 230.685L260.947 236.767Z" fill="white"/>
<path d="M264.036 232.686L264.773 231.674L256.788 225.868L256.052 226.881L264.036 232.686Z" fill="white"/>
<path d="M266.974 228.551L267.676 227.513L259.495 221.987L258.794 223.026L266.974 228.551Z" fill="white"/>
<path d="M261.395 219.033L262.059 217.971L270.432 223.2L269.764 224.261L261.395 219.033Z" fill="white"/>
<path d="M274.899 215.441L275.487 214.336L266.772 209.699L266.184 210.804L274.899 215.441Z" fill="white"/>
<path d="M268.342 206.591L268.893 205.466L277.768 209.79L277.215 210.916L268.342 206.591Z" fill="white"/>
<path d="M279.395 206.3L279.905 205.156L270.889 201.139L270.379 202.282L279.395 206.3Z" fill="white"/>
<path d="M272.234 197.922L272.707 196.761L281.859 200.456L281.389 201.618L272.234 197.922Z" fill="white"/>
<path d="M273.951 193.491L274.383 192.314L283.66 195.688L283.229 196.865L273.951 193.491Z" fill="white"/>
<path d="M275.514 189.003L275.904 187.812L285.293 190.859L284.902 192.051L275.514 189.003Z" fill="white"/>
<path d="M276.918 184.462L277.266 183.259L286.756 185.977L286.406 187.182L276.918 184.462Z" fill="white"/>
<path d="M278.162 179.876L278.469 178.661L288.047 181.047L287.74 182.263L278.162 179.876Z" fill="white"/>
<path d="M279.244 175.25L279.51 174.024L289.164 176.074L288.9 177.3L279.244 175.25Z" fill="white"/>
<path d="M280.926 165.896L281.104 164.656L290.879 166.027L290.701 167.269L280.926 165.896Z" fill="white"/>
<path d="M281.52 161.182L281.654 159.936L291.473 160.965L291.338 162.212L281.52 161.182Z" fill="white"/>
<path d="M281.949 156.449L282.041 155.199L291.889 155.885L291.797 157.136L281.949 156.449Z" fill="white"/>
<path d="M282.213 151.705L282.262 150.452L292.127 150.793L292.078 152.047L282.213 151.705Z" fill="white"/>
<path d="M282.311 146.953L282.316 145.7L292.188 145.697L292.184 146.951L282.311 146.953Z" fill="white"/>
<path d="M282.244 142.201L282.205 140.949L292.07 140.602L292.109 141.855L282.244 142.201Z" fill="white"/>
<path d="M282.01 137.455L281.928 136.205L291.775 135.513L291.859 136.765L282.01 137.455Z" fill="white"/>
<path d="M281.611 132.719L281.484 131.474L291.303 130.438L291.43 131.686L281.611 132.719Z" fill="white"/>
<path d="M281.047 128L280.877 126.76L290.652 125.383L290.824 126.625L281.047 128Z" fill="white"/>
<path d="M279.428 118.637L279.172 117.412L288.826 115.356L289.084 116.583L279.428 118.637Z" fill="#FFA900"/>
<path d="M278.373 114.003L278.074 112.788L287.652 110.396L287.953 111.613L278.373 114.003Z" fill="#FFA900"/>
<path d="M277.158 109.41L276.816 108.205L286.307 105.48L286.648 106.686L277.158 109.41Z" fill="#FFA900"/>
<path d="M275.783 104.861L275.4 103.668L284.789 100.615L285.172 101.808L275.783 104.861Z" fill="#FFA900"/>
<path d="M274.25 100.363L273.826 99.1837L283.102 95.8047L283.527 96.9837L274.25 100.363Z" fill="#FFA900"/>
<path d="M272.563 95.9206L272.096 94.7576L281.248 91.0566L281.715 92.2196L272.563 95.9206Z" fill="#FFA900"/>
<path d="M270.719 91.541L270.213 90.395L279.23 86.376L279.736 87.523L270.719 91.541Z" fill="#FFA900"/>
<path d="M268.725 87.2275L268.18 86.0995L277.051 81.7686L277.596 82.8965L268.725 87.2275Z" fill="#FFA900"/>
<path d="M266.58 82.9862L265.996 81.8782L274.711 77.2402L275.297 78.3492L266.58 82.9862Z" fill="#FFA900"/>
<path d="M261.855 74.7414L261.195 73.6774L269.566 68.4424L270.227 69.5084L261.855 74.7414Z" fill="#FFA900"/>
<path d="M259.281 70.7466L258.582 69.7066L266.768 64.1826L267.463 65.2246L259.281 70.7466Z" fill="#FFA900"/>
<path d="M256.566 66.8454L255.834 65.8314L263.82 60.0244L264.553 61.0414L256.566 66.8454Z" fill="#FFA900"/>
<path d="M253.719 63.0407L252.951 62.0527L260.73 55.9707L261.498 56.9617L253.719 63.0407Z" fill="#FFA900"/>
<path d="M250.74 59.3383L249.938 58.3773L257.5 52.0283L258.303 52.9923L250.74 59.3383Z" fill="#FFA900"/>
<path d="M247.635 55.7422L246.799 54.8102L254.135 48.2002L254.971 49.1352L247.635 55.7422Z" fill="#FFA900"/>
<path d="M244.404 52.2562L243.537 51.3542L250.637 44.4922L251.506 45.3972L244.404 52.2562Z" fill="#FFA900"/>
<path d="M241.055 48.8852L240.156 48.0142L247.014 40.9082L247.912 41.7822L241.055 48.8852Z" fill="#FFA900"/>
<path d="M237.59 45.6331L236.66 44.7931L243.266 37.4531L244.195 38.2951L237.59 45.6331Z" fill="#FFA900"/>
<path d="M230.33 39.5023L229.344 38.7293L235.422 30.9453L236.408 31.7213L230.33 39.5023Z" fill="#FFA900"/>
<path d="M226.543 36.6304L225.531 35.8924L231.334 27.9014L232.346 28.6424L226.543 36.6304Z" fill="#FFA900"/>
<path d="M222.659 33.892L221.622 33.189L227.142 25.001L228.18 25.706L222.659 33.892Z" fill="#FFA900"/>
<path d="M218.682 31.291L217.621 30.625L222.852 22.249L223.913 22.917L218.682 31.291Z" fill="#FFA900"/>
<path d="M214.616 28.8304L213.533 28.2024L218.468 19.6484L219.553 20.2794L214.616 28.8304Z" fill="#FFA900"/>
<path d="M210.468 26.5132L209.363 25.9232L213.996 17.2021L215.103 17.7942L210.468 26.5132Z" fill="#FFA900"/>
<path d="M206.24 24.3421L205.116 23.7911L209.441 14.9141L210.568 15.4671L206.24 24.3421Z" fill="#FFA900"/>
<path d="M201.94 22.3202L200.797 21.8092L204.811 12.7852L205.955 13.2991L201.94 22.3202Z" fill="#FFA900"/>
<path d="M197.572 20.4493L196.411 19.9783L200.107 10.8203L201.27 11.2943L197.572 20.4493Z" fill="#FFA900"/>
<path d="M188.652 17.1697L187.462 16.7817L190.511 7.3877L191.703 7.77969L188.652 17.1697Z" fill="#FFA900"/>
<path d="M184.112 15.7658L182.909 15.4198L185.628 5.9248L186.834 6.2748L184.112 15.7658Z" fill="#FFA900"/>
<path d="M179.526 14.5208L178.312 14.2168L180.697 4.63379L181.915 4.94078L179.526 14.5208Z" fill="#FFA900"/>
<path d="M174.899 13.4377L173.675 13.1756L175.725 3.51465L176.952 3.77965L174.899 13.4377Z" fill="#FFA900"/>
<path d="M170.237 12.5163L169.005 12.2973L170.716 2.57031L171.952 2.79231L170.237 12.5163Z" fill="#FFA900"/>
<path d="M165.546 11.7578L164.307 11.5818L165.678 1.80078L166.92 1.97978L165.546 11.7578Z" fill="#FFA900"/>
<path d="M160.831 11.164L159.587 11.03L160.615 1.20801L161.863 1.34401L160.831 11.164Z" fill="#FFA900"/>
<path d="M156.099 10.734L154.851 10.645L155.535 0.791992L156.787 0.883987L156.099 10.734Z" fill="#FFA900"/>
<path d="M151.354 10.4697L150.104 10.4237L150.444 0.553711L151.698 0.602707L151.354 10.4697Z" fill="#FFA900"/>
<path d="M107.148 36.5853L98.935 39.5743L98.757 39.0883L100.175 38.5723L98.335 33.5153L98.835 33.3333L100.675 38.3903L102.79 37.6203L100.311 30.8073L96.464 32.2063L96.292 31.7283L104.055 28.9033L104.239 29.3773L100.815 30.6233L101.889 33.5733L104.991 32.4443L105.173 32.9443L102.071 34.0733L103.296 37.4363L106.972 36.0983L107.148 36.5853Z" fill="white"/>
<path d="M113.852 25.8782L110.875 26.9622L111.486 28.6462L113.826 27.7942L115.957 33.6452L115.465 33.8242L115.197 33.0852L109.287 35.2362L109.555 35.9752L109.078 36.1482L106.949 30.2982L109.06 29.5292L108.447 27.8452L105.685 28.8502L105.513 28.3822L113.681 25.4092L113.852 25.8782ZM115.025 32.6112L113.509 28.4502L111.659 29.1232L112.395 31.1422C112.454 31.3072 112.549 31.3662 112.682 31.3182L113.938 30.8602L114.11 31.3282L112.784 31.8102C112.602 31.8762 112.432 31.8682 112.27 31.7862C112.11 31.7042 111.995 31.5722 111.928 31.3892L111.168 29.3012L109.695 29.8372C110.258 31.3572 110.236 32.6132 109.629 33.6082L109.102 33.4162C109.399 32.9482 109.563 32.4702 109.598 31.9832C109.631 31.4962 109.506 30.8382 109.223 30.0102L107.598 30.6012L109.114 34.7632L115.025 32.6112ZM110.996 28.8252L110.383 27.1412L108.928 27.6702L109.541 29.3542L110.996 28.8252Z" fill="white"/>
<path d="M185.668 255.567L193.881 252.578L194.057 253.064L192.639 253.581L194.481 258.638L193.981 258.82L192.139 253.763L190.024 254.533L192.504 261.347L196.351 259.948L196.523 260.425L188.76 263.251L188.576 262.777L192 261.53L190.926 258.579L187.824 259.708L187.642 259.208L190.744 258.079L189.519 254.716L185.843 256.054L185.668 255.567Z" fill="white"/>
<path d="M176.5 259.533L176.617 258.986C178.396 259.035 179.879 259.411 181.066 260.116L180.072 257.381L180.549 257.208L181.541 259.933C182.227 258.364 183.139 257.097 184.279 256.136L184.701 256.481C183.498 257.539 182.629 258.714 182.088 260.009L184.635 259.082L185.783 262.239L182.777 263.333L183.058 264.104L186.796 262.743L186.97 263.22L183.232 264.581L183.535 265.411L183.056 265.585L182.755 264.755L179.001 266.121L178.827 265.643L182.581 264.277L182.3 263.506L179.327 264.588L178.177 261.432L180.724 260.504C179.611 259.864 178.203 259.54 176.5 259.533ZM182.289 261.989L182.611 262.874L185.111 261.964L184.789 261.079L182.289 261.989ZM181.797 260.635L182.119 261.521L184.619 260.611L184.297 259.725L181.797 260.635ZM179.33 263.065L179.652 263.951L182.134 263.048L181.812 262.162L179.33 263.065ZM178.836 261.712L179.158 262.598L181.64 261.695L181.318 260.809L178.836 261.712Z" fill="white"/>
<path d="M36.7858 185.338L39.7748 193.551L39.2888 193.728L38.7728 192.31L33.7158 194.151L33.5338 193.651L38.5908 191.81L37.8198 189.695L31.0068 192.175L32.4058 196.02L31.9288 196.194L29.1028 188.43L29.5768 188.247L30.8228 191.67L33.7728 190.597L32.6438 187.494L33.1438 187.312L34.2728 190.414L37.6358 189.19L36.2978 185.514L36.7858 185.338Z" fill="white"/>
<path d="M26.8139 178.398L28.2099 182.234L29.3059 181.835L28.0789 178.462L33.1069 176.632C33.2879 176.567 33.4639 176.568 33.6379 176.634C33.8109 176.701 33.9759 176.95 34.1329 177.381C34.2069 177.586 34.2739 177.798 34.3319 178.015L33.9139 178.38C33.8369 178.101 33.7639 177.865 33.6939 177.676C33.5909 177.395 33.5029 177.228 33.4259 177.176C33.3489 177.124 33.2629 177.116 33.1649 177.152L28.7239 178.768L30.9779 184.962L36.1909 183.066L36.3609 183.534L30.6749 185.603L29.4849 182.332L28.3889 182.73L29.7719 186.53L29.2949 186.692L27.9159 182.902L26.9979 183.236L26.8169 182.741L27.7349 182.407L26.3389 178.571L26.8139 178.398ZM32.2519 178.103L33.1039 180.443L34.6999 179.862L34.8809 180.358L33.2839 180.939L34.1459 183.306L33.6639 183.482L32.8029 181.115L31.8349 181.467L32.5529 183.441L32.0669 183.618L31.6809 182.558C31.3769 182.818 31.0999 183.118 30.8499 183.457L30.4539 183.087C30.7919 182.662 31.1359 182.307 31.4849 182.021L31.0439 180.81C30.5579 180.703 30.0859 180.651 29.6269 180.656L29.5949 180.111C30.0349 180.121 30.4489 180.163 30.8359 180.236L30.4349 179.135L30.9209 178.957L31.6539 180.972L32.6219 180.619L31.7699 178.279L32.2519 178.103Z" fill="white"/>
<path d="M255.775 106.777L252.785 98.5639L253.271 98.3859L253.789 99.8039L258.846 97.9639L259.028 98.4639L253.971 100.304L254.741 102.419L261.555 99.9399L260.157 96.0939L260.634 95.9199L263.46 103.684L262.985 103.868L261.739 100.444L258.79 101.518L259.919 104.62L259.417 104.803L258.288 101.7L254.925 102.925L256.263 106.6L255.775 106.777Z" fill="white"/>
<path d="M258.764 111.77C257.555 110.297 256.639 109.084 256.014 108.13L256.446 107.801C256.921 108.526 257.485 109.314 258.137 110.164L261.725 108.857L260.819 106.371L261.319 106.188L262.225 108.674L265.129 107.617L265.315 108.127L258.51 110.604C258.715 110.882 258.979 111.206 259.299 111.574L258.764 111.77ZM261.434 115.225C261.055 115.356 260.659 115.467 260.245 115.557C259.831 115.647 259.567 115.686 259.452 115.676C259.339 115.665 259.223 115.629 259.11 115.565C258.997 115.501 258.901 115.409 258.823 115.29C258.745 115.171 258.634 114.914 258.491 114.519C258.221 113.779 258.089 113.325 258.091 113.158C258.095 112.991 258.146 112.855 258.245 112.752C258.344 112.649 258.481 112.564 258.655 112.501L265.94 109.85L266.126 110.354L263.202 111.417L264.179 114.096L263.677 114.28L262.702 111.6L258.811 113.016C258.737 113.042 258.688 113.11 258.661 113.216C258.634 113.323 258.727 113.669 258.938 114.253C259.088 114.666 259.196 114.907 259.256 114.977C259.319 115.046 259.397 115.092 259.494 115.114C259.59 115.136 259.816 115.107 260.176 115.027C260.535 114.946 260.947 114.83 261.416 114.676L261.434 115.225Z" fill="white"/>
<path d="M162.166 28.3275L162.87 28.3891C163.672 28.4593 164.134 28.9115 164.076 29.573C164.025 30.1607 163.455 30.5343 162.712 30.4692C161.957 30.4031 161.513 29.9643 161.501 29.3829L160.828 29.324C160.797 30.2585 161.491 30.9741 162.666 31.0769C163.768 31.1733 164.706 30.5771 164.791 29.612C164.86 28.8221 164.361 28.2491 163.517 28.1242L163.518 28.1086C164.23 28.0454 164.725 27.5791 164.787 26.8747C164.861 26.0303 164.155 25.3607 163.151 25.2728C162.096 25.1805 161.335 25.7295 161.173 26.676L161.847 26.735C161.96 26.1528 162.421 25.8206 163.067 25.8771C163.779 25.9395 164.123 26.35 164.075 26.9065C164.025 27.4746 163.537 27.8515 162.891 27.7949L162.218 27.736L162.166 28.3275ZM167.468 31.4973C168.776 31.6117 169.63 30.5454 169.785 28.7709C169.94 27.0081 169.28 25.8093 167.976 25.6952C166.673 25.5811 165.806 26.6542 165.652 28.4131C165.497 30.1876 166.157 31.3825 167.468 31.4973ZM167.522 30.8863C166.642 30.8093 166.234 29.8717 166.357 28.4708C166.477 27.1011 167.055 26.2341 167.922 26.31C168.79 26.386 169.202 27.3317 169.081 28.7132C168.958 30.1141 168.397 30.963 167.522 30.8863ZM172.302 31.9203C173.609 32.0348 174.463 30.9685 174.618 29.194C174.773 27.4312 174.113 26.2323 172.809 26.1182C171.506 26.0041 170.639 27.0772 170.485 28.8361C170.33 30.6106 170.99 31.8055 172.302 31.9203ZM172.355 31.3094C171.476 31.2324 171.067 30.2948 171.19 28.8939C171.31 27.5241 171.888 26.6571 172.756 26.7331C173.623 26.809 174.035 27.7548 173.914 29.1362C173.791 30.5371 173.231 31.386 172.355 31.3094Z" fill="white"/>
<path d="M218.35 52.3199L218.93 52.7254C219.589 53.187 219.763 53.8098 219.382 54.3538C219.044 54.837 218.364 54.8756 217.752 54.4477C217.132 54.013 216.967 53.411 217.247 52.9015L216.693 52.5139C216.199 53.3078 216.443 54.2747 217.409 54.9513C218.315 55.5854 219.426 55.5382 219.981 54.7446C220.436 54.095 220.291 53.3493 219.622 52.8193L219.631 52.8065C220.279 53.1074 220.941 52.9513 221.347 52.3721C221.833 51.6777 221.556 50.7448 220.731 50.1667C219.864 49.5595 218.929 49.6541 218.317 50.3933L218.87 50.7809C219.26 50.3336 219.824 50.276 220.356 50.648C220.941 51.058 221.034 51.5857 220.714 52.0433C220.387 52.5105 219.776 52.593 219.245 52.2211L218.691 51.8335L218.35 52.3199ZM222.229 55.0355L222.808 55.441C223.467 55.9026 223.642 56.5254 223.261 57.0694C222.922 57.5526 222.242 57.5913 221.631 57.1633C221.01 56.7286 220.845 56.1266 221.125 55.6172L220.572 55.2295C220.078 56.0235 220.321 56.9903 221.288 57.667C222.193 58.3011 223.304 58.2539 223.86 57.4603C224.315 56.8107 224.169 56.065 223.501 55.5349L223.51 55.5221C224.157 55.823 224.82 55.6669 225.225 55.0877C225.712 54.3933 225.435 53.4604 224.609 52.8823C223.742 52.2751 222.808 52.3697 222.195 53.1089L222.749 53.4965C223.138 53.0492 223.703 52.9917 224.234 53.3636C224.82 53.7736 224.913 54.3014 224.592 54.759C224.265 55.2262 223.654 55.3087 223.123 54.9367L222.569 54.5491L222.229 55.0355ZM225.236 60.4319C226.312 61.1848 227.584 60.6882 228.606 59.229C229.621 57.7794 229.649 56.4113 228.577 55.6607C227.505 54.9101 226.218 55.4063 225.206 56.8527C224.184 58.3119 224.158 59.6768 225.236 60.4319ZM225.588 59.9295C224.865 59.4231 224.98 58.407 225.787 57.255C226.576 56.1286 227.51 55.6666 228.223 56.1663C228.937 56.666 228.82 57.6907 228.025 58.8267C227.218 59.9787 226.308 60.4336 225.588 59.9295Z" fill="white"/>
<path d="M263.538 164.414L263.477 165.118C263.407 165.92 262.954 166.382 262.293 166.324C261.705 166.273 261.332 165.703 261.397 164.96C261.463 164.205 261.902 163.761 262.483 163.749L262.542 163.076C261.608 163.045 260.892 163.739 260.789 164.914C260.693 166.015 261.289 166.954 262.254 167.038C263.044 167.108 263.617 166.609 263.742 165.765L263.757 165.766C263.821 166.478 264.287 166.973 264.991 167.035C265.836 167.109 266.505 166.403 266.593 165.399C266.685 164.344 266.137 163.582 265.19 163.421L265.131 164.094C265.713 164.208 266.045 164.669 265.989 165.314C265.926 166.027 265.516 166.371 264.96 166.322C264.391 166.273 264.014 165.785 264.071 165.139L264.13 164.466L263.538 164.414ZM260.369 169.716C260.254 171.024 261.321 171.878 263.095 172.033C264.858 172.187 266.057 171.528 266.171 170.224C266.285 168.92 265.212 168.054 263.453 167.9C261.678 167.745 260.483 168.405 260.369 169.716ZM260.98 169.77C261.057 168.89 261.994 168.482 263.395 168.605C264.765 168.725 265.632 169.302 265.556 170.17C265.48 171.038 264.534 171.449 263.153 171.328C261.752 171.206 260.903 170.645 260.98 169.77Z" fill="white"/>
<path d="M235.626 219.085C234.963 220.032 235.146 221.186 236.058 221.824C236.935 222.438 238.042 222.24 238.658 221.36C239.059 220.788 239.118 220.07 238.812 219.546L238.819 219.537C240.034 220.416 240.412 221.334 239.872 222.106C239.552 222.563 239.023 222.746 238.516 222.577L238.106 223.163C238.936 223.524 239.828 223.252 240.377 222.468C241.167 221.339 240.719 220.038 239.164 218.949C238.665 218.599 238.197 218.381 237.735 218.286C236.87 218.105 236.11 218.393 235.626 219.085ZM236.142 219.437C236.557 218.845 237.35 218.713 237.942 219.128C238.531 219.54 238.65 220.296 238.222 220.907C237.794 221.518 237.054 221.649 236.449 221.225C235.867 220.818 235.73 220.025 236.142 219.437ZM232.92 222.956C232.167 224.031 232.664 225.304 234.123 226.325C235.573 227.34 236.941 227.368 237.691 226.296C238.442 225.224 237.946 223.937 236.499 222.925C235.04 221.903 233.675 221.877 232.92 222.956ZM233.422 223.307C233.929 222.584 234.945 222.7 236.097 223.506C237.223 224.295 237.685 225.229 237.186 225.942C236.686 226.656 235.661 226.539 234.525 225.744C233.373 224.937 232.918 224.027 233.422 223.307Z" fill="white"/>
<path d="M129.114 260.142L128.437 260.082L127.945 265.698L128.63 265.758L130.218 264.814L130.283 264.075L128.703 265.015L128.687 265.014L129.114 260.142ZM126.698 263.957L126.698 263.953L126.021 263.894L126.02 263.898C125.966 264.524 125.426 264.956 124.768 264.898C124.15 264.844 123.693 264.369 123.741 263.828C123.781 263.361 123.987 263.077 124.811 262.349L126.97 260.44L127.012 259.958L123.308 259.633L123.253 260.256L125.989 260.495L125.988 260.511L124.439 261.854C123.416 262.741 123.091 263.183 123.036 263.809C122.961 264.669 123.691 265.419 124.695 265.507C125.754 265.6 126.612 264.938 126.698 263.957ZM120.541 259.297C119.234 259.183 118.38 260.249 118.224 262.023C118.07 263.786 118.73 264.985 120.033 265.099C121.337 265.213 122.204 264.14 122.357 262.381C122.513 260.607 121.853 259.412 120.541 259.297ZM120.488 259.908C121.367 259.985 121.775 260.923 121.653 262.324C121.533 263.693 120.955 264.56 120.087 264.484C119.22 264.408 118.808 263.463 118.929 262.081C119.052 260.68 119.612 259.831 120.488 259.908Z" fill="white"/>
<path d="M74.3408 237.126L73.8202 236.689L70.1969 241.007L70.7235 241.449L72.5656 241.587L73.0426 241.018L71.2091 240.882L71.1972 240.872L74.3408 237.126ZM71.3012 234.453C70.4006 233.697 69.2535 233.77 68.5253 234.637C67.8223 235.475 67.911 236.585 68.7398 237.28C69.1527 237.627 69.6424 237.772 70.0553 237.675L70.0673 237.685L68.7555 238.981L66.7268 237.279L66.325 237.758L68.7966 239.832L71.0618 237.612L70.5561 237.188C70.126 237.342 69.6287 237.236 69.2248 236.897C68.6503 236.415 68.5894 235.655 69.0765 235.074C69.5636 234.494 70.312 234.428 70.8985 234.92C71.4161 235.355 71.542 236.001 71.2031 236.502L71.7328 236.946C72.3056 236.173 72.127 235.146 71.3012 234.453ZM67.6896 231.422C66.6843 230.578 65.3731 230.962 64.2281 232.326C63.0906 233.682 62.9434 235.042 63.9458 235.883C64.9482 236.725 66.2734 236.342 67.4083 234.99C68.5533 233.626 68.698 232.268 67.6896 231.422ZM67.2954 231.892C67.9717 232.459 67.7682 233.461 66.8642 234.539C65.9804 235.592 65.0098 235.971 64.3426 235.411C63.6753 234.851 63.8808 233.84 64.7722 232.778C65.6761 231.701 66.6222 231.327 67.2954 231.892Z" fill="white"/>
<path d="M50.2193 72.5111L50.222 72.5138L50.7026 72.0332L50.6999 72.0305C50.2552 71.5858 50.2717 70.8952 50.7385 70.4284C51.1777 69.9893 51.8351 69.9451 52.219 70.329C52.5505 70.6605 52.6361 71.0002 52.6637 72.0995L52.7383 74.9804L53.0808 75.3229L55.7103 72.6934L55.2684 72.2514L53.3266 74.1932L53.3156 74.1821L53.2824 72.1327C53.2603 70.7792 53.1305 70.2461 52.6858 69.8014C52.0754 69.191 51.0313 69.2683 50.3187 69.981C49.5674 70.7323 49.5232 71.815 50.2193 72.5111ZM58.0415 70.3621L58.5222 69.8815L57.6935 69.0529L58.257 68.4894L57.8206 68.053L57.2571 68.6165L54.5364 65.8958L53.8017 66.6305C54.2105 68.9231 54.4701 70.1163 54.7602 71.0858L55.2104 71.536L57.2129 69.5335L58.0415 70.3621ZM55.2546 70.5969C55.017 69.7296 54.785 68.6303 54.4619 66.799L54.4701 66.7907L56.7765 69.0971L55.2656 70.608L55.2546 70.5969ZM61.0329 67.5034C61.961 66.5753 61.6931 65.2357 60.4335 63.9761C59.1823 62.7249 57.8399 62.4597 56.9146 63.3851C55.9893 64.3104 56.2545 65.6638 57.5029 66.9123C58.7625 68.1718 60.1021 68.4342 61.0329 67.5034ZM60.5993 67.0697C59.975 67.6939 58.9945 67.4039 58.0001 66.4096C57.0279 65.4373 56.7351 64.4374 57.351 63.8215C57.967 63.2055 58.9558 63.4983 59.9364 64.4788C60.9307 65.4732 61.2207 66.4482 60.5993 67.0697Z" fill="white"/>
<path d="M295.375 100.998L290.941 88.3574L302.246 90.9354L295.375 100.998Z" fill="#FFA900"/>
</svg>
