<svg width="30" height="30" viewBox="0 0 30 30" fill="none" xmlns="http://www.w3.org/2000/svg">
<g clip-path="url(#clip0_137_12164)">
<path fill-rule="evenodd" clip-rule="evenodd" d="M14.0444 1.90464L29.5672 17.4275C29.9392 17.7992 29.9392 18.4026 29.5672 18.7744C29.3815 18.9604 29.1374 19.0534 28.8939 19.0534C28.6504 19.0534 28.4063 18.9604 28.2206 18.7744L12.7057 3.25916V5.43458C12.7057 5.96026 12.2794 6.3869 11.7534 6.3869C11.2274 6.3869 10.8011 5.96057 10.8011 5.43458L10.8007 0.998346C10.7893 0.740585 10.8788 0.479332 11.0756 0.282836C11.0761 0.282432 11.0765 0.282143 11.0768 0.281871C11.0774 0.281502 11.0778 0.281166 11.0782 0.280618C11.0788 0.280301 11.0791 0.279664 11.0795 0.279029C11.2582 0.10031 11.5004 0 11.7531 0H16.2204C16.7464 0 17.1727 0.426322 17.1727 0.952321C17.1727 1.47832 16.7464 1.90464 16.2204 1.90464H14.0444ZM24.4939 22.0963L25.5189 23.1217L25.519 23.1218C25.5275 23.1307 25.5364 23.1398 25.5446 23.1487C26.2433 23.9051 26.628 24.8885 26.628 25.9183C26.628 28.1687 24.797 30 22.5464 30H3.88881C1.82926 30 0.153809 28.3245 0.153809 26.2656V7.60742C0.153809 5.35709 1.9848 3.5261 4.23546 3.5261C5.32618 3.5261 6.3512 3.95051 7.12194 4.72157L20.6785 18.2807C21.0506 18.6528 21.0506 19.2556 20.6785 19.6273C20.3062 19.9993 19.7034 19.9993 19.3316 19.6273L5.77536 6.06816C5.36459 5.65707 4.81764 5.43074 4.23577 5.43074C3.03553 5.43074 2.05876 6.40718 2.05876 7.60742V26.2656C2.05876 27.2744 2.87998 28.0953 3.88913 28.0953H22.5467C23.7469 28.0953 24.7237 27.1186 24.7237 25.9183C24.7237 25.3749 24.5227 24.8559 24.1577 24.454L23.147 23.4429C22.7749 23.0709 22.7749 22.4681 23.147 22.096C23.5193 21.7246 24.1221 21.7243 24.4939 22.0963Z" fill="#6F6F6F"/>
</g>
<defs>
<clipPath id="clip0_137_12164">
<rect width="30" height="30" fill="white"/>
</clipPath>
</defs>
</svg>
