<svg width="44" height="44" viewBox="0 0 44 44" fill="none" xmlns="http://www.w3.org/2000/svg">
<path d="M29.3857 10V9.9H29.2857H15.5714H15.4714V10V11.1429V11.2429H15.5714H29.2857H29.3857V11.1429V10ZM20.2429 18V17.9H20.1429H19H18.9V18V29.4286V29.5286H19H20.1429H20.2429V29.4286V18ZM24.7143 17.9H24.6143V18V29.4286V29.5286H24.7143H25.8571H25.9571V29.4286V18V17.9H25.8571H24.7143ZM33.9571 13.4286V13.3286H33.8571H11H10.9V13.4286V14.5714V14.6714H11H14.3286V31.7143C14.3286 33.0319 15.3967 34.1 16.7143 34.1H28.1429C29.4605 34.1 30.5286 33.0319 30.5286 31.7143V14.6714H33.8571H33.9571V14.5714V13.4286ZM15.6714 14.6714H29.1857V31.7143C29.1857 32.2902 28.7188 32.7571 28.1429 32.7571H16.7143C16.1383 32.7571 15.6714 32.2902 15.6714 31.7143V14.6714Z" fill="white" stroke="white" stroke-width="0.2"/>
</svg>
