<svg width="60" height="60" viewBox="0 0 60 60" fill="none" xmlns="http://www.w3.org/2000/svg">
<g clip-path="url(#clip0_98_14446)">
<path fill-rule="evenodd" clip-rule="evenodd" d="M23.8272 17.3473C23.6585 17.3473 23.4867 17.3236 23.3167 17.2738C22.3509 16.9922 21.7967 15.9814 22.0784 15.0156C23.7526 9.27178 29.3404 -3.59392 44.993 0.955267C47.0649 1.55806 49.0341 2.67199 50.6883 4.17685C51.4314 4.85371 51.486 6.00527 50.8091 6.74951C50.1323 7.49253 48.9807 7.54656 48.2365 6.87031C46.9914 5.73696 45.5181 4.90105 43.9763 4.45305C32.5341 1.12584 27.651 8.91483 25.5749 16.0355C25.3431 16.8307 24.6164 17.3473 23.8272 17.3473ZM53.9203 12.5749C54.8958 12.3399 55.8798 12.9482 56.1117 13.9274C56.6204 16.0757 56.8796 18.445 56.8814 20.9703C56.8875 28.6919 53.3654 43.043 45.5139 50.7731C44.4795 51.7923 43.6661 52.9002 42.88 53.9722C40.7062 56.9358 38.4577 60.0002 32.2986 60.0002H32.2439C25.9835 59.982 18.6784 54.8245 18.6953 40.3489C18.6966 39.3443 19.5118 38.5302 20.5165 38.5302H20.5189C21.5242 38.5314 22.3388 39.3479 22.3376 40.3538C22.3236 52.1317 27.4513 56.3439 32.2549 56.3579H32.2998C36.6124 56.3579 37.938 54.551 39.9417 51.8198L39.9431 51.8178C40.7735 50.6857 41.715 49.4024 42.9589 48.178C49.9818 41.2638 53.2452 27.8578 53.2392 20.9745C53.2373 18.7291 53.0109 16.6408 52.5678 14.7663C52.3365 13.7877 52.9417 12.8062 53.9203 12.5749ZM42.6656 41.6957C42.92 41.8178 43.1883 41.8754 43.4529 41.8754C44.1304 41.8754 44.7812 41.4948 45.095 40.8435C45.2808 40.4562 49.6484 31.2546 49.6484 21.3306C49.6484 16.331 48.2614 12.6032 45.5248 10.2509C41.8255 7.07059 37.096 7.7438 36.8799 7.77841C30.6753 8.78367 27.8853 16.5575 27.8853 21.7562C27.8853 24.2572 28.581 26.0286 29.9541 27.0199C31.6429 28.2406 33.5424 27.6633 33.753 27.5929C34.7073 27.2766 35.2257 26.2465 34.9088 25.2916C34.5925 24.3373 33.5642 23.8183 32.6075 24.1358C32.6051 24.1376 32.2694 24.1989 32.0867 24.0678C31.8287 23.8808 31.5276 23.1645 31.5276 21.7562C31.5276 20.6052 31.7079 19.2977 32.0508 18.0053C33.4537 17.5154 36.7512 16.8573 38.8607 20.4292C39.5636 21.622 39.7913 25.0773 38.6312 29.8475C38.3932 30.8242 38.993 31.8094 39.9703 32.0474C40.1148 32.0826 40.2599 32.0996 40.4019 32.0996C41.2233 32.0996 41.9675 31.5411 42.1703 30.7083C42.6486 28.7426 44.0491 22.0591 41.9979 18.5789C39.7834 14.8274 36.5721 13.8476 33.8204 13.9806C34.7546 12.6177 35.962 11.6161 37.4341 11.3782C37.4663 11.3709 40.7668 10.9387 43.178 13.0366C45.0549 14.6683 46.0062 17.4595 46.0062 21.3306C46.0062 30.4047 41.8534 39.1783 41.8115 39.2663C41.3775 40.1727 41.7599 41.2605 42.6656 41.6957ZM26.3216 33.1676C26.6518 32.2176 27.6875 31.7138 28.6399 32.0464C29.5899 32.376 30.092 33.4141 29.7605 34.3659C29.2561 35.8155 28.8263 37.786 29.6446 38.937C30.3481 39.9264 31.904 40.1432 32.4442 40.1432C33.1278 40.1426 33.9734 39.5671 34.8232 38.5218C35.4576 37.7411 36.6062 37.6221 37.385 38.2577C38.1663 38.8921 38.284 40.0394 37.6491 40.8194C36.0501 42.7862 34.2994 43.7848 32.4455 43.7854C31.8062 43.7854 28.5288 43.6531 26.6761 41.0464C25.2969 39.1057 25.1773 36.4554 26.3216 33.1676ZM15.685 8.49144C15.0567 7.70714 13.9118 7.57966 13.125 8.20674C12.3395 8.83503 12.212 9.98111 12.8403 10.7666C16.7545 15.6606 18.4148 22.0109 17.3944 28.1894C16.4316 34.0055 13.2653 39.1022 8.47994 42.5399C7.66286 43.1269 7.47649 44.2645 8.06289 45.0816C8.41862 45.577 8.97711 45.8404 9.54349 45.8404C9.91075 45.8404 10.2829 45.7293 10.604 45.4987C16.1779 41.494 19.8657 35.5589 20.9869 28.7843C22.1767 21.5872 20.2438 14.1904 15.685 8.49144ZM9.71229 13.1047C13.0413 17.2672 14.4533 22.6681 13.5846 27.9221C12.7669 32.8676 10.0735 37.2019 6.00141 40.1267C5.67968 40.3574 5.30816 40.4684 4.9409 40.4684C4.37453 40.4684 3.81607 40.205 3.46034 39.7096C2.87394 38.8926 3.06031 37.7543 3.87739 37.1679C7.16089 34.8102 9.33167 31.3154 9.99091 27.3284C10.6908 23.0918 9.55262 18.7369 6.86766 15.3799C6.23937 14.5944 6.36685 13.4483 7.15236 12.82C7.93909 12.193 9.084 12.3204 9.71229 13.1047Z" fill="#548B6C"/>
</g>
<defs>
<clipPath id="clip0_98_14446">
<rect width="60" height="60" fill="white"/>
</clipPath>
</defs>
</svg>
