<svg width="12" height="12" viewBox="0 0 12 12" fill="none" xmlns="http://www.w3.org/2000/svg">
<g clip-path="url(#clip0_243_17839)">
<path d="M5.9997 3.65745C3.78424 3.65745 1.87545 5.19164 0.827611 6.24296C1.04986 5.13133 1.59381 4.1095 2.39187 3.30439C3.18993 2.49928 4.20694 1.94638 5.31656 1.71436C6.42619 1.48234 7.57953 1.58143 8.63332 1.99933C9.6871 2.41722 10.5949 3.1355 11.2439 4.06494C11.2958 4.13983 11.3743 4.19201 11.4634 4.21076C11.5525 4.22952 11.6455 4.21341 11.7231 4.16577C11.7644 4.14034 11.8001 4.10676 11.828 4.06708C11.856 4.02739 11.8755 3.98243 11.8855 3.93495C11.8955 3.88746 11.8957 3.83844 11.8861 3.79087C11.8765 3.74331 11.8573 3.69819 11.8297 3.65829C11.0382 2.524 9.9056 1.67176 8.59647 1.22551C7.28734 0.779264 5.86998 0.76228 4.55053 1.17703C3.23108 1.59178 2.07835 2.41664 1.25997 3.53164C0.441599 4.64664 0.00026048 5.99363 0.000143692 7.37673C-0.00313085 7.53017 0.0496578 7.67953 0.148617 7.79683C0.799645 8.57664 3.14534 11.1224 5.9997 11.1224C8.85407 11.1224 11.1994 8.57664 11.8503 7.79635C11.9469 7.68298 12 7.53889 12 7.38994C12 7.24098 11.9469 7.09689 11.8503 6.98352C11.1988 6.20323 8.85287 3.65745 5.9997 3.65745ZM5.73804 5.54512C5.76374 5.65555 5.76087 5.7707 5.72971 5.87972C5.69855 5.98873 5.64012 6.088 5.55994 6.16817C5.47976 6.24834 5.38048 6.30675 5.27146 6.33789C5.16244 6.36904 5.04729 6.37189 4.93686 6.34618C4.8156 6.31868 4.70457 6.2575 4.61655 6.16967C4.52853 6.08185 4.46711 5.97095 4.43935 5.84975C4.41366 5.73931 4.41654 5.62416 4.4477 5.51514C4.47887 5.40613 4.53729 5.30685 4.61746 5.22668C4.69763 5.14651 4.79691 5.08808 4.90593 5.05692C5.01494 5.02576 5.1301 5.02288 5.24053 5.04857C5.3617 5.07617 5.47261 5.13741 5.56052 5.22526C5.64842 5.3131 5.70975 5.42397 5.73744 5.54512H5.73804ZM5.9997 10.4093C3.51226 10.4093 1.39366 8.16291 0.739151 7.38994C1.2135 6.82977 2.45686 5.49651 4.0519 4.80443C3.63028 5.2007 3.33635 5.71366 3.20765 6.27778C3.07894 6.84189 3.12131 7.43157 3.32933 7.9715C3.53735 8.51143 3.90159 8.9771 4.37552 9.30903C4.84945 9.64097 5.41157 9.82411 5.99008 9.83505C6.56859 9.846 7.13724 9.68427 7.62339 9.3705C8.10955 9.05673 8.49114 8.60518 8.71944 8.07351C8.94774 7.54184 9.01239 6.95419 8.90512 6.3856C8.79785 5.81702 8.52354 5.29331 8.11722 4.88137C9.63052 5.59121 10.8029 6.84981 11.2603 7.38994C10.6053 8.16291 8.48678 10.4093 5.9997 10.4093Z" fill="#91978B"/>
</g>
<defs>
<clipPath id="clip0_243_17839">
<rect width="12" height="12" fill="white"/>
</clipPath>
</defs>
</svg>
