<svg width="44" height="44" viewBox="0 0 44 44" fill="none" xmlns="http://www.w3.org/2000/svg">
<path d="M38.7005 30.2833C38.6853 30.2459 38.6673 30.2094 38.647 30.1744L37.6014 28.3629C37.3537 27.9336 36.8047 27.7865 36.3754 28.0342C35.9461 28.2819 35.7989 28.8308 36.0466 29.2601L37.0488 30.9965C37.0605 31.0228 37.0737 31.0489 37.0877 31.0743C37.1643 31.2101 37.2047 31.3687 37.2047 31.5332C37.2047 32.0505 36.7933 32.4738 36.2815 32.4911C36.2704 32.4908 36.2593 32.4905 36.2483 32.4905H28.1782C28.3868 31.2478 27.5907 29.8079 26.8769 28.5197C26.6061 28.0309 26.3503 27.5693 26.2483 27.2764C25.9599 26.4543 27.1566 23.9882 27.6071 23.0599C27.71 22.8481 27.8004 22.6614 27.8746 22.5011L29.9152 18.9586C29.9364 18.926 29.9559 18.8916 29.9729 18.8557C29.9777 18.8459 29.987 18.8342 30.0056 18.8342C30.0118 18.8342 30.028 18.8342 30.037 18.853C30.0471 18.8746 30.0582 18.8958 30.0702 18.9165L33.4585 24.781C33.7068 25.2103 34.2555 25.3572 34.6848 25.1092C35.1141 24.8612 35.2607 24.3122 35.013 23.8829L31.6396 18.045C31.3273 17.4236 30.7047 17.0395 30.0056 17.0395C29.3291 17.0395 28.7009 17.4209 28.3859 18.0169C28.3856 18.0175 28.3853 18.0181 28.3847 18.019L26.3007 21.6368C26.289 21.6568 26.2782 21.6775 26.2684 21.6984C26.2654 21.7044 26.2564 21.7182 26.2352 21.7182C26.2148 21.7182 26.2058 21.7005 26.2046 21.6987C26.1945 21.6775 26.1834 21.6565 26.1717 21.6359L19.8485 10.6858C19.8327 10.6586 19.8156 10.6325 19.7974 10.6074C19.4713 10.059 18.8709 9.71289 18.2238 9.71289C17.58 9.71289 16.9807 10.0575 16.6534 10.6035C16.6337 10.6301 16.6154 10.6583 16.5987 10.6873L5.37845 30.1229C5.37246 30.1334 5.36648 30.1442 5.36109 30.1547L5.34793 30.1801C5.12027 30.5864 5 31.0513 5 31.5242C5 33.0476 6.23855 34.2867 7.76101 34.2867C7.76969 34.2867 7.78793 34.2861 7.80379 34.2855H26.2169C26.2232 34.2855 26.2289 34.287 26.2349 34.287C26.2417 34.287 26.2486 34.2858 26.2558 34.2855H36.2025C36.2178 34.2861 36.2333 34.2867 36.2486 34.2867C37.7656 34.2867 39 33.0515 39 31.5332C39 31.0952 38.8968 30.6653 38.7005 30.2833ZM26.3856 32.2814C26.3464 32.3763 26.222 32.4442 26.0966 32.4908H21.2681C21.4162 32.306 21.5352 32.1076 21.6211 31.8934C21.9385 31.1027 21.9376 29.7969 20.1307 28.0662C19.812 27.7607 19.8512 27.583 19.8698 27.4978C20.1076 26.4175 22.8543 24.9228 25.2189 23.9583C24.5918 25.4401 24.1945 26.8447 24.5538 27.8684C24.7055 28.3046 24.984 28.8075 25.3068 29.3897C25.7619 30.2112 26.6091 31.7408 26.3856 32.2814ZM7.78584 32.4905C7.77776 32.4905 7.76131 32.4908 7.74635 32.4914C7.22042 32.4834 6.795 32.0526 6.795 31.5242C6.795 31.3576 6.83599 31.1964 6.92574 31.036L18.0933 11.6892C18.1319 11.6392 18.1654 11.5851 18.193 11.527C18.193 11.527 18.2022 11.5082 18.2241 11.5082C18.2462 11.5082 18.254 11.5234 18.2549 11.5249C18.2821 11.5821 18.315 11.6356 18.3527 11.6847L24.4907 22.3129C22.2772 23.2086 18.5834 24.9967 18.1176 27.1112C17.9922 27.6802 18.0239 28.5329 18.8894 29.3622C19.8554 30.2875 20.0738 30.931 19.9559 31.2245C19.9039 31.3543 19.3032 32.4908 14.3134 32.4908H7.78584V32.4905Z" fill="white"/>
</svg>
