<svg width="92" height="44" viewBox="0 0 92 44" fill="none" xmlns="http://www.w3.org/2000/svg">
<g clip-path="url(#clip0_312_17048)">
<path d="M25.8452 17.2875C26.1413 17.5405 26.2664 17.4312 26.4706 17.2256C27.1894 16.4924 27.9011 15.7448 28.6616 15.0518C29.0441 14.7025 28.9176 14.4767 28.6099 14.2395C27.096 13.0419 25.4081 12.221 23.4471 12.0729C22.6401 11.9744 21.8242 11.9744 21.0173 12.0729C17.4144 12.5574 14.7777 14.4063 13.1257 17.6498L16.4569 20.2448C16.5144 20.1154 16.5748 19.9889 16.6294 19.8581C18.3921 15.7376 23.1509 14.9914 25.8452 17.2875Z" fill="white"/>
<path d="M31.9008 20.6811C31.8648 20.3634 31.7095 20.2498 31.3817 20.2498C28.491 20.2594 25.6002 20.2594 22.7095 20.2498C22.3371 20.2498 22.2048 20.3634 22.212 20.7386C22.2321 21.6947 22.2451 22.6508 22.212 23.6054C22.1919 24.1302 22.3989 24.2495 22.8806 24.2394C24.2665 24.2135 25.6525 24.2581 27.037 24.2179C27.7012 24.1992 27.7558 24.4508 27.5603 24.9784C27.1964 25.9442 26.5608 26.7841 25.7301 27.3966C24.2493 28.2593 22.6606 28.5684 20.9856 28.2018C18.7198 27.7 17.3195 26.2105 16.4569 24.123C16.1118 22.852 16.1118 21.5121 16.4569 20.2411L13.1257 17.6504C11.6204 20.6696 11.6305 23.6888 13.1257 26.7152C13.1637 26.8265 13.2083 26.9355 13.2594 27.0415C14.2883 28.9345 15.8865 30.456 17.8279 31.3905C19.7692 32.3251 21.9553 32.6254 24.0767 32.2489C25.917 31.9211 27.6106 31.277 28.9448 29.8954C29.0662 29.8221 29.1803 29.7373 29.2856 29.6423C31.6693 27.0962 32.2717 24.0324 31.9008 20.6811Z" fill="white"/>
</g>
<g clip-path="url(#clip1_312_17048)">
<path d="M80 21.9998C80 20.0912 79.4537 18.2224 78.4257 16.6142C77.3978 15.006 75.9311 13.7256 74.1988 12.9242C72.4666 12.1228 70.5412 11.8339 68.65 12.0916C66.7588 12.3492 64.9809 13.1427 63.5262 14.3783C62.0715 15.614 61.0008 17.2401 60.4405 19.0647C59.8803 20.8892 59.8539 22.836 60.3644 24.6751C60.875 26.5142 61.9013 28.1687 63.3219 29.4433C64.7426 30.718 66.4984 31.5594 68.3819 31.8682C68.4157 31.8187 68.4297 31.7582 68.4211 31.6988C68.4211 29.5199 68.4211 27.3399 68.4211 25.1591C68.4211 24.9701 68.3651 24.9113 68.1775 24.9141C67.4986 24.9225 66.8197 24.9141 66.1408 24.9141C65.9504 24.9141 65.8693 24.8735 65.8721 24.658C65.8847 23.8461 65.8819 23.0342 65.8721 22.221C65.8721 22.0306 65.9351 21.976 66.1212 21.9788C66.7889 21.9872 67.458 21.9788 68.1271 21.9872C68.3525 21.9872 68.4267 21.9368 68.4211 21.6988C68.4057 20.9696 68.3903 20.2375 68.4211 19.5096C68.477 18.2498 68.8914 17.1524 70.014 16.4441C70.8539 15.9178 71.7847 15.824 72.7422 15.8842C73.2433 15.9178 73.7416 15.9948 74.2427 16.0354C74.4163 16.0493 74.4681 16.1123 74.4667 16.2803C74.4667 16.969 74.4583 17.6591 74.4667 18.3478C74.4667 18.5312 74.3995 18.5731 74.2315 18.5689C73.841 18.5591 73.4504 18.5605 73.0599 18.5689C72.1487 18.5857 71.5789 19.1499 71.5635 20.0569C71.5538 20.6168 71.5635 21.1683 71.5635 21.724C71.5635 21.9256 71.6181 21.9858 71.8211 21.983C72.5518 21.9718 73.2825 21.983 74.0118 21.9746C74.2749 21.9746 74.3687 22.004 74.3099 22.3105C74.1699 23.0454 74.0733 23.7887 73.9726 24.5306C73.9362 24.7951 73.869 24.9393 73.5428 24.9183C72.9829 24.8819 72.4118 24.9183 71.8463 24.9043C71.6419 24.9043 71.5663 24.9463 71.5663 25.1731C71.5747 27.3325 71.5747 29.4919 71.5663 31.6513C71.5663 31.766 71.5817 31.8304 71.6209 31.8612C73.9596 31.4768 76.0857 30.2743 77.6203 28.4683C79.1549 26.6622 79.9982 24.3698 80 21.9998Z" fill="white"/>
</g>
<defs>
<clipPath id="clip0_312_17048">
<rect width="20" height="20.4083" fill="white" transform="translate(12 12)"/>
</clipPath>
<clipPath id="clip1_312_17048">
<rect width="20" height="19.8698" fill="white" transform="translate(60 12)"/>
</clipPath>
</defs>
</svg>
