<svg width="20" height="20" viewBox="0 0 20 20" fill="none" xmlns="http://www.w3.org/2000/svg">
<g clip-path="url(#clip0_71_12900)">
<mask id="path-1-outside-1_71_12900" maskUnits="userSpaceOnUse" x="1.80573" y="-1" width="16" height="22" fill="black">
<rect fill="white" x="1.80573" y="-1" width="16" height="22"/>
<path fill-rule="evenodd" clip-rule="evenodd" d="M8.05191 18.8453C8.44804 19.5576 9.1999 20 10.0137 20C10.8273 20 11.5789 19.5578 11.9802 18.8372L16.3256 10.6246C16.894 9.57891 17.1943 8.39286 17.1943 7.19479C17.1943 5.71276 16.7471 4.28933 15.9012 3.07857C15.7428 2.85187 15.4307 2.79662 15.2038 2.95487C14.9771 3.11329 14.9217 3.42562 15.0801 3.65231C15.8079 4.69414 16.1927 5.91892 16.1927 7.19479C16.1927 8.22626 15.9343 9.24688 15.4428 10.1512L11.0999 18.3592C10.8802 18.7535 10.4641 18.9986 10.0135 18.9986C9.56281 18.9986 9.14648 18.7533 8.93131 18.3667L4.57688 10.187C4.07341 9.27677 3.80715 8.24179 3.80715 7.19445C3.80715 3.77968 6.58524 1.00159 10 1.00159C11.1131 1.00159 12.2044 1.30007 13.1559 1.86463C13.3937 2.00586 13.7011 1.9274 13.8421 1.68952C13.9833 1.45164 13.9049 1.14449 13.667 1.00326C12.5609 0.346886 11.2929 0 10.0002 0C6.03303 0 2.80573 3.22747 2.80573 7.19445C2.80573 8.41122 3.11522 9.61364 3.69681 10.6648L8.05191 18.8453ZM7.03652 7.03727C7.03652 8.6712 8.36563 10.0005 9.9994 10.0005C11.6333 10.0005 12.9625 8.6712 12.9625 7.03727C12.9625 5.4035 11.6333 4.07422 9.9994 4.07422C8.36563 4.07422 7.03652 5.40333 7.03652 7.03727ZM8.03811 7.0371C8.03811 5.95555 8.91785 5.07565 9.9994 5.07565C11.081 5.07565 11.9609 5.95571 11.9609 7.0371C11.9609 8.11882 11.081 8.99872 9.9994 8.99872C8.91801 8.99872 8.03811 8.11866 8.03811 7.0371Z"/>
</mask>
<path fill-rule="evenodd" clip-rule="evenodd" d="M8.05191 18.8453C8.44804 19.5576 9.1999 20 10.0137 20C10.8273 20 11.5789 19.5578 11.9802 18.8372L16.3256 10.6246C16.894 9.57891 17.1943 8.39286 17.1943 7.19479C17.1943 5.71276 16.7471 4.28933 15.9012 3.07857C15.7428 2.85187 15.4307 2.79662 15.2038 2.95487C14.9771 3.11329 14.9217 3.42562 15.0801 3.65231C15.8079 4.69414 16.1927 5.91892 16.1927 7.19479C16.1927 8.22626 15.9343 9.24688 15.4428 10.1512L11.0999 18.3592C10.8802 18.7535 10.4641 18.9986 10.0135 18.9986C9.56281 18.9986 9.14648 18.7533 8.93131 18.3667L4.57688 10.187C4.07341 9.27677 3.80715 8.24179 3.80715 7.19445C3.80715 3.77968 6.58524 1.00159 10 1.00159C11.1131 1.00159 12.2044 1.30007 13.1559 1.86463C13.3937 2.00586 13.7011 1.9274 13.8421 1.68952C13.9833 1.45164 13.9049 1.14449 13.667 1.00326C12.5609 0.346886 11.2929 0 10.0002 0C6.03303 0 2.80573 3.22747 2.80573 7.19445C2.80573 8.41122 3.11522 9.61364 3.69681 10.6648L8.05191 18.8453ZM7.03652 7.03727C7.03652 8.6712 8.36563 10.0005 9.9994 10.0005C11.6333 10.0005 12.9625 8.6712 12.9625 7.03727C12.9625 5.4035 11.6333 4.07422 9.9994 4.07422C8.36563 4.07422 7.03652 5.40333 7.03652 7.03727ZM8.03811 7.0371C8.03811 5.95555 8.91785 5.07565 9.9994 5.07565C11.081 5.07565 11.9609 5.95571 11.9609 7.0371C11.9609 8.11882 11.081 8.99872 9.9994 8.99872C8.91801 8.99872 8.03811 8.11866 8.03811 7.0371Z" fill="white"/>
<path d="M8.05191 18.8453L7.94597 18.9017L7.94704 18.9037L8.05191 18.8453ZM11.9802 18.8372L12.085 18.8955L12.0862 18.8933L11.9802 18.8372ZM16.3256 10.6246L16.2201 10.5673L16.2195 10.5685L16.3256 10.6246ZM15.9012 3.07857L15.9996 3.00984L15.9996 3.00983L15.9012 3.07857ZM15.2038 2.95487L15.1351 2.85645L15.1351 2.85651L15.2038 2.95487ZM15.0801 3.65231L15.1785 3.58359L15.1785 3.58358L15.0801 3.65231ZM15.4428 10.1512L15.3374 10.0939L15.3368 10.095L15.4428 10.1512ZM11.0999 18.3592L11.2048 18.4176L11.206 18.4153L11.0999 18.3592ZM8.93131 18.3667L8.82536 18.4231L8.82645 18.4251L8.93131 18.3667ZM4.57688 10.187L4.68282 10.1307L4.68189 10.129L4.57688 10.187ZM13.1559 1.86463L13.2171 1.76145L13.2171 1.76143L13.1559 1.86463ZM13.8421 1.68952L13.7389 1.62826L13.7389 1.62832L13.8421 1.68952ZM13.667 1.00326L13.7283 0.900078L13.7283 0.900066L13.667 1.00326ZM3.69681 10.6648L3.80275 10.6084L3.80181 10.6067L3.69681 10.6648ZM10.0137 19.88C9.24352 19.88 8.53177 19.4613 8.15678 18.787L7.94704 18.9037C8.36431 19.654 9.15628 20.12 10.0137 20.12V19.88ZM11.8753 18.7788C11.495 19.4617 10.7834 19.88 10.0137 19.88V20.12C10.8712 20.12 11.6627 19.6539 12.085 18.8955L11.8753 18.7788ZM16.2195 10.5685L11.8741 18.781L12.0862 18.8933L16.4316 10.6807L16.2195 10.5685ZM17.0743 7.19479C17.0743 8.37299 16.7789 9.53932 16.2201 10.5673L16.431 10.6819C17.009 9.6185 17.3143 8.41273 17.3143 7.19479H17.0743ZM15.8029 3.14729C16.6346 4.33783 17.0743 5.73726 17.0743 7.19479H17.3143C17.3143 5.68826 16.8596 4.24083 15.9996 3.00984L15.8029 3.14729ZM15.2724 3.05329C15.4451 2.93287 15.6825 2.97499 15.8029 3.1473L15.9996 3.00983C15.8032 2.72876 15.4162 2.66036 15.1351 2.85645L15.2724 3.05329ZM15.1785 3.58358C15.058 3.41122 15.1001 3.1737 15.2725 3.05323L15.1351 2.85651C14.8541 3.05288 14.7853 3.44001 14.9817 3.72105L15.1785 3.58358ZM16.3127 7.19479C16.3127 5.89443 15.9204 4.64564 15.1785 3.58359L14.9817 3.72104C15.6954 4.74263 16.0727 5.94341 16.0727 7.19479H16.3127ZM15.5483 10.2085C16.0493 9.28651 16.3127 8.24617 16.3127 7.19479H16.0727C16.0727 8.20635 15.8192 9.20726 15.3374 10.0939L15.5483 10.2085ZM11.206 18.4153L15.5489 10.2073L15.3368 10.095L10.9939 18.3031L11.206 18.4153ZM10.0135 19.1186C10.5078 19.1186 10.964 18.8498 11.2048 18.4176L10.9951 18.3008C10.7965 18.6572 10.4204 18.8786 10.0135 18.8786V19.1186ZM8.82645 18.4251C9.06298 18.8501 9.51963 19.1186 10.0135 19.1186V18.8786C9.606 18.8786 9.22999 18.6566 9.03616 18.3084L8.82645 18.4251ZM4.47095 10.2434L8.82538 18.4231L9.03723 18.3103L4.6828 10.1307L4.47095 10.2434ZM3.68715 7.19445C3.68715 8.26196 3.9585 9.31695 4.47187 10.2451L4.68189 10.129C4.18832 9.23659 3.92715 8.22161 3.92715 7.19445H3.68715ZM10 0.881594C6.51897 0.881594 3.68715 3.71341 3.68715 7.19445H3.92715C3.92715 3.84596 6.65152 1.12159 10 1.12159V0.881594ZM13.2171 1.76143C12.2469 1.1858 11.1345 0.881594 10 0.881594V1.12159C11.0917 1.12159 12.1618 1.41433 13.0946 1.96784L13.2171 1.76143ZM13.7389 1.62832C13.6317 1.80916 13.398 1.86883 13.2171 1.76145L13.0946 1.96782C13.3895 2.14289 13.7705 2.04564 13.9453 1.75073L13.7389 1.62832ZM13.6058 1.10645C13.7867 1.21387 13.8463 1.44743 13.7389 1.62826L13.9453 1.75078C14.1204 1.45586 14.0231 1.0751 13.7283 0.900078L13.6058 1.10645ZM10.0002 0.12C11.2715 0.12 12.5183 0.461143 13.6058 1.10646L13.7283 0.900066C12.6035 0.232628 11.3143 -0.12 10.0002 -0.12V0.12ZM2.92573 7.19445C2.92573 3.29374 6.0993 0.12 10.0002 0.12V-0.12C5.96675 -0.12 2.68573 3.1612 2.68573 7.19445H2.92573ZM3.80181 10.6067C3.23015 9.57349 2.92573 8.3911 2.92573 7.19445H2.68573C2.68573 8.43135 3.00028 9.65378 3.59181 10.7229L3.80181 10.6067ZM8.15783 18.7889L3.80273 10.6084L3.59089 10.7212L7.94598 18.9017L8.15783 18.7889ZM9.9994 9.88048C8.43192 9.88048 7.15652 8.60494 7.15652 7.03727H6.91652C6.91652 8.73746 8.29935 10.1205 9.9994 10.1205V9.88048ZM12.8425 7.03727C12.8425 8.60494 11.5671 9.88048 9.9994 9.88048V10.1205C11.6996 10.1205 13.0825 8.73747 13.0825 7.03727H12.8425ZM9.9994 4.19422C11.5671 4.19422 12.8425 5.46977 12.8425 7.03727H13.0825C13.0825 5.33723 11.6996 3.95422 9.9994 3.95422V4.19422ZM7.15652 7.03727C7.15652 5.4696 8.43191 4.19422 9.9994 4.19422V3.95422C8.29936 3.95422 6.91652 5.33706 6.91652 7.03727H7.15652ZM9.9994 4.95565C8.85156 4.95565 7.91811 5.88929 7.91811 7.0371H8.15811C8.15811 6.02181 8.98413 5.19565 9.9994 5.19565V4.95565ZM12.0809 7.0371C12.0809 5.88945 11.1472 4.95565 9.9994 4.95565V5.19565C11.0147 5.19565 11.8409 6.02198 11.8409 7.0371H12.0809ZM9.9994 9.11872C11.1472 9.11872 12.0809 8.18509 12.0809 7.0371H11.8409C11.8409 8.05256 11.0147 8.87872 9.9994 8.87872V9.11872ZM7.91811 7.0371C7.91811 8.18491 8.85172 9.11872 9.9994 9.11872V8.87872C8.98431 8.87872 8.15811 8.0524 8.15811 7.0371H7.91811Z" fill="white" mask="url(#path-1-outside-1_71_12900)"/>
</g>
<defs>
<clipPath id="clip0_71_12900">
<rect width="20" height="20" fill="white"/>
</clipPath>
</defs>
</svg>
