<svg width="12" height="12" viewBox="0 0 12 12" fill="none" xmlns="http://www.w3.org/2000/svg">
<g clip-path="url(#clip0_243_17783)">
<mask id="path-1-outside-1_243_17783" maskUnits="userSpaceOnUse" x="0.68335" y="-1" width="10" height="14" fill="black">
<rect fill="white" x="0.68335" y="-1" width="10" height="14"/>
<path fill-rule="evenodd" clip-rule="evenodd" d="M4.83106 11.3072C5.06874 11.7346 5.51986 12 6.00813 12C6.49631 12 6.94723 11.7347 7.18801 11.3023L9.79526 6.37475C10.1363 5.74735 10.3165 5.03572 10.3165 4.31687C10.3165 3.42766 10.0482 2.5736 9.54066 1.84714C9.4456 1.71112 9.25831 1.67797 9.12219 1.77292C8.98617 1.86797 8.95292 2.05537 9.04797 2.19139C9.48467 2.81648 9.71553 3.55135 9.71553 4.31687C9.71553 4.93576 9.56049 5.54813 9.26562 6.09069L6.65987 11.0155C6.52806 11.2521 6.27836 11.3991 6.00803 11.3991C5.7376 11.3991 5.48781 11.252 5.3587 11.02L2.74604 6.11223C2.44396 5.56606 2.28421 4.94507 2.28421 4.31667C2.28421 2.26781 3.95106 0.600957 5.99992 0.600957C6.66778 0.600957 7.32253 0.780042 7.89343 1.11878C8.03616 1.20352 8.22055 1.15644 8.30519 1.01371C8.38992 0.870986 8.34285 0.686693 8.20012 0.601958C7.53647 0.208131 6.77565 0 6.00002 0C3.61973 0 1.68335 1.93648 1.68335 4.31667C1.68335 5.04673 1.86905 5.76818 2.218 6.39889L4.83106 11.3072ZM4.22178 4.22236C4.22178 5.20272 5.01925 6.00029 5.99951 6.00029C6.97987 6.00029 7.77734 5.20272 7.77734 4.22236C7.77734 3.2421 6.97987 2.44453 5.99951 2.44453C5.01925 2.44453 4.22178 3.242 4.22178 4.22236ZM4.82273 4.22226C4.82273 3.57333 5.35057 3.04539 5.99951 3.04539C6.64844 3.04539 7.17638 3.57343 7.17638 4.22226C7.17638 4.87129 6.64844 5.39923 5.99951 5.39923C5.35067 5.39923 4.82273 4.87119 4.82273 4.22226Z"/>
</mask>
<path fill-rule="evenodd" clip-rule="evenodd" d="M4.83106 11.3072C5.06874 11.7346 5.51986 12 6.00813 12C6.49631 12 6.94723 11.7347 7.18801 11.3023L9.79526 6.37475C10.1363 5.74735 10.3165 5.03572 10.3165 4.31687C10.3165 3.42766 10.0482 2.5736 9.54066 1.84714C9.4456 1.71112 9.25831 1.67797 9.12219 1.77292C8.98617 1.86797 8.95292 2.05537 9.04797 2.19139C9.48467 2.81648 9.71553 3.55135 9.71553 4.31687C9.71553 4.93576 9.56049 5.54813 9.26562 6.09069L6.65987 11.0155C6.52806 11.2521 6.27836 11.3991 6.00803 11.3991C5.7376 11.3991 5.48781 11.252 5.3587 11.02L2.74604 6.11223C2.44396 5.56606 2.28421 4.94507 2.28421 4.31667C2.28421 2.26781 3.95106 0.600957 5.99992 0.600957C6.66778 0.600957 7.32253 0.780042 7.89343 1.11878C8.03616 1.20352 8.22055 1.15644 8.30519 1.01371C8.38992 0.870986 8.34285 0.686693 8.20012 0.601958C7.53647 0.208131 6.77565 0 6.00002 0C3.61973 0 1.68335 1.93648 1.68335 4.31667C1.68335 5.04673 1.86905 5.76818 2.218 6.39889L4.83106 11.3072ZM4.22178 4.22236C4.22178 5.20272 5.01925 6.00029 5.99951 6.00029C6.97987 6.00029 7.77734 5.20272 7.77734 4.22236C7.77734 3.2421 6.97987 2.44453 5.99951 2.44453C5.01925 2.44453 4.22178 3.242 4.22178 4.22236ZM4.82273 4.22226C4.82273 3.57333 5.35057 3.04539 5.99951 3.04539C6.64844 3.04539 7.17638 3.57343 7.17638 4.22226C7.17638 4.87129 6.64844 5.39923 5.99951 5.39923C5.35067 5.39923 4.82273 4.87119 4.82273 4.22226Z" fill="#91978B"/>
<path d="M4.83106 11.3072L4.72512 11.3636L4.72619 11.3655L4.83106 11.3072ZM7.18801 11.3023L7.29288 11.3607L7.29408 11.3584L7.18801 11.3023ZM9.79526 6.37475L9.68982 6.31743L9.68919 6.31862L9.79526 6.37475ZM9.54066 1.84714L9.63903 1.77842L9.63902 1.7784L9.54066 1.84714ZM9.12219 1.77292L9.05354 1.6745L9.05345 1.67456L9.12219 1.77292ZM9.04797 2.19139L9.14634 2.12266L9.14633 2.12265L9.04797 2.19139ZM9.26562 6.09069L9.16018 6.03339L9.15955 6.03457L9.26562 6.09069ZM6.65987 11.0155L6.76472 11.074L6.76594 11.0717L6.65987 11.0155ZM5.3587 11.02L5.25276 11.0764L5.25385 11.0784L5.3587 11.02ZM2.74604 6.11223L2.85198 6.05583L2.85105 6.05415L2.74604 6.11223ZM7.89343 1.11878L7.95469 1.0156L7.95467 1.01558L7.89343 1.11878ZM8.30519 1.01371L8.202 0.952454L8.20197 0.952508L8.30519 1.01371ZM8.20012 0.601958L8.26138 0.498773L8.26136 0.498761L8.20012 0.601958ZM2.218 6.39889L2.32394 6.34249L2.323 6.34079L2.218 6.39889ZM6.00813 11.88C5.56347 11.88 5.15247 11.6382 4.93593 11.2489L4.72619 11.3655C4.98501 11.8309 5.47624 12.12 6.00813 12.12V11.88ZM7.08317 11.2439C6.86338 11.6386 6.45239 11.88 6.00813 11.88V12.12C6.54023 12.12 7.03108 11.8308 7.29285 11.3607L7.08317 11.2439ZM9.68919 6.31862L7.08194 11.2462L7.29408 11.3584L9.90133 6.43087L9.68919 6.31862ZM10.1965 4.31687C10.1965 5.01584 10.0212 5.70776 9.68983 6.31744L9.90069 6.43206C10.2514 5.78694 10.4365 5.05559 10.4365 4.31687H10.1965ZM9.44228 1.91586C9.93566 2.6221 10.1965 3.45215 10.1965 4.31687H10.4365C10.4365 3.40316 10.1607 2.52509 9.63903 1.77842L9.44228 1.91586ZM9.19085 1.87134C9.27272 1.81423 9.38524 1.83424 9.44229 1.91588L9.63902 1.7784C9.50597 1.58801 9.24389 1.54172 9.05354 1.6745L9.19085 1.87134ZM9.14633 2.12265C9.08926 2.04098 9.10922 1.92839 9.19093 1.87128L9.05345 1.67456C8.86313 1.80756 8.81658 2.06977 8.94961 2.26013L9.14633 2.12265ZM9.83553 4.31687C9.83553 3.52686 9.59717 2.76799 9.14634 2.12266L8.9496 2.26011C9.37216 2.86498 9.59553 3.57584 9.59553 4.31687H9.83553ZM9.37105 6.148C9.67553 5.58776 9.83553 4.95567 9.83553 4.31687H9.59553C9.59553 4.91584 9.44545 5.50851 9.16018 6.03339L9.37105 6.148ZM6.76594 11.0717L9.37169 6.14681L9.15955 6.03457L6.5538 10.9594L6.76594 11.0717ZM6.00803 11.5191C6.32203 11.5191 6.61177 11.3484 6.7647 11.0739L6.55504 10.9571C6.44435 11.1558 6.2347 11.2791 6.00803 11.2791V11.5191ZM5.25385 11.0784C5.4043 11.3487 5.69442 11.5191 6.00803 11.5191V11.2791C5.78079 11.2791 5.57131 11.1553 5.46355 10.9617L5.25385 11.0784ZM2.64012 6.16862L5.25277 11.0764L5.46463 10.9637L2.85197 6.05584L2.64012 6.16862ZM2.16421 4.31667C2.16421 4.96525 2.32905 5.60624 2.64103 6.17031L2.85105 6.05415C2.55887 5.52588 2.40421 4.92489 2.40421 4.31667H2.16421ZM5.99992 0.480957C3.88478 0.480957 2.16421 2.20154 2.16421 4.31667H2.40421C2.40421 2.33408 4.01733 0.720957 5.99992 0.720957V0.480957ZM7.95467 1.01558C7.36511 0.665777 6.6892 0.480957 5.99992 0.480957V0.720957C6.64637 0.720957 7.27994 0.894306 7.8322 1.22198L7.95467 1.01558ZM8.20197 0.952508C8.15116 1.0382 8.04042 1.06649 7.95469 1.0156L7.83217 1.22197C8.03191 1.34054 8.28995 1.27468 8.40841 1.07492L8.20197 0.952508ZM8.13886 0.705144C8.22466 0.756078 8.25287 0.866768 8.202 0.952454L8.40837 1.07497C8.52697 0.875204 8.46104 0.617308 8.26138 0.498773L8.13886 0.705144ZM6.00002 0.12C6.75422 0.12 7.49386 0.322388 8.13888 0.705156L8.26136 0.498761C7.57907 0.0938741 6.79709 -0.12 6.00002 -0.12V0.12ZM1.80335 4.31667C1.80335 2.00275 3.68601 0.12 6.00002 0.12V-0.12C3.55346 -0.12 1.56335 1.87021 1.56335 4.31667H1.80335ZM2.323 6.34079C1.98398 5.72804 1.80335 5.02661 1.80335 4.31667H1.56335C1.56335 5.06686 1.75411 5.80832 2.113 6.45698L2.323 6.34079ZM4.93698 11.2508L2.32393 6.34249L2.11208 6.45528L4.72514 11.3636L4.93698 11.2508ZM5.99951 5.88029C5.08553 5.88029 4.34178 5.13646 4.34178 4.22236H4.10178C4.10178 5.26898 4.95296 6.12029 5.99951 6.12029V5.88029ZM7.65734 4.22236C7.65734 5.13646 6.91358 5.88029 5.99951 5.88029V6.12029C7.04615 6.12029 7.89734 5.26899 7.89734 4.22236H7.65734ZM5.99951 2.56453C6.91359 2.56453 7.65734 3.30837 7.65734 4.22236H7.89734C7.89734 3.17583 7.04615 2.32453 5.99951 2.32453V2.56453ZM4.34178 4.22236C4.34178 3.30827 5.08553 2.56453 5.99951 2.56453V2.32453C4.95297 2.32453 4.10178 3.17573 4.10178 4.22236H4.34178ZM5.99951 2.92539C5.28429 2.92539 4.70273 3.50707 4.70273 4.22226H4.94273C4.94273 3.63959 5.41686 3.16539 5.99951 3.16539V2.92539ZM7.29638 4.22226C7.29638 3.50716 6.71472 2.92539 5.99951 2.92539V3.16539C6.58216 3.16539 7.05638 3.6397 7.05638 4.22226H7.29638ZM5.99951 5.51923C6.71472 5.51923 7.29638 4.93756 7.29638 4.22226H7.05638C7.05638 4.80503 6.58216 5.27923 5.99951 5.27923V5.51923ZM4.70273 4.22226C4.70273 4.93745 5.28438 5.51923 5.99951 5.51923V5.27923C5.41697 5.27923 4.94273 4.80494 4.94273 4.22226H4.70273Z" fill="#91978B" mask="url(#path-1-outside-1_243_17783)"/>
</g>
<defs>
<clipPath id="clip0_243_17783">
<rect width="12" height="12" fill="white"/>
</clipPath>
</defs>
</svg>
