<svg width="60" height="60" viewBox="0 0 60 60" fill="none" xmlns="http://www.w3.org/2000/svg">
<g clip-path="url(#clip0_1_21884)">
<path d="M38.9106 60.0183C38.4431 60.0093 37.9974 59.8193 37.6672 59.4883C37.3371 59.1572 37.1483 58.711 37.1406 58.2435V58.2081C37.104 55.8969 37.0686 53.7135 38.3124 51.7149C38.8609 50.9171 39.4716 50.164 40.1388 49.4625C41.7714 47.6277 44.0076 45.1143 45.1494 41.8899C46.2472 38.5686 47.9736 35.4895 50.2344 32.8203L50.4612 32.5335C52.4275 30.1675 54.1649 27.6203 55.65 24.9261C55.7277 24.7761 55.759 24.6064 55.7399 24.4386C55.7208 24.2708 55.6522 24.1124 55.5428 23.9837C55.4334 23.855 55.2882 23.7618 55.1256 23.7159C54.9631 23.67 54.7905 23.6736 54.63 23.7261C52.7778 24.3789 51.5214 25.8783 49.4334 29.0433C46.545 33.4233 44.3706 32.9325 43.3284 32.2497C41.1684 30.8325 42.2826 27.5433 43.6926 23.3793C43.833 22.9635 43.9734 22.5501 44.1072 22.1463C45.8796 16.8561 46.5558 13.3917 46.7472 11.2977C46.7648 11.1192 46.7255 10.9396 46.635 10.7847C46.5444 10.6298 46.4073 10.5075 46.2431 10.4352C46.0789 10.3628 45.896 10.3442 45.7206 10.382C45.5452 10.4198 45.3863 10.512 45.2664 10.6455C43.7628 12.3855 42.654 15.1377 41.958 18.8655C40.3668 27.3987 38.2152 28.3611 37.5084 28.6803C37.0757 28.877 36.6007 28.9627 36.1265 28.9295C35.6523 28.8963 35.1939 28.7452 34.7928 28.4901C32.8662 27.3219 32.8458 24.6837 32.7792 15.9423V15.8271C32.711 12.3882 32.3339 8.96245 31.6524 5.5911C31.613 5.42105 31.5223 5.26723 31.3925 5.15054C31.2627 5.03384 31.1001 4.95993 30.9269 4.93882C30.7536 4.91772 30.5781 4.95046 30.424 5.03259C30.27 5.11472 30.145 5.24227 30.066 5.3979C28.6644 8.2887 28.6044 13.3659 28.8852 15.9975L28.8912 16.0677C29.5614 26.0061 27.6558 27.7623 27.0312 28.3395C26.7074 28.6476 26.3173 28.8776 25.8909 29.0117C25.4646 29.1459 25.0131 29.1807 24.5712 29.1135C22.3872 28.7859 21.624 26.3751 20.2374 21.9987C19.89 20.9025 19.497 19.6587 19.0422 18.3267C18.8436 17.7435 18.6438 17.0067 18.4122 16.1493C18.1806 15.2919 17.7738 13.7895 17.3322 12.5607C17.2723 12.3925 17.1611 12.2474 17.0143 12.1458C16.8675 12.0442 16.6925 11.9913 16.514 11.9946C16.3355 11.9978 16.1626 12.057 16.0196 12.1639C15.8765 12.2708 15.7707 12.4198 15.717 12.5901C15.3234 13.8543 15.2862 15.9861 16.257 19.8453C16.3224 20.0727 18.24 26.8089 18.6684 31.3131C19.0194 35.0079 19.296 37.9251 17.3052 38.9571C15.492 39.8979 13.5642 38.2455 12.7416 37.5399C10.6304 35.7851 7.97192 34.8238 5.2266 34.8225C5.05678 34.8261 4.89192 34.8804 4.75319 34.9784C4.61445 35.0764 4.50818 35.2137 4.44801 35.3725C4.38784 35.5313 4.37652 35.7045 4.4155 35.8699C4.45449 36.0352 4.542 36.1851 4.6668 36.3003C5.595 37.1709 7.3386 38.4495 10.6068 40.1001C14.682 42.1599 16.8618 45.0801 18.6132 47.4243C19.2656 48.3414 19.976 49.2158 20.7402 50.0421C22.127 51.3975 23.0943 53.1234 23.5266 55.0137C23.6591 56.0684 23.7192 57.1308 23.7066 58.1937C23.7094 58.4327 23.6646 58.6698 23.5748 58.8912C23.485 59.1127 23.352 59.314 23.1835 59.4835C23.0151 59.653 22.8146 59.7873 22.5937 59.8785C22.3728 59.9697 22.136 60.016 21.897 60.0147C21.4249 60.0138 20.972 59.8275 20.636 59.4958C20.3 59.1642 20.1077 58.7138 20.1006 58.2417C20.085 57.0777 20.049 56.0415 19.998 55.7553C19.7042 54.5373 19.0682 53.4287 18.165 52.5603C17.2866 51.622 16.472 50.626 15.7266 49.5789C14.0406 47.3253 12.3006 44.9937 8.9796 43.3149C2.889 40.2357 -0.0407993 37.4775 0.0240007 34.8819C0.0558019 34.2047 0.285668 33.5517 0.685097 33.0039C1.08453 32.4561 1.63595 32.0376 2.271 31.8003C5.2308 30.4845 11.082 31.3761 15.0804 34.8045C15.1608 34.8741 15.2376 34.9377 15.3096 34.9971C15.2964 33.9387 15.159 32.4927 15.0798 31.6509C14.6826 27.4785 12.7938 20.8419 12.7746 20.7753C10.6896 12.4719 12.5448 9.6807 14.8578 7.8927C15.2392 7.57209 15.6958 7.35367 16.1848 7.25795C16.6738 7.16224 17.1791 7.19236 17.6532 7.3455C19.803 8.0655 20.763 11.0595 21.885 15.2055C22.0914 15.9681 22.2864 16.6875 22.4484 17.1621C22.9152 18.5319 23.3148 19.7943 23.6676 20.9079C24.1032 22.2819 24.5772 23.7795 24.978 24.7479C25.2906 23.6079 25.626 21.1977 25.3008 16.3389C25.1448 14.8503 24.1452 3.3003 30.0942 0.294301C30.5066 0.0770431 30.968 -0.0303484 31.434 -0.0175276C31.9 -0.00470681 32.3548 0.127894 32.7546 0.367501C35.4402 1.9689 36.207 9.6219 36.3774 15.7605V15.9111C36.405 19.4949 36.4302 22.7133 36.63 24.4377C37.4783 22.4404 38.0793 20.3468 38.4198 18.2037C39.6048 11.8545 41.8998 7.8417 45.4332 5.9349C47.3322 4.9101 48.6048 5.6949 49.0626 6.0831C51.249 7.9203 50.7306 13.7085 47.5206 23.2803C47.3862 23.6847 47.244 24.1065 47.1006 24.5313C46.8216 25.3551 46.4508 26.4513 46.1616 27.4431C46.2496 27.3199 46.338 27.1915 46.4268 27.0579C49.1202 22.9743 51.2436 20.2605 56.0268 19.7697C58.2798 19.5357 59.22 20.6193 59.5842 21.2841C60.471 22.9005 60.4152 25.7673 53.2842 34.7679L53.0544 35.0577C51.043 37.4179 49.51 40.1467 48.5406 43.0923C47.1606 46.9809 44.5536 49.9143 42.8262 51.8559C42.3018 52.4108 41.8142 52.9992 41.3664 53.6175C40.6836 54.7155 40.7064 56.2317 40.7382 58.1511V58.1949C40.7419 58.4357 40.6972 58.6749 40.6066 58.8981C40.516 59.1213 40.3815 59.3239 40.211 59.4941C40.0405 59.6642 39.8375 59.7983 39.6141 59.8883C39.3907 59.9784 39.1514 60.0226 38.9106 60.0183Z" fill="#548B6C"/>
</g>
<defs>
<clipPath id="clip0_1_21884">
<rect width="60" height="60" fill="white"/>
</clipPath>
</defs>
</svg>
