<svg width="24" height="23" viewBox="0 0 24 23" fill="none" xmlns="http://www.w3.org/2000/svg">
<path d="M0 7.73747C0 12.842 4.3142 17.8627 11.1299 22.1765C11.3837 22.3322 11.7462 22.5 12 22.5C12.2538 22.5 12.6163 22.3322 12.8822 22.1765C19.6858 17.8627 24 12.842 24 7.73747C24 3.49564 21.0634 0.5 17.148 0.5C14.9124 0.5 13.0997 1.55447 12 3.17211C10.9245 1.56645 9.08761 0.5 6.85196 0.5C2.93656 0.5 0 3.49564 0 7.73747ZM1.94562 7.73747C1.94562 4.55011 4.02417 2.42919 6.82779 2.42919C9.0997 2.42919 10.4048 3.83115 11.1782 5.02941C11.5045 5.50871 11.71 5.64052 12 5.64052C12.29 5.64052 12.4713 5.49673 12.8218 5.02941C13.6556 3.85512 14.9124 2.42919 17.1722 2.42919C19.9758 2.42919 22.0544 4.55011 22.0544 7.73747C22.0544 12.195 17.3051 17 12.2538 20.3312C12.1329 20.415 12.0483 20.4749 12 20.4749C11.9517 20.4749 11.8671 20.415 11.7583 20.3312C6.69486 17 1.94562 12.195 1.94562 7.73747Z" fill="black"/>
</svg>
