<svg width="20" height="21" viewBox="0 0 20 21" fill="none" xmlns="http://www.w3.org/2000/svg">
<path d="M15.5249 1.55097C15.4529 1.58114 13.7346 2.30244 11.5965 3.56515C11.2823 3.75054 11.1781 4.15567 11.3635 4.46964C11.5489 4.78361 11.9538 4.88819 12.268 4.70258C12.859 4.35382 13.42 4.04624 13.9198 3.78511C13.313 5.19512 12.9539 7.2716 13.9898 9.89589C14.6208 11.495 15.2111 13.5783 14.1679 15.5102C12.8482 17.9533 9.82934 18.8903 7.43822 17.5992C5.04798 16.3079 4.17696 13.2694 5.49692 10.8259C6.19378 9.53612 7.37525 8.22255 9.0083 6.9224C9.29365 6.6954 9.34077 6.27971 9.11376 5.99436C8.88654 5.70901 8.47107 5.66145 8.1855 5.88889C6.41242 7.30067 5.11667 8.75031 4.33461 10.198C2.66853 13.2824 3.77932 17.1239 6.81049 18.7615C7.73832 19.2624 8.7399 19.5 9.73136 19.5C11.9794 19.4998 14.1743 18.278 15.3307 16.1377C16.6475 13.6992 15.8976 11.1306 15.219 9.4104C13.5598 5.20811 16.1187 2.74697 16.2264 2.64635C16.4626 2.42948 16.5086 2.07411 16.3358 1.80395C16.1627 1.53424 15.8203 1.42767 15.5249 1.55097Z" fill="white"/>
</svg>
