<svg width="16" height="16" viewBox="0 0 16 16" fill="none" xmlns="http://www.w3.org/2000/svg">
<path d="M13.4133 10.6507C12.1942 10.6507 11.1723 11.5279 10.8999 12.7033H3.17497C2.08803 12.7033 1.20367 11.7892 1.20367 10.6654C1.20367 9.54165 2.08803 8.62732 3.17577 8.62732L12.5867 8.61695C14.3374 8.61695 15.7615 7.14436 15.7615 5.33458C15.7615 3.5248 14.3372 2.05242 12.5867 2.05242H5.54541C5.27302 0.877207 4.25087 0 3.03195 0C1.60544 0 0.445084 1.19989 0.445084 2.67476C0.445084 4.14942 1.60564 5.3491 3.03195 5.3491C4.25107 5.3491 5.27322 4.47189 5.54541 3.29668H12.5865C13.6735 3.29668 14.5578 4.2108 14.5578 5.33458C14.5578 6.45836 13.6735 7.37268 12.5857 7.37268L3.17476 7.38305C1.42411 7.38305 0 8.85564 0 10.6654C0 12.4752 1.42431 13.9476 3.17476 13.9476H10.8997C11.1719 15.1228 12.194 16 13.4131 16C14.8396 16 16 14.8001 16 13.3255C16.0002 11.8508 14.8399 10.6507 13.4133 10.6507ZM3.03195 4.10504C2.26915 4.10504 1.64856 3.46341 1.64856 2.67496C1.64856 1.8861 2.26915 1.24447 3.03195 1.24447C3.79476 1.24447 4.41535 1.88631 4.41535 2.67496C4.41535 3.46341 3.79476 4.10504 3.03195 4.10504ZM13.4133 14.7559C12.6505 14.7559 12.0299 14.1143 12.0299 13.3257C12.0299 12.537 12.6505 11.8952 13.4133 11.8952C14.1761 11.8952 14.7967 12.537 14.7967 13.3257C14.7967 14.1143 14.1761 14.7559 13.4133 14.7559Z" fill="#6F6F6F"/>
</svg>
