<svg width="16" height="17" viewBox="0 0 16 17" fill="none" xmlns="http://www.w3.org/2000/svg">
<mask id="path-1-inside-1_512_9095" fill="white">
<path d="M13.4133 11.0642C12.1942 11.0642 11.1723 11.9127 10.8999 13.0496H3.17497C2.08803 13.0496 1.20367 12.1654 1.20367 11.0785C1.20367 9.99155 2.08803 9.10719 3.17577 9.10719L12.5867 9.09716C14.3374 9.09716 15.7615 7.67285 15.7615 5.9224C15.7615 4.17194 14.3372 2.74783 12.5867 2.74783H5.54541C5.27302 1.61115 4.25087 0.762695 3.03195 0.762695C1.60544 0.762695 0.445084 1.92325 0.445084 3.34977C0.445084 4.77609 1.60564 5.93644 3.03195 5.93644C4.25107 5.93644 5.27322 5.08799 5.54541 3.9513H12.5865C13.6735 3.9513 14.5578 4.83546 14.5578 5.9224C14.5578 7.00934 13.6735 7.89369 12.5857 7.89369L3.17476 7.90372C1.42411 7.90372 0 9.32803 0 11.0785C0 12.8289 1.42431 14.2531 3.17476 14.2531H10.8997C11.1719 15.3897 12.194 16.2382 13.4131 16.2382C14.8396 16.2382 16 15.0776 16 13.6513C16.0002 12.225 14.8399 11.0642 13.4133 11.0642ZM3.03195 4.73316C2.26915 4.73316 1.64856 4.11257 1.64856 3.34997C1.64856 2.58696 2.26915 1.96637 3.03195 1.96637C3.79476 1.96637 4.41535 2.58716 4.41535 3.34997C4.41535 4.11257 3.79476 4.73316 3.03195 4.73316ZM13.4133 15.0349C12.6505 15.0349 12.0299 14.4143 12.0299 13.6515C12.0299 12.8887 12.6505 12.2679 13.4133 12.2679C14.1761 12.2679 14.7967 12.8887 14.7967 13.6515C14.7967 14.4143 14.1761 15.0349 13.4133 15.0349Z"/>
</mask>
<path d="M13.4133 11.0642C12.1942 11.0642 11.1723 11.9127 10.8999 13.0496H3.17497C2.08803 13.0496 1.20367 12.1654 1.20367 11.0785C1.20367 9.99155 2.08803 9.10719 3.17577 9.10719L12.5867 9.09716C14.3374 9.09716 15.7615 7.67285 15.7615 5.9224C15.7615 4.17194 14.3372 2.74783 12.5867 2.74783H5.54541C5.27302 1.61115 4.25087 0.762695 3.03195 0.762695C1.60544 0.762695 0.445084 1.92325 0.445084 3.34977C0.445084 4.77609 1.60564 5.93644 3.03195 5.93644C4.25107 5.93644 5.27322 5.08799 5.54541 3.9513H12.5865C13.6735 3.9513 14.5578 4.83546 14.5578 5.9224C14.5578 7.00934 13.6735 7.89369 12.5857 7.89369L3.17476 7.90372C1.42411 7.90372 0 9.32803 0 11.0785C0 12.8289 1.42431 14.2531 3.17476 14.2531H10.8997C11.1719 15.3897 12.194 16.2382 13.4131 16.2382C14.8396 16.2382 16 15.0776 16 13.6513C16.0002 12.225 14.8399 11.0642 13.4133 11.0642ZM3.03195 4.73316C2.26915 4.73316 1.64856 4.11257 1.64856 3.34997C1.64856 2.58696 2.26915 1.96637 3.03195 1.96637C3.79476 1.96637 4.41535 2.58716 4.41535 3.34997C4.41535 4.11257 3.79476 4.73316 3.03195 4.73316ZM13.4133 15.0349C12.6505 15.0349 12.0299 14.4143 12.0299 13.6515C12.0299 12.8887 12.6505 12.2679 13.4133 12.2679C14.1761 12.2679 14.7967 12.8887 14.7967 13.6515C14.7967 14.4143 14.1761 15.0349 13.4133 15.0349Z" fill="white"/>
<path d="M10.8999 13.0496V13.1496H10.9787L10.9971 13.0729L10.8999 13.0496ZM3.17577 9.10719V9.20719L3.17588 9.20719L3.17577 9.10719ZM12.5867 9.09716V8.99716L12.5866 8.99716L12.5867 9.09716ZM5.54541 2.74783L5.44816 2.77113L5.46654 2.84783H5.54541V2.74783ZM5.54541 3.9513V3.8513H5.46653L5.44816 3.92802L5.54541 3.9513ZM12.5857 7.89369V7.79369L12.5856 7.79369L12.5857 7.89369ZM3.17476 7.90372V8.00372L3.17487 8.00372L3.17476 7.90372ZM10.8997 14.2531L10.9969 14.2298L10.9786 14.1531H10.8997V14.2531ZM16 13.6513L15.9 13.6513V13.6513H16ZM4.41535 3.34997L4.31535 3.34997L4.41535 3.34997ZM13.4133 10.9642C12.1466 10.9642 11.0855 11.8457 10.8026 13.0263L10.9971 13.0729C11.259 11.9797 12.2418 11.1642 13.4133 11.1642V10.9642ZM10.8999 12.9496H3.17497V13.1496H10.8999V12.9496ZM3.17497 12.9496C2.14324 12.9496 1.30367 12.1102 1.30367 11.0785H1.10367C1.10367 12.2207 2.03281 13.1496 3.17497 13.1496V12.9496ZM1.30367 11.0785C1.30367 10.0468 2.14323 9.20719 3.17577 9.20719V9.00719C2.03283 9.00719 1.10367 9.93629 1.10367 11.0785H1.30367ZM3.17588 9.20719L12.5869 9.19716L12.5866 8.99716L3.17566 9.00719L3.17588 9.20719ZM12.5867 9.19716C14.3926 9.19716 15.8615 7.72808 15.8615 5.9224H15.6615C15.6615 7.61763 14.2822 8.99716 12.5867 8.99716V9.19716ZM15.8615 5.9224C15.8615 4.11671 14.3924 2.64783 12.5867 2.64783V2.84783C14.282 2.84783 15.6615 4.22718 15.6615 5.9224H15.8615ZM12.5867 2.64783H5.54541V2.84783H12.5867V2.64783ZM5.64266 2.72452C5.3598 1.54416 4.29845 0.662695 3.03195 0.662695V0.862695C4.2033 0.862695 5.18624 1.67813 5.44816 2.77113L5.64266 2.72452ZM3.03195 0.662695C1.5502 0.662695 0.345084 1.86803 0.345084 3.34977H0.545084C0.545084 1.97847 1.66067 0.862695 3.03195 0.862695V0.662695ZM0.345084 3.34977C0.345084 4.83132 1.55042 6.03644 3.03195 6.03644V5.83644C1.66085 5.83644 0.545084 4.72085 0.545084 3.34977H0.345084ZM3.03195 6.03644C4.29864 6.03644 5.36001 5.15497 5.64266 3.97459L5.44816 3.92802C5.18644 5.021 4.20351 5.83644 3.03195 5.83644V6.03644ZM5.54541 4.0513H12.5865V3.8513H5.54541V4.0513ZM12.5865 4.0513C13.6183 4.0513 14.4578 4.8907 14.4578 5.9224H14.6578C14.6578 4.78022 13.7287 3.8513 12.5865 3.8513V4.0513ZM14.4578 5.9224C14.4578 6.95408 13.6183 7.79369 12.5857 7.79369V7.99369C13.7287 7.99369 14.6578 7.06459 14.6578 5.9224H14.4578ZM12.5856 7.79369L3.17466 7.80372L3.17487 8.00372L12.5858 7.99369L12.5856 7.79369ZM3.17476 7.80372C1.36888 7.80372 -0.1 9.27281 -0.1 11.0785H0.1C0.1 9.38325 1.47934 8.00372 3.17476 8.00372V7.80372ZM-0.1 11.0785C-0.1 12.8842 1.36909 14.3531 3.17476 14.3531V14.1531C1.47953 14.1531 0.1 12.7737 0.1 11.0785H-0.1ZM3.17476 14.3531H10.8997V14.1531H3.17476V14.3531ZM10.8024 14.2763C11.0851 15.4567 12.1464 16.3382 13.4131 16.3382V16.1382C12.2416 16.1382 11.2586 15.3227 10.9969 14.2298L10.8024 14.2763ZM13.4131 16.3382C14.8949 16.3382 16.1 15.1329 16.1 13.6513H15.9C15.9 15.0224 14.7844 16.1382 13.4131 16.1382V16.3382ZM16.1 13.6513C16.1002 12.1698 14.8951 10.9642 13.4133 10.9642V11.1642C14.7846 11.1642 15.9002 12.2802 15.9 13.6513L16.1 13.6513ZM3.03195 4.63316C2.32437 4.63316 1.74856 4.05733 1.74856 3.34997H1.54856C1.54856 4.16781 2.21393 4.83316 3.03195 4.83316V4.63316ZM1.74856 3.34997C1.74856 2.64218 2.32439 2.06637 3.03195 2.06637V1.86637C2.21391 1.86637 1.54856 2.53174 1.54856 3.34997H1.74856ZM3.03195 2.06637C3.73951 2.06637 4.31535 2.64237 4.31535 3.34997H4.51535C4.51535 2.53195 3.85 1.86637 3.03195 1.86637V2.06637ZM4.31535 3.34997C4.31535 4.05733 3.73954 4.63316 3.03195 4.63316V4.83316C3.84998 4.83316 4.51535 4.16781 4.51535 3.34997L4.31535 3.34997ZM13.4133 14.9349C12.7058 14.9349 12.1299 14.3591 12.1299 13.6515H11.9299C11.9299 14.4695 12.5953 15.1349 13.4133 15.1349V14.9349ZM12.1299 13.6515C12.1299 12.9439 12.7058 12.3679 13.4133 12.3679V12.1679C12.5953 12.1679 11.9299 12.8335 11.9299 13.6515H12.1299ZM13.4133 12.3679C14.1209 12.3679 14.6967 12.9439 14.6967 13.6515H14.8967C14.8967 12.8335 14.2314 12.1679 13.4133 12.1679V12.3679ZM14.6967 13.6515C14.6967 14.3591 14.1209 14.9349 13.4133 14.9349V15.1349C14.2314 15.1349 14.8967 14.4695 14.8967 13.6515H14.6967Z" fill="white" mask="url(#path-1-inside-1_512_9095)"/>
</svg>
