<svg width="20" height="20" viewBox="0 0 20 20" fill="none" xmlns="http://www.w3.org/2000/svg">
<g clip-path="url(#clip0_1_23116)">
<path fill-rule="evenodd" clip-rule="evenodd" d="M18.2238 9.06288C18.5388 8.88988 18.934 9.00391 19.1074 9.31827C19.6917 10.3769 20.0004 11.5791 20 12.7947C20 16.7675 16.7677 19.9998 12.7949 19.9998C8.82202 19.9998 5.58975 16.7675 5.58975 12.7947C5.58975 12.5421 5.60298 12.2926 5.62856 12.0465C2.49016 11.8386 0 9.22093 0 6.0305C0 2.70544 2.70523 0 6.03051 0C9.2205 0 11.8386 2.49016 12.0463 5.62856C12.2925 5.60297 12.5423 5.58953 12.7951 5.58953C14.0118 5.58953 15.2146 5.89869 16.2734 6.4834C16.588 6.65705 16.702 7.05271 16.5284 7.36707C16.3547 7.68122 15.9591 7.7959 15.6447 7.62203C14.7777 7.14334 13.7924 6.89033 12.7951 6.89033C9.53941 6.89033 6.89076 9.53876 6.89076 12.7947C6.89076 16.0506 9.53963 18.699 12.7953 18.699C16.051 18.699 18.6996 16.0506 18.6996 12.7947C18.6996 11.798 18.4468 10.8133 17.9686 9.94656C17.7949 9.6322 17.9092 9.23654 18.2238 9.06288ZM6.03072 1.3008C3.42284 1.3008 1.30102 3.42262 1.30102 6.0305C1.30102 8.59004 3.34457 10.6793 5.88482 10.757C6.12026 9.96087 6.48925 9.22158 6.96686 8.56533C6.64492 8.40164 6.33099 8.23427 6.03072 8.05845C5.49501 8.37086 4.90856 8.66094 4.29936 8.9612C4.0986 9.06006 3.89372 9.16109 3.6856 9.26516C3.59237 9.31177 3.49286 9.3341 3.39509 9.3341C3.15661 9.3341 2.92702 9.2025 2.81298 8.97464C2.65211 8.65356 2.78219 8.26289 3.10349 8.10203C3.314 7.99666 3.52127 7.89433 3.72441 7.79439C4.13264 7.5932 4.50467 7.40675 4.84548 7.22529C4.12223 6.59548 3.60538 5.8124 3.45752 4.72819H3.14382C2.78458 4.72819 2.49342 4.43702 2.49342 4.07779C2.49342 3.71855 2.78458 3.42739 3.14382 3.42739H4.05806L4.06023 3.42717L4.0624 3.42739H5.37989V2.51163C5.37989 2.15239 5.67105 1.86123 6.03029 1.86123C6.38952 1.86123 6.68069 2.15239 6.68069 2.51163V3.42739H7.99861L8.00078 3.42717L8.00295 3.42739H8.9172C9.27643 3.42739 9.56759 3.71855 9.56759 4.07779C9.56759 4.43702 9.27643 4.72819 8.9172 4.72819H8.60457C8.45996 5.8163 7.95027 6.59613 7.219 7.22832C7.42062 7.33499 7.63092 7.44317 7.85617 7.55591C8.66874 6.78974 9.65821 6.2098 10.7567 5.88525C10.6793 3.34435 8.59004 1.3008 6.03072 1.3008ZM6.02704 6.50941C6.71494 6.01142 7.14139 5.47485 7.29011 4.72797H4.77046C4.91789 5.47918 5.34217 6.01446 6.02704 6.50941ZM12.2855 7.90015C12.3906 7.66687 12.6226 7.51728 12.8782 7.51728C13.134 7.51728 13.3658 7.66687 13.4709 7.90015L16.9521 15.6108C17.0999 15.9382 16.9542 16.3235 16.6269 16.4713C16.5402 16.5106 16.4493 16.5292 16.3598 16.5292C16.112 16.5292 15.8752 16.3866 15.7666 16.1461L14.9354 14.3051H10.8212L9.98998 16.1461C9.84212 16.4735 9.45644 16.619 9.1295 16.4713C8.80213 16.3235 8.65645 15.9382 8.8043 15.6108L12.2855 7.90015ZM12.8784 9.74815L11.4085 13.004H14.3483L12.8784 9.74815Z" fill="#548B6C"/>
</g>
<defs>
<clipPath id="clip0_1_23116">
<rect width="20" height="20" fill="white"/>
</clipPath>
</defs>
</svg>
