<svg width="12" height="12" viewBox="0 0 12 12" fill="none" xmlns="http://www.w3.org/2000/svg">
<g clip-path="url(#clip0_243_17829)">
<path d="M7.58118 12.0013C6.52518 12.0013 5.9817 11.5156 5.71397 11.1168C5.68191 11.0695 5.66119 11.0154 5.6534 10.9588C5.64562 10.9022 5.65099 10.8445 5.6691 10.7903C5.6872 10.7361 5.71756 10.6868 5.75781 10.6462C5.79805 10.6056 5.84711 10.5749 5.90117 10.5563C5.97799 10.5299 6.06139 10.5296 6.13837 10.5555C6.21536 10.5814 6.28161 10.6321 6.32682 10.6996C6.4971 10.9561 6.85242 11.2581 7.58118 11.2581C9.28866 11.2581 10.7231 9.31741 11.1508 6.42925C11.5741 3.56976 10.6898 1.03739 9.18006 0.784309C8.78588 0.713155 8.38088 0.72942 7.99367 0.831955C7.60646 0.934491 7.24649 1.1208 6.93918 1.37771C6.32658 1.91387 5.99321 2.76587 5.96597 3.8556C5.96415 3.95052 5.92609 4.04115 5.85961 4.10893C5.79313 4.17671 5.70324 4.2165 5.60837 4.22016H5.60561C5.55558 4.22205 5.50568 4.21374 5.45896 4.19574C5.41224 4.17773 5.36968 4.15041 5.33386 4.11543C5.29803 4.08045 5.2697 4.03854 5.25059 3.99226C5.23148 3.94599 5.22199 3.8963 5.22269 3.84624C5.26013 2.21015 5.89841 1.30067 6.4497 0.818269C6.84004 0.489335 7.29786 0.250145 7.79081 0.117603C8.28376 -0.0149386 8.7998 -0.0375979 9.30246 0.0512267C11.2416 0.376188 12.3765 3.2256 11.8861 6.53809C11.4024 9.80534 9.67207 12.0013 7.58118 12.0013Z" fill="#91978B"/>
<path d="M8.0052 10.0869C7.67861 10.0809 7.36308 9.96747 7.10748 9.76407C6.75531 9.48672 6.49057 9.1137 6.345 8.68971C6.3264 8.63888 6.31907 8.58462 6.32354 8.53068C6.328 8.47674 6.34414 8.42441 6.37084 8.37733C6.39755 8.33025 6.43417 8.28954 6.47817 8.25803C6.52218 8.22652 6.57251 8.20495 6.62568 8.19483C6.71378 8.17927 6.80454 8.19564 6.88165 8.24099C6.95877 8.28635 7.01718 8.35771 7.0464 8.44227C7.14394 8.72867 7.3206 8.98159 7.55592 9.17175C7.69899 9.29047 7.88162 9.35077 8.06724 9.34059C8.17043 9.32374 8.26857 9.28408 8.35449 9.2245C8.44041 9.16492 8.51196 9.08692 8.56393 8.99619C8.64901 8.85489 8.70128 8.69628 8.71687 8.53208C8.73247 8.36788 8.711 8.20227 8.65405 8.04747C8.47621 7.52271 8.66689 7.20039 8.81989 6.94155C8.92104 6.78701 8.99676 6.61725 9.04417 6.43874C9.1 6.17156 9.11561 5.89754 9.09049 5.62574C9.0865 5.5736 9.063 5.52487 9.02468 5.48928C8.98636 5.45369 8.93603 5.43386 8.88373 5.43374C8.82981 5.42708 8.77536 5.44098 8.73124 5.47268C8.68712 5.50437 8.65655 5.55152 8.64565 5.60474C8.57842 5.8963 8.45858 6.17315 8.292 6.4217C8.21521 6.53066 8.1138 6.61997 7.99601 6.68237C7.87822 6.74477 7.74737 6.77852 7.61409 6.78085C7.48081 6.78319 7.34886 6.75406 7.22896 6.69583C7.10905 6.63759 7.00457 6.5519 6.924 6.4457C6.50316 5.8781 6.33216 5.09402 6.4512 4.28966C6.48118 4.08787 6.52937 3.88922 6.5952 3.69614C6.98172 2.56393 7.9032 1.86925 8.83825 2.00773C9.53761 2.11129 10.1046 2.66377 10.3571 3.45614C10.3725 3.50673 10.377 3.56005 10.3701 3.6125C10.3632 3.66496 10.3452 3.71533 10.3172 3.76023C10.2893 3.80514 10.252 3.84354 10.208 3.87284C10.1639 3.90215 10.1141 3.92168 10.0619 3.93014C9.97364 3.94463 9.88312 3.92684 9.80691 3.88003C9.7307 3.83323 9.6739 3.76053 9.64693 3.67526C9.48001 3.15769 9.13885 2.80333 8.72797 2.74249C8.16312 2.65849 7.5618 3.16081 7.2972 3.93566C7.24616 4.0861 7.20881 4.24085 7.1856 4.39802C7.09656 4.99982 7.22028 5.59802 7.51668 5.99762C7.52601 6.01043 7.53831 6.02077 7.55253 6.02775C7.56675 6.03473 7.58245 6.03815 7.59828 6.0377C7.6149 6.03772 7.63128 6.0338 7.64608 6.02627C7.66089 6.01874 7.67371 6.00782 7.68348 5.99438C7.79014 5.8316 7.86826 5.65182 7.91448 5.46278C7.97081 5.23257 8.1062 5.02945 8.297 4.88887C8.48781 4.74828 8.72192 4.67917 8.95849 4.69358C9.17858 4.71123 9.38568 4.80486 9.54431 4.95844C9.70295 5.11202 9.80324 5.31598 9.82801 5.53538C9.86278 5.88588 9.84416 6.23963 9.77281 6.58454L9.76897 6.60255C9.70519 6.85665 9.60068 7.09874 9.45949 7.31943C9.32881 7.54023 9.28957 7.60683 9.35773 7.80843C9.45079 8.06825 9.48421 8.34567 9.45552 8.62015C9.42684 8.89464 9.33677 9.15915 9.19201 9.39411C9.08086 9.57888 8.92964 9.73634 8.74951 9.85485C8.56937 9.97336 8.36492 10.0499 8.15124 10.0788C8.10275 10.0842 8.054 10.0869 8.0052 10.0869Z" fill="#91978B"/>
<path d="M3.47522 9.91164C3.41237 9.82952 3.38251 9.72686 3.39153 9.62384C3.40055 9.52083 3.44778 9.42491 3.52394 9.35496C3.95749 8.94675 4.29034 8.44345 4.49629 7.88471C4.70224 7.32597 4.77565 6.72705 4.71074 6.13511C4.60409 5.11714 4.09757 4.18318 3.30254 3.53854C3.22123 3.47449 3.16679 3.38237 3.14987 3.28026C3.13295 3.17814 3.15479 3.07339 3.2111 2.98654C3.2432 2.93848 3.28503 2.89769 3.33387 2.86679C3.38272 2.83589 3.43749 2.81557 3.49467 2.80715C3.55185 2.79873 3.61016 2.80238 3.66584 2.81788C3.72152 2.83338 3.77334 2.86038 3.81794 2.89714C4.29628 3.28405 4.69365 3.76148 4.9873 4.30212C5.28094 4.84276 5.46511 5.43599 5.52926 6.04787C5.60807 6.7666 5.5187 7.49381 5.2682 8.17207C5.01771 8.85033 4.61295 9.46107 4.0859 9.95604C4.04415 9.99582 3.99455 10.0264 3.94027 10.0459C3.88599 10.0654 3.82824 10.0733 3.77072 10.0691C3.71321 10.0649 3.65721 10.0487 3.60632 10.0216C3.55543 9.99451 3.51077 9.95704 3.47522 9.91164Z" fill="#91978B"/>
<path d="M0.0937028 8.73006C0.0314255 8.65429 -0.00177459 8.55878 7.31716e-05 8.46072C0.00192093 8.36265 0.0386953 8.26847 0.103783 8.1951C0.300123 7.97133 0.4479 7.70926 0.537771 7.42545C0.627643 7.14165 0.657653 6.84229 0.625904 6.54629C0.580311 6.10968 0.401838 5.69757 0.114583 5.36561C0.0503682 5.29184 0.0145707 5.19759 0.0136248 5.0998C0.012679 5.002 0.0466469 4.90708 0.109423 4.83209C0.147058 4.78666 0.194049 4.74988 0.24719 4.72427C0.300331 4.69866 0.358373 4.68481 0.417353 4.68367C0.476334 4.68253 0.534867 4.69413 0.588957 4.71767C0.643048 4.74121 0.691424 4.77615 0.730785 4.82009C1.13194 5.2802 1.38118 5.85299 1.44443 6.46013C1.48843 6.87101 1.44629 7.28655 1.32071 7.68024C1.19513 8.07392 0.98886 8.43711 0.715065 8.74662C0.675382 8.79029 0.626745 8.82488 0.572473 8.84803C0.518201 8.87119 0.459572 8.88236 0.400587 8.88079C0.341603 8.87922 0.283652 8.86494 0.23069 8.83892C0.177729 8.81291 0.131003 8.77578 0.0937028 8.73006Z" fill="#91978B"/>
<path d="M1.74784 9.30847C1.68596 9.23077 1.65465 9.13311 1.65982 9.03392C1.66499 8.93473 1.70629 8.84086 1.77592 8.77002C2.09817 8.45274 2.34433 8.06656 2.49593 7.64049C2.64753 7.21442 2.70061 6.75954 2.6512 6.31002C2.57403 5.59196 2.24229 4.92528 1.71604 4.43069C1.64351 4.36199 1.59871 4.26907 1.59013 4.16954C1.58155 4.07001 1.60978 3.97079 1.66948 3.89069C1.70389 3.84383 1.74783 3.80479 1.79841 3.77614C1.849 3.74748 1.90508 3.72987 1.96296 3.72445C2.02084 3.71903 2.07922 3.72593 2.13424 3.7447C2.18926 3.76346 2.23969 3.79367 2.2822 3.83333C2.95068 4.46275 3.37205 5.31047 3.4702 6.22338C3.53269 6.79337 3.46577 7.37012 3.27441 7.91066C3.08305 8.45119 2.7722 8.94159 2.365 9.34531C2.32369 9.38662 2.27409 9.4187 2.21947 9.43944C2.16485 9.46018 2.10646 9.4691 2.04814 9.46562C1.98982 9.46214 1.9329 9.44633 1.88113 9.41924C1.82937 9.39215 1.78394 9.3544 1.74784 9.30847Z" fill="#91978B"/>
</g>
<defs>
<clipPath id="clip0_243_17829">
<rect width="12" height="12" fill="white"/>
</clipPath>
</defs>
</svg>
