<svg width="134" height="38" viewBox="0 0 134 38" fill="none" xmlns="http://www.w3.org/2000/svg">
<path d="M11.9926 3.16607C11.9926 3.16607 10.6853 3.04133 11.7482 6.00616C11.7061 6.01554 11.6632 6.02126 11.6201 6.02325C11.6201 6.02325 10.3795 6.2266 7.27109 3.78296C7.27109 3.78296 5.62548 2.53551 4.8941 3.51468C4.8941 3.51468 4.36778 4.4477 6.01509 6.09331C6.90402 6.84751 7.96814 7.36635 9.1098 7.60221C9.1098 7.60221 12.2558 7.89271 12.4386 11.7034C12.4386 11.7034 12.1225 12.117 10.6102 11.4796C9.29329 10.8924 8.08116 10.0941 7.0216 9.11624C7.0216 9.11624 4.84454 7.4262 4.28746 5.05775C4.27246 4.9938 4.23715 4.93642 4.18682 4.8942C4.13649 4.85197 4.07384 4.82718 4.00825 4.82353C3.94266 4.81987 3.87765 4.83755 3.82294 4.87392C3.76823 4.91029 3.72677 4.96339 3.70475 5.02529C3.58947 5.34165 3.54286 5.67893 3.56804 6.0147C3.66886 7.32367 4.91802 9.18972 5.74168 10.2868C5.93307 10.567 6.1518 10.8456 6.37053 11.107L6.45256 11.1993L6.52091 11.2745C9.27897 14.3179 12.1225 14.1966 12.1225 14.1966C12.1225 14.1966 13.6074 14.1829 14.4191 15.0374C14.4499 15.0732 14.5183 15.1536 14.6054 15.2698C14.6929 15.398 14.7636 15.537 14.8156 15.6833C14.8243 15.7068 14.8317 15.7308 14.8378 15.7551C14.8378 15.7807 14.8532 15.8063 14.86 15.832C14.8669 15.8576 14.8771 15.8952 14.8839 15.9294C14.8908 15.9635 14.8942 15.9772 14.8976 16.0028C14.901 16.0285 14.9096 16.0678 14.9147 16.102L14.925 16.2079C14.925 16.2352 14.925 16.2609 14.925 16.2882C14.925 16.3463 14.925 16.4061 14.925 16.4676C14.925 16.4676 14.925 16.483 14.925 16.4899C14.925 16.5651 14.925 16.6419 14.9096 16.7206C14.9096 16.7206 12.859 28.0638 12.5907 30.2562C12.5907 30.2921 12.5907 30.328 12.5907 30.3605C12.5907 30.3929 12.5907 30.3981 12.5907 30.4169C12.5922 30.4416 12.5956 30.4662 12.6009 30.4903C12.6009 30.4903 12.6009 30.4903 12.6009 30.504C12.6287 30.616 12.6853 30.7187 12.765 30.802C12.8447 30.8854 12.9449 30.9464 13.0555 30.9791C13.4965 31.0809 13.9426 31.1596 14.3918 31.2149L14.4807 31.2251C14.5883 31.2405 14.6515 31.2474 14.6515 31.2474C15.8238 31.3858 17.3002 31.4182 18.6348 31.0372C18.8017 30.9906 18.9476 30.8881 19.0481 30.7469C19.1485 30.6057 19.1975 30.4343 19.1868 30.2614C19.0159 27.869 18.3871 18.7438 18.358 17.6519C18.358 17.6519 18.0778 15.4099 21.287 14.5982C22.8233 14.2615 24.387 14.0653 25.9589 14.0121C25.9589 14.0121 30.0601 14.1317 30.4326 12.052C30.4342 12.0447 30.4333 12.0372 30.4302 12.0304C30.427 12.0237 30.4218 12.0182 30.4152 12.0147C30.4086 12.0112 30.4011 12.01 30.3938 12.0112C30.3864 12.0124 30.3797 12.0159 30.3745 12.0213C30.3819 12.0105 30.387 11.9984 30.3895 11.9856C30.3919 11.9728 30.3917 11.9597 30.3888 11.947C30.3859 11.9343 30.3804 11.9224 30.3727 11.9119C30.3649 11.9014 30.3551 11.8927 30.3438 11.8863C28.9528 11.1532 27.097 12.8483 27.097 12.8483C27.097 12.8483 27.5122 10.7499 29.785 9.11624C29.785 9.11624 31.4255 7.89271 30.1097 5.27819C30.0529 5.16055 29.9622 5.06264 29.8491 4.99713C29.7361 4.93162 29.6061 4.90152 29.4758 4.91072C29.3455 4.91993 29.2209 4.96801 29.1183 5.04875C29.0156 5.12949 28.9395 5.23918 28.8998 5.36364C28.1496 7.68936 25.9418 12.5185 20.3437 13.7694C20.3437 13.7694 19.8635 13.7421 20.318 13.3388C20.318 13.3388 23.6332 11.3206 24.9319 8.82403C24.9319 8.82403 26.528 6.13774 26.0478 3.91625C26.0381 3.87375 26.0164 3.83494 25.9853 3.80443C25.9541 3.77392 25.9149 3.75301 25.8722 3.74418C25.8295 3.73536 25.7852 3.73899 25.7445 3.75466C25.7038 3.77032 25.6685 3.79735 25.6428 3.83252C25.6419 3.80755 25.633 3.78354 25.6174 3.76404C25.6017 3.74453 25.5803 3.73058 25.5561 3.72425C25.5319 3.71793 25.5064 3.71955 25.4832 3.7289C25.46 3.73824 25.4405 3.7548 25.4275 3.77613C24.3919 5.44395 21.3365 9.95869 18.6673 9.79977C18.8485 8.32487 19.2674 6.88906 19.9079 5.54819C19.9079 5.54819 20.653 3.99657 20.6957 3.28227C20.6967 3.2666 20.6944 3.25089 20.6888 3.23621C20.6832 3.22152 20.6745 3.20822 20.6633 3.19719C20.6521 3.18616 20.6387 3.17768 20.624 3.17231C20.6092 3.16694 20.5934 3.16481 20.5778 3.16607C20.5461 3.16852 20.5146 3.17367 20.4838 3.18145C20.5023 3.17823 20.5195 3.16952 20.533 3.15646C20.5465 3.1434 20.5558 3.12658 20.5597 3.10817C20.5635 3.08977 20.5618 3.07064 20.5547 3.05324C20.5475 3.03584 20.5354 3.02097 20.5197 3.01057C20.0686 2.70469 18.734 2.34412 16.4185 6.00616C16.4185 6.00616 15.1164 7.96106 14.5388 11.9973C14.5366 12.0085 14.5367 12.02 14.539 12.0312C14.5414 12.0423 14.5459 12.0529 14.5524 12.0623C14.784 12.4112 15.0374 12.7451 15.3112 13.0619C15.3112 13.0619 13.0897 10.8592 12.8026 6.39748C12.8026 6.39748 12.7787 5.50718 12.7787 4.65618C12.7787 4.65618 12.7633 3.09943 11.9823 3.15924" fill="white"/>
<path d="M122.297 22.291C121.764 22.2653 121.522 22.0577 121.453 21.5137C121.438 21.3833 121.415 21.301 121.396 21.1929C121.196 20.1085 121.537 19.6829 122.618 19.6692C122.801 19.6809 122.984 19.6781 123.165 19.6606C124.006 19.5096 124.857 19.3964 125.676 19.1699C126.22 19.0172 126.544 18.3995 126.51 17.883C126.479 17.4026 126.211 17.1967 125.746 17.3202C125.588 17.3614 125.436 17.4197 125.281 17.4763C124.181 17.871 123.085 18.2794 121.885 18.2159C121.307 18.1833 120.955 17.8727 120.918 17.3013C120.864 16.5189 120.859 15.733 120.785 14.954C120.741 14.4513 120.993 14.3037 121.415 14.2951C121.942 14.2849 122.479 14.3243 123.006 14.278C123.289 14.2603 123.559 14.1567 123.782 13.9811C124.135 13.6654 124.137 12.835 123.86 12.3391C123.737 12.0945 123.533 11.8995 123.284 11.7865C123.034 11.6735 122.753 11.6493 122.488 11.7179C120.042 12.2807 118.009 13.6294 116.044 15.1067C115.586 15.4499 115.61 16.0127 115.998 16.4022C116.386 16.7917 116.731 16.7351 117.199 16.3439C117.736 15.8892 118.302 15.4705 118.857 15.0364C119.092 14.8494 119.104 15.0261 119.119 15.1462C119.197 16.0419 119.318 16.9393 119.327 17.8367C119.329 18.0521 119.248 18.2601 119.101 18.4173C118.953 18.5746 118.751 18.669 118.536 18.6809C117.798 18.777 117.064 18.9434 116.326 18.976C115.509 19.0086 114.689 18.8936 113.868 18.8782C113.235 18.8679 113.002 19.2094 113.225 19.8013C113.313 20.0536 113.467 20.2778 113.671 20.4506C113.875 20.6235 114.122 20.7387 114.385 20.7845C115.679 21.047 116.921 20.7999 118.136 20.3452C118.846 20.0827 119.04 20.1943 119.166 20.9338C119.207 21.1826 119.238 21.4382 119.255 21.6922C119.287 22.1967 119.064 22.4317 118.541 22.5244C115.845 22.9962 114.143 25.0055 114.644 28.0306C114.963 29.9712 116.261 31.0865 118.227 31.0865C119.509 31.0865 120.791 31.1122 122.071 31.0762C123.519 31.0367 124.804 30.5443 125.534 29.2334C126.446 27.593 126.345 25.8308 125.612 24.1716C124.993 22.8126 123.708 22.3579 122.297 22.291ZM124.562 27.7818C124.348 28.5179 123.806 28.8902 123.135 29.1665C122.042 29.616 120.55 29.8854 118.282 29.5903C116.774 29.3929 116.067 27.8195 116.614 26.3559C117.254 24.64 118.589 23.8816 120.324 23.7547C120.962 23.7156 121.602 23.756 122.23 23.8748C123.855 24.1647 125.032 26.174 124.562 27.7818Z" fill="white"/>
<path d="M70.4138 17.3581C68.9638 16.7541 67.428 16.5688 65.8648 16.555C65.6452 16.555 65.3964 16.567 64.9348 16.5876C65.4787 15.9614 65.9798 15.3642 66.4105 14.8718C66.6735 14.5994 66.9215 14.313 67.1535 14.0139C67.2164 13.8907 67.2468 13.7536 67.2417 13.6154C67.2366 13.4773 67.1962 13.3427 67.1243 13.2246C66.8974 13.0233 66.6001 12.9197 66.2972 12.9363C65.8717 12.9672 65.4547 13.3309 65.2025 13.6655C64.6037 14.4935 64.0492 15.3526 63.5414 16.2393C63.4794 16.3667 63.3856 16.4758 63.2689 16.5561C63.1522 16.6364 63.0167 16.6851 62.8756 16.6975C62.1565 16.7942 61.4473 16.9544 60.7564 17.1762C60.2176 17.3649 59.9671 18.077 60.1456 18.5489C60.2914 18.9349 60.7513 19.0842 61.3828 18.9607C61.6968 18.8989 62.0125 18.8594 62.4364 18.7891C61.3948 22.2774 61.8306 25.2235 65.2351 27.1659C65.1081 27.5072 64.886 27.8049 64.595 28.0238C64.0339 28.4785 63.4333 28.8817 62.8362 29.2918C62.4535 29.5561 62.0983 29.8495 62.2236 30.3454C62.2658 30.5768 62.3976 30.7822 62.5904 30.9171C62.7831 31.052 63.0212 31.1055 63.2531 31.066C63.6807 31.011 64.0927 30.8703 64.4646 30.6525C65.3449 30.1137 65.9232 29.2798 66.3882 28.3773C66.5924 27.9826 66.7829 27.9243 67.1964 28.0787C67.8828 28.3309 68.6018 28.4734 69.3036 28.6861C69.9007 28.8714 70.5888 28.4511 70.7639 27.8642C70.908 27.3786 70.5116 26.8879 69.8424 26.7146C69.736 26.6872 69.6245 26.6889 69.5181 26.6666C68.8042 26.5224 68.1058 26.3697 67.356 26.2084C67.428 25.9013 67.4692 25.6937 67.5276 25.4843C68.0731 23.4594 68.3925 21.3803 68.4799 19.285C68.5142 18.6261 68.5503 18.5866 69.1886 18.7427C69.7034 18.868 70.2045 19.0242 70.721 19.1134C71.1551 19.1889 71.3559 18.9521 71.3473 18.5077C71.3473 17.8677 70.9166 17.5657 70.4138 17.3581ZM66.0038 25.239C65.9832 25.3162 65.9558 25.4809 65.8545 25.4432C63.9086 24.5097 63.4041 22.8694 63.586 20.9373C63.6545 20.287 63.775 19.6432 63.9464 19.0121C63.9773 18.8977 64.0416 18.7951 64.1312 18.7174C64.2208 18.6398 64.3315 18.5907 64.4492 18.5763C65.0823 18.5163 65.7207 18.4768 66.3573 18.4768C66.7005 18.4768 66.6799 18.6827 66.6833 18.7959C66.7485 20.9734 66.5872 23.1302 66.0038 25.239Z" fill="white"/>
<path d="M77.9262 25.4932C78.13 26.6624 78.021 27.8646 77.6105 28.9781C77.2484 29.9613 76.6444 30.7437 75.5033 30.8003C74.9738 30.8289 74.4446 30.7411 73.9527 30.5431C73.4609 30.3451 73.0184 30.0416 72.6565 29.6542C72.5421 29.5512 72.4731 29.407 72.4647 29.2533C72.4563 29.0995 72.5093 28.9488 72.6119 28.834L72.6325 28.8134C72.7769 28.6585 72.9696 28.5571 73.1791 28.5259C73.3885 28.4948 73.6024 28.5356 73.7856 28.6418C73.9187 28.7392 74.0347 28.8581 74.1288 28.9936C74.6247 29.6353 75.1121 29.5975 75.4158 28.8408C75.7802 27.9403 75.8987 26.9591 75.759 25.9977C75.7109 25.6717 75.5702 25.5584 75.2579 25.591C74.2609 25.6905 73.2623 25.7883 72.2653 25.8741C71.8211 25.9388 71.3711 25.9549 70.9234 25.9222C70.1581 25.8175 70.1118 25.0968 70.2782 24.3299C70.4018 23.7568 70.8445 23.6023 71.4794 23.8151C72.6994 24.2218 73.9538 24.371 75.4072 24.3556C75.0966 23.7705 74.8667 23.2883 74.5887 22.8354C74.3965 22.5463 74.1807 22.2737 73.9435 22.0203C73.3172 21.3031 73.3875 20.7866 74.206 20.2822C75.3703 19.5863 76.3664 18.6418 77.1231 17.5162C77.2604 17.3019 77.3837 17.079 77.4921 16.8487C78.024 15.7626 77.6002 15.0334 76.3973 14.8309C75.1635 14.6216 73.9624 14.8154 72.7561 14.9905C72.1074 15.0831 71.4691 15.2376 70.8256 15.3559C70.2336 15.4658 69.7154 15.2341 69.5284 14.7863C69.3568 14.3642 69.5816 13.6641 70.0672 13.4136C70.4329 13.2147 70.8375 13.0977 71.2529 13.0704C73.5591 13.0395 75.8619 13.0447 78.1716 13.0601C79.5958 13.0704 80.217 13.8837 79.9322 15.2907C79.4397 17.7032 78.0875 19.4586 75.9031 20.5824C75.2064 20.941 75.1824 21.2688 75.6938 21.8487C76.2961 22.5351 76.84 23.2592 77.4252 23.9558C77.4764 24.0204 77.542 24.072 77.6168 24.1066C77.6916 24.1411 77.7735 24.1577 77.8559 24.1548C78.6692 24.0502 79.4791 23.9283 80.2822 23.7722C80.9686 23.6401 81.389 23.9043 81.4542 24.6027C81.4662 24.7855 81.4662 24.9689 81.4542 25.1518C81.4267 25.8535 81.0029 26.1487 80.3234 25.9891C79.5735 25.8072 78.8168 25.6734 77.9262 25.4932Z" fill="white"/>
<path d="M46.4025 17.358C44.9543 16.754 43.4168 16.5687 41.8553 16.555C41.6322 16.555 41.3834 16.567 40.9235 16.5876C41.4657 15.9613 41.9702 15.3642 42.3992 14.8717C42.6605 14.5993 42.9068 14.3129 43.1371 14.0138C43.2003 13.8908 43.2309 13.7537 43.2261 13.6156C43.2213 13.4774 43.1812 13.3428 43.1096 13.2245C42.8825 13.0235 42.5854 12.92 42.2825 12.9362C41.8553 12.9671 41.4383 13.3309 41.1878 13.6655C40.5874 14.4931 40.0318 15.3523 39.5233 16.2392C39.4614 16.3677 39.3669 16.4777 39.2491 16.5581C39.1314 16.6385 38.9945 16.6865 38.8524 16.6974C38.1337 16.7939 37.4251 16.9541 36.7349 17.1761C36.1978 17.3648 35.9455 18.0769 36.124 18.5488C36.2681 18.9349 36.7297 19.0841 37.3595 18.9606C37.6735 18.8988 37.9892 18.8594 38.4131 18.789C37.3715 22.2773 37.8091 25.2235 41.2135 27.1658C41.0859 27.5067 40.8639 27.8043 40.5735 28.0237C40.0123 28.4784 39.41 28.8817 38.8129 29.2917C38.4319 29.556 38.0767 29.8494 38.202 30.3453C38.2439 30.5769 38.3756 30.7826 38.5684 30.9176C38.7612 31.0526 38.9996 31.1059 39.2316 31.0659C39.6591 31.0109 40.0711 30.8703 40.443 30.6524C41.325 30.1136 41.9033 29.2797 42.3683 28.3772C42.5725 27.9825 42.7647 27.9242 43.1783 28.0786C43.8646 28.3309 44.5819 28.4733 45.2786 28.686C45.8757 28.8714 46.5638 28.451 46.7371 27.8642C46.8813 27.3786 46.4849 26.8878 45.8157 26.7145C45.7093 26.6871 45.5995 26.6888 45.4931 26.6665C44.7878 26.5172 44.0843 26.3645 43.3378 26.2015C43.4099 25.8944 43.4528 25.6867 43.5094 25.4774C44.0546 23.4529 44.3746 21.3744 44.4635 19.2797C44.4995 18.6209 44.5339 18.5814 45.1722 18.7375C45.687 18.8628 46.188 19.0189 46.7045 19.1082C47.1387 19.1837 47.3394 18.9469 47.3309 18.5025C47.3257 17.8676 46.8916 17.5656 46.4025 17.358ZM41.9925 25.2389C41.972 25.3161 41.9256 25.4826 41.8433 25.4431C39.8974 24.5097 39.3929 22.8693 39.5816 20.9424C39.649 20.2918 39.7701 19.6479 39.9437 19.0172C39.9719 18.9021 40.0342 18.7981 40.1223 18.7189C40.2104 18.6396 40.3204 18.5887 40.4379 18.5728C41.0694 18.5128 41.7094 18.4733 42.3443 18.4733C42.6875 18.4733 42.6686 18.6775 42.6721 18.7924C42.7338 20.9733 42.5674 23.1301 41.984 25.2389H41.9925Z" fill="white"/>
<path d="M53.9047 25.4925C54.109 26.6609 54.0006 27.8626 53.5906 28.9757C53.2286 29.9571 52.6246 30.7395 51.4834 30.7962C50.9534 30.8256 50.4234 30.7382 49.9308 30.5402C49.4383 30.3421 48.9953 30.0382 48.6333 29.65C48.5765 29.5994 48.5303 29.5381 48.4973 29.4696C48.4643 29.4011 48.4452 29.3268 48.441 29.2509C48.4369 29.175 48.4478 29.099 48.4731 29.0273C48.4984 28.9556 48.5377 28.8897 48.5886 28.8332C48.5952 28.8244 48.6026 28.8164 48.611 28.8092C48.7556 28.6552 48.9479 28.5545 49.1568 28.5234C49.3658 28.4922 49.5791 28.5325 49.7624 28.6376C49.8946 28.736 50.0105 28.8547 50.1055 28.9894C50.5997 29.6311 51.0888 29.5951 51.3925 28.8367C51.7572 27.9362 51.8757 26.9549 51.7357 25.9935C51.6911 25.6692 51.5487 25.556 51.2364 25.5868C50.2388 25.6886 49.2413 25.783 48.2437 25.87C47.7995 25.9343 47.3497 25.951 46.9019 25.9197C46.1348 25.815 46.0902 25.0927 46.255 24.3274C46.3785 23.7526 46.8229 23.5982 47.4561 23.8126C48.6762 24.2193 49.9322 24.3686 51.3856 24.3549C51.0733 23.7698 50.8434 23.2876 50.5654 22.8346C50.3732 22.5451 50.1574 22.2719 49.9202 22.0179C49.2939 21.3024 49.3643 20.7859 50.1828 20.2814C51.3457 19.5845 52.3414 18.6409 53.0999 17.5172C53.236 17.3025 53.3586 17.0796 53.4671 16.8497C53.9939 15.7636 53.5752 15.0343 52.3706 14.8319C51.1385 14.6225 49.9357 14.8164 48.7294 14.9914C48.0842 15.0841 47.4441 15.2385 46.8006 15.3569C46.2086 15.4667 45.6921 15.2351 45.5017 14.7873C45.3301 14.3652 45.5566 13.6651 46.0422 13.4146C46.4079 13.2157 46.8125 13.0986 47.2279 13.0714C49.5341 13.0405 51.8369 13.0457 54.1449 13.0611C55.5691 13.0714 56.1903 13.8847 55.9037 15.2917C55.413 17.7042 54.0608 19.4595 51.8781 20.5834C51.1797 20.942 51.1557 21.2698 51.6688 21.8497C52.2694 22.5361 52.8116 23.2601 53.4002 23.9568C53.4507 24.0221 53.5163 24.0742 53.5912 24.1089C53.6662 24.1435 53.7484 24.1596 53.8309 24.1558C54.6408 24.0512 55.4507 23.9293 56.2555 23.7732C56.9505 23.6411 57.3623 23.9053 57.4275 24.6037C57.4395 24.7865 57.4395 24.9699 57.4275 25.1527C57.4 25.8545 56.9762 26.1496 56.295 25.9901C55.5537 25.8065 54.7935 25.6726 53.9047 25.4925Z" fill="white"/>
<path d="M94.8644 18.0082C94.8644 18.3908 94.8832 18.7769 94.8644 19.1595C94.8335 19.6503 94.6241 20.0689 94.1231 20.1993C93.8601 20.2803 93.5806 20.2912 93.3122 20.2311C93.0437 20.1709 92.7956 20.0416 92.5925 19.8562C92.4878 19.7584 92.5049 19.4958 92.5221 19.314C92.589 18.6482 92.6937 17.9842 92.7555 17.3167C92.776 17.1534 92.7486 16.9877 92.6765 16.8397C92.553 16.6149 92.4517 16.2683 92.2064 16.246C92.0519 16.234 91.7619 16.4468 91.6075 16.6269C90.8233 17.5415 90.106 18.5144 89.2824 19.3929C88.6921 20.0209 87.9182 20.3572 87.0019 20.153C86.7665 20.1026 86.5525 19.9805 86.3894 19.8035C86.2262 19.6265 86.1219 19.4034 86.0907 19.1647C86.0015 18.6911 86.3944 18.4955 86.7617 18.2827C87.8667 17.6462 88.9632 16.9924 90.0357 16.3078C90.3277 16.0905 90.5738 15.8176 90.7598 15.5048C90.8542 15.3726 90.9674 15.0998 90.8336 14.9505C90.7524 14.915 90.6648 14.8967 90.5762 14.8967C90.4876 14.8967 90.4 14.915 90.3188 14.9505C89.5501 15.1753 88.7968 15.4653 88.0212 15.6523C87.595 15.7428 87.1576 15.7677 86.7239 15.7261C86.1645 15.6866 85.8659 15.316 85.8247 14.7395C85.7733 13.9794 85.9311 13.6637 86.5489 13.5281C88.155 13.1849 89.7611 13.1335 91.3535 13.6087C92.2321 13.8713 92.3831 13.7512 92.4191 12.8418C92.4552 11.9324 93.157 11.3318 93.9326 11.5652C94.1689 11.6187 94.3799 11.7513 94.5306 11.941C94.6813 12.1307 94.7627 12.3661 94.7614 12.6084C94.7957 13.3685 95.0531 13.6928 95.8013 13.5985C97.0024 13.4492 98.1916 13.1729 99.3807 12.9241C99.7531 12.8452 100.1 12.6616 100.467 12.5604C101.073 12.3888 101.521 12.7319 101.57 13.3497C101.63 14.1029 101.169 14.7223 100.429 14.7412C99.3035 14.7755 98.1727 14.7412 97.0471 14.7515C96.8446 14.7515 96.5203 14.7515 96.4413 14.8819C96.3109 15.0878 96.6387 15.3126 96.8034 15.4447C98.1146 16.4748 99.6821 17.1274 101.337 17.3322C101.986 17.4231 102.114 17.7268 101.838 18.3291C101.648 18.7502 101.315 19.0903 100.898 19.2886C100.481 19.4869 100.007 19.5306 99.5609 19.4118C97.9772 19.053 96.5654 18.1599 95.5628 16.8826C95.5022 16.7914 95.4301 16.7083 95.3483 16.6355C95.2522 16.5669 95.1115 16.4742 95.0274 16.5034C94.9433 16.5326 94.8798 16.699 94.8747 16.8088C94.8524 17.2017 94.8627 17.605 94.8644 18.0082Z" fill="white"/>
<path d="M102.258 21.8222C102.868 21.6506 103.06 21.7055 103.134 22.3078C103.173 22.7173 103.124 23.1304 102.989 23.5192C102.845 23.9516 102.475 24.034 102.042 23.8847C101.39 23.6601 100.691 23.6116 100.014 23.744C99.7874 23.7834 99.391 23.7972 99.4013 24.2141C99.4305 24.4458 99.6484 24.5161 99.9075 24.6671C100.798 25.2333 101.733 25.7378 102.588 26.3555C103.667 27.1311 103.942 28.2121 103.303 29.2725C103.051 29.6894 102.569 30.0257 102.118 30.2453C101.603 30.4941 101.17 30.036 101.282 29.4458C101.545 27.9976 100.973 26.7175 99.7703 26.1033C99.1594 25.7893 98.7784 25.978 98.8351 26.6695C98.9209 27.7728 99.089 28.8744 99.2743 29.9622C99.4065 30.7601 99.0324 31.1822 98.2207 31.0381C98.0583 31.019 97.8976 30.9868 97.7403 30.942C97.0282 30.6795 96.8308 30.5473 96.999 29.758C97.1711 28.8102 97.2909 27.8536 97.3576 26.8926C97.3731 26.721 97.4108 26.455 97.1654 26.3658C96.9201 26.2766 96.7708 26.4482 96.6507 26.6815C96.1771 27.4794 95.7069 28.2807 95.3105 29.118C94.9673 29.8438 94.5606 29.9931 93.9944 29.4286C93.681 29.1241 93.4227 28.7676 93.2308 28.3751C92.9596 27.8037 93.1055 27.4708 93.6941 27.1825C94.7477 26.6678 95.5816 25.9283 96.014 24.8112C96.1015 24.5865 96.1856 24.2553 96.014 24.0666C95.8424 23.8778 95.5507 23.955 95.3191 24.0082C95.1085 24.0637 94.9047 24.1425 94.7116 24.2433C94.1968 24.4904 94.075 24.4595 94.0132 23.8744C93.9969 23.4793 94.0414 23.084 94.1454 22.7025C94.2054 22.4245 94.4079 22.409 94.6979 22.4502C95.2107 22.5477 95.7363 22.5582 96.2526 22.4811C96.9767 22.3232 97.2409 21.7793 97.0985 21.0621C96.9269 20.2042 97.3113 19.8164 98.183 19.9554C98.6549 20.0326 98.8694 20.3414 98.7973 20.8133C98.6086 21.9389 98.7681 22.198 99.9401 22.1534C100.72 22.1011 101.495 21.9904 102.258 21.8222Z" fill="white"/>
<path d="M89.6908 26.4557C89.7869 26.7766 89.8898 27.0957 89.9739 27.42C90.1798 28.2093 90.4321 29.0003 90.5591 29.7982C90.6775 30.5343 90.3583 30.9478 89.7543 31.0731C88.9512 31.2446 88.2099 30.9409 88.0383 30.282C87.9398 29.8221 87.9172 29.3491 87.9714 28.8819C88.0143 28.3397 88.1705 27.8078 88.2219 27.2673C88.2408 27.0854 88.2631 26.792 88.0092 26.6959C87.8015 26.6547 87.6231 26.7971 87.4824 26.9155C86.7188 27.5727 86.204 28.3637 86.2812 29.4344C86.3104 29.8291 86.2555 30.2237 85.7664 30.3267C85.2774 30.4296 84.6991 30.1637 84.5206 29.7398C84.2015 28.9814 84.5206 28.3088 84.8638 27.6585C85.3975 26.6101 86.2572 25.8912 87.2885 25.3524C87.5029 25.2409 87.8496 25.0985 87.8376 24.8376C87.7981 24.4344 87.237 24.5751 86.9985 24.6455C86.5367 24.8052 86.0991 25.0274 85.6978 25.3061C85.2585 25.5858 84.869 25.5514 84.5635 25.1345C84.0076 24.3726 84.2203 23.616 85.1349 23.3517C85.8494 23.1458 86.5831 23.0136 87.3245 22.9571C88.2219 22.8901 88.6338 22.4423 88.4931 21.5278C88.3352 20.4862 88.5771 20.2323 89.6616 20.3044C90.2296 20.3404 90.2897 20.4502 90.0563 20.9907C89.8847 21.375 89.6685 21.78 89.9979 22.1746C90.3274 22.5693 90.7873 22.571 91.2592 22.4749C91.4013 22.4475 91.5453 22.4303 91.6899 22.4234C92.1669 22.396 92.6817 22.6087 92.7658 22.849C92.9065 23.2573 92.7658 23.7944 92.6422 24.2508C92.5564 24.5562 92.2458 24.4704 91.9455 24.4413C91.3799 24.407 90.8123 24.4259 90.2502 24.4979C90.1697 24.5081 90.0958 24.5477 90.0429 24.6092C89.99 24.6707 89.9617 24.7497 89.9636 24.8308C89.9636 24.9612 90.1507 25.0779 90.2862 25.1482C90.928 25.4914 91.5886 25.7934 92.2252 26.1451C92.4054 26.2429 92.6302 26.442 92.6491 26.6153C92.6903 26.9687 92.716 27.4131 92.5358 27.6688C92.4037 27.8593 91.8855 27.9399 91.6247 27.8404C91.2369 27.6963 90.9074 27.3685 90.5865 27.082C90.3507 26.843 90.1311 26.5885 89.9293 26.3201C89.8366 26.1932 89.6324 26.2103 89.6908 26.4557Z" fill="white"/>
<path d="M112.81 16.0945C112.825 16.7517 112.546 17.1893 111.974 17.5221C110.43 18.4178 110.354 18.8193 111.336 20.3207C111.507 20.5918 111.73 20.8801 111.773 21.1786C111.816 21.4411 111.734 21.865 111.55 21.9868C111.337 22.1412 110.955 22.0794 110.646 22.0691C110.52 22.0387 110.411 21.9606 110.342 21.8512C109.735 20.9933 109.062 20.1611 108.559 19.2414C108.093 18.3835 108.333 17.644 109.074 16.9851C109.254 16.8336 109.443 16.6921 109.639 16.5613C110.365 16.0465 110.416 15.6278 109.826 14.9518C109.549 14.6344 109.244 14.3444 108.968 14.0304C108.609 13.6014 108.573 13.1484 108.937 12.6886C109.105 12.4711 109.338 12.3119 109.602 12.2334C109.866 12.1549 110.147 12.1611 110.407 12.251C110.513 12.2825 110.612 12.3318 110.701 12.3969C111.804 13.3989 112.592 14.588 112.81 16.0945Z" fill="white"/>
<path d="M109.05 30.8809C108.429 30.8809 108.079 30.5377 107.815 30.1105C107.58 29.7261 107.693 29.3503 107.931 28.9866C108.921 27.4595 109.905 25.9295 110.884 24.3967C110.947 24.2853 111.022 24.1811 111.108 24.0861C111.391 23.8116 111.713 23.5387 112.117 23.779C112.52 24.0192 112.427 24.419 112.288 24.7621C111.54 26.5758 110.785 28.3877 110.006 30.1894C109.773 30.7213 109.46 30.886 109.05 30.8809Z" fill="white"/>
<path d="M124.401 6.01827C123.641 4.64558 122.416 5.46748 122.325 5.51209C122.234 5.5567 121.553 5.47606 121.335 5.42973C121.327 5.42774 121.319 5.42861 121.312 5.43219C121.305 5.43577 121.299 5.44181 121.296 5.44918C121.293 5.45654 121.293 5.46473 121.296 5.47221C121.298 5.47968 121.304 5.48593 121.311 5.48978C121.585 5.64423 121.872 5.77456 122.169 5.87928C122.172 5.88079 122.176 5.88306 122.179 5.88597C122.182 5.88888 122.184 5.89236 122.186 5.89621C122.188 5.90006 122.188 5.90419 122.188 5.90836C122.188 5.91253 122.187 5.91664 122.186 5.92046C122.151 6.01786 122.136 6.121 122.141 6.22417C122.119 6.22417 121.252 6.39575 121.232 6.47125C121.232 6.47125 121.278 6.51072 122.16 6.47125C122.173 6.5695 122.192 6.66689 122.217 6.76295C122.217 7.43728 119.663 9.94071 119.663 9.94071C119.082 10.5307 118.469 11.0886 117.827 11.6119C117.827 11.6119 117.179 12.0735 116.578 12.113C116.843 12.1479 117.111 12.1479 117.376 12.113L116.439 12.3961C116.439 12.3961 117.058 12.5265 117.94 12.0701C118.852 11.5965 119.828 10.6579 119.828 10.6579C120.526 10.0557 120.832 10.4863 120.832 10.4863C120.729 10.6008 120.659 10.7408 120.628 10.8918C120.598 11.0427 120.609 11.199 120.66 11.3443C120.793 11.1004 121.008 10.9109 121.266 10.8089C121.435 11.0986 121.571 11.4066 121.671 11.7269C121.646 11.7573 121.631 11.7947 121.628 11.834C121.625 11.8733 121.634 11.9126 121.654 11.9465C121.739 11.9898 121.808 12.06 121.849 12.1463C121.89 12.2325 121.902 12.33 121.882 12.4235C121.882 12.4235 122.086 12.2382 121.97 12.0512C122.024 12.0958 122.067 12.1519 122.097 12.2154C122.126 12.279 122.142 12.3483 122.141 12.4184C122.256 12.1216 122.112 12.0032 122.112 12.0032C122.335 12.0392 122.345 12.4167 122.345 12.4167C122.637 11.938 121.985 11.8144 121.985 11.8144C121.986 11.7958 121.984 11.7771 121.978 11.7595C121.972 11.7418 121.963 11.7254 121.951 11.7115C121.911 11.4352 121.812 10.9616 121.577 10.7025C121.663 10.6787 121.75 10.6615 121.839 10.6511L121.909 10.6425C122.059 10.8501 122.376 11.3288 122.402 11.6137C122.368 11.7441 122.402 11.8024 122.436 11.8281C122.547 11.8694 122.641 11.9465 122.703 12.0472C122.765 12.1479 122.792 12.2664 122.779 12.3841C122.821 12.3209 122.848 12.2495 122.858 12.1748C122.869 12.1 122.863 12.0239 122.841 11.9517C122.935 12.0704 122.988 12.2159 122.992 12.3669C123.154 11.9894 122.978 11.9054 122.978 11.9054C123.191 11.9843 123.21 12.3463 123.21 12.3463C123.541 11.8316 122.719 11.66 122.719 11.66C122.722 11.6355 122.719 11.6107 122.71 11.5877C122.701 11.5647 122.686 11.5442 122.668 11.5279C122.568 11.1987 122.425 10.8843 122.242 10.5927C123.812 10.3336 124.452 9.31957 124.473 9.27839C125.376 7.90571 124.403 6.01998 124.401 6.01827Z" fill="#F5A418"/>
</svg>
