<svg width="23" height="23" viewBox="0 0 23 23" fill="none" xmlns="http://www.w3.org/2000/svg">
<mask id="path-1-inside-1_1_23244" fill="white">
<path fill-rule="evenodd" clip-rule="evenodd" d="M20.5496 18.5969C22.0846 16.6423 23 14.1781 23 11.5C23 5.14873 17.8513 0 11.5 0C5.14873 0 0 5.14873 0 11.5C0 17.8513 5.14873 23 11.5 23C13.6355 23 15.6351 22.4179 17.3488 21.4037L21.309 22.9402C21.6248 23.0627 21.9404 22.7619 21.8331 22.4406L20.5496 18.5969Z"/>
</mask>
<path d="M20.5496 18.5969L18.9767 17.3617C18.5614 17.8905 18.4396 18.5926 18.6526 19.2304L20.5496 18.5969ZM17.3488 21.4037L18.0722 19.5391C17.5002 19.3172 16.8581 19.3701 16.3301 19.6826L17.3488 21.4037ZM21.309 22.9402L22.0324 21.0756H22.0324L21.309 22.9402ZM21.8331 22.4406L19.9361 23.0741L19.9361 23.0741L21.8331 22.4406ZM21 11.5C21 13.7144 20.2448 15.7468 18.9767 17.3617L22.1225 19.8322C23.9243 17.5378 25 14.6417 25 11.5H21ZM11.5 2C16.7467 2 21 6.25329 21 11.5H25C25 4.04416 18.9558 -2 11.5 -2V2ZM2 11.5C2 6.25329 6.25329 2 11.5 2V-2C4.04416 -2 -2 4.04416 -2 11.5H2ZM11.5 21C6.25329 21 2 16.7467 2 11.5H-2C-2 18.9558 4.04416 25 11.5 25V21ZM16.3301 19.6826C14.9164 20.5192 13.2674 21 11.5 21V25C14.0037 25 16.3538 24.3166 18.3674 23.1249L16.3301 19.6826ZM22.0324 21.0756L18.0722 19.5391L16.6253 23.2683L20.5856 24.8048L22.0324 21.0756ZM19.9361 23.0741C19.507 21.789 20.7694 20.5856 22.0324 21.0756L20.5856 24.8048C22.4801 25.5399 24.3738 23.7347 23.7301 21.8071L19.9361 23.0741ZM18.6526 19.2304L19.9361 23.0741L23.7301 21.8071L22.4466 17.9635L18.6526 19.2304Z" fill="black" mask="url(#path-1-inside-1_1_23244)"/>
</svg>
