<svg width="16" height="17" viewBox="0 0 16 17" fill="none" xmlns="http://www.w3.org/2000/svg">
<g clip-path="url(#clip0_273_6954)">
<path fill-rule="evenodd" clip-rule="evenodd" d="M14.1782 4.21146C14.4116 4.07114 14.7139 4.14647 14.8541 4.37953C16.7499 7.53019 16.2555 11.5489 13.6517 14.1525C12.1411 15.663 10.1329 16.4949 7.99688 16.4949C5.86082 16.4949 3.85262 15.6631 2.34219 14.1525C0.831773 12.6423 0 10.6342 0 8.49818C0 6.36213 0.831773 4.35392 2.34219 2.8435C4.87133 0.314534 8.81125 -0.225758 11.9229 1.52871C12.1599 1.66231 12.2434 1.96265 12.11 2.19948C11.9764 2.43648 11.6762 2.52018 11.4392 2.38658C8.71097 0.847768 5.25636 1.32208 3.03857 3.53987C1.71426 4.86418 0.984899 6.62522 0.984899 8.49818C0.984899 10.3712 1.71426 12.1319 3.03857 13.4562C4.36304 14.7806 6.12391 15.5102 7.99688 15.5102C9.86985 15.5102 11.6309 14.7806 12.9554 13.4562C15.2385 11.1732 15.6722 7.64967 14.0102 4.88716C13.87 4.65427 13.9453 4.35162 14.1782 4.21146ZM7.47131 5.08726C7.47131 4.81531 7.69173 4.5949 7.96368 4.5949C8.23547 4.5949 8.45605 4.81548 8.45605 5.08726V8.28043L10.7139 10.5384C10.9062 10.7308 10.9062 11.0425 10.7139 11.2348C10.6179 11.3308 10.4918 11.3789 10.3658 11.3789C10.2397 11.3789 10.1137 11.3308 10.0175 11.2346L7.61558 8.83238C7.61459 8.8314 7.6141 8.83025 7.61311 8.82926C7.59145 8.80727 7.57159 8.78331 7.55436 8.75737C7.54878 8.74895 7.54429 8.74009 7.53978 8.73118C7.53753 8.72672 7.53527 8.72225 7.53286 8.71782C7.53072 8.71393 7.52853 8.71009 7.52634 8.70625C7.52012 8.69534 7.51392 8.68446 7.50906 8.67269C7.5039 8.66004 7.50031 8.64712 7.4967 8.63413C7.49548 8.62976 7.49426 8.62537 7.49298 8.62099C7.49165 8.61644 7.49018 8.61197 7.48872 8.6075C7.48586 8.59875 7.48301 8.59002 7.48116 8.58078C7.47476 8.5491 7.47131 8.51661 7.47131 8.48427V5.08726Z" fill="#6F6F6F"/>
</g>
<defs>
<clipPath id="clip0_273_6954">
<rect width="16" height="16" fill="white" transform="translate(0 0.5)"/>
</clipPath>
</defs>
</svg>
