<svg width="20" height="20" viewBox="0 0 20 20" fill="none" xmlns="http://www.w3.org/2000/svg">
<g clip-path="url(#clip0_1_23090)">
<path fill-rule="evenodd" clip-rule="evenodd" d="M17.7275 4.63612C18.0194 4.4606 18.3975 4.55483 18.5729 4.84633C20.9441 8.78712 20.3258 13.8136 17.069 17.0702C15.1796 18.9594 12.6677 20 9.99599 20C7.32425 20 4.81243 18.9596 2.92322 17.0702C1.03402 15.1812 -0.00634766 12.6696 -0.00634766 9.99787C-0.00634766 7.32613 1.03402 4.8143 2.92322 2.9251C6.08661 -0.238085 11.0146 -0.913872 14.9065 1.28059C15.203 1.44769 15.3074 1.82335 15.1406 2.11957C14.9735 2.416 14.598 2.52069 14.3016 2.35359C10.8892 0.428874 6.5682 1.02214 3.79423 3.79611C2.13782 5.45252 1.22554 7.65519 1.22554 9.99787C1.22554 12.3405 2.13782 14.5428 3.79423 16.1992C5.45085 17.8558 7.65332 18.7683 9.99599 18.7683C12.3387 18.7683 14.5413 17.8558 16.198 16.1992C19.0536 13.3437 19.5962 8.93656 17.5173 5.48126C17.342 5.18997 17.4362 4.81143 17.7275 4.63612ZM9.33937 5.73144C9.33937 5.39129 9.61507 5.1156 9.95522 5.1156C10.2952 5.1156 10.5711 5.3915 10.5711 5.73144V9.7254L13.3951 12.5497C13.6357 12.7903 13.6357 13.1801 13.3951 13.4207C13.275 13.5408 13.1174 13.6009 12.9597 13.6009C12.8021 13.6009 12.6444 13.5408 12.5241 13.4205L9.51981 10.4158C9.51922 10.4152 9.51877 10.4145 9.51832 10.4139C9.51785 10.4132 9.51737 10.4125 9.51674 10.4119C9.48964 10.3844 9.4648 10.3544 9.44324 10.3219C9.43626 10.3114 9.43065 10.3003 9.42501 10.2892C9.42219 10.2836 9.41936 10.278 9.41635 10.2725C9.41368 10.2676 9.41094 10.2628 9.4082 10.258C9.40042 10.2444 9.39266 10.2308 9.38659 10.216C9.38014 10.2002 9.37564 10.184 9.37112 10.1678C9.3696 10.1623 9.36807 10.1568 9.36647 10.1514C9.36481 10.1457 9.36298 10.1401 9.36115 10.1345C9.35757 10.1235 9.354 10.1126 9.35169 10.1011C9.34368 10.0614 9.33937 10.0208 9.33937 9.98036V5.73144Z" fill="#548B6C"/>
</g>
<defs>
<clipPath id="clip0_1_23090">
<rect width="20" height="20" fill="white"/>
</clipPath>
</defs>
</svg>
