<svg width="16" height="17" viewBox="0 0 16 17" fill="none" xmlns="http://www.w3.org/2000/svg">
<g clip-path="url(#clip0_512_9085)">
<g clip-path="url(#clip1_512_9085)">
<path fill-rule="evenodd" clip-rule="evenodd" d="M14.1782 4.71146C14.4116 4.57114 14.7139 4.64647 14.8541 4.87953C16.7499 8.03019 16.2555 12.0489 13.6517 14.6525C12.1411 16.163 10.1329 16.9949 7.99688 16.9949C5.86082 16.9949 3.85262 16.1631 2.34219 14.6525C0.831773 13.1423 0 11.1342 0 8.99818C0 6.86213 0.831773 4.85392 2.34219 3.3435C4.87133 0.814534 8.81125 0.274242 11.9229 2.02871C12.1599 2.16231 12.2434 2.46265 12.11 2.69948C11.9764 2.93648 11.6762 3.02018 11.4392 2.88658C8.71097 1.34777 5.25636 1.82208 3.03857 4.03987C1.71426 5.36418 0.984899 7.12522 0.984899 8.99818C0.984899 10.8712 1.71426 12.6319 3.03857 13.9562C4.36304 15.2806 6.12391 16.0102 7.99688 16.0102C9.86985 16.0102 11.6309 15.2806 12.9554 13.9562C15.2385 11.6732 15.6722 8.14967 14.0102 5.38716C13.87 5.15427 13.9453 4.85162 14.1782 4.71146ZM7.47292 5.58729C7.47292 5.31534 7.69333 5.09492 7.96528 5.09492C8.23707 5.09492 8.45765 5.3155 8.45765 5.58729V8.78046L10.7155 11.0385C10.9078 11.2308 10.9078 11.5425 10.7155 11.7348C10.6195 11.8308 10.4934 11.8789 10.3674 11.8789C10.2413 11.8789 10.1153 11.8308 10.0191 11.7347L7.61718 9.33241C7.61669 9.33191 7.61632 9.33138 7.61595 9.33085C7.61558 9.33031 7.61521 9.32978 7.61472 9.32929C7.59305 9.30729 7.57319 9.28333 7.55596 9.2574C7.55038 9.24898 7.5459 9.24011 7.54139 9.2312C7.53913 9.22675 7.53687 9.22228 7.53446 9.21785C7.53233 9.21396 7.53013 9.21011 7.52794 9.20627C7.52172 9.19536 7.51552 9.18449 7.51066 9.17272C7.50551 9.16007 7.50191 9.14715 7.4983 9.13416C7.49708 9.12978 7.49586 9.1254 7.49458 9.12102C7.49325 9.11647 7.49179 9.112 7.49033 9.10753C7.48747 9.09878 7.48461 9.09004 7.48276 9.0808C7.47636 9.04913 7.47292 9.01663 7.47292 8.9843V5.58729Z" fill="white"/>
</g>
</g>
<defs>
<clipPath id="clip0_512_9085">
<rect width="16" height="16" fill="white" transform="translate(0 0.5)"/>
</clipPath>
<clipPath id="clip1_512_9085">
<rect width="16" height="16" fill="white" transform="translate(0 1)"/>
</clipPath>
</defs>
</svg>
