<svg width="44" height="44" viewBox="0 0 44 44" fill="none" xmlns="http://www.w3.org/2000/svg">
<g clip-path="url(#clip0_198_8175)">
<path fill-rule="evenodd" clip-rule="evenodd" d="M5 22.0006C5 12.6263 12.626 5 22 5C31.3737 5 39 12.6263 39 22.0006C39 25.5663 37.9095 28.9772 35.8468 31.8647C35.5569 32.2699 34.9938 32.3631 34.5885 32.0742C34.1833 31.7844 34.0895 31.2213 34.379 30.8157C36.222 28.2361 37.1961 25.1878 37.1961 22.0006C37.1961 13.6212 30.3791 6.8039 22 6.8039C13.6209 6.8039 6.8039 13.6212 6.8039 22.0006C6.8039 26.0591 8.38473 29.8747 11.255 32.745C14.1251 35.6147 17.9409 37.1952 21.9991 37.1952H22C25.1869 37.1952 28.2364 36.2211 30.819 34.3778C31.2246 34.0874 31.788 34.1818 32.0772 34.5877C32.3667 34.9932 32.2726 35.5567 31.8671 35.8459C28.9769 37.9086 25.5648 38.9991 22.0003 38.9991H21.9991C17.459 38.9991 13.1906 37.231 9.97968 34.0203C6.76843 30.81 5 26.541 5 22.0006ZM14.4498 15.9441C15.4545 15.9441 16.2684 16.758 16.2684 17.763C16.2678 18.7678 15.4539 19.5793 14.4492 19.5796C13.4441 19.5796 12.6314 18.7678 12.632 17.763C12.632 16.758 13.4441 15.9441 14.4498 15.9441ZM29.5358 15.9441C30.5403 15.9441 31.3548 16.758 31.3554 17.7636C31.3554 18.7678 30.5397 19.5793 29.5358 19.5799C28.531 19.5796 27.7187 18.7678 27.7181 17.763C27.7181 16.758 28.531 15.9441 29.5358 15.9441ZM21.9913 30.9328C25.5408 30.9328 28.6068 28.6103 29.2818 25.4107C29.3846 24.9234 29.0728 24.445 28.5855 24.3419C28.0978 24.2394 27.6195 24.5509 27.5166 25.0382C27.0167 27.4083 24.6929 29.1286 21.9913 29.1286C19.3236 29.1286 17.0065 27.4341 16.4816 25.0999C16.3724 24.6137 15.889 24.3091 15.4037 24.4177C14.9179 24.5268 14.6124 25.0094 14.7215 25.4955C15.4299 28.646 18.4872 30.9328 21.9913 30.9328Z" fill="white"/>
</g>
<defs>
<clipPath id="clip0_198_8175">
<rect width="44" height="44" fill="white"/>
</clipPath>
</defs>
</svg>
