<svg width="16" height="17" viewBox="0 0 16 17" fill="none" xmlns="http://www.w3.org/2000/svg">
<g clip-path="url(#clip0_1_45778)">
<path d="M14.6951 14.2857C14.6882 14.2857 14.6813 14.2855 14.6743 14.2852H1.329C1.32192 14.2855 1.31369 14.2857 1.30979 14.2857C0.587507 14.2857 0 13.6982 0 12.9759C0 12.7533 0.0570634 12.5333 0.164828 12.3394L0.171181 12.3268C0.173925 12.3218 0.176526 12.3169 0.179416 12.312L5.45222 3.17927C5.45901 3.16743 5.46653 3.15601 5.47433 3.14489C5.62962 2.8814 5.91694 2.71484 6.22579 2.71484C6.53406 2.71484 6.82095 2.88082 6.97638 3.14345C6.98447 3.15471 6.99213 3.16656 6.99921 3.17869L9.97039 8.3238C9.97602 8.33348 9.98122 8.34345 9.98599 8.35356C9.99076 8.34359 10.0051 8.33377 10.0107 8.32409L10.9879 6.62831C11.1369 6.34171 11.4375 6.15796 11.7618 6.15796C12.0806 6.15796 12.3765 6.3355 12.5278 6.61372C12.5299 6.6169 12.5317 6.62022 12.5338 6.62355L13.7359 8.70574C13.8555 8.91304 13.7846 9.17812 13.5773 9.29773C13.3702 9.41748 13.1049 9.34641 12.9853 9.13911L11.7992 7.0848C11.7871 7.06688 11.7761 7.04782 11.7664 7.02759C11.7495 7.06298 11.728 7.09505 11.703 7.12351L10.7685 8.74504C10.621 9.03626 10.3179 9.22333 9.99061 9.22333C9.66342 9.22333 9.36035 9.0364 9.21286 8.74518L6.27505 3.65771C6.25786 3.63503 6.24283 3.61047 6.23041 3.58447C6.21206 3.6229 6.18765 3.65814 6.15876 3.68906L0.92698 12.7518C0.885377 12.8269 0.866739 12.8993 0.866739 12.9759C0.866739 13.2178 1.06176 13.4153 1.303 13.4188C1.30979 13.4186 1.31701 13.4183 1.32077 13.4183H14.6951C14.7 13.4183 14.7049 13.4183 14.7099 13.4186C14.9446 13.4107 15.1333 13.2173 15.1333 12.9806C15.1333 12.9051 15.1148 12.8334 15.0784 12.7679C15.073 12.7583 15.0681 12.7486 15.0635 12.7387L14.2995 11.4149C14.1798 11.2076 14.2509 10.9425 14.4582 10.8229C14.6657 10.7031 14.9306 10.7744 15.0502 10.9817L15.8319 12.3359C15.8407 12.3511 15.8485 12.3667 15.8553 12.3829C15.9502 12.5669 16 12.7728 16 12.9806C16 13.7002 15.4145 14.2857 14.6951 14.2857Z" fill="white"/>
</g>
<defs>
<clipPath id="clip0_1_45778">
<rect width="16" height="16" fill="white" transform="translate(0 0.5)"/>
</clipPath>
</defs>
</svg>
