<svg width="44" height="44" viewBox="0 0 44 44" fill="none" xmlns="http://www.w3.org/2000/svg">
<path d="M26.8674 21.1803L29.0215 17.4423C29.4196 16.6807 30.2187 16.1933 31.0822 16.1933C31.9305 16.1933 32.7163 16.6636 33.1211 17.4018C33.1235 17.4057 33.1256 17.4091 33.1271 17.4117L33.1328 17.4212L33.1358 17.4262L33.1357 17.4262L35.9964 22.381L35.9964 22.3811C36.35 22.9938 36.1404 23.7775 35.5274 24.1312C34.9148 24.4852 34.1308 24.275 33.7773 23.6622L31.0835 18.9967L28.9385 22.7186C28.5439 23.4919 27.7386 23.9877 26.8675 23.9877C25.9968 23.9877 25.1915 23.4923 24.7969 22.7191L17.9091 10.7913L5.51728 32.2571C5.43834 32.4002 5.40625 32.5305 5.40625 32.6673C5.40625 33.1048 5.75799 33.4623 6.19322 33.4711L6.21101 33.4706L6.21128 33.4706C6.21777 33.4705 6.22799 33.4702 6.23666 33.4702H38.0624H38.0641C38.0722 33.4702 38.0844 33.4701 38.0981 33.4706C38.5184 33.4516 38.855 33.1032 38.855 32.6786C38.855 32.5412 38.8218 32.4126 38.7561 32.2941C38.756 32.2939 38.7559 32.2938 38.7558 32.2936L26.8674 21.1803ZM26.8674 21.1803L19.9656 9.22876L19.9651 9.22781C19.9463 9.19563 19.926 9.16395 19.9045 9.13334C19.4888 8.43845 18.7278 8 17.9087 8C17.0877 8 16.3253 8.44033 15.9101 9.13797C15.8907 9.16601 15.8705 9.19695 15.8513 9.23041C15.8512 9.23055 15.8511 9.23069 15.851 9.23084L3.3052 30.9606C3.30502 30.9609 3.30484 30.9612 3.30465 30.9616C3.29667 30.9752 3.28907 30.9893 3.284 30.9987L3.28138 31.0035L3.28128 31.0035L3.27798 31.01L3.26503 31.0356C2.98949 31.5331 2.84375 32.0968 2.84375 32.6673C2.84375 34.5241 4.35372 36.034 6.21054 36.034C6.22228 36.034 6.24242 36.0337 6.26105 36.033H38.0079C38.0261 36.0337 38.0443 36.034 38.0624 36.034C39.9124 36.034 41.4175 34.5289 41.4175 32.6786C41.4175 32.1474 41.291 31.6214 41.0496 31.15C41.0301 31.1047 41.0081 31.0611 40.9836 31.019C40.9836 31.0189 40.9836 31.0189 40.9836 31.0189L39.1239 27.7968C38.7703 27.184 37.987 26.9734 37.3737 27.3275C36.7608 27.6811 36.5507 28.4648 36.9043 29.0776L36.9044 29.0777L38.7172 32.2186L26.8674 21.1803Z" fill="#548B6C" stroke="#548B6C" stroke-width="0.5"/>
</svg>
