<svg width="44" height="44" viewBox="0 0 44 44" fill="none" xmlns="http://www.w3.org/2000/svg">
<path d="M35.3284 22.7463L32.4087 17.7848C32.2379 17.4336 31.8728 17.1913 31.4503 17.1913C31.0278 17.1913 30.6628 17.4339 30.4919 17.7848L28.1169 21.8284C27.9461 22.1796 27.581 22.4219 27.1585 22.4219C26.736 22.4219 26.3709 22.1792 26.2001 21.8284L18.9949 9.59351C18.8241 9.24263 18.459 9 18.0365 9C17.614 9 17.2489 9.24263 17.0781 9.59351L4.26743 31.3671C4.09696 31.6672 4 32.0129 4 32.3803C4 33.5315 4.95071 34.4653 6.12333 34.4653H38.5582C39.7245 34.4653 40.67 33.5367 40.67 32.3916C40.67 32.0263 40.5734 31.6823 40.4047 31.3843L38.4788 28.2449" stroke="#548B6C" stroke-width="3" stroke-miterlimit="10" stroke-linecap="round" stroke-linejoin="round"/>
</svg>
