<svg width="20" height="21" viewBox="0 0 20 21" fill="none" xmlns="http://www.w3.org/2000/svg">
<path fill-rule="evenodd" clip-rule="evenodd" d="M2.85274 2.8293C2.45161 2.8293 2.1265 2.50418 2.1265 2.10306V1.22576C2.1265 0.824627 2.45161 0.499512 2.85274 0.499512C3.25387 0.499512 3.57898 0.824627 3.57898 1.22576V2.10306C3.57898 2.50418 3.25387 2.8293 2.85274 2.8293ZM2.85271 6.2044C2.45158 6.2044 2.12647 5.87929 2.12647 5.47816V4.60086C2.12647 4.19973 2.45158 3.87461 2.85271 3.87461C3.25384 3.87461 3.57895 4.19973 3.57895 4.60086V5.47816C3.57895 5.87953 3.25384 6.2044 2.85271 6.2044ZM4.10238 4.07881H4.97969C5.38106 4.07881 5.70593 3.7537 5.70593 3.35257C5.70593 2.95144 5.38082 2.62632 4.97969 2.62632H4.10238C3.70125 2.62632 3.37614 2.95144 3.37614 3.35257C3.37614 3.7537 3.70125 4.07881 4.10238 4.07881ZM1.60386 4.07881H0.726549C0.32542 4.07881 0.000305176 3.7537 0.000305176 3.35257C0.000305176 2.95144 0.32542 2.62632 0.726549 2.62632H1.60386C2.00499 2.62632 2.3301 2.95144 2.3301 3.35257C2.3301 3.7537 2.00499 4.07881 1.60386 4.07881ZM15.8289 4.66916C15.9708 4.81102 16.1565 4.88195 16.3424 4.88195C16.5281 4.88195 16.714 4.81102 16.8558 4.66916L17.4763 4.0487C17.76 3.76522 17.76 3.30527 17.4763 3.0218C17.1926 2.73808 16.7331 2.73808 16.4494 3.0218L15.8289 3.64225C15.5452 3.92572 15.5452 4.38568 15.8289 4.66916ZM13.9547 7.26957C13.7687 7.26957 13.5831 7.19864 13.4412 7.05678C13.1575 6.7733 13.1575 6.31335 13.4412 6.02987L14.0617 5.40941C14.3454 5.12569 14.8049 5.12569 15.0886 5.40941C15.3723 5.69289 15.3723 6.15284 15.0886 6.43632L14.4681 7.05678C14.3265 7.19864 14.1406 7.26957 13.9547 7.26957ZM16.4489 7.05677C16.5907 7.19863 16.7764 7.26956 16.9623 7.26956C17.1482 7.26956 17.3342 7.19863 17.4758 7.05677C17.7595 6.7733 17.7595 6.31334 17.4758 6.02986L16.8553 5.40941C16.5716 5.12569 16.1121 5.12569 15.8284 5.40941C15.5447 5.69289 15.5447 6.15284 15.8284 6.43632L16.4489 7.05677ZM14.5751 4.88195C14.3892 4.88195 14.2035 4.81102 14.0617 4.66916L13.4412 4.0487C13.1575 3.76522 13.1575 3.30527 13.4412 3.0218C13.7249 2.73808 14.1844 2.73808 14.4681 3.0218L15.0886 3.64225C15.3723 3.92572 15.3723 4.38568 15.0886 4.66916C14.9467 4.81102 14.761 4.88195 14.5751 4.88195ZM15.0208 18.3728H15.8981C16.2992 18.3728 16.6243 18.0477 16.6243 17.6465C16.6243 17.2454 16.2992 16.9203 15.8981 16.9203H15.0208C14.6196 16.9203 14.2945 17.2454 14.2945 17.6465C14.2945 18.0477 14.6196 18.3728 15.0208 18.3728ZM19.2735 18.3728H18.3962C17.9951 18.3728 17.67 18.0477 17.67 17.6465C17.67 17.2454 17.9951 16.9203 18.3962 16.9203H19.2735C19.6746 16.9203 19.9997 17.2454 19.9997 17.6465C19.9997 18.0477 19.6749 18.3728 19.2735 18.3728ZM16.4205 16.3962C16.4205 16.7973 16.7456 17.1224 17.1467 17.1224C17.5478 17.1224 17.8729 16.7973 17.8729 16.3962V15.5189C17.8729 15.1178 17.5478 14.7927 17.1467 14.7927C16.7456 14.7927 16.4205 15.1178 16.4205 15.5189V16.3962ZM17.1471 20.5C16.7459 20.5 16.4208 20.1749 16.4208 19.7738V18.8965C16.4208 18.4953 16.7459 18.1702 17.1471 18.1702C17.5482 18.1702 17.8733 18.4953 17.8733 18.8965V19.7738C17.8733 20.1751 17.5482 20.5 17.1471 20.5ZM11.2346 19.0747C11.2346 19.4759 11.5598 19.801 11.9609 19.801C12.362 19.801 12.6871 19.4759 12.6874 19.0745C12.6874 15.895 10.0569 14.7408 8.28876 14.7408C8.17474 14.7408 5.49539 14.7086 5.49539 11.9038C5.49539 10.4743 5.0727 9.36535 4.23946 8.60812C2.97676 7.46089 1.25266 7.61074 1.1798 7.618C0.7823 7.65601 0.492047 8.008 0.527875 8.40598C0.563703 8.80396 0.915438 9.0964 1.31439 9.06444C1.32577 9.06323 2.49091 8.9739 3.2709 9.69071C3.7829 10.1616 4.04265 10.9062 4.04265 11.904C4.04265 15.0511 6.58184 16.1935 8.28851 16.1935C8.40882 16.1935 11.2346 16.2262 11.2346 19.0747ZM13.1313 15.9991C12.7302 15.9991 12.405 15.674 12.405 15.2728C12.405 13.2989 10.4432 13.2761 10.3597 13.2761C9.00017 13.2761 6.97709 12.3666 6.97709 9.86085C6.97709 9.16099 6.80111 8.64391 6.4542 8.3234C5.9255 7.83584 5.11768 7.89418 5.11066 7.89515C4.70832 7.92735 4.36092 7.6325 4.32606 7.23524C4.29096 6.83775 4.58025 6.48672 4.97726 6.44871C5.123 6.43443 6.42951 6.33833 7.42325 7.24129C8.09091 7.84819 8.42934 8.72912 8.42934 9.86037C8.42934 11.8011 10.2805 11.8232 10.3595 11.8232C11.7657 11.8232 13.8573 12.7419 13.8573 15.2723C13.8575 15.6742 13.5324 15.9991 13.1313 15.9991ZM13.575 11.9326C13.575 12.3338 13.9001 12.6589 14.3012 12.6589C14.7024 12.6589 15.0275 12.334 15.0277 11.9331C15.0277 9.93813 13.3801 9.21406 12.2726 9.21406C12.1482 9.21406 11.0545 9.1792 11.0545 7.97194C11.0545 7.08641 10.785 6.39285 10.2541 5.91038C9.46422 5.19261 8.43005 5.26935 8.31433 5.28024C7.91514 5.31849 7.62246 5.67313 7.66071 6.07232C7.69896 6.47152 8.05071 6.76395 8.45281 6.72595C8.4529 6.72595 8.45328 6.72593 8.45392 6.7259C8.48057 6.72476 8.96768 6.70393 9.27709 6.98498C9.49254 7.18058 9.60172 7.51247 9.60172 7.97145C9.60172 9.94853 11.1987 10.6661 12.2724 10.6661C12.4058 10.6661 13.575 10.7014 13.575 11.9326Z" fill="white"/>
</svg>
