<svg width="16" height="16" viewBox="0 0 16 16" fill="none" xmlns="http://www.w3.org/2000/svg">
<path fill-rule="evenodd" clip-rule="evenodd" d="M6.36646 3.00932C8.05936 2.00955 9.4198 1.43828 9.47698 1.41439C9.71128 1.3166 9.98201 1.4015 10.1192 1.61487C10.2561 1.82877 10.2194 2.11014 10.0324 2.28185C9.94732 2.36169 7.92129 4.31032 9.23484 7.63753C9.77212 8.99955 10.3657 11.0334 9.32323 12.9638C8.40784 14.6582 6.66996 15.6257 4.88991 15.6257C4.10491 15.6257 3.3119 15.4378 2.57728 15.041C1.41295 14.4121 0.568163 13.3593 0.198763 12.0764C-0.169765 10.7972 -0.0210661 9.44217 0.616972 8.26093C1.23618 7.11472 2.26192 5.96678 3.66596 4.84899C3.89188 4.66944 4.22119 4.70657 4.40075 4.93249C4.58066 5.1586 4.54335 5.48755 4.31725 5.66746C3.02443 6.69686 2.08899 7.73672 1.53724 8.75811C1.03013 9.69704 0.911579 10.7728 1.20375 11.787C1.4947 12.7978 2.15907 13.6267 3.07411 14.1209C4.96731 15.1432 7.35751 14.4013 8.40243 12.4669C9.22839 10.9377 8.76085 9.28789 8.2614 8.02157C7.44119 5.94377 7.72552 4.29986 8.20597 3.18329C7.81007 3.39022 7.36606 3.63358 6.89816 3.90989C6.64974 4.05685 6.32898 3.97439 6.18202 3.72545C6.03523 3.47686 6.1177 3.1561 6.36646 3.00932ZM11.4185 7.73175C11.5478 7.78388 14.5994 9.02979 15.6679 10.9488C16.3636 12.1985 15.9287 13.7729 14.6983 14.4582C14.3236 14.6668 13.8993 14.7772 13.4712 14.7772H13.471C12.5335 14.7772 11.6648 14.2622 11.2041 13.4333C10.6563 12.4518 10.9372 11.4315 11.1959 10.7495C11.7162 9.38176 10.8828 8.61402 10.8744 8.60653C10.6851 8.43708 10.645 8.15624 10.7792 7.9406C10.9134 7.72478 11.1828 7.63674 11.4185 7.73175ZM13.4712 13.7314C13.7252 13.7314 13.9666 13.6685 14.1892 13.5445C14.916 13.1396 15.1693 12.2034 14.754 11.4576C14.2741 10.5958 13.2334 9.86412 12.3731 9.37182C12.4566 9.85488 12.4317 10.4422 12.1735 11.1212C11.9735 11.6484 11.7863 12.3302 12.1179 12.9244C12.3947 13.4225 12.9132 13.7314 13.4712 13.7314Z" fill="white"/>
</svg>
