<svg width="60" height="60" viewBox="0 0 60 60" fill="none" xmlns="http://www.w3.org/2000/svg">
<g clip-path="url(#clip0_98_14770)">
<path d="M30.4486 60.2698C27.3286 60.2698 24.9886 58.597 22.9264 57.121C20.9632 55.7176 19.1086 54.3922 16.6708 54.3922C15.5486 54.3785 14.4318 54.5498 13.3654 54.8992C13.009 55.0253 12.6213 55.0325 12.2605 54.9195C11.8997 54.8066 11.5852 54.5796 11.3644 54.2728L11.2822 54.157C11.1268 53.9383 11.0244 53.6864 10.983 53.4213C10.9417 53.1561 10.9626 52.885 11.0441 52.6294C11.1256 52.3737 11.2654 52.1405 11.4525 51.9482C11.6396 51.7559 11.8689 51.6097 12.1222 51.5212C13.5869 51.0238 15.1251 50.7773 16.672 50.7922C20.2642 50.7922 22.792 52.5988 25.0204 54.1924C26.8804 55.522 28.4866 56.6698 30.4504 56.6698C32.3068 56.6698 33.8278 55.549 35.5894 54.2506C37.777 52.6378 40.2562 50.8102 43.891 50.8102H43.924C45.2704 50.8033 46.6093 51.0107 47.8906 51.4246C48.1449 51.5124 48.3753 51.6585 48.5631 51.8512C48.7509 52.044 48.891 52.278 48.9721 52.5345C49.0533 52.7911 49.0733 53.0631 49.0305 53.3288C48.9877 53.5945 48.8834 53.8465 48.7258 54.0646L48.6412 54.1846C48.4304 54.4822 48.1303 54.7049 47.7845 54.8205C47.4386 54.9362 47.065 54.9387 46.7176 54.8278C45.8101 54.5447 44.8643 54.4043 43.9138 54.4114H43.8886C41.4358 54.4114 39.6316 55.7416 37.7212 57.1498C35.7382 58.6114 33.4882 60.2698 30.4486 60.2698Z" fill="#548B6C"/>
<path d="M45.0977 58.4194V58.2718C45.0976 57.8556 45.248 57.4534 45.5211 57.1394C45.7942 56.8253 46.1717 56.6206 46.5839 56.563C50.9177 55.957 54.8255 52.7698 56.0147 48.679C57.1829 44.6632 55.4261 40.819 51.1961 38.1316C50.8757 37.93 43.1981 32.9944 42.0161 23.5264C40.6943 12.9016 38.2961 3.08621 29.9423 3.33581C21.8501 3.56381 19.9451 12.3226 18.5687 22.0594C18.4995 22.5478 18.4319 23.02 18.3659 23.476C17.0207 32.68 9.51828 37.7668 8.47968 38.431C8.44428 38.4532 8.41248 38.4748 8.37828 38.4994C4.39428 41.3518 2.81148 45.1918 4.03488 49.0486C5.29488 53.0134 9.13908 56.0026 13.4951 56.5714C13.9108 56.6255 14.2926 56.829 14.5692 57.1441C14.8458 57.4591 14.9982 57.864 14.9981 58.2832V58.42C14.9978 58.667 14.9448 58.9112 14.8427 59.1361C14.7406 59.361 14.5916 59.5615 14.4058 59.7243C14.22 59.887 14.0016 60.0083 13.7652 60.0799C13.5287 60.1515 13.2798 60.1719 13.0349 60.1396C7.33008 59.3842 2.27688 55.4104 0.603479 50.1376C-1.11072 44.7376 1.05468 39.2608 6.39588 35.4916L6.49548 35.4256C6.56328 35.3842 13.6355 30.9328 14.8055 22.954C14.8709 22.5052 14.9369 22.0378 15.0047 21.556C16.1399 13.5202 18.0401 0.0718109 29.8409 -0.262989C42.6449 -0.648189 44.6327 15.3892 45.5903 23.0836C46.5551 30.8218 53.0597 35.0518 53.1245 35.0944C58.7225 38.65 61.0943 44.1046 59.4713 49.687C57.8663 55.207 52.8059 59.3662 47.0351 60.1402C46.7918 60.1702 46.5448 60.148 46.3108 60.0752C46.0767 60.0023 45.8608 59.8804 45.6775 59.7176C45.4942 59.5548 45.3477 59.3548 45.2477 59.131C45.1478 58.9071 45.0966 58.6646 45.0977 58.4194Z" fill="#548B6C"/>
</g>
<defs>
<clipPath id="clip0_98_14770">
<rect width="60" height="60" fill="white"/>
</clipPath>
</defs>
</svg>
