<svg width="16" height="17" viewBox="0 0 16 17" fill="none" xmlns="http://www.w3.org/2000/svg">
<path fill-rule="evenodd" clip-rule="evenodd" d="M2.38774 3.23942C2.09654 3.23942 1.86052 3.0034 1.86052 2.7122V1.94616C1.86052 1.65496 2.09654 1.41895 2.38774 1.41895C2.67894 1.41895 2.91495 1.65496 2.91495 1.94616V2.7122C2.91495 3.00322 2.67894 3.23942 2.38774 3.23942ZM1.29436 4.32987H0.528313C0.237115 4.32987 0.00109864 4.09385 0.00109864 3.80266C0.00109864 3.51146 0.237115 3.27544 0.528313 3.27544H1.29436C1.58556 3.27544 1.82157 3.51146 1.82157 3.80266C1.82157 4.09385 1.58538 4.32987 1.29436 4.32987ZM4.82547 14.2817C4.85868 14.5488 5.08591 14.7442 5.34811 14.7442C5.36973 14.7442 5.39152 14.7428 5.41367 14.7402C7.81074 14.4432 9.53525 13.4791 10.5392 11.8744C12.417 8.87335 11.0463 4.76582 10.987 4.59255C10.9141 4.3792 10.7136 4.2358 10.4881 4.2358C7.53606 4.2358 5.30593 5.09779 3.85961 6.79771C1.64837 9.39655 2.07046 13.021 2.14311 13.5317C1.54404 13.9778 0.935329 14.3414 0.346552 14.5577C0.0732793 14.6582 -0.0667852 14.9612 0.0335614 15.2345C0.111765 15.4478 0.31369 15.58 0.528442 15.58C0.588896 15.58 0.650228 15.5694 0.710155 15.5475C4.05815 14.3175 7.69909 9.17607 7.85251 8.95781C8.01999 8.7195 7.96253 8.39087 7.72422 8.2234C7.48592 8.05592 7.15729 8.11356 6.98981 8.35151C6.9649 8.38697 5.21757 10.854 3.13104 12.7199C3.07936 11.5657 3.18654 9.21583 4.66273 7.4808C5.83719 6.10056 7.66329 5.36632 10.0953 5.29585C10.3651 6.30406 10.9652 9.20532 9.64509 11.3151C8.81772 12.6373 7.35047 13.4376 5.28379 13.6937C4.99505 13.7295 4.78979 13.9928 4.82547 14.2817ZM3.47066 4.33007H4.23653C4.52773 4.33007 4.76374 4.09405 4.76374 3.80285C4.76374 3.51165 4.52773 3.27564 4.23653 3.27564H3.47066C3.17946 3.27564 2.94345 3.51165 2.94345 3.80285C2.94345 4.09405 3.17946 4.33007 3.47066 4.33007ZM1.86052 5.65916C1.86052 5.95036 2.09654 6.18637 2.38774 6.18637C2.67894 6.18637 2.91495 5.95018 2.91495 5.65916V4.89311C2.91495 4.60192 2.67894 4.3659 2.38774 4.3659C2.09654 4.3659 1.86052 4.60192 1.86052 4.89311V5.65916ZM13.1405 3.30769C13.0056 3.30769 12.8708 3.2562 12.7678 3.15322L12.114 2.49947C11.9081 2.29368 11.9081 1.95978 12.114 1.75381C12.32 1.54803 12.6536 1.54803 12.8595 1.75381L13.5133 2.40756C13.7192 2.61335 13.7192 2.94725 13.5133 3.15322C13.4103 3.2562 13.2755 3.30769 13.1405 3.30769ZM14.9195 5.30759C15.0224 5.41057 15.1572 5.46206 15.2922 5.46206C15.427 5.46206 15.562 5.41057 15.6649 5.30759C15.8709 5.1018 15.8709 4.7679 15.6649 4.56211L15.0112 3.90836C14.8052 3.70239 14.4717 3.70239 14.2657 3.90836C14.0597 4.11415 14.0597 4.44805 14.2657 4.65384L14.9195 5.30759ZM14.6385 3.30758C14.5035 3.30758 14.3687 3.25609 14.2657 3.15328C14.0597 2.94749 14.0597 2.61359 14.2657 2.40763L14.9195 1.75388C15.1251 1.54792 15.459 1.54809 15.6649 1.75388C15.8709 1.95967 15.8709 2.29357 15.6649 2.49954L15.0112 3.15328C14.9084 3.25609 14.7734 3.30758 14.6385 3.30758ZM12.1117 5.30802C12.2147 5.41083 12.3495 5.46232 12.4845 5.46232C12.6194 5.46232 12.7546 5.41083 12.8574 5.30802L13.5111 4.6541C13.7169 4.44813 13.7169 4.11423 13.5109 3.90844C13.305 3.70265 12.9712 3.70248 12.7653 3.90844L12.1115 4.56236C11.9057 4.76833 11.9057 5.10223 12.1117 5.30802ZM12.5293 13.7232H11.7633C11.4721 13.7232 11.2361 13.4872 11.2361 13.196C11.2361 12.9048 11.4721 12.6688 11.7633 12.6688H12.5293C12.8205 12.6688 13.0566 12.9048 13.0566 13.196C13.0566 13.4872 12.8205 13.7232 12.5293 13.7232ZM14.7056 13.7232H15.4717C15.7629 13.7232 15.9989 13.4872 15.9989 13.196C15.9989 12.9048 15.7629 12.6688 15.4717 12.6688H14.7056C14.4144 12.6688 14.1784 12.9048 14.1784 13.196C14.1784 13.4872 14.4144 13.7232 14.7056 13.7232ZM13.6204 12.6331C13.3292 12.6331 13.0932 12.3971 13.0932 12.1059V11.3398C13.0932 11.0486 13.3292 10.8126 13.6204 10.8126C13.9116 10.8126 14.1476 11.0486 14.1476 11.3398V12.1059C14.1476 12.3971 13.9116 12.6331 13.6204 12.6331ZM13.0932 15.0529C13.0932 15.3441 13.3292 15.5801 13.6204 15.5801C13.9116 15.5801 14.1476 15.3441 14.1476 15.0529V14.2869C14.1476 13.9957 13.9116 13.7597 13.6204 13.7597C13.3292 13.7597 13.0932 13.9957 13.0932 14.2869V15.0529Z" fill="white"/>
</svg>
