<svg width="30" height="30" viewBox="0 0 30 30" fill="none" xmlns="http://www.w3.org/2000/svg">
<g clip-path="url(#clip0_1_45858)">
<path fill-rule="evenodd" clip-rule="evenodd" d="M12.0778 28.268C12.672 29.3364 13.7998 30 15.0205 30C16.2409 30 17.3682 29.3367 17.9701 28.2557L24.4883 15.9369C25.3409 14.3684 25.7913 12.5893 25.7913 10.7922C25.7913 8.56914 25.1205 6.43399 23.8518 4.61785C23.6141 4.27781 23.1459 4.19493 22.8056 4.4323C22.4656 4.66993 22.3824 5.13843 22.6201 5.47847C23.7118 7.04121 24.289 8.87838 24.289 10.7922C24.289 12.3394 23.9013 13.8703 23.1642 15.2267L16.6498 27.5388C16.3203 28.1303 15.696 28.4979 15.0202 28.4979C14.3441 28.4979 13.7196 28.13 13.3969 27.5501L6.86522 15.2806C6.11002 13.9151 5.71064 12.3627 5.71064 10.7917C5.71064 5.66952 9.87777 1.50239 14.9999 1.50239C16.6696 1.50239 18.3064 1.9501 19.7337 2.79695C20.0905 3.00879 20.5515 2.8911 20.7631 2.53428C20.9749 2.17747 20.8572 1.71673 20.5004 1.5049C18.8413 0.520328 16.9393 0 15.0002 0C9.04945 0 4.2085 4.84121 4.2085 10.7917C4.2085 12.6168 4.67274 14.4205 5.54512 15.9972L12.0778 28.268ZM10.5553 10.5553C10.5553 13.0062 12.5489 15.0001 14.9996 15.0001C17.4505 15.0001 19.4442 13.0062 19.4442 10.5553C19.4442 8.10466 17.4505 6.11074 14.9996 6.11074C12.5489 6.11074 10.5553 8.10441 10.5553 10.5553ZM12.0577 10.5551C12.0577 8.93273 13.3773 7.61288 14.9996 7.61288C16.6219 7.61288 17.9418 8.93298 17.9418 10.5551C17.9418 12.1776 16.6219 13.4975 14.9996 13.4975C13.3775 13.4975 12.0577 12.1774 12.0577 10.5551Z" fill="white"/>
</g>
<defs>
<clipPath id="clip0_1_45858">
<rect width="30" height="30" fill="white"/>
</clipPath>
</defs>
</svg>
