<svg width="128" height="128" viewBox="0 0 128 128" fill="none" xmlns="http://www.w3.org/2000/svg">
<path d="M64.001 9.47852C33.937 9.47852 9.479 33.9365 9.479 64.0005C9.479 94.0645 33.937 118.522 64 118.522C94.063 118.522 118.521 94.0635 118.521 64.0005C118.521 33.9375 94.063 9.47852 64.001 9.47852ZM64.001 15.4785C76.301 15.4785 87.54 20.0875 96.101 27.6595L71.707 52.0515L60.212 32.1485C60.178 32.0885 60.142 32.0315 60.104 31.9755C59.209 30.4655 57.559 29.5115 55.788 29.5115C54.027 29.5115 52.385 30.4555 51.487 31.9525C51.444 32.0155 51.402 32.0815 51.362 32.1495L27.165 74.0585C27.145 74.0925 27.126 74.1275 27.107 74.1625L27.088 74.1995C26.511 75.2395 26.206 76.4195 26.206 77.6095C26.206 81.4815 29.356 84.6315 33.228 84.6315C33.25 84.6315 33.29 84.6305 33.327 84.6295H39.126L27.659 96.0995C20.089 87.5375 15.48 76.2995 15.48 63.9995C15.479 37.2455 37.246 15.4785 64.001 15.4785ZM67.315 56.4435L45.127 78.6315H33.281C33.262 78.6315 33.23 78.6325 33.198 78.6335C32.649 78.6165 32.206 78.1645 32.206 77.6115C32.206 77.4345 32.249 77.2665 32.368 77.0515L55.787 36.4865L67.315 56.4435ZM64.001 112.522C51.701 112.522 40.462 107.913 31.901 100.342L47.612 84.6315H94.544C94.58 84.6325 94.616 84.6335 94.652 84.6335C98.511 84.6335 101.65 81.4925 101.65 77.6325C101.65 76.5245 101.386 75.4265 100.885 74.4445C100.843 74.3495 100.796 74.2575 100.744 74.1685L97.157 67.9555C96.329 66.5195 94.496 66.0275 93.059 66.8575C91.624 67.6855 91.133 69.5205 91.961 70.9555L95.453 77.0045C95.476 77.0515 95.5 77.0985 95.526 77.1445C95.609 77.2925 95.65 77.4575 95.65 77.6325C95.65 78.1655 95.232 78.6035 94.707 78.6315C94.689 78.6315 94.671 78.6315 94.653 78.6315H53.612L71.21 61.0335C71.793 61.2675 72.418 61.4025 73.064 61.4025C74.935 61.4025 76.67 60.3385 77.523 58.6785L81.196 52.3095L85.931 60.5105C86.759 61.9465 88.595 62.4395 90.029 61.6085C91.464 60.7805 91.955 58.9455 91.127 57.5105L85.609 47.9545C85.602 47.9415 85.594 47.9295 85.587 47.9165C85.44 47.6485 85.262 47.4035 85.071 47.1715L100.342 31.9005C107.912 40.4625 112.521 51.6995 112.521 63.9995C112.521 90.7555 90.755 112.522 64.001 112.522Z" fill="#FFA900"/>
</svg>
