<svg width="44" height="44" viewBox="0 0 44 44" fill="none" xmlns="http://www.w3.org/2000/svg">
<path d="M37.508 18.2423C37.8112 17.9574 37.9856 17.5525 37.9991 17.1025C38.0186 16.455 37.7184 15.7528 37.1637 15.1647L35.9197 13.8934C35.3682 13.3092 34.648 12.9604 33.9933 12.9604C33.5589 12.9604 33.1744 13.1066 32.8865 13.3786L30.1394 15.9272C21.9141 8.73337 10.0516 10.5556 9.54882 10.6378C9.46567 10.6513 9.38912 10.6792 9.31647 10.7129C7.76147 8.68114 6.48564 6.602 5.74627 4.5901C5.57485 4.1233 5.05762 3.88404 4.59022 4.05545C4.12342 4.22716 3.88386 4.7447 4.05557 5.21181C7.78008 15.3479 23.4925 26.476 24.1593 26.9446C24.1698 26.9519 24.1812 26.9573 24.192 26.9639C24.2091 26.975 24.2262 26.9849 24.2439 26.9948C24.2727 27.0107 24.3019 27.0248 24.3316 27.0371C24.3481 27.0437 24.3643 27.0509 24.3811 27.0566C24.4153 27.0686 24.4499 27.0776 24.485 27.0854C24.4991 27.0887 24.5126 27.0926 24.527 27.095C24.5765 27.1031 24.6267 27.1086 24.6765 27.1086C24.6765 27.1086 24.6765 27.1086 24.6768 27.1086C24.6771 27.1086 24.6771 27.1086 24.6771 27.1086C24.7383 27.1086 24.7996 27.1023 24.8605 27.0896L28.3575 26.3617C28.3896 26.3566 28.4202 26.3488 28.4514 26.3422L28.4631 26.3398C28.4664 26.3392 28.4691 26.3371 28.4724 26.3365C28.7423 26.2743 28.9852 26.1527 29.1806 25.9681L32.9922 22.4315C34.7789 25.8267 35.7239 30.0544 35.8005 35.0211C33.2401 35.7574 23.2377 38.1917 16.06 33.6957C11.782 31.0156 9.1976 26.304 8.37837 19.6917C8.31713 19.1981 7.86684 18.8472 7.37392 18.9088C6.8801 18.97 6.52947 19.4197 6.59101 19.9135C7.48019 27.0938 10.347 32.2461 15.1114 35.227C18.7185 37.4839 22.8711 38.1689 26.5854 38.1686C32.1234 38.1686 36.6852 36.6454 36.998 36.5382C37.3621 36.4137 37.6071 36.0711 37.6071 35.686C37.6071 29.9271 36.5122 25.0441 34.3563 21.1668L37.508 18.2423ZM10.6124 12.3231C13.2907 12.0598 22.3668 11.6519 28.8093 17.1613L24.56 21.1038C24.2568 21.3887 24.0827 21.7936 24.0695 22.2439C24.0695 22.2502 24.0701 22.2562 24.0701 22.2625L23.9008 24.5203C21.2705 22.5423 15.167 17.7191 10.6124 12.3231ZM28.35 24.2828L26.091 22.1406L34.0392 14.7664C34.162 14.7892 34.3896 14.8964 34.6213 15.1416L35.8647 16.4123C36.0971 16.6588 36.1799 16.892 36.1961 17.0028L28.35 24.2828Z" fill="white"/>
</svg>
