<svg width="24" height="25" viewBox="0 0 24 25" fill="none" xmlns="http://www.w3.org/2000/svg">
<path d="M16.4128 21.3513L16.4136 21.3492L22.6639 5.02192C22.6644 5.02076 22.6648 5.01959 22.6653 5.01843C22.8577 4.52611 23 4.0031 23 3.50239C23 2.98517 22.8367 2.45949 22.4386 2.06139C22.0405 1.66329 21.5148 1.5 20.9976 1.5C20.4969 1.5 19.9738 1.64236 19.4815 1.83472C19.4804 1.83517 19.4792 1.83561 19.4781 1.83606L3.06644 8.12398C3.06616 8.12409 3.06588 8.1242 3.06561 8.1243C2.21772 8.44747 1 9.16304 1 10.5477C1 11.3016 1.3145 11.8847 1.83591 12.2891C2.28054 12.6338 2.84383 12.8196 3.29476 12.9558C3.29502 12.9559 3.29528 12.956 3.29555 12.9561L8.4455 14.5201C8.78851 14.6271 9.19667 14.7235 9.6305 14.6654C9.73838 14.6509 9.84089 14.628 9.93852 14.5979C9.91204 14.6847 9.89124 14.7759 9.87708 14.8718C9.81387 15.2997 9.90251 15.7103 10.0021 16.0616L10.0043 16.0694L10.0067 16.0771L11.5235 21.1141C11.5237 21.1146 11.5238 21.1152 11.524 21.1158C11.6636 21.5856 11.8496 22.1658 12.1889 22.6226C12.5878 23.1595 13.1748 23.5 13.9523 23.5C15.3328 23.5 16.0469 22.3007 16.4128 21.3513Z" stroke="black" stroke-width="2"/>
</svg>
