<svg width="44" height="44" viewBox="0 0 44 44" fill="none" xmlns="http://www.w3.org/2000/svg">
<path fill-rule="evenodd" clip-rule="evenodd" d="M35.1637 18.478L38.2074 18.8457C38.6593 18.9002 38.9991 19.2838 39 19.7387V24.2607C39 24.7159 38.6602 25.0992 38.2083 25.154L35.1278 25.5268C34.8162 26.6684 34.3601 27.7563 33.7663 28.7747L35.6906 31.2324C35.971 31.5908 35.9401 32.1018 35.6184 32.4232L32.422 35.6193C32.1003 35.9407 31.5893 35.9719 31.2312 35.6912L28.7552 33.7517C27.7392 34.3343 26.66 34.7796 25.5334 35.0816L25.1531 38.2089C25.0983 38.6605 24.715 39 24.2601 39H19.7405C19.2856 39 18.9023 38.6605 18.8475 38.2089L18.4669 35.0816C17.34 34.7793 16.2608 34.3337 15.2451 33.7517L12.7691 35.6912C12.411 35.9722 11.8997 35.9407 11.5783 35.6193L8.38195 32.4232C8.06019 32.1015 8.0293 31.5905 8.30968 31.2324L10.2343 28.7744C9.63961 27.7545 9.1835 26.6663 8.87254 25.5268L5.79166 25.154C5.33975 25.0992 5 24.7159 5 24.2607V19.739C5 19.2838 5.34005 18.9002 5.79166 18.8457L8.83595 18.4783C9.13912 17.3217 9.59313 16.2146 10.1914 15.1728L8.30908 12.7688C8.0287 12.4104 8.05959 11.8994 8.38135 11.5777L11.5777 8.38225C11.8991 8.06169 12.4098 8.0296 12.7682 8.30998L15.1524 10.1755C16.1981 9.56494 17.3139 9.10044 18.4831 8.78947L18.8478 5.79106C18.9026 5.33945 19.2859 5 19.7408 5H24.2592C24.7141 5 25.0974 5.33945 25.1525 5.79076L25.5181 8.78947C26.6867 9.10074 27.8025 9.56524 28.8485 10.1755L31.2306 8.31028C31.5893 8.0296 32.0997 8.06139 32.4214 8.38225L35.6175 11.5774C35.9392 11.8994 35.9704 12.4104 35.6897 12.7685L33.8077 15.1722C34.4051 16.2113 34.8594 17.319 35.1637 18.478ZM34.295 23.8148L37.1996 23.4631V20.5363L34.3253 20.1894C33.9433 20.1432 33.6332 19.8595 33.5531 19.4835C33.2584 18.0966 32.7216 16.7867 31.9578 15.5915C31.7521 15.2697 31.7722 14.8532 32.0076 14.5524L33.7816 12.2869L31.7122 10.2184L29.4641 11.9783C29.1618 12.2152 28.7423 12.2338 28.4199 12.0245C27.2202 11.2457 25.9046 10.6982 24.5099 10.3968C24.1354 10.3158 23.8535 10.0067 23.807 9.62641L23.4625 6.79923H20.5375L20.1936 9.62611C20.1471 10.0064 19.8652 10.3155 19.4904 10.3968C18.0951 10.6982 16.7795 11.2457 15.5807 12.0245C15.2583 12.2338 14.8388 12.2149 14.5365 11.9786L12.2866 10.2181L10.2172 12.2869L11.9906 14.5524C12.226 14.8529 12.2461 15.2694 12.0407 15.5909C11.2754 16.7906 10.7389 18.1002 10.4466 19.4826C10.3671 19.8589 10.0564 20.1432 9.67439 20.1894L6.79893 20.5363V23.4631L9.70408 23.8148C10.0825 23.8607 10.3908 24.1399 10.4739 24.512C10.7794 25.8803 11.3207 27.1707 12.0827 28.3471C12.2917 28.6691 12.2728 29.0881 12.0362 29.3906L10.2172 31.714L12.2866 33.7828L14.6238 31.9521C14.9242 31.717 15.3402 31.696 15.6619 31.9015C16.8377 32.6505 18.1209 33.1801 19.4757 33.4752C19.8496 33.5567 20.1309 33.8656 20.1771 34.2455L20.5363 37.2002H23.4625L23.8217 34.2455C23.8679 33.8659 24.1495 33.5564 24.5234 33.4752C25.8773 33.1804 27.1608 32.6508 28.3372 31.9015C28.6589 31.696 29.0752 31.7167 29.3753 31.9521L31.7125 33.7828L33.7819 31.7137L31.9629 29.3906C31.7263 29.0884 31.7077 28.6685 31.9167 28.3465C32.6778 27.1737 33.2191 25.8833 33.5253 24.5117C33.608 24.1399 33.9166 23.8607 34.295 23.8148ZM15.2799 22.0006C15.2799 18.2957 18.2945 15.2814 21.9994 15.2814C25.7046 15.2814 28.7192 18.2957 28.7189 22.0006C28.7201 22.9054 28.542 23.7855 28.1896 24.6161C27.9959 25.0737 27.4682 25.2872 27.0103 25.0932C26.5529 24.8992 26.3394 24.3711 26.5335 23.9138C26.7904 23.3075 26.9206 22.664 26.9197 22.0018C26.9197 19.2877 24.7123 17.0807 21.9991 17.0807C19.2859 17.0807 17.0788 19.2877 17.0788 22.0006C17.0788 24.7124 19.2862 26.9185 21.9991 26.9185C22.6936 26.9185 23.3596 26.78 23.9789 26.5068C24.4341 26.3059 24.9648 26.5122 25.1651 26.9668C25.3658 27.4217 25.1597 27.9525 24.7051 28.1531C23.8556 28.5276 22.9452 28.7178 21.9994 28.7178C18.2942 28.7178 15.2799 25.7047 15.2799 22.0006Z" fill="black"/>
</svg>
