<svg width="44" height="44" viewBox="0 0 44 44" fill="none" xmlns="http://www.w3.org/2000/svg">
<path d="M22.432 25.6739C22.8892 25.6739 23.2827 25.2911 23.2827 24.8445V13.9238L23.2189 12.3288L23.9313 13.0837L25.5476 14.8064C25.6965 14.9765 25.9092 15.0616 26.1218 15.0616C26.5578 15.0616 26.8981 14.7426 26.8981 14.3066C26.8981 14.0833 26.8024 13.9132 26.6429 13.7537L23.0487 10.2871C22.8361 10.0744 22.6553 10 22.432 10C22.2193 10 22.0385 10.0744 21.8152 10.2871L18.2211 13.7537C18.0616 13.9132 17.9765 14.0833 17.9765 14.3066C17.9765 14.7426 18.2955 15.0616 18.7421 15.0616C18.9442 15.0616 19.1781 14.9765 19.327 14.8064L20.9327 13.0837L21.6557 12.3288L21.5919 13.9238V24.8445C21.5919 25.2911 21.9747 25.6739 22.432 25.6739ZM16.3389 34H28.5357C30.7581 34 31.8746 32.8941 31.8746 30.7036V20.0913C31.8746 17.9008 30.7581 16.7949 28.5357 16.7949H25.5689V18.5069H28.5038C29.5565 18.5069 30.1626 19.0811 30.1626 20.187V30.6079C30.1626 31.7138 29.5565 32.288 28.5038 32.288H16.3602C15.2969 32.288 14.712 31.7138 14.712 30.6079V20.187C14.712 19.0811 15.2969 18.5069 16.3602 18.5069H19.3057V16.7949H16.3389C14.1165 16.7949 13 17.9008 13 20.0913V30.7036C13 32.8941 14.1165 34 16.3389 34Z" fill="white"/>
</svg>
