<svg width="12" height="12" viewBox="0 0 12 12" fill="none" xmlns="http://www.w3.org/2000/svg">
<g clip-path="url(#clip0_243_17819)">
<path d="M6.08978 12.0595C5.46521 12.0595 4.99678 11.7246 4.58396 11.4292C4.19096 11.1482 3.8197 10.8829 3.33169 10.8829C3.10705 10.8801 2.88349 10.9144 2.67 10.9844C2.59865 11.0096 2.52104 11.0111 2.44882 10.9885C2.37659 10.9658 2.31364 10.9204 2.26943 10.859L2.25298 10.8358C2.22187 10.792 2.20137 10.7416 2.1931 10.6885C2.18483 10.6355 2.18901 10.5812 2.20532 10.53C2.22163 10.4788 2.24962 10.4321 2.28707 10.3936C2.32453 10.3551 2.37042 10.3259 2.42113 10.3082C2.71435 10.2086 3.02228 10.1593 3.33193 10.1622C4.05103 10.1622 4.55705 10.5239 5.00314 10.8429C5.37549 11.1091 5.69702 11.3388 6.09014 11.3388C6.46176 11.3388 6.76624 11.1145 7.11889 10.8546C7.55681 10.5317 8.05311 10.1658 8.78073 10.1658H8.78734C9.05687 10.1645 9.3249 10.206 9.58139 10.2888C9.63231 10.3064 9.67842 10.3357 9.71601 10.3742C9.75361 10.4128 9.78166 10.4597 9.7979 10.511C9.81415 10.5624 9.81816 10.6168 9.80959 10.67C9.80103 10.7232 9.78013 10.7737 9.74858 10.8173L9.73165 10.8413C9.68945 10.9009 9.62939 10.9455 9.56015 10.9686C9.49092 10.9918 9.41612 10.9923 9.34658 10.9701C9.16492 10.9134 8.97558 10.8853 8.7853 10.8867H8.78025C8.28924 10.8867 7.92807 11.153 7.54564 11.4349C7.14867 11.7275 6.69826 12.0595 6.08978 12.0595Z" fill="#91978B"/>
<path d="M9.02231 11.6891V11.6595C9.02229 11.5762 9.05239 11.4957 9.10707 11.4328C9.16174 11.37 9.23731 11.329 9.31982 11.3174C10.1874 11.1961 10.9697 10.5581 11.2077 9.7392C11.4416 8.9353 11.0899 8.16575 10.2431 7.62778C10.179 7.58742 8.64204 6.59939 8.40542 4.70405C8.14082 2.57714 7.66074 0.61225 5.98844 0.662216C4.36851 0.707858 3.98716 2.46123 3.71163 4.41038C3.69778 4.50815 3.68424 4.60268 3.67103 4.69396C3.40174 6.53645 1.89988 7.55475 1.69197 7.68771C1.68489 7.69215 1.67852 7.69648 1.67167 7.7014C0.874141 8.27241 0.55729 9.04111 0.802195 9.81318C1.05443 10.6069 1.82397 11.2053 2.69598 11.3191C2.77919 11.33 2.85562 11.3707 2.91099 11.4338C2.96636 11.4968 2.99688 11.5779 2.99685 11.6618V11.6892C2.9968 11.7386 2.98619 11.7875 2.96575 11.8325C2.9453 11.8776 2.91548 11.9177 2.87828 11.9503C2.84109 11.9829 2.79737 12.0071 2.75004 12.0215C2.70272 12.0358 2.65288 12.0399 2.60385 12.0334C1.46184 11.8822 0.450272 11.0867 0.115284 10.0312C-0.227871 8.95019 0.205607 7.85382 1.27483 7.09929L1.29477 7.08608C1.30834 7.07779 2.72408 6.18669 2.9583 4.58946C2.97139 4.49962 2.9846 4.40606 2.99817 4.30961C3.22542 2.70097 3.60581 0.00881588 5.96814 -0.0582057C8.5313 -0.135317 8.92922 3.07511 9.12092 4.61541C9.31406 6.16447 10.6162 7.01125 10.6291 7.01978C11.7498 7.73155 12.2246 8.82347 11.8997 9.94098C11.5784 11.046 10.5654 11.8786 9.41014 12.0335C9.36144 12.0395 9.31201 12.0351 9.26515 12.0205C9.21829 12.0059 9.17508 11.9815 9.13838 11.9489C9.10169 11.9164 9.07236 11.8763 9.05235 11.8315C9.03233 11.7867 9.02209 11.7381 9.02231 11.6891Z" fill="#91978B"/>
</g>
<defs>
<clipPath id="clip0_243_17819">
<rect width="12" height="12" fill="white"/>
</clipPath>
</defs>
</svg>
