<svg width="16" height="17" viewBox="0 0 16 17" fill="none" xmlns="http://www.w3.org/2000/svg">
<g clip-path="url(#clip0_437_11197)">
<mask id="path-1-outside-1_437_11197" maskUnits="userSpaceOnUse" x="1.52979" y="-0.5" width="13" height="18" fill="black">
<rect fill="white" x="1.52979" y="-0.5" width="13" height="18"/>
<path fill-rule="evenodd" clip-rule="evenodd" d="M3.28066 9.87076C3.3324 9.95619 3.42494 10.0078 3.52387 10.0078C3.53084 10.0078 3.53795 10.0075 3.54491 10.0071L4.77028 9.91621L4.7796 9.91552L7.21785 9.73472C7.29376 9.72918 7.36427 9.6935 7.41359 9.63536C7.46292 9.57722 7.4868 9.50188 7.48012 9.42612C7.47859 9.4088 7.33801 7.71587 8.04219 6.13499C8.07596 6.09537 8.09891 6.04651 8.10692 5.99321C8.73272 4.59918 8.64336 2.8074 7.88296 1.61371C7.39853 0.853076 6.71594 0.452357 5.95943 0.504525C4.786 0.582848 2.57589 2.20234 2.53098 5.75147C2.49587 8.5414 3.24853 9.81774 3.28066 9.87076ZM7.9244 4.52843C7.87685 4.92562 7.77672 5.31693 7.62309 5.68049L6.48138 5.76496C6.53504 5.54284 6.59974 5.34098 6.6776 5.17078C6.77175 4.96481 6.83255 4.77712 6.8676 4.6067L7.9244 4.52843ZM7.95662 3.95591C7.95171 3.21376 7.76531 2.48761 7.40336 1.91946C7.05411 1.37092 6.58573 1.06885 6.08494 1.06885C6.0558 1.06885 6.02681 1.06985 5.99724 1.07184C5.20036 1.12507 3.75625 2.15724 3.26654 4.30336L4.5011 4.2118C4.74153 3.16152 5.46279 3.01539 5.71142 2.99693C6.00524 2.97248 6.42059 3.12045 6.68143 3.4953C6.77379 3.62787 6.85834 3.80574 6.89144 4.03481L7.95662 3.95591ZM5.02334 4.51034C5.0226 4.51713 5.02162 4.52386 5.0204 4.53051C5.0027 4.65526 4.99273 4.79092 4.99087 4.93681C4.98782 5.18144 4.98987 5.6377 4.99448 6.17302L4.99459 6.18562C5.00414 7.28556 5.02439 8.71336 5.03342 9.32669L5.67212 9.27933C5.64654 8.46691 5.62394 6.10715 6.16032 4.93425C6.37553 4.46346 6.39429 4.07824 6.21462 3.8201C6.0746 3.61868 5.85541 3.55571 5.75335 3.56381C5.36647 3.59247 5.11022 3.93129 5.02334 4.51034ZM4.42243 4.92971C4.42305 4.88108 4.42445 4.83368 4.42657 4.78747L3.16248 4.88121C3.12533 5.15793 3.10348 5.4504 3.09957 5.75886C3.09846 5.84594 3.09817 5.93144 3.09863 6.01538L4.42389 5.91747C4.42082 5.49351 4.41984 5.13879 4.42243 4.92971ZM3.11394 6.58437L4.42879 6.48723C4.43236 6.85296 4.43681 7.24115 4.44146 7.61556L3.22408 7.70583C3.17412 7.3774 3.13452 7.00403 3.11394 6.58437ZM7.37355 6.26907L6.37086 6.34327C6.31585 6.71082 6.28135 7.10246 6.2604 7.48082L7.05207 7.42222C7.12345 7.05527 7.22634 6.66367 7.37355 6.26907ZM6.24031 9.2372L6.89973 9.18831C6.89374 8.92604 6.89929 8.5045 6.96105 7.99909L6.23782 8.05262C6.22572 8.54264 6.23265 8.97036 6.24031 9.2372ZM4.44879 8.18515C4.45534 8.67826 4.46154 9.10655 4.46543 9.3688L3.69246 9.42612C3.60439 9.23248 3.45467 8.8509 3.32758 8.26829L4.44879 8.18515ZM5.52426 13.9499C4.41821 13.9499 3.48757 13.0851 3.40598 11.9809L3.34856 11.2039C3.3369 11.0473 3.45445 10.911 3.6111 10.8994L7.28404 10.6274C7.4387 10.6146 7.57701 10.7331 7.58853 10.8899L7.64609 11.6669C7.7328 12.8355 6.85235 13.8568 5.68318 13.9439C5.62988 13.9479 5.57685 13.9499 5.52426 13.9499ZM3.93647 11.4456L3.97301 11.9391C4.0357 12.7864 4.78111 13.438 5.64111 13.3771C6.4974 13.3132 7.14261 12.565 7.07907 11.7091L7.0424 11.2156L6.37982 11.2646L6.41079 11.6819C6.44732 12.1728 6.07731 12.6018 5.58648 12.6382C5.56416 12.6398 5.54185 12.6406 5.51996 12.6406C5.05528 12.6406 4.66451 12.2775 4.63025 11.8138L4.59945 11.3965L3.93647 11.4456ZM5.16645 11.3545L5.19728 11.7718C5.21036 11.9482 5.36502 12.0836 5.54441 12.0712C5.72266 12.0578 5.85698 11.9022 5.84376 11.7239L5.81264 11.3066L5.16645 11.3545ZM12.2188 13.3689C12.2022 13.3689 12.1852 13.3674 12.1685 13.3645L9.12012 12.8161C9.04535 12.8026 8.97896 12.7597 8.93589 12.6969C8.89282 12.634 8.8769 12.5566 8.8914 12.4818C8.89419 12.4678 9.15498 11.0717 8.71072 9.7048C8.68663 9.66671 8.67149 9.62285 8.66766 9.57659C8.27911 8.39544 8.47225 6.97042 9.15423 6.01337C9.64293 5.32794 10.3157 4.99844 10.9945 5.116C11.9832 5.28586 13.7163 6.84977 13.4413 9.85277C13.3697 10.6329 13.2394 11.2656 13.0961 11.7643C13.0941 11.7725 13.0918 11.7805 13.0891 11.7883C12.8023 12.7747 12.4665 13.2284 12.4454 13.2562C12.3911 13.328 12.3068 13.3689 12.2188 13.3689ZM9.5104 10.8134C9.48381 10.5285 9.43721 10.2252 9.36139 9.91567L10.0894 10.0467C10.1006 10.3298 10.0963 10.6274 10.0832 10.9163L9.5104 10.8134ZM9.93588 9.01497C9.97985 9.14551 10.0131 9.29588 10.0376 9.45962L9.17829 9.30494C9.08857 9.0043 9.04383 8.70244 9.03522 8.40876L9.82783 8.55133C9.84441 8.69112 9.87878 8.84528 9.93588 9.01497ZM9.86601 7.98043C9.91726 7.80395 10.0012 7.66935 10.0874 7.56948C10.3498 7.26542 10.7274 7.17616 10.9845 7.2225C11.1968 7.26071 11.8008 7.44903 11.9237 8.35041L12.8554 8.51798C12.6203 6.74169 11.5407 5.78663 10.898 5.67606C10.4347 5.59617 9.9767 5.83882 9.61721 6.34302C9.35224 6.71489 9.13925 7.24279 9.06346 7.83608L9.86601 7.98043ZM12.8751 9.80075C12.8973 9.55784 12.905 9.3255 12.9 9.10376L11.9368 8.93052C11.9351 8.95353 11.9332 8.97685 11.9311 9.00048C11.9157 9.16886 11.8857 9.4494 11.8483 9.78553L12.8586 9.9674C12.8644 9.91268 12.8699 9.85713 12.8751 9.80075ZM11.7843 10.3518L12.7843 10.5318C12.7346 10.8443 12.6756 11.1236 12.6124 11.3711L11.6856 11.2046C11.7187 10.9212 11.7525 10.6295 11.7843 10.3518ZM11.2547 9.97649C11.2537 9.98325 11.253 9.98998 11.2525 9.99669C11.1517 10.8875 11.0158 12.0332 10.9521 12.5678L10.5114 12.4885C10.6073 11.7712 10.8169 9.84942 10.4748 8.83359C10.3413 8.437 10.3562 8.1284 10.518 7.94105C10.6335 7.80701 10.8008 7.76706 10.8839 7.78227C11.2512 7.84823 11.4266 8.27339 11.3649 8.94873C11.3462 9.15264 11.305 9.53166 11.2547 9.97649ZM12.4505 11.9197C12.3087 12.3384 12.1682 12.6175 12.0806 12.7708L11.5126 12.6686C11.5379 12.4565 11.576 12.1367 11.6192 11.7703L12.4505 11.9197ZM9.49183 12.3051C9.5173 12.093 9.54393 11.7759 9.54016 11.3964L10.0464 11.4874C10.0164 11.8524 9.97869 12.1721 9.95054 12.3876L9.49183 12.3051ZM10.3626 16.5C10.2539 16.5 10.1445 16.4902 10.0367 16.4708C9.55469 16.3841 9.13535 16.1149 8.85589 15.7128C8.57657 15.3106 8.47039 14.8238 8.5571 14.3419L8.67266 13.6974C8.68602 13.6233 8.72838 13.5574 8.79021 13.5143C8.85219 13.4711 8.92853 13.455 9.00287 13.4678L11.0307 13.8326L12.0512 14.0162C12.2056 14.0441 12.3084 14.1918 12.2806 14.3463L12.1651 14.9909C12.008 15.8653 11.2498 16.5 10.3626 16.5ZM11.2098 14.4427L11.671 14.5257L11.6054 14.8904C11.497 15.4936 10.9743 15.9314 10.3625 15.9314C10.2876 15.9314 10.2115 15.9246 10.1372 15.9111C9.80486 15.8514 9.51545 15.6656 9.32284 15.3882C9.13023 15.1109 9.05689 14.775 9.11687 14.4425L9.18226 14.0778L9.64314 14.1607L9.58889 14.4628C9.55122 14.672 9.59727 14.8835 9.71866 15.0581C9.84006 15.2327 10.0222 15.3494 10.2308 15.3869C10.2779 15.3954 10.3256 15.3998 10.3732 15.3998C10.7586 15.3998 11.0875 15.1239 11.1555 14.7444L11.2098 14.4427ZM10.6503 14.342L10.5959 14.6439C10.5765 14.7522 10.4828 14.8311 10.3732 14.8311C10.3596 14.8311 10.346 14.83 10.3317 14.8273C10.272 14.8166 10.2203 14.7833 10.1856 14.7334C10.1511 14.6837 10.1379 14.6234 10.1487 14.5634L10.2028 14.2615L10.4511 14.3061L10.6503 14.342Z"/>
</mask>
<path fill-rule="evenodd" clip-rule="evenodd" d="M3.28066 9.87076C3.3324 9.95619 3.42494 10.0078 3.52387 10.0078C3.53084 10.0078 3.53795 10.0075 3.54491 10.0071L4.77028 9.91621L4.7796 9.91552L7.21785 9.73472C7.29376 9.72918 7.36427 9.6935 7.41359 9.63536C7.46292 9.57722 7.4868 9.50188 7.48012 9.42612C7.47859 9.4088 7.33801 7.71587 8.04219 6.13499C8.07596 6.09537 8.09891 6.04651 8.10692 5.99321C8.73272 4.59918 8.64336 2.8074 7.88296 1.61371C7.39853 0.853076 6.71594 0.452357 5.95943 0.504525C4.786 0.582848 2.57589 2.20234 2.53098 5.75147C2.49587 8.5414 3.24853 9.81774 3.28066 9.87076ZM7.9244 4.52843C7.87685 4.92562 7.77672 5.31693 7.62309 5.68049L6.48138 5.76496C6.53504 5.54284 6.59974 5.34098 6.6776 5.17078C6.77175 4.96481 6.83255 4.77712 6.8676 4.6067L7.9244 4.52843ZM7.95662 3.95591C7.95171 3.21376 7.76531 2.48761 7.40336 1.91946C7.05411 1.37092 6.58573 1.06885 6.08494 1.06885C6.0558 1.06885 6.02681 1.06985 5.99724 1.07184C5.20036 1.12507 3.75625 2.15724 3.26654 4.30336L4.5011 4.2118C4.74153 3.16152 5.46279 3.01539 5.71142 2.99693C6.00524 2.97248 6.42059 3.12045 6.68143 3.4953C6.77379 3.62787 6.85834 3.80574 6.89144 4.03481L7.95662 3.95591ZM5.02334 4.51034C5.0226 4.51713 5.02162 4.52386 5.0204 4.53051C5.0027 4.65526 4.99273 4.79092 4.99087 4.93681C4.98782 5.18144 4.98987 5.6377 4.99448 6.17302L4.99459 6.18562C5.00414 7.28556 5.02439 8.71336 5.03342 9.32669L5.67212 9.27933C5.64654 8.46691 5.62394 6.10715 6.16032 4.93425C6.37553 4.46346 6.39429 4.07824 6.21462 3.8201C6.0746 3.61868 5.85541 3.55571 5.75335 3.56381C5.36647 3.59247 5.11022 3.93129 5.02334 4.51034ZM4.42243 4.92971C4.42305 4.88108 4.42445 4.83368 4.42657 4.78747L3.16248 4.88121C3.12533 5.15793 3.10348 5.4504 3.09957 5.75886C3.09846 5.84594 3.09817 5.93144 3.09863 6.01538L4.42389 5.91747C4.42082 5.49351 4.41984 5.13879 4.42243 4.92971ZM3.11394 6.58437L4.42879 6.48723C4.43236 6.85296 4.43681 7.24115 4.44146 7.61556L3.22408 7.70583C3.17412 7.3774 3.13452 7.00403 3.11394 6.58437ZM7.37355 6.26907L6.37086 6.34327C6.31585 6.71082 6.28135 7.10246 6.2604 7.48082L7.05207 7.42222C7.12345 7.05527 7.22634 6.66367 7.37355 6.26907ZM6.24031 9.2372L6.89973 9.18831C6.89374 8.92604 6.89929 8.5045 6.96105 7.99909L6.23782 8.05262C6.22572 8.54264 6.23265 8.97036 6.24031 9.2372ZM4.44879 8.18515C4.45534 8.67826 4.46154 9.10655 4.46543 9.3688L3.69246 9.42612C3.60439 9.23248 3.45467 8.8509 3.32758 8.26829L4.44879 8.18515ZM5.52426 13.9499C4.41821 13.9499 3.48757 13.0851 3.40598 11.9809L3.34856 11.2039C3.3369 11.0473 3.45445 10.911 3.6111 10.8994L7.28404 10.6274C7.4387 10.6146 7.57701 10.7331 7.58853 10.8899L7.64609 11.6669C7.7328 12.8355 6.85235 13.8568 5.68318 13.9439C5.62988 13.9479 5.57685 13.9499 5.52426 13.9499ZM3.93647 11.4456L3.97301 11.9391C4.0357 12.7864 4.78111 13.438 5.64111 13.3771C6.4974 13.3132 7.14261 12.565 7.07907 11.7091L7.0424 11.2156L6.37982 11.2646L6.41079 11.6819C6.44732 12.1728 6.07731 12.6018 5.58648 12.6382C5.56416 12.6398 5.54185 12.6406 5.51996 12.6406C5.05528 12.6406 4.66451 12.2775 4.63025 11.8138L4.59945 11.3965L3.93647 11.4456ZM5.16645 11.3545L5.19728 11.7718C5.21036 11.9482 5.36502 12.0836 5.54441 12.0712C5.72266 12.0578 5.85698 11.9022 5.84376 11.7239L5.81264 11.3066L5.16645 11.3545ZM12.2188 13.3689C12.2022 13.3689 12.1852 13.3674 12.1685 13.3645L9.12012 12.8161C9.04535 12.8026 8.97896 12.7597 8.93589 12.6969C8.89282 12.634 8.8769 12.5566 8.8914 12.4818C8.89419 12.4678 9.15498 11.0717 8.71072 9.7048C8.68663 9.66671 8.67149 9.62285 8.66766 9.57659C8.27911 8.39544 8.47225 6.97042 9.15423 6.01337C9.64293 5.32794 10.3157 4.99844 10.9945 5.116C11.9832 5.28586 13.7163 6.84977 13.4413 9.85277C13.3697 10.6329 13.2394 11.2656 13.0961 11.7643C13.0941 11.7725 13.0918 11.7805 13.0891 11.7883C12.8023 12.7747 12.4665 13.2284 12.4454 13.2562C12.3911 13.328 12.3068 13.3689 12.2188 13.3689ZM9.5104 10.8134C9.48381 10.5285 9.43721 10.2252 9.36139 9.91567L10.0894 10.0467C10.1006 10.3298 10.0963 10.6274 10.0832 10.9163L9.5104 10.8134ZM9.93588 9.01497C9.97985 9.14551 10.0131 9.29588 10.0376 9.45962L9.17829 9.30494C9.08857 9.0043 9.04383 8.70244 9.03522 8.40876L9.82783 8.55133C9.84441 8.69112 9.87878 8.84528 9.93588 9.01497ZM9.86601 7.98043C9.91726 7.80395 10.0012 7.66935 10.0874 7.56948C10.3498 7.26542 10.7274 7.17616 10.9845 7.2225C11.1968 7.26071 11.8008 7.44903 11.9237 8.35041L12.8554 8.51798C12.6203 6.74169 11.5407 5.78663 10.898 5.67606C10.4347 5.59617 9.9767 5.83882 9.61721 6.34302C9.35224 6.71489 9.13925 7.24279 9.06346 7.83608L9.86601 7.98043ZM12.8751 9.80075C12.8973 9.55784 12.905 9.3255 12.9 9.10376L11.9368 8.93052C11.9351 8.95353 11.9332 8.97685 11.9311 9.00048C11.9157 9.16886 11.8857 9.4494 11.8483 9.78553L12.8586 9.9674C12.8644 9.91268 12.8699 9.85713 12.8751 9.80075ZM11.7843 10.3518L12.7843 10.5318C12.7346 10.8443 12.6756 11.1236 12.6124 11.3711L11.6856 11.2046C11.7187 10.9212 11.7525 10.6295 11.7843 10.3518ZM11.2547 9.97649C11.2537 9.98325 11.253 9.98998 11.2525 9.99669C11.1517 10.8875 11.0158 12.0332 10.9521 12.5678L10.5114 12.4885C10.6073 11.7712 10.8169 9.84942 10.4748 8.83359C10.3413 8.437 10.3562 8.1284 10.518 7.94105C10.6335 7.80701 10.8008 7.76706 10.8839 7.78227C11.2512 7.84823 11.4266 8.27339 11.3649 8.94873C11.3462 9.15264 11.305 9.53166 11.2547 9.97649ZM12.4505 11.9197C12.3087 12.3384 12.1682 12.6175 12.0806 12.7708L11.5126 12.6686C11.5379 12.4565 11.576 12.1367 11.6192 11.7703L12.4505 11.9197ZM9.49183 12.3051C9.5173 12.093 9.54393 11.7759 9.54016 11.3964L10.0464 11.4874C10.0164 11.8524 9.97869 12.1721 9.95054 12.3876L9.49183 12.3051ZM10.3626 16.5C10.2539 16.5 10.1445 16.4902 10.0367 16.4708C9.55469 16.3841 9.13535 16.1149 8.85589 15.7128C8.57657 15.3106 8.47039 14.8238 8.5571 14.3419L8.67266 13.6974C8.68602 13.6233 8.72838 13.5574 8.79021 13.5143C8.85219 13.4711 8.92853 13.455 9.00287 13.4678L11.0307 13.8326L12.0512 14.0162C12.2056 14.0441 12.3084 14.1918 12.2806 14.3463L12.1651 14.9909C12.008 15.8653 11.2498 16.5 10.3626 16.5ZM11.2098 14.4427L11.671 14.5257L11.6054 14.8904C11.497 15.4936 10.9743 15.9314 10.3625 15.9314C10.2876 15.9314 10.2115 15.9246 10.1372 15.9111C9.80486 15.8514 9.51545 15.6656 9.32284 15.3882C9.13023 15.1109 9.05689 14.775 9.11687 14.4425L9.18226 14.0778L9.64314 14.1607L9.58889 14.4628C9.55122 14.672 9.59727 14.8835 9.71866 15.0581C9.84006 15.2327 10.0222 15.3494 10.2308 15.3869C10.2779 15.3954 10.3256 15.3998 10.3732 15.3998C10.7586 15.3998 11.0875 15.1239 11.1555 14.7444L11.2098 14.4427ZM10.6503 14.342L10.5959 14.6439C10.5765 14.7522 10.4828 14.8311 10.3732 14.8311C10.3596 14.8311 10.346 14.83 10.3317 14.8273C10.272 14.8166 10.2203 14.7833 10.1856 14.7334C10.1511 14.6837 10.1379 14.6234 10.1487 14.5634L10.2028 14.2615L10.4511 14.3061L10.6503 14.342Z" fill="white"/>
<path d="M3.28066 9.87076L3.33198 9.83968L3.33197 9.83967L3.28066 9.87076ZM3.54491 10.0071L3.54858 10.067L3.54935 10.0669L3.54491 10.0071ZM4.77028 9.91621L4.76585 9.85638H4.76585L4.77028 9.91621ZM4.7796 9.91552L4.78403 9.97536L4.7796 9.91552ZM7.21785 9.73472L7.21348 9.67488L7.21342 9.67488L7.21785 9.73472ZM7.41359 9.63536L7.45935 9.67418H7.45935L7.41359 9.63536ZM7.48012 9.42612L7.53989 9.42085L7.53989 9.42081L7.48012 9.42612ZM8.04219 6.13499L7.99653 6.09607L7.99091 6.10266L7.98739 6.11057L8.04219 6.13499ZM8.10692 5.99321L8.05218 5.96863L8.04881 5.97615L8.04759 5.98429L8.10692 5.99321ZM7.88296 1.61371L7.83236 1.64594L7.83236 1.64594L7.88296 1.61371ZM5.95943 0.504525L5.96343 0.564392L5.96356 0.564383L5.95943 0.504525ZM2.53098 5.75147L2.47098 5.75071L2.47098 5.75072L2.53098 5.75147ZM7.62309 5.68049L7.62752 5.74032L7.66409 5.73762L7.67836 5.70384L7.62309 5.68049ZM7.9244 4.52843L7.98397 4.53556L7.99263 4.46321L7.91996 4.46859L7.9244 4.52843ZM6.48138 5.76496L6.42306 5.75087L6.40373 5.83087L6.48581 5.8248L6.48138 5.76496ZM6.6776 5.17078L6.73216 5.19574L6.73217 5.19573L6.6776 5.17078ZM6.8676 4.6067L6.86316 4.54686L6.81796 4.55021L6.80883 4.59461L6.8676 4.6067ZM7.40336 1.91946L7.35275 1.95169L7.35276 1.9517L7.40336 1.91946ZM7.95662 3.95591L7.96105 4.01574L8.01699 4.0116L8.01662 3.95551L7.95662 3.95591ZM5.99724 1.07184L6.00124 1.13171L6.00127 1.1317L5.99724 1.07184ZM3.26654 4.30336L3.20804 4.29001L3.18997 4.3692L3.27098 4.3632L3.26654 4.30336ZM4.5011 4.2118L4.50554 4.27164L4.5497 4.26836L4.55959 4.22519L4.5011 4.2118ZM5.71142 2.99693L5.71586 3.05677L5.7164 3.05672L5.71142 2.99693ZM6.68143 3.4953L6.63218 3.52957L6.6322 3.52959L6.68143 3.4953ZM6.89144 4.03481L6.83206 4.04339L6.84006 4.09878L6.89587 4.09464L6.89144 4.03481ZM5.0204 4.53051L4.96133 4.51971L4.961 4.52208L5.0204 4.53051ZM5.02334 4.51034L4.96396 4.50143L4.9637 4.50383L5.02334 4.51034ZM4.99087 4.93681L4.93088 4.93605V4.93606L4.99087 4.93681ZM4.99448 6.17302L4.93449 6.17353V6.17354L4.99448 6.17302ZM4.99459 6.18562L4.9346 6.18614L4.9346 6.18614L4.99459 6.18562ZM5.03342 9.32669L4.97342 9.32757L4.97436 9.39123L5.03785 9.38652L5.03342 9.32669ZM5.67212 9.27933L5.67655 9.33917L5.7339 9.33492L5.73209 9.27744L5.67212 9.27933ZM6.16032 4.93425L6.21488 4.9592L6.21489 4.9592L6.16032 4.93425ZM6.21462 3.8201L6.16535 3.85435L6.16537 3.85438L6.21462 3.8201ZM5.75335 3.56381L5.75779 3.62365L5.7581 3.62362L5.75335 3.56381ZM4.42657 4.78747L4.48651 4.79022L4.48962 4.72263L4.42214 4.72763L4.42657 4.78747ZM4.42243 4.92971L4.36244 4.92894L4.36244 4.92896L4.42243 4.92971ZM3.16248 4.88121L3.15804 4.82137L3.10949 4.82497L3.10301 4.87323L3.16248 4.88121ZM3.09957 5.75886L3.03957 5.7581L3.09957 5.75886ZM3.09863 6.01538L3.03864 6.01572L3.03899 6.07995L3.10306 6.07522L3.09863 6.01538ZM4.42389 5.91747L4.42831 5.97731L4.48429 5.97317L4.48389 5.91704L4.42389 5.91747ZM4.42879 6.48723L4.48879 6.48665L4.48817 6.42268L4.42437 6.42739L4.42879 6.48723ZM3.11394 6.58437L3.10952 6.52453L3.05115 6.52885L3.05402 6.58731L3.11394 6.58437ZM4.44146 7.61556L4.4459 7.67539L4.50216 7.67122L4.50146 7.61481L4.44146 7.61556ZM3.22408 7.70583L3.16477 7.71485L3.17312 7.76977L3.22852 7.76567L3.22408 7.70583ZM6.37086 6.34327L6.36644 6.28343L6.31862 6.28697L6.31153 6.33439L6.37086 6.34327ZM7.37355 6.26907L7.42977 6.29005L7.4625 6.20233L7.36913 6.20924L7.37355 6.26907ZM6.2604 7.48082L6.2005 7.47751L6.19672 7.5457L6.26483 7.54066L6.2604 7.48082ZM7.05207 7.42222L7.0565 7.48206L7.10221 7.47868L7.11096 7.43368L7.05207 7.42222ZM6.89973 9.18831L6.90417 9.24814L6.96102 9.24393L6.95972 9.18694L6.89973 9.18831ZM6.24031 9.2372L6.18034 9.23892L6.18214 9.30168L6.24475 9.29704L6.24031 9.2372ZM6.96105 7.99909L7.0206 8.00637L7.02946 7.93386L6.95662 7.93926L6.96105 7.99909ZM6.23782 8.05262L6.23339 7.99279L6.17918 7.9968L6.17784 8.05114L6.23782 8.05262ZM4.46543 9.3688L4.46987 9.42864L4.52626 9.42446L4.52543 9.36791L4.46543 9.3688ZM4.44879 8.18515L4.50878 8.18435L4.50793 8.1206L4.44435 8.12531L4.44879 8.18515ZM3.69246 9.42612L3.63785 9.45096L3.65517 9.48905L3.6969 9.48595L3.69246 9.42612ZM3.32758 8.26829L3.32315 8.20846L3.25423 8.21357L3.26896 8.28108L3.32758 8.26829ZM3.40598 11.9809L3.46582 11.9765L3.46582 11.9765L3.40598 11.9809ZM3.34856 11.2039L3.40839 11.1995L3.40839 11.1995L3.34856 11.2039ZM3.6111 10.8994L3.6155 10.9593L3.61553 10.9593L3.6111 10.8994ZM7.28404 10.6274L7.28847 10.6872L7.28899 10.6872L7.28404 10.6274ZM7.58853 10.8899L7.52869 10.8943L7.52869 10.8943L7.58853 10.8899ZM7.64609 11.6669L7.58625 11.6713L7.58626 11.6713L7.64609 11.6669ZM5.68318 13.9439L5.67872 13.8841L5.67872 13.8841L5.68318 13.9439ZM3.97301 11.9391L4.03285 11.9347L4.03285 11.9347L3.97301 11.9391ZM3.93647 11.4456L3.93204 11.3857L3.87221 11.3902L3.87664 11.45L3.93647 11.4456ZM5.64111 13.3771L5.64535 13.4369L5.64557 13.4369L5.64111 13.3771ZM7.07907 11.7091L7.13891 11.7047V11.7047L7.07907 11.7091ZM7.0424 11.2156L7.10223 11.2111L7.09779 11.1513L7.03797 11.1557L7.0424 11.2156ZM6.37982 11.2646L6.37539 11.2048L6.31555 11.2092L6.31999 11.2691L6.37982 11.2646ZM6.41079 11.6819L6.35096 11.6863L6.35096 11.6863L6.41079 11.6819ZM5.58648 12.6382L5.59067 12.6981L5.59091 12.6981L5.58648 12.6382ZM4.63025 11.8138L4.57042 11.8182L4.57042 11.8182L4.63025 11.8138ZM4.59945 11.3965L4.65928 11.3921L4.65487 11.3322L4.59502 11.3366L4.59945 11.3965ZM5.19728 11.7718L5.13744 11.7763L5.13745 11.7763L5.19728 11.7718ZM5.16645 11.3545L5.16202 11.2946L5.10219 11.2991L5.10661 11.3589L5.16645 11.3545ZM5.54441 12.0712L5.54853 12.1311L5.54889 12.131L5.54441 12.0712ZM5.84376 11.7239L5.9036 11.7195L5.9036 11.7195L5.84376 11.7239ZM5.81264 11.3066L5.87247 11.3022L5.86801 11.2424L5.80821 11.2468L5.81264 11.3066ZM12.1685 13.3645L12.1578 13.4236L12.1584 13.4237L12.1685 13.3645ZM9.12012 12.8161L9.10945 12.8752L9.10949 12.8752L9.12012 12.8161ZM8.93589 12.6969L8.8864 12.7308L8.93589 12.6969ZM8.8914 12.4818L8.83257 12.47L8.8325 12.4704L8.8914 12.4818ZM8.71072 9.7048L8.76778 9.68626L8.76545 9.6791L8.76143 9.67273L8.71072 9.7048ZM8.66766 9.57659L8.72915 9.5715L8.72466 9.55784L8.66766 9.57659ZM9.15423 6.01337L9.10538 5.97854L9.10537 5.97855L9.15423 6.01337ZM10.9945 5.116L10.9842 5.17512L10.9843 5.17513L10.9945 5.116ZM13.4413 9.85277L13.501 9.85825L13.501 9.85824L13.4413 9.85277ZM13.0961 11.7643L13.0384 11.7477L13.0378 11.7502L13.0961 11.7643ZM13.0891 11.7883L13.0322 11.7691L13.0315 11.7716L13.0891 11.7883ZM12.4454 13.2562L12.3976 13.2199L12.3975 13.22L12.4454 13.2562ZM9.36139 9.91567L9.37201 9.85662L9.28114 9.84027L9.30311 9.92995L9.36139 9.91567ZM9.5104 10.8134L9.45066 10.8189L9.4549 10.8644L9.49978 10.8724L9.5104 10.8134ZM10.0894 10.0467L10.1494 10.0443L10.1475 9.99619L10.1 9.98766L10.0894 10.0467ZM10.0832 10.9163L10.0725 10.9754L10.14 10.9875L10.1431 10.9191L10.0832 10.9163ZM10.0376 9.45962L10.027 9.51867L10.1094 9.53349L10.097 9.45074L10.0376 9.45962ZM9.93588 9.01497L9.87902 9.03411L9.87902 9.03412L9.93588 9.01497ZM9.17829 9.30494L9.1208 9.3221L9.13135 9.35746L9.16766 9.36399L9.17829 9.30494ZM9.03522 8.40876L9.04585 8.34971L8.97309 8.33662L8.97525 8.41052L9.03522 8.40876ZM9.82783 8.55133L9.88741 8.54426L9.88217 8.50014L9.83845 8.49228L9.82783 8.55133ZM9.86601 7.98043L9.85539 8.03949L9.90856 8.04905L9.92363 7.99717L9.86601 7.98043ZM10.0874 7.56948L10.042 7.53028L10.042 7.53028L10.0874 7.56948ZM10.9845 7.2225L10.9739 7.28155L10.9739 7.28155L10.9845 7.2225ZM11.9237 8.35041L11.8643 8.35852L11.8702 8.40174L11.9131 8.40946L11.9237 8.35041ZM12.8554 8.51798L12.8448 8.57703L12.9257 8.59158L12.9149 8.5101L12.8554 8.51798ZM10.898 5.67606L10.8878 5.73519L10.8878 5.73519L10.898 5.67606ZM9.61721 6.34302L9.56835 6.30818L9.56834 6.3082L9.61721 6.34302ZM9.06346 7.83608L9.00395 7.82848L8.99672 7.88504L9.05284 7.89513L9.06346 7.83608ZM12.9 9.10376L12.96 9.10241L12.9589 9.05339L12.9106 9.04471L12.9 9.10376ZM12.8751 9.80075L12.9348 9.80623L12.9348 9.80622L12.8751 9.80075ZM11.9368 8.93052L11.9474 8.87147L11.8818 8.85966L11.877 8.92618L11.9368 8.93052ZM11.9311 9.00048L11.9908 9.00594L11.9908 9.00594L11.9311 9.00048ZM11.8483 9.78553L11.7887 9.7789L11.7825 9.83465L11.8377 9.84458L11.8483 9.78553ZM12.8586 9.9674L12.848 10.0264L12.9115 10.0379L12.9183 9.97372L12.8586 9.9674ZM12.7843 10.5318L12.8435 10.5412L12.8527 10.4831L12.7949 10.4727L12.7843 10.5318ZM11.7843 10.3518L11.795 10.2927L11.732 10.2814L11.7247 10.345L11.7843 10.3518ZM12.6124 11.3711L12.6018 11.4302L12.6567 11.44L12.6705 11.3859L12.6124 11.3711ZM11.6856 11.2046L11.626 11.1976L11.6195 11.2536L11.675 11.2636L11.6856 11.2046ZM11.2525 9.99669L11.3121 10.0034L11.3123 10.0013L11.2525 9.99669ZM11.2547 9.97649L11.3141 9.98534L11.3144 9.98323L11.2547 9.97649ZM10.9521 12.5678L10.9415 12.6268L11.0042 12.6381L11.0117 12.5749L10.9521 12.5678ZM10.5114 12.4885L10.4519 12.4806L10.4443 12.5374L10.5008 12.5476L10.5114 12.4885ZM10.4748 8.83359L10.4179 8.85273L10.4179 8.85274L10.4748 8.83359ZM10.518 7.94105L10.5634 7.98026L10.5634 7.98023L10.518 7.94105ZM10.8839 7.78227L10.8731 7.84129L10.8733 7.84133L10.8839 7.78227ZM11.3649 8.94873L11.4246 8.9542L11.4246 8.95419L11.3649 8.94873ZM12.0806 12.7708L12.07 12.8298L12.1117 12.8373L12.1327 12.8005L12.0806 12.7708ZM12.4505 11.9197L12.5073 11.9389L12.5297 11.873L12.4611 11.8607L12.4505 11.9197ZM11.5126 12.6686L11.453 12.6615L11.4463 12.7176L11.502 12.7276L11.5126 12.6686ZM11.6192 11.7703L11.6298 11.7113L11.567 11.7L11.5596 11.7633L11.6192 11.7703ZM9.54016 11.3964L9.55077 11.3374L9.47944 11.3245L9.48016 11.397L9.54016 11.3964ZM9.49183 12.3051L9.43226 12.2979L9.42551 12.3541L9.48121 12.3642L9.49183 12.3051ZM10.0464 11.4874L10.1062 11.4923L10.1106 11.438L10.057 11.4284L10.0464 11.4874ZM9.95054 12.3876L9.93992 12.4467L10.0019 12.4578L10.01 12.3954L9.95054 12.3876ZM10.0367 16.4708L10.0261 16.5299L10.0261 16.5299L10.0367 16.4708ZM8.85589 15.7128L8.80661 15.747L8.80662 15.747L8.85589 15.7128ZM8.5571 14.3419L8.61615 14.3525L8.61615 14.3525L8.5571 14.3419ZM8.67266 13.6974L8.61361 13.6867L8.6136 13.6868L8.67266 13.6974ZM8.79021 13.5143L8.82451 13.5636L8.82453 13.5635L8.79021 13.5143ZM9.00287 13.4678L9.01349 13.4088L9.01304 13.4087L9.00287 13.4678ZM11.0307 13.8326L11.0201 13.8917L11.0307 13.8326ZM12.0512 14.0162L12.0619 13.9572L12.0618 13.9572L12.0512 14.0162ZM12.2806 14.3463L12.2216 14.3357L12.2216 14.3357L12.2806 14.3463ZM12.1651 14.9909L12.2241 15.0016L12.2241 15.0015L12.1651 14.9909ZM11.671 14.5257L11.73 14.5363L11.7406 14.4773L11.6816 14.4666L11.671 14.5257ZM11.2098 14.4427L11.2204 14.3836L11.1613 14.373L11.1507 14.4321L11.2098 14.4427ZM11.6054 14.8904L11.6645 14.9011L11.6645 14.9011L11.6054 14.8904ZM10.1372 15.9111L10.1479 15.852L10.1478 15.852L10.1372 15.9111ZM9.11687 14.4425L9.17592 14.4532L9.17593 14.4531L9.11687 14.4425ZM9.18226 14.0778L9.19289 14.0187L9.1338 14.0081L9.1232 14.0672L9.18226 14.0778ZM9.64314 14.1607L9.7022 14.1713L9.7128 14.1123L9.65377 14.1017L9.64314 14.1607ZM9.58889 14.4628L9.64794 14.4734L9.64794 14.4734L9.58889 14.4628ZM10.2308 15.3869L10.2415 15.3279L10.2414 15.3278L10.2308 15.3869ZM11.1555 14.7444L11.0964 14.7338L11.0964 14.7338L11.1555 14.7444ZM10.5959 14.6439L10.5368 14.6332L10.5368 14.6333L10.5959 14.6439ZM10.6503 14.342L10.7093 14.3526L10.72 14.2936L10.6609 14.2829L10.6503 14.342ZM10.3317 14.8273L10.3429 14.7683L10.3423 14.7682L10.3317 14.8273ZM10.1856 14.7334L10.1363 14.7677L10.1364 14.7677L10.1856 14.7334ZM10.1487 14.5634L10.2077 14.5741L10.2077 14.574L10.1487 14.5634ZM10.2028 14.2615L10.2134 14.2025L10.1544 14.1918L10.1438 14.2509L10.2028 14.2615ZM10.4511 14.3061L10.4617 14.2471L10.4617 14.2471L10.4511 14.3061ZM3.52387 9.94779C3.44581 9.94779 3.37279 9.90706 3.33198 9.83968L3.22934 9.90184C3.29201 10.0053 3.40407 10.0678 3.52387 10.0678V9.94779ZM3.54125 9.94719C3.53509 9.94757 3.52926 9.94779 3.52387 9.94779V10.0678C3.53242 10.0678 3.54081 10.0674 3.54858 10.067L3.54125 9.94719ZM4.76585 9.85638L3.54048 9.94724L3.54935 10.0669L4.77472 9.97605L4.76585 9.85638ZM4.77516 9.85569L4.76585 9.85638L4.77472 9.97605L4.78403 9.97536L4.77516 9.85569ZM7.21342 9.67488L4.77516 9.85569L4.78403 9.97536L7.22229 9.79456L7.21342 9.67488ZM7.36784 9.59655C7.32897 9.64236 7.2734 9.6705 7.21348 9.67488L7.22223 9.79456C7.31413 9.78785 7.39957 9.74464 7.45935 9.67418L7.36784 9.59655ZM7.42035 9.43139C7.42563 9.49119 7.40678 9.55065 7.36784 9.59655L7.45935 9.67418C7.51906 9.6038 7.54798 9.51257 7.53989 9.42085L7.42035 9.43139ZM7.98739 6.11057C7.27675 7.70592 7.4186 9.41163 7.42036 9.43142L7.53989 9.42081C7.53989 9.42082 7.53988 9.42079 7.53988 9.4207C7.53987 9.42063 7.53986 9.42052 7.53985 9.42038C7.53983 9.42009 7.53979 9.41971 7.53975 9.41921C7.53967 9.41822 7.53956 9.41683 7.53942 9.41503C7.53915 9.41144 7.53876 9.40627 7.5383 9.39956C7.53738 9.38616 7.53616 9.36666 7.53487 9.3415C7.53229 9.29117 7.52945 9.21821 7.52827 9.12611C7.52589 8.94188 7.53014 8.68121 7.5563 8.37194C7.60864 7.75295 7.74855 6.94167 8.097 6.1594L7.98739 6.11057ZM8.04759 5.98429C8.04128 6.02622 8.02322 6.06475 7.99653 6.09607L8.08786 6.17391C8.1287 6.12599 8.15653 6.06681 8.16625 6.00212L8.04759 5.98429ZM7.83236 1.64594C8.58086 2.82096 8.67055 4.59118 8.05218 5.96863L8.16166 6.01778C8.7949 4.60718 8.70587 2.79384 7.93357 1.58147L7.83236 1.64594ZM5.96356 0.564383C6.69304 0.514078 7.3567 0.899101 7.83236 1.64594L7.93357 1.58147C7.44035 0.80705 6.73883 0.390636 5.9553 0.444667L5.96356 0.564383ZM2.59097 5.75223C2.6356 2.22638 4.82862 0.640137 5.96343 0.564392L5.95543 0.444658C4.74338 0.525559 2.51619 2.1783 2.47098 5.75071L2.59097 5.75223ZM3.33197 9.83967C3.30542 9.79585 2.55601 8.53048 2.59097 5.75223L2.47098 5.75072C2.43572 8.55231 3.19164 9.83963 3.22934 9.90185L3.33197 9.83967ZM7.67836 5.70384C7.83434 5.33474 7.93581 4.93792 7.98397 4.53556L7.86482 4.52129C7.8179 4.91331 7.71911 5.29912 7.56782 5.65713L7.67836 5.70384ZM6.48581 5.8248L7.62752 5.74032L7.61867 5.62065L6.47695 5.70513L6.48581 5.8248ZM6.62303 5.14582C6.54308 5.3206 6.47729 5.5264 6.42306 5.75087L6.5397 5.77905C6.5928 5.55929 6.6564 5.36135 6.73216 5.19574L6.62303 5.14582ZM6.80883 4.59461C6.77479 4.76013 6.71552 4.94351 6.62303 5.14584L6.73217 5.19573C6.82799 4.98611 6.89032 4.79411 6.92637 4.61878L6.80883 4.59461ZM7.91996 4.46859L6.86316 4.54686L6.87203 4.66653L7.92883 4.58826L7.91996 4.46859ZM7.35276 1.9517C7.70756 2.50863 7.89177 3.22324 7.89662 3.9563L8.01662 3.95551C8.01165 3.20428 7.82306 2.46659 7.45397 1.88723L7.35276 1.9517ZM6.08494 1.12885C6.55917 1.12885 7.01081 1.41463 7.35275 1.95169L7.45398 1.88724C7.09741 1.32721 6.61229 1.00885 6.08494 1.00885V1.12885ZM6.00127 1.1317C6.02953 1.1298 6.05719 1.12885 6.08494 1.12885V1.00885C6.05442 1.00885 6.02408 1.0099 5.99321 1.01197L6.00127 1.1317ZM3.32503 4.31671C3.56747 3.25425 4.04561 2.46964 4.55957 1.94474C5.07525 1.41809 5.62251 1.15701 6.00124 1.13171L5.99324 1.01197C5.57508 1.03991 5.00185 1.32153 4.47383 1.86079C3.94408 2.40181 3.45531 3.20635 3.20804 4.29001L3.32503 4.31671ZM4.49666 4.15197L3.2621 4.24353L3.27098 4.3632L4.50554 4.27164L4.49666 4.15197ZM5.70698 2.93709C5.57591 2.94682 5.32179 2.99001 5.06863 3.16839C4.81414 3.3477 4.56587 3.66001 4.44261 4.19841L4.55959 4.22519C4.67677 3.71332 4.90934 3.42742 5.13775 3.26648C5.36748 3.10461 5.5983 3.06549 5.71586 3.05677L5.70698 2.93709ZM6.73068 3.46103C6.45743 3.06836 6.02129 2.91094 5.70645 2.93714L5.7164 3.05672C5.98919 3.03402 6.38375 3.17255 6.63218 3.52957L6.73068 3.46103ZM6.95082 4.02623C6.91623 3.78684 6.8277 3.60029 6.73066 3.461L6.6322 3.52959C6.71988 3.65544 6.80045 3.82464 6.83206 4.04339L6.95082 4.02623ZM7.95219 3.89607L6.88701 3.97497L6.89587 4.09464L7.96105 4.01574L7.95219 3.89607ZM5.07942 4.5413C5.08089 4.53325 5.08209 4.5251 5.08299 4.51685L4.9637 4.50383C4.96312 4.50916 4.96234 4.51446 4.96138 4.51972L5.07942 4.5413ZM5.05087 4.93757C5.0527 4.79391 5.06251 4.66084 5.07981 4.53894L4.961 4.52208C4.94289 4.64969 4.93276 4.78793 4.93088 4.93605L5.05087 4.93757ZM5.05448 6.1725C5.04986 5.63708 5.04782 5.18145 5.05087 4.93756L4.93088 4.93606C4.92781 5.18143 4.92987 5.63833 4.93449 6.17353L5.05448 6.1725ZM5.05459 6.1851L5.05448 6.1725L4.93449 6.17354L4.9346 6.18614L5.05459 6.1851ZM5.09341 9.3258C5.08438 8.71248 5.06414 7.28484 5.05459 6.1851L4.9346 6.18614C4.94414 7.28628 4.96439 8.71424 4.97342 9.32757L5.09341 9.3258ZM5.66768 9.21949L5.02898 9.26685L5.03785 9.38652L5.67655 9.33917L5.66768 9.21949ZM6.10575 4.9093C5.83269 5.5064 5.70387 6.39909 5.64563 7.23781C5.58723 8.07874 5.59932 8.87401 5.61215 9.28122L5.73209 9.27744C5.71933 8.87223 5.70733 8.08141 5.76534 7.24613C5.82349 6.40864 5.95156 5.535 6.21488 4.9592L6.10575 4.9093ZM6.16537 3.85438C6.32656 4.08595 6.31806 4.44485 6.10575 4.90931L6.21489 4.9592C6.43299 4.48206 6.46203 4.07053 6.26387 3.78582L6.16537 3.85438ZM5.7581 3.62362C5.79638 3.62058 5.86623 3.63109 5.94427 3.6677C6.02109 3.70375 6.10215 3.76343 6.16535 3.85435L6.26389 3.78585C6.18707 3.67535 6.08853 3.60283 5.99524 3.55906C5.90316 3.51586 5.81238 3.49894 5.7486 3.504L5.7581 3.62362ZM5.08268 4.51924C5.12521 4.23573 5.20844 4.01709 5.32344 3.8672C5.43724 3.71891 5.58285 3.63661 5.75779 3.62365L5.74892 3.50397C5.53697 3.51968 5.36102 3.62112 5.22824 3.79415C5.09669 3.9656 5.00835 4.2059 4.96401 4.50144L5.08268 4.51924ZM4.36664 4.78471C4.36448 4.8316 4.36307 4.87967 4.36244 4.92894L4.48243 4.93047C4.48304 4.8825 4.48442 4.83576 4.48651 4.79022L4.36664 4.78471ZM3.16691 4.94104L4.43101 4.8473L4.42214 4.72763L3.15804 4.82137L3.16691 4.94104ZM3.15956 5.75963C3.16344 5.45352 3.18513 5.16346 3.22194 4.88919L3.10301 4.87323C3.06554 5.1524 3.04351 5.44729 3.03957 5.7581L3.15956 5.75963ZM3.15863 6.01505C3.15817 5.93147 3.15846 5.84633 3.15956 5.75962L3.03957 5.7581C3.03846 5.84554 3.03817 5.93141 3.03864 6.01572L3.15863 6.01505ZM4.41947 5.85763L3.09421 5.95555L3.10306 6.07522L4.42831 5.97731L4.41947 5.85763ZM4.36244 4.92896C4.35984 5.13871 4.36082 5.49398 4.36389 5.9179L4.48389 5.91704C4.48082 5.49303 4.47985 5.13887 4.48243 4.93045L4.36244 4.92896ZM4.42437 6.42739L3.10952 6.52453L3.11837 6.64421L4.43321 6.54707L4.42437 6.42739ZM4.50146 7.61481C4.49681 7.24044 4.49235 6.85231 4.48879 6.48665L4.3688 6.48782C4.37236 6.85361 4.37682 7.24186 4.38146 7.6163L4.50146 7.61481ZM3.22852 7.76567L4.4459 7.67539L4.43702 7.55572L3.21965 7.64599L3.22852 7.76567ZM3.05402 6.58731C3.07469 7.00899 3.11449 7.3844 3.16477 7.71485L3.2834 7.69681C3.23375 7.3704 3.19435 6.99906 3.17387 6.58143L3.05402 6.58731ZM6.37529 6.4031L7.37798 6.32891L7.36913 6.20924L6.36644 6.28343L6.37529 6.4031ZM6.32031 7.48414C6.34119 7.107 6.37555 6.71731 6.4302 6.35215L6.31153 6.33439C6.25616 6.70432 6.22151 7.09792 6.2005 7.47751L6.32031 7.48414ZM7.04764 7.36239L6.25598 7.42099L6.26483 7.54066L7.0565 7.48206L7.04764 7.36239ZM7.31734 6.2481C7.16879 6.64626 7.06508 7.04111 6.99317 7.41077L7.11096 7.43368C7.18182 7.06944 7.28388 6.68108 7.42977 6.29005L7.31734 6.2481ZM6.8953 9.12847L6.23587 9.17736L6.24475 9.29704L6.90417 9.24814L6.8953 9.12847ZM6.90149 7.99181C6.83931 8.50069 6.83371 8.92519 6.83975 9.18968L6.95972 9.18694C6.95378 8.92689 6.95927 8.50832 7.0206 8.00637L6.90149 7.99181ZM6.24225 8.11246L6.96548 8.05893L6.95662 7.93926L6.23339 7.99279L6.24225 8.11246ZM6.30029 9.23548C6.29265 8.96938 6.28573 8.54276 6.2978 8.05411L6.17784 8.05114C6.1657 8.54251 6.17266 8.97134 6.18034 9.23892L6.30029 9.23548ZM4.52543 9.36791C4.52153 9.10568 4.51533 8.67743 4.50878 8.18435L4.38879 8.18595C4.39534 8.6791 4.40155 9.10742 4.40544 9.36969L4.52543 9.36791ZM3.6969 9.48595L4.46987 9.42864L4.461 9.30897L3.68803 9.36628L3.6969 9.48595ZM3.26896 8.28108C3.39699 8.86797 3.54808 9.25358 3.63785 9.45096L3.74708 9.40127C3.6607 9.21137 3.51236 8.83382 3.3862 8.25551L3.26896 8.28108ZM4.44435 8.12531L3.32315 8.20846L3.33202 8.32813L4.45322 8.24499L4.44435 8.12531ZM3.34614 11.9853C3.43005 13.1208 4.38675 14.0099 5.52426 14.0099V13.8899C4.44967 13.8899 3.5451 13.0494 3.46582 11.9765L3.34614 11.9853ZM3.28872 11.2083L3.34614 11.9853L3.46582 11.9765L3.40839 11.1995L3.28872 11.2083ZM3.6067 10.8396C3.41699 10.8535 3.2746 11.0186 3.28872 11.2084L3.40839 11.1995C3.39919 11.0759 3.49192 10.9684 3.6155 10.9593L3.6067 10.8396ZM7.27961 10.5675L3.60667 10.8396L3.61553 10.9593L7.28847 10.6872L7.27961 10.5675ZM7.64836 10.8855C7.63443 10.6958 7.46735 10.552 7.2791 10.5676L7.28899 10.6872C7.41005 10.6771 7.51959 10.7704 7.52869 10.8943L7.64836 10.8855ZM7.70593 11.6625L7.64836 10.8855L7.52869 10.8943L7.58625 11.6713L7.70593 11.6625ZM5.68764 14.0038C6.88981 13.9142 7.79509 12.8641 7.70593 11.6624L7.58626 11.6713C7.67051 12.8069 6.81488 13.7994 5.67872 13.8841L5.68764 14.0038ZM5.52426 14.0099C5.57836 14.0099 5.63288 14.0079 5.68765 14.0038L5.67872 13.8841C5.62688 13.888 5.57534 13.8899 5.52426 13.8899V14.0099ZM4.03285 11.9347L3.99631 11.4411L3.87664 11.45L3.91317 11.9435L4.03285 11.9347ZM5.63686 13.3172C4.80991 13.3759 4.0931 12.7491 4.03285 11.9347L3.91317 11.9435C3.9783 12.8238 4.75232 13.5002 5.64535 13.4369L5.63686 13.3172ZM7.01924 11.7135C7.08032 12.5363 6.45994 13.2559 5.63665 13.3172L5.64557 13.4369C6.53486 13.3706 7.2049 12.5936 7.13891 11.7047L7.01924 11.7135ZM6.98256 11.22L7.01924 11.7136L7.13891 11.7047L7.10223 11.2111L6.98256 11.22ZM6.38426 11.3245L7.04683 11.2754L7.03797 11.1557L6.37539 11.2048L6.38426 11.3245ZM6.47063 11.6774L6.43966 11.2602L6.31999 11.2691L6.35096 11.6863L6.47063 11.6774ZM5.59091 12.6981C6.11478 12.6592 6.50962 12.2015 6.47063 11.6774L6.35096 11.6863C6.38503 12.1442 6.03985 12.5445 5.58204 12.5784L5.59091 12.6981ZM5.51996 12.7006C5.54338 12.7006 5.5671 12.6997 5.59067 12.6981L5.58228 12.5784C5.56122 12.5799 5.54032 12.5806 5.51996 12.5806V12.7006ZM4.57042 11.8182C4.60699 12.3132 5.02382 12.7006 5.51996 12.7006V12.5806C5.08673 12.5806 4.72203 12.2417 4.69009 11.8094L4.57042 11.8182ZM4.53961 11.4009L4.57042 11.8182L4.69009 11.8094L4.65928 11.3921L4.53961 11.4009ZM3.94091 11.5054L4.60388 11.4563L4.59502 11.3366L3.93204 11.3857L3.94091 11.5054ZM5.25712 11.7674L5.22628 11.3501L5.10661 11.3589L5.13744 11.7763L5.25712 11.7674ZM5.54028 12.0113C5.39382 12.0214 5.26775 11.9109 5.25712 11.7674L5.13745 11.7763C5.15296 11.9856 5.33622 12.1457 5.54853 12.1311L5.54028 12.0113ZM5.78393 11.7284C5.79469 11.8735 5.68522 12.0005 5.53992 12.0114L5.54889 12.131C5.7601 12.1152 5.91927 11.9309 5.9036 11.7195L5.78393 11.7284ZM5.7528 11.3111L5.78393 11.7284L5.9036 11.7195L5.87247 11.3022L5.7528 11.3111ZM5.17088 11.4143L5.81707 11.3665L5.80821 11.2468L5.16202 11.2946L5.17088 11.4143ZM12.1584 13.4237C12.1781 13.427 12.1984 13.4289 12.2188 13.4289V13.3089C12.2059 13.3089 12.1923 13.3077 12.1785 13.3054L12.1584 13.4237ZM9.10949 12.8752L12.1578 13.4236L12.1791 13.3055L9.13074 12.7571L9.10949 12.8752ZM8.8864 12.7308C8.93853 12.8068 9.0189 12.8588 9.10945 12.8752L9.13078 12.7571C9.0718 12.7464 9.01939 12.7125 8.98538 12.6629L8.8864 12.7308ZM8.8325 12.4704C8.81496 12.5608 8.8342 12.6546 8.8864 12.7308L8.98538 12.6629C8.95144 12.6134 8.93885 12.5523 8.9503 12.4932L8.8325 12.4704ZM8.65366 9.72335C8.87302 10.3983 8.91865 11.0819 8.90872 11.5995C8.90375 11.8581 8.88494 12.0747 8.86722 12.2273C8.85837 12.3036 8.84979 12.3639 8.84337 12.4053C8.84016 12.4261 8.83748 12.4421 8.83559 12.4531C8.83464 12.4586 8.83389 12.4628 8.83336 12.4657C8.83279 12.4688 8.83254 12.4702 8.83257 12.47L8.95024 12.4936C8.9536 12.4767 9.21691 11.0682 8.76778 9.68626L8.65366 9.72335ZM8.60787 9.58154C8.61251 9.63767 8.63087 9.6908 8.66001 9.73688L8.76143 9.67273C8.74238 9.64262 8.73047 9.60803 8.72746 9.57164L8.60787 9.58154ZM9.10537 5.97855C8.41153 6.95224 8.21658 8.39737 8.61067 9.59534L8.72466 9.55784C8.34163 8.39351 8.53297 6.98859 9.20309 6.04819L9.10537 5.97855ZM11.0047 5.05688C10.2976 4.9344 9.60377 5.27951 9.10538 5.97854L9.20309 6.0482C9.6821 5.37636 10.3339 5.06248 10.9842 5.17512L11.0047 5.05688ZM13.501 9.85824C13.7782 6.83182 12.0314 5.23325 11.0046 5.05686L10.9843 5.17513C11.9351 5.33847 13.6544 6.86772 13.3815 9.8473L13.501 9.85824ZM13.1537 11.7809C13.2982 11.2785 13.4292 10.6421 13.501 9.85825L13.3815 9.84729C13.3103 10.6238 13.1807 11.2527 13.0384 11.7477L13.1537 11.7809ZM13.146 11.8075C13.1492 11.798 13.152 11.7883 13.1544 11.7784L13.0378 11.7502C13.0362 11.7566 13.0344 11.7629 13.0323 11.7691L13.146 11.8075ZM12.4932 13.2925C12.5184 13.2592 12.8577 12.7989 13.1467 11.8051L13.0315 11.7716C12.7468 12.7505 12.4145 13.1976 12.3976 13.2199L12.4932 13.2925ZM12.2188 13.4289C12.3254 13.4289 12.4274 13.3794 12.4932 13.2924L12.3975 13.22C12.3547 13.2766 12.2882 13.3089 12.2188 13.3089V13.4289ZM9.30311 9.92995C9.37813 10.2362 9.4243 10.5366 9.45066 10.8189L9.57014 10.8078C9.54332 10.5204 9.49628 10.2141 9.41966 9.9014L9.30311 9.92995ZM10.1 9.98766L9.37201 9.85662L9.35076 9.97472L10.0788 10.1058L10.1 9.98766ZM10.1431 10.9191C10.1562 10.6289 10.1606 10.3296 10.1494 10.0443L10.0295 10.0491C10.0406 10.33 10.0363 10.6258 10.0232 10.9136L10.1431 10.9191ZM9.49978 10.8724L10.0725 10.9754L10.0938 10.8573L9.52101 10.7543L9.49978 10.8724ZM10.097 9.45074C10.0721 9.28467 10.0382 9.13065 9.99274 8.99582L9.87902 9.03412C9.92154 9.16036 9.95414 9.30709 9.97829 9.4685L10.097 9.45074ZM9.16766 9.36399L10.027 9.51867L10.0483 9.40057L9.18892 9.24589L9.16766 9.36399ZM8.97525 8.41052C8.984 8.70908 9.02949 9.01614 9.1208 9.3221L9.23579 9.28779C9.14766 8.99246 9.10366 8.69581 9.0952 8.40701L8.97525 8.41052ZM9.83845 8.49228L9.04585 8.34971L9.0246 8.46782L9.8172 8.61038L9.83845 8.49228ZM9.99275 8.99584C9.93682 8.82966 9.90346 8.67954 9.88741 8.54426L9.76824 8.5584C9.78536 8.7027 9.82073 8.86091 9.87902 9.03411L9.99275 8.99584ZM9.92363 7.99717C9.97219 7.82995 10.0516 7.70285 10.1328 7.60868L10.042 7.53028C9.95089 7.63585 9.86233 7.77795 9.80839 7.9637L9.92363 7.99717ZM10.1328 7.60868C10.3807 7.32141 10.7366 7.2388 10.9739 7.28155L10.9951 7.16345C10.7181 7.11352 10.3189 7.20943 10.042 7.53028L10.1328 7.60868ZM10.9739 7.28155C11.0735 7.29948 11.2664 7.35298 11.4487 7.50842C11.6297 7.66279 11.8047 7.92152 11.8643 8.35852L11.9832 8.3423C11.9198 7.87792 11.7314 7.5918 11.5266 7.41712C11.323 7.24349 11.1078 7.18373 10.9951 7.16345L10.9739 7.28155ZM11.9131 8.40946L12.8448 8.57703L12.866 8.45892L11.9343 8.29136L11.9131 8.40946ZM12.9149 8.5101C12.7959 7.61136 12.463 6.91824 12.0764 6.4349C11.6913 5.95346 11.2489 5.67556 10.9081 5.61693L10.8878 5.73519C11.1897 5.78714 11.6085 6.04205 11.9827 6.50985C12.3553 6.97576 12.6798 7.64831 12.7959 8.52585L12.9149 8.5101ZM10.9082 5.61693C10.4143 5.53176 9.93584 5.79277 9.56835 6.30818L9.66606 6.37785C10.0176 5.88486 10.4551 5.66058 10.8878 5.73519L10.9082 5.61693ZM9.56834 6.3082C9.29715 6.68881 9.08087 7.22624 9.00395 7.82848L9.12298 7.84368C9.19762 7.25933 9.40734 6.74096 9.66607 6.37783L9.56834 6.3082ZM9.05284 7.89513L9.85539 8.03949L9.87663 7.92138L9.07409 7.77703L9.05284 7.89513ZM12.84 9.10512C12.845 9.32452 12.8374 9.55458 12.8153 9.79528L12.9348 9.80622C12.9573 9.5611 12.9651 9.32648 12.96 9.10241L12.84 9.10512ZM11.9262 8.98957L12.8894 9.16282L12.9106 9.04471L11.9474 8.87147L11.9262 8.98957ZM11.9908 9.00594C11.993 8.98194 11.9949 8.95825 11.9966 8.93486L11.877 8.92618C11.8753 8.94881 11.8734 8.97175 11.8713 8.99501L11.9908 9.00594ZM11.908 9.79217C11.9454 9.45606 11.9754 9.17499 11.9908 9.00594L11.8713 8.99501C11.856 9.16274 11.8261 9.44273 11.7887 9.7789L11.908 9.79217ZM12.8692 9.90834L11.859 9.72648L11.8377 9.84458L12.848 10.0264L12.8692 9.90834ZM12.8153 9.79527C12.8102 9.85137 12.8047 9.90663 12.7989 9.96107L12.9183 9.97372C12.9241 9.91872 12.9296 9.86289 12.9348 9.80623L12.8153 9.79527ZM12.7949 10.4727L11.795 10.2927L11.7737 10.4108L12.7736 10.5908L12.7949 10.4727ZM12.6705 11.3859C12.7342 11.1366 12.7936 10.8555 12.8435 10.5412L12.725 10.5224C12.6757 10.833 12.617 11.1105 12.5543 11.3563L12.6705 11.3859ZM11.675 11.2636L12.6018 11.4302L12.623 11.312L11.6962 11.1455L11.675 11.2636ZM11.7247 10.345C11.6929 10.6226 11.6591 10.9143 11.626 11.1976L11.7452 11.2115C11.7783 10.9281 11.8122 10.6364 11.8439 10.3586L11.7247 10.345ZM11.3123 10.0013C11.3127 9.99601 11.3133 9.99069 11.3141 9.98534L11.1954 9.96765C11.1942 9.9758 11.1933 9.98394 11.1926 9.99207L11.3123 10.0013ZM11.0117 12.5749C11.0754 12.0403 11.2113 10.8944 11.3121 10.0034L11.1928 9.98994C11.0921 10.8805 10.9562 12.0262 10.8926 12.5607L11.0117 12.5749ZM10.5008 12.5476L10.9415 12.6268L10.9628 12.5087L10.522 12.4295L10.5008 12.5476ZM10.4179 8.85274C10.5853 9.34973 10.619 10.0748 10.5974 10.7711C10.5758 11.4654 10.4998 12.1229 10.4519 12.4806L10.5709 12.4965C10.619 12.1368 10.6956 11.4748 10.7173 10.7748C10.7389 10.077 10.7064 9.33329 10.5316 8.81444L10.4179 8.85274ZM10.4726 7.90184C10.2893 8.11406 10.2825 8.4503 10.4179 8.85273L10.5316 8.81445C10.4001 8.4237 10.4231 8.14274 10.5634 7.98026L10.4726 7.90184ZM10.8947 7.72325C10.8396 7.71316 10.7658 7.72204 10.6922 7.74947C10.6173 7.77737 10.5377 7.82624 10.4725 7.90187L10.5634 7.98023C10.6138 7.92182 10.6756 7.8837 10.7341 7.86191C10.7938 7.83966 10.8451 7.83617 10.8731 7.84129L10.8947 7.72325ZM11.4246 8.95419C11.4559 8.61148 11.4279 8.3255 11.3407 8.11411C11.2526 7.90046 11.1024 7.76055 10.8945 7.72322L10.8733 7.84133C11.0326 7.86995 11.1538 7.9756 11.2298 8.15986C11.3067 8.34638 11.3355 8.61065 11.3051 8.94327L11.4246 8.95419ZM11.3144 9.98323C11.3646 9.5385 11.4059 9.15884 11.4246 8.9542L11.3051 8.94327C11.2866 9.14643 11.2454 9.52482 11.1951 9.96976L11.3144 9.98323ZM12.1327 12.8005C12.2221 12.644 12.3643 12.3614 12.5073 11.9389L12.3937 11.9005C12.2532 12.3154 12.1142 12.591 12.0285 12.741L12.1327 12.8005ZM11.502 12.7276L12.07 12.8298L12.0912 12.7117L11.5232 12.6095L11.502 12.7276ZM11.5596 11.7633C11.5164 12.1296 11.4783 12.4495 11.453 12.6615L11.5722 12.6757C11.5975 12.4636 11.6355 12.1437 11.6788 11.7773L11.5596 11.7633ZM12.4611 11.8607L11.6298 11.7113L11.6086 11.8294L12.4399 11.9788L12.4611 11.8607ZM9.48016 11.397C9.4839 11.7734 9.45748 12.0879 9.43226 12.2979L9.5514 12.3123C9.57712 12.0981 9.60396 11.7784 9.60015 11.3958L9.48016 11.397ZM10.057 11.4284L9.55077 11.3374L9.52954 11.4555L10.0357 11.5465L10.057 11.4284ZM10.01 12.3954C10.0383 12.1792 10.0761 11.8585 10.1062 11.4923L9.98656 11.4825C9.95671 11.8463 9.91911 12.165 9.89104 12.3798L10.01 12.3954ZM9.48121 12.3642L9.93992 12.4467L9.96116 12.3286L9.50245 12.246L9.48121 12.3642ZM10.0261 16.5299C10.1373 16.5498 10.2503 16.56 10.3626 16.56V16.44C10.2575 16.44 10.1516 16.4305 10.0473 16.4118L10.0261 16.5299ZM8.80662 15.747C9.09516 16.1622 9.5284 16.4404 10.0261 16.5299L10.0473 16.4118C9.58097 16.3279 9.17554 16.0676 8.90516 15.6785L8.80662 15.747ZM8.49804 14.3313C8.40852 14.8288 8.51822 15.3318 8.80661 15.747L8.90517 15.6785C8.63492 15.2895 8.53226 14.8187 8.61615 14.3525L8.49804 14.3313ZM8.6136 13.6868L8.49804 14.3313L8.61615 14.3525L8.73172 13.708L8.6136 13.6868ZM8.75592 13.4651C8.68108 13.5172 8.6298 13.597 8.61361 13.6867L8.73171 13.7081C8.74224 13.6497 8.77568 13.5976 8.82451 13.5636L8.75592 13.4651ZM9.01304 13.4087C8.92367 13.3933 8.83125 13.4126 8.7559 13.4651L8.82453 13.5635C8.87313 13.5297 8.93339 13.5168 8.99269 13.527L9.01304 13.4087ZM11.0413 13.7736L9.01349 13.4088L8.99225 13.5269L11.0201 13.8917L11.0413 13.7736ZM12.0618 13.9572L11.0413 13.7736L11.0201 13.8917L12.0406 14.0753L12.0618 13.9572ZM12.3397 14.3569C12.3733 14.1698 12.2488 13.9909 12.0619 13.9572L12.0406 14.0753C12.1624 14.0973 12.2435 14.2138 12.2216 14.3357L12.3397 14.3569ZM12.2241 15.0015L12.3397 14.3569L12.2216 14.3357L12.106 14.9804L12.2241 15.0015ZM10.3626 16.56C11.2789 16.56 12.0619 15.9044 12.2241 15.0016L12.106 14.9803C11.9541 15.8261 11.2207 16.44 10.3626 16.44V16.56ZM11.6816 14.4666L11.2204 14.3836L11.1991 14.5017L11.6603 14.5847L11.6816 14.4666ZM11.6645 14.9011L11.73 14.5363L11.6119 14.5151L11.5464 14.8798L11.6645 14.9011ZM10.3625 15.9914C11.0034 15.9914 11.5509 15.5327 11.6645 14.9011L11.5464 14.8798C11.4431 15.4545 10.9452 15.8714 10.3625 15.8714V15.9914ZM10.1265 15.9701C10.2044 15.9842 10.284 15.9914 10.3625 15.9914V15.8714C10.2912 15.8714 10.2187 15.8649 10.1479 15.852L10.1265 15.9701ZM9.27356 15.4225C9.47526 15.7129 9.77858 15.9076 10.1266 15.9701L10.1478 15.852C9.83114 15.7951 9.55564 15.6183 9.37212 15.354L9.27356 15.4225ZM9.05782 14.4319C8.99501 14.7801 9.07189 15.1321 9.27356 15.4225L9.37212 15.354C9.18857 15.0897 9.11876 14.77 9.17592 14.4532L9.05782 14.4319ZM9.1232 14.0672L9.05781 14.4319L9.17593 14.4531L9.24132 14.0884L9.1232 14.0672ZM9.65377 14.1017L9.19289 14.0187L9.17163 14.1368L9.63251 14.2198L9.65377 14.1017ZM9.64794 14.4734L9.7022 14.1713L9.58408 14.1501L9.52983 14.4522L9.64794 14.4734ZM9.76792 15.0238C9.65563 14.8624 9.61309 14.667 9.64794 14.4734L9.52984 14.4522C9.48935 14.6771 9.53891 14.9047 9.6694 15.0924L9.76792 15.0238ZM10.2414 15.3278C10.0484 15.2931 9.88023 15.1853 9.76792 15.0238L9.6694 15.0924C9.79988 15.28 9.99588 15.4056 10.2202 15.4459L10.2414 15.3278ZM10.3732 15.3398C10.3293 15.3398 10.2851 15.3358 10.2415 15.3279L10.2201 15.4459C10.2706 15.4551 10.3219 15.4598 10.3732 15.4598V15.3398ZM11.0964 14.7338C11.0336 15.0848 10.7295 15.3398 10.3732 15.3398V15.4598C10.7877 15.4598 11.1415 15.163 11.2146 14.755L11.0964 14.7338ZM11.1507 14.4321L11.0964 14.7338L11.2145 14.755L11.2688 14.4533L11.1507 14.4321ZM10.6549 14.6545L10.7093 14.3526L10.5912 14.3314L10.5368 14.6332L10.6549 14.6545ZM10.3732 14.8911C10.5122 14.8911 10.6305 14.7911 10.6549 14.6544L10.5368 14.6333C10.5225 14.7133 10.4535 14.7711 10.3732 14.7711V14.8911ZM10.3205 14.8862C10.3387 14.8897 10.3561 14.8911 10.3732 14.8911V14.7711C10.3631 14.7711 10.3532 14.7703 10.3429 14.7683L10.3205 14.8862ZM10.1364 14.7677C10.1801 14.8306 10.2457 14.8728 10.3212 14.8863L10.3423 14.7682C10.2984 14.7603 10.2605 14.7361 10.2349 14.6992L10.1364 14.7677ZM10.0896 14.5528C10.076 14.6285 10.0927 14.7049 10.1363 14.7677L10.2349 14.6992C10.2094 14.6625 10.1997 14.6184 10.2077 14.5741L10.0896 14.5528ZM10.1438 14.2509L10.0896 14.5528L10.2077 14.574L10.2619 14.2721L10.1438 14.2509ZM10.4617 14.2471L10.2134 14.2025L10.1922 14.3206L10.4404 14.3652L10.4617 14.2471ZM10.6609 14.2829L10.4617 14.2471L10.4404 14.3652L10.6397 14.401L10.6609 14.2829Z" fill="white" mask="url(#path-1-outside-1_437_11197)"/>
</g>
<defs>
<clipPath id="clip0_437_11197">
<rect width="16" height="16" fill="white" transform="translate(0 0.5)"/>
</clipPath>
</defs>
</svg>
