<svg width="16" height="17" viewBox="0 0 16 17" fill="none" xmlns="http://www.w3.org/2000/svg">
<path d="M15.5709 6.10911H13.0541C12.9916 5.37778 12.7726 4.66633 12.4074 4.03054C12.2893 3.82515 12.0272 3.75421 11.8214 3.87235C11.6159 3.9905 11.5451 4.25282 11.6632 4.45836C11.954 4.96427 12.1347 5.52811 12.1945 6.10925H3.87849C4.09418 4.00523 5.87667 2.3582 8.03647 2.3582C8.76751 2.3582 9.48698 2.54958 10.1169 2.91174C10.3224 3.03031 10.5848 2.95894 10.7028 2.75369C10.8209 2.54815 10.7501 2.28583 10.5447 2.16782C9.78477 1.73086 8.91756 1.5 8.03662 1.5C5.40337 1.5 3.2367 3.53136 3.01815 6.10925H0.4291C0.192094 6.10925 0 6.30135 0 6.53835C0 6.77536 0.192094 6.96745 0.4291 6.96745H3.42765H12.6456H15.5709C15.8079 6.96745 16 6.77536 16 6.53835C16 6.30135 15.8079 6.10911 15.5709 6.10911Z" fill="white"/>
<path d="M13.4928 8.82695H2.50723C2.27022 8.82695 2.07812 8.63486 2.07812 8.39785C2.07812 8.16084 2.27022 7.96875 2.50723 7.96875H13.4928C13.7298 7.96875 13.9219 8.16084 13.9219 8.39785C13.9219 8.63486 13.7298 8.82695 13.4928 8.82695Z" fill="white"/>
<path d="M11.4974 10.6863H4.50283C4.26582 10.6863 4.07373 10.4942 4.07373 10.2572C4.07373 10.0202 4.26582 9.82812 4.50283 9.82812H11.4974C11.7345 9.82812 11.9265 10.0202 11.9265 10.2572C11.9265 10.4942 11.7345 10.6863 11.4974 10.6863Z" fill="white"/>
<path d="M9.63794 12.7683C9.47031 12.6006 9.19883 12.6006 9.03119 12.7683L8.42903 13.3703V12.1166C8.42903 11.8796 8.23693 11.6875 7.99993 11.6875C7.76292 11.6875 7.57083 11.8796 7.57083 12.1166V13.3747L6.96879 12.7726C6.80144 12.6049 6.52969 12.6049 6.36205 12.7726C6.19442 12.94 6.19442 13.2117 6.36205 13.3793L7.69426 14.7118C7.77479 14.7923 7.88379 14.8375 7.99764 14.8375C7.99807 14.8375 7.99836 14.8374 7.99878 14.8374C7.99921 14.8374 7.9995 14.8375 7.99993 14.8375C8.12465 14.8375 8.23593 14.7835 8.31432 14.6985L9.63794 13.3749C9.80558 13.2075 9.80558 12.9358 9.63794 12.7683Z" fill="white"/>
</svg>
