<svg width="289" height="108" viewBox="0 0 289 108" fill="none" xmlns="http://www.w3.org/2000/svg">
<circle cx="286" cy="104.438" r="3" fill="#D9D9D9"/>
<path d="M3 101.438C53.5 -29.0615 231.5 -30.5615 286 101.438" stroke="white" stroke-linecap="round" stroke-linejoin="round" stroke-dasharray="5 5"/>
<circle cx="169.5" cy="5.5" r="5.5" fill="#FFA900"/>
<circle cx="3" cy="104.438" r="3" fill="#D9D9D9"/>
<mask id="path-5-outside-1_51_5384" maskUnits="userSpaceOnUse" x="1.5" y="2" width="171" height="101" fill="black">
<rect fill="white" x="1.5" y="2" width="171" height="101"/>
<path fill-rule="evenodd" clip-rule="evenodd" d="M171 5.50385V6.51957C104.978 -5.68362 32.7357 26.4823 3.46644 102.119C3.36678 102.376 3.07722 102.504 2.81969 102.404C2.56216 102.305 2.43417 102.015 2.53383 101.758C31.9716 25.6858 104.591 -6.68841 171 5.50385Z"/>
</mask>
<path fill-rule="evenodd" clip-rule="evenodd" d="M171 5.50385V6.51957C104.978 -5.68362 32.7357 26.4823 3.46644 102.119C3.36678 102.376 3.07722 102.504 2.81969 102.404C2.56216 102.305 2.43417 102.015 2.53383 101.758C31.9716 25.6858 104.591 -6.68841 171 5.50385Z" fill="#FFA900"/>
<path d="M171 5.50385H171.5V5.08729L171.09 5.01207L171 5.50385ZM171 6.51957L170.909 7.01124L171.5 7.12046V6.51957H171ZM3.46644 102.119L3.93274 102.299L3.93274 102.299L3.46644 102.119ZM2.81969 102.404L3.00014 101.938L3.00013 101.938L2.81969 102.404ZM2.53383 101.758L2.06753 101.577L2.06753 101.577L2.53383 101.758ZM170.5 5.50385V6.51957H171.5V5.50385H170.5ZM171.091 6.0279C104.849 -6.21583 32.3623 26.0618 3.00013 101.938L3.93274 102.299C33.1091 26.9027 105.106 -5.15141 170.909 7.01124L171.091 6.0279ZM3.00014 101.938L3.00014 101.938L2.63923 102.871C3.1543 103.07 3.73342 102.814 3.93274 102.299L3.00014 101.938ZM3.00013 101.938L3.00014 101.938L2.06753 101.577C1.86821 102.092 2.12417 102.671 2.63925 102.871L3.00013 101.938ZM3.00013 101.938C32.3451 26.1061 104.72 -6.15641 170.91 5.99563L171.09 5.01207C104.462 -7.22042 31.5982 25.2655 2.06753 101.577L3.00013 101.938Z" fill="#FFA900" mask="url(#path-5-outside-1_51_5384)"/>
<path d="M143.847 85.9688C132.267 85.9688 122.846 95.3898 122.846 106.97C122.846 107.523 123.294 107.97 123.846 107.97H163.846C164.398 107.97 164.846 107.521 164.846 106.968C164.846 95.3887 155.427 85.9688 143.847 85.9688Z" fill="#FFA900"/>
<path d="M143.846 83.331C144.398 83.331 144.846 82.884 144.846 82.331V74C144.846 73.447 144.398 73 143.846 73C143.294 73 142.846 73.447 142.846 74V82.331C142.846 82.884 143.294 83.331 143.846 83.331Z" fill="#FFA900"/>
<path d="M125.097 90.5108C125.292 90.7058 125.548 90.8038 125.804 90.8038C126.06 90.8038 126.316 90.7058 126.511 90.5108C126.902 90.1198 126.902 89.4878 126.511 89.0968L120.62 83.2058C120.229 82.8148 119.597 82.8148 119.206 83.2058C118.815 83.5968 118.815 84.2288 119.206 84.6198L125.097 90.5108Z" fill="#FFA900"/>
<path d="M118.331 105.846H110C109.448 105.846 109 106.293 109 106.846C109 107.399 109.448 107.846 110 107.846H118.331C118.883 107.846 119.331 107.399 119.331 106.846C119.331 106.293 118.883 105.846 118.331 105.846Z" fill="#FFA900"/>
<path d="M177.693 105.848L169.361 105.846C168.809 105.846 168.361 106.293 168.361 106.846C168.361 107.398 168.808 107.846 169.361 107.846L177.693 107.848C178.245 107.848 178.693 107.401 178.693 106.848C178.693 106.296 178.246 105.848 177.693 105.848Z" fill="#FFA900"/>
<path d="M161.888 90.8048C162.144 90.8048 162.4 90.7068 162.595 90.5118L168.488 84.6208C168.879 84.2298 168.879 83.5978 168.488 83.2068C168.097 82.8158 167.465 82.8158 167.074 83.2068L161.181 89.0978C160.79 89.4888 160.79 90.1208 161.181 90.5118C161.377 90.7068 161.633 90.8048 161.888 90.8048Z" fill="#FFA900"/>
</svg>
