<svg width="20" height="20" viewBox="0 0 20 20" fill="none" xmlns="http://www.w3.org/2000/svg">
<g clip-path="url(#clip0_1_23097)">
<path d="M19.4636 7.42545H16.3176C16.2395 6.51128 15.9657 5.62197 15.5093 4.82724C15.3616 4.5705 15.0341 4.48182 14.7768 4.6295C14.5199 4.77718 14.4314 5.10509 14.579 5.36201C14.9425 5.9944 15.1683 6.6992 15.2431 7.42563H4.84811C5.11773 4.7956 7.34583 2.73681 10.0456 2.73681C10.9594 2.73681 11.8587 2.97604 12.6461 3.42874C12.903 3.57695 13.2309 3.48774 13.3784 3.23117C13.5261 2.97425 13.4376 2.64635 13.1809 2.49884C12.231 1.95263 11.147 1.66406 10.0458 1.66406C6.75422 1.66406 4.04588 4.20326 3.77269 7.42563H0.536375C0.240117 7.42563 0 7.66574 0 7.962C0 8.25826 0.240117 8.49838 0.536375 8.49838H4.28456H15.807H19.4636C19.7599 8.49838 20 8.25826 20 7.962C20 7.66574 19.7599 7.42545 19.4636 7.42545Z" fill="#548B6C"/>
<path d="M16.8659 10.8228H3.13403C2.83777 10.8228 2.59766 10.5826 2.59766 10.2864C2.59766 9.99012 2.83777 9.75 3.13403 9.75H16.8659C17.1622 9.75 17.4023 9.99012 17.4023 10.2864C17.4023 10.5826 17.1622 10.8228 16.8659 10.8228Z" fill="#548B6C"/>
<path d="M14.3714 13.147H5.62817C5.33191 13.147 5.0918 12.9069 5.0918 12.6106C5.0918 12.3143 5.33191 12.0742 5.62817 12.0742H14.3714C14.6677 12.0742 14.9078 12.3143 14.9078 12.6106C14.9078 12.9069 14.6677 13.147 14.3714 13.147Z" fill="#548B6C"/>
<path d="M12.0474 15.7494C11.8379 15.5398 11.4985 15.5398 11.289 15.7494L10.5363 16.5019V14.9348C10.5363 14.6386 10.2962 14.3984 9.99991 14.3984C9.70365 14.3984 9.46353 14.6386 9.46353 14.9348V16.5075L8.71099 15.7548C8.50181 15.5452 8.16211 15.5452 7.95257 15.7548C7.74302 15.9641 7.74302 16.3036 7.95257 16.5132L9.61783 18.1788C9.71849 18.2795 9.85473 18.336 9.99705 18.336C9.99759 18.336 9.99794 18.3358 9.99848 18.3358C9.99902 18.3358 9.99937 18.336 9.99991 18.336C10.1558 18.336 10.2949 18.2684 10.3929 18.1622L12.0474 16.5076C12.257 16.2985 12.257 15.9588 12.0474 15.7494Z" fill="#548B6C"/>
</g>
<defs>
<clipPath id="clip0_1_23097">
<rect width="20" height="20" fill="white"/>
</clipPath>
</defs>
</svg>
