<svg width="20" height="21" viewBox="0 0 20 21" fill="none" xmlns="http://www.w3.org/2000/svg">
<path fill-rule="evenodd" clip-rule="evenodd" d="M12.2012 6.03027L12.201 13.6246C13.2012 14.3355 13.79 15.469 13.7899 16.7104C13.7899 18.8 12.0897 20.5 9.99993 20.5C7.91013 20.5 6.21014 18.8 6.21014 16.7104C6.21014 15.469 6.79883 14.3357 7.79885 13.6248V2.70108C7.79885 1.48741 8.78626 0.5 9.99993 0.5C11.2138 0.5 12.2012 1.48741 12.2012 2.70108V3.41365C12.2012 3.69219 11.9754 3.91794 11.6969 3.91794C11.4183 3.91794 11.1926 3.69219 11.1926 3.41365V2.70108C11.1926 2.04365 10.6575 1.50859 9.99993 1.50859C9.3425 1.50859 8.80744 2.04348 8.80744 2.70108V13.8966C8.80744 14.0731 8.71499 14.237 8.56403 14.3283C7.72152 14.8371 7.21873 15.7277 7.21873 16.7104C7.21873 18.2438 8.46637 19.4914 9.99993 19.4914C11.5335 19.4914 12.7813 18.244 12.7813 16.7104C12.7813 15.7277 12.2783 14.8369 11.4358 14.3281C11.2849 14.2367 11.1924 14.0729 11.1924 13.8964L11.1926 6.03027C11.1926 5.75173 11.4185 5.52597 11.6969 5.52597C11.9754 5.52597 12.2012 5.75173 12.2012 6.03027ZM9.49572 9.71988C9.49572 9.44134 9.72148 9.21559 10 9.21559C10.2786 9.21559 10.5043 9.44151 10.5043 9.72005V14.7966C11.353 15.0205 11.9816 15.7926 11.9816 16.7106C11.9816 17.8032 11.0927 18.6921 10 18.6921C8.90755 18.6921 8.01864 17.8032 8.01864 16.7106C8.01864 15.7924 8.64716 15.0205 9.49572 14.7966V9.71988Z" fill="white"/>
</svg>
