<svg width="390" height="44" viewBox="0 0 390 44" fill="none" xmlns="http://www.w3.org/2000/svg">
<path opacity="0.35" d="M337.5 22.6667C337.5 21.47 338.47 20.5 339.667 20.5H358.044C359.241 20.5 360.211 21.47 360.211 22.6667V29.6667C360.211 30.8633 359.241 31.8333 358.044 31.8333H339.667C338.47 31.8333 337.5 30.8633 337.5 29.6667V22.6667Z" fill="white" stroke="white"/>
<path opacity="0.4" d="M361.789 23.9902V28.3432C362.656 27.9745 363.22 27.1169 363.22 26.1667C363.22 25.2165 362.656 24.3589 361.789 23.9902Z" fill="white"/>
<path d="M339.156 23.5101C339.156 22.7737 339.753 22.1768 340.489 22.1768H357.222C357.959 22.1768 358.556 22.7737 358.556 23.5101V28.8238C358.556 29.5602 357.959 30.1571 357.222 30.1571H340.489C339.753 30.1571 339.156 29.5602 339.156 28.8238V23.5101Z" fill="white"/>
<path fill-rule="evenodd" clip-rule="evenodd" d="M320.231 22.4783C322.619 22.4784 324.916 23.4049 326.647 25.0665C326.777 25.1947 326.985 25.1931 327.114 25.0628L328.359 23.7932C328.424 23.7271 328.461 23.6376 328.46 23.5445C328.46 23.4514 328.422 23.3623 328.357 23.297C323.814 18.901 316.647 18.901 312.104 23.297C312.038 23.3622 312.001 23.4513 312 23.5444C311.999 23.6376 312.036 23.7271 312.101 23.7932L313.347 25.0628C313.475 25.1933 313.684 25.1949 313.814 25.0665C315.545 23.4048 317.842 22.4783 320.231 22.4783ZM320.231 26.6089C321.543 26.6088 322.808 27.1013 323.781 27.9906C323.912 28.1168 324.12 28.114 324.248 27.9844L325.492 26.7148C325.558 26.6482 325.594 26.5579 325.593 26.464C325.592 26.3701 325.554 26.2805 325.487 26.2153C322.525 23.4334 317.938 23.4334 314.976 26.2153C314.909 26.2805 314.871 26.3702 314.87 26.4641C314.87 26.558 314.906 26.6483 314.972 26.7148L316.216 27.9844C316.344 28.114 316.551 28.1168 316.683 27.9906C317.655 27.1018 318.919 26.6094 320.231 26.6089ZM322.723 29.388C322.725 29.4822 322.689 29.5729 322.622 29.6389L320.47 31.8324C320.406 31.8969 320.32 31.9331 320.231 31.9331C320.141 31.9331 320.055 31.8969 319.992 31.8324L317.839 29.6389C317.772 29.5729 317.736 29.4821 317.738 29.3879C317.739 29.2938 317.78 29.2047 317.849 29.1416C319.224 27.9675 321.237 27.9675 322.612 29.1416C322.681 29.2047 322.722 29.2939 322.723 29.388Z" fill="white"/>
<path fill-rule="evenodd" clip-rule="evenodd" d="M303.244 20H302.167C301.571 20 301.089 20.4872 301.089 21.0882V30.5196C301.089 31.1206 301.571 31.6078 302.167 31.6078H303.244C303.84 31.6078 304.322 31.1206 304.322 30.5196V21.0882C304.322 20.4872 303.84 20 303.244 20ZM297.137 22.5392H298.215C298.81 22.5392 299.293 23.0264 299.293 23.6274V30.5196C299.293 31.1206 298.81 31.6078 298.215 31.6078H297.137C296.542 31.6078 296.059 31.1206 296.059 30.5196V23.6274C296.059 23.0264 296.542 22.5392 297.137 22.5392ZM293.185 25.0785H292.107C291.512 25.0785 291.03 25.5657 291.03 26.1667V30.5196C291.03 31.1206 291.512 31.6079 292.107 31.6079H293.185C293.78 31.6079 294.263 31.1206 294.263 30.5196V26.1667C294.263 25.5657 293.78 25.0785 293.185 25.0785ZM288.156 27.2549H287.078C286.483 27.2549 286 27.7421 286 28.3431V30.5196C286 31.1206 286.483 31.6078 287.078 31.6078H288.156C288.751 31.6078 289.233 31.1206 289.233 30.5196V28.3431C289.233 27.7421 288.751 27.2549 288.156 27.2549Z" fill="white"/>
<path d="M47.3369 19.1768V32H44.8057V22.0947L41.7646 23.0615V21.0664L47.0645 19.1768H47.3369ZM60.1162 24.4766V26.6914C60.1162 27.6523 60.0137 28.4814 59.8086 29.1787C59.6035 29.8701 59.3076 30.4385 58.9209 30.8838C58.54 31.3232 58.0859 31.6484 57.5586 31.8594C57.0312 32.0703 56.4453 32.1758 55.8008 32.1758C55.2852 32.1758 54.8047 32.1113 54.3594 31.9824C53.9141 31.8477 53.5127 31.6396 53.1553 31.3584C52.8037 31.0771 52.499 30.7227 52.2412 30.2949C51.9893 29.8613 51.7959 29.3457 51.6611 28.748C51.5264 28.1504 51.459 27.4648 51.459 26.6914V24.4766C51.459 23.5156 51.5615 22.6924 51.7666 22.0068C51.9775 21.3154 52.2734 20.75 52.6543 20.3105C53.041 19.8711 53.498 19.5488 54.0254 19.3438C54.5527 19.1328 55.1387 19.0273 55.7832 19.0273C56.2988 19.0273 56.7764 19.0947 57.2158 19.2295C57.6611 19.3584 58.0625 19.5605 58.4199 19.8359C58.7773 20.1113 59.082 20.4658 59.334 20.8994C59.5859 21.3271 59.7793 21.8398 59.9141 22.4375C60.0488 23.0293 60.1162 23.709 60.1162 24.4766ZM57.5762 27.0254V24.1338C57.5762 23.6709 57.5498 23.2666 57.4971 22.9209C57.4502 22.5752 57.377 22.2822 57.2773 22.042C57.1777 21.7959 57.0547 21.5967 56.9082 21.4443C56.7617 21.292 56.5947 21.1807 56.4072 21.1104C56.2197 21.04 56.0117 21.0049 55.7832 21.0049C55.4961 21.0049 55.2412 21.0605 55.0186 21.1719C54.8018 21.2832 54.6172 21.4619 54.4648 21.708C54.3125 21.9482 54.1953 22.2705 54.1133 22.6748C54.0371 23.0732 53.999 23.5596 53.999 24.1338V27.0254C53.999 27.4883 54.0225 27.8955 54.0693 28.2471C54.1221 28.5986 54.1982 28.9004 54.2979 29.1523C54.4033 29.3984 54.5264 29.6006 54.667 29.7588C54.8135 29.9111 54.9805 30.0225 55.168 30.0928C55.3613 30.1631 55.5723 30.1982 55.8008 30.1982C56.082 30.1982 56.3311 30.1426 56.5479 30.0312C56.7705 29.9141 56.958 29.7324 57.1104 29.4863C57.2686 29.2344 57.3857 28.9062 57.4619 28.502C57.5381 28.0977 57.5762 27.6055 57.5762 27.0254ZM62.041 30.7783C62.041 30.4033 62.1699 30.0898 62.4277 29.8379C62.6914 29.5859 63.04 29.46 63.4736 29.46C63.9072 29.46 64.2529 29.5859 64.5107 29.8379C64.7744 30.0898 64.9062 30.4033 64.9062 30.7783C64.9062 31.1533 64.7744 31.4668 64.5107 31.7188C64.2529 31.9707 63.9072 32.0967 63.4736 32.0967C63.04 32.0967 62.6914 31.9707 62.4277 31.7188C62.1699 31.4668 62.041 31.1533 62.041 30.7783ZM62.041 23.5273C62.041 23.1523 62.1699 22.8389 62.4277 22.5869C62.6914 22.335 63.04 22.209 63.4736 22.209C63.9072 22.209 64.2529 22.335 64.5107 22.5869C64.7744 22.8389 64.9062 23.1523 64.9062 23.5273C64.9062 23.9023 64.7744 24.2158 64.5107 24.4678C64.2529 24.7197 63.9072 24.8457 63.4736 24.8457C63.04 24.8457 62.6914 24.7197 62.4277 24.4678C62.1699 24.2158 62.041 23.9023 62.041 23.5273ZM69.3008 26.1729L67.2793 25.6895L68.0088 19.2031H75.1982V21.251H70.0918L69.7754 24.0898C69.9453 23.9902 70.2031 23.8848 70.5488 23.7734C70.8945 23.6562 71.2812 23.5977 71.709 23.5977C72.3301 23.5977 72.8809 23.6943 73.3613 23.8877C73.8418 24.0811 74.249 24.3623 74.583 24.7314C74.9229 25.1006 75.1807 25.5518 75.3564 26.085C75.5322 26.6182 75.6201 27.2217 75.6201 27.8955C75.6201 28.4639 75.5322 29.0059 75.3564 29.5215C75.1807 30.0312 74.9141 30.4883 74.5566 30.8926C74.1992 31.291 73.751 31.6045 73.2119 31.833C72.6729 32.0615 72.0342 32.1758 71.2959 32.1758C70.7451 32.1758 70.2119 32.0938 69.6963 31.9297C69.1865 31.7656 68.7266 31.5225 68.3164 31.2002C67.9121 30.8779 67.5869 30.4883 67.3408 30.0312C67.1006 29.5684 66.9746 29.041 66.9629 28.4492H69.4766C69.5117 28.8125 69.6055 29.126 69.7578 29.3896C69.916 29.6475 70.124 29.8467 70.3818 29.9873C70.6396 30.1279 70.9414 30.1982 71.2871 30.1982C71.6094 30.1982 71.8848 30.1367 72.1133 30.0137C72.3418 29.8906 72.5264 29.7207 72.667 29.5039C72.8076 29.2812 72.9102 29.0234 72.9746 28.7305C73.0449 28.4316 73.0801 28.1094 73.0801 27.7637C73.0801 27.418 73.0391 27.1045 72.957 26.8232C72.875 26.542 72.749 26.2988 72.5791 26.0938C72.4092 25.8887 72.1924 25.7305 71.9287 25.6191C71.6709 25.5078 71.3691 25.4521 71.0234 25.4521C70.5547 25.4521 70.1914 25.5254 69.9336 25.6719C69.6816 25.8184 69.4707 25.9854 69.3008 26.1729ZM79.8477 24.5029H81.2012C81.6348 24.5029 81.9922 24.4297 82.2734 24.2832C82.5547 24.1309 82.7627 23.9199 82.8975 23.6504C83.0381 23.375 83.1084 23.0557 83.1084 22.6924C83.1084 22.3643 83.0439 22.0742 82.915 21.8223C82.792 21.5645 82.6016 21.3652 82.3438 21.2246C82.0859 21.0781 81.7607 21.0049 81.3682 21.0049C81.0576 21.0049 80.7705 21.0664 80.5068 21.1895C80.2432 21.3125 80.0322 21.4854 79.874 21.708C79.7158 21.9307 79.6367 22.2002 79.6367 22.5166H77.0967C77.0967 21.8135 77.2842 21.2012 77.6592 20.6797C78.04 20.1582 78.5498 19.751 79.1885 19.458C79.8271 19.165 80.5303 19.0186 81.2979 19.0186C82.165 19.0186 82.9238 19.1592 83.5742 19.4404C84.2246 19.7158 84.7314 20.123 85.0947 20.6621C85.458 21.2012 85.6396 21.8691 85.6396 22.666C85.6396 23.0703 85.5459 23.4629 85.3584 23.8438C85.1709 24.2188 84.9014 24.5586 84.5498 24.8633C84.2041 25.1621 83.7822 25.4023 83.2842 25.584C82.7861 25.7598 82.2266 25.8477 81.6055 25.8477H79.8477V24.5029ZM79.8477 26.4277V25.1182H81.6055C82.3027 25.1182 82.915 25.1973 83.4424 25.3555C83.9697 25.5137 84.4121 25.7422 84.7695 26.041C85.127 26.334 85.3965 26.6826 85.5781 27.0869C85.7598 27.4854 85.8506 27.9277 85.8506 28.4141C85.8506 29.0117 85.7363 29.5449 85.5078 30.0137C85.2793 30.4766 84.957 30.8691 84.541 31.1914C84.1309 31.5137 83.6504 31.7598 83.0996 31.9297C82.5488 32.0938 81.9482 32.1758 81.2979 32.1758C80.7588 32.1758 80.2285 32.1025 79.707 31.9561C79.1914 31.8037 78.7227 31.5781 78.3008 31.2793C77.8848 30.9746 77.5508 30.5938 77.2988 30.1367C77.0527 29.6738 76.9297 29.126 76.9297 28.4932H79.4697C79.4697 28.8213 79.5518 29.1143 79.7158 29.3721C79.8799 29.6299 80.1055 29.832 80.3926 29.9785C80.6855 30.125 81.0107 30.1982 81.3682 30.1982C81.7725 30.1982 82.1182 30.125 82.4053 29.9785C82.6982 29.8262 82.9209 29.6152 83.0732 29.3457C83.2314 29.0703 83.3105 28.751 83.3105 28.3877C83.3105 27.9189 83.2256 27.5439 83.0557 27.2627C82.8857 26.9756 82.6426 26.7646 82.3262 26.6299C82.0098 26.4951 81.6348 26.4277 81.2012 26.4277H79.8477Z" fill="white"/>
</svg>
