<svg width="44" height="44" viewBox="0 0 44 44" fill="none" xmlns="http://www.w3.org/2000/svg">
<path fill-rule="evenodd" clip-rule="evenodd" d="M22.11 19.8428C23.7572 19.8428 25.5303 18.7105 25.5303 16.2244C25.5303 14.0601 24.1559 12.6061 22.11 12.6061C21.6016 12.6061 20.9599 12.7382 20.3699 13.072C20.6493 11.681 21.3997 10.8083 22.11 10.8083C22.1424 10.8083 22.1821 10.8071 22.2277 10.8056L22.2345 10.8054C22.4715 10.7985 22.7918 10.7891 23.1221 11.0796C23.4961 11.4086 24.0651 11.3722 24.3941 10.9985C24.7231 10.6247 24.6867 10.0551 24.313 9.72646C23.4418 8.95947 22.5137 8.99162 22.1646 9.00423L22.11 9.00574C20.0256 9.00574 18.4538 11.2631 18.4538 14.2566C18.4535 18.8736 20.442 19.8428 22.11 19.8428ZM20.8638 14.9632C21.2312 14.5246 21.8396 14.4086 22.1097 14.4086C23.5175 14.4086 23.7275 15.5463 23.7275 16.2244C23.7275 17.8632 22.5961 18.0402 22.1097 18.0402C21.7903 18.0402 21.0158 18.0402 20.5757 16.7601C20.4372 15.9618 20.5342 15.3574 20.8638 14.9632ZM17.4068 16.6569C17.4068 17.9482 16.2017 19.8162 14.0227 19.8162C13.4943 19.8162 12.0907 19.8162 10.9154 18.5998C10.5693 18.242 10.5792 17.6715 10.9371 17.3254C11.2949 16.9796 11.8654 16.9892 12.2115 17.347C12.8556 18.0134 13.6151 18.0134 14.023 18.0134C15.2091 18.0134 15.6045 16.9438 15.6045 16.6566C15.6045 15.8785 15.6045 14.9965 13.4799 14.9965C12.9821 14.9965 12.5786 14.593 12.5786 14.0952C12.5786 13.5974 12.9821 13.1939 13.4799 13.1939C14.9033 13.1939 15.2833 12.4179 15.2833 11.9591C15.2833 11.519 14.921 10.8208 13.9488 10.8208C13.5099 10.8208 12.964 10.8208 12.3992 11.2387C11.9988 11.5343 11.4343 11.4505 11.1386 11.0503C10.8424 10.6502 10.9268 10.0857 11.327 9.78975C12.3695 9.01855 13.3967 9.01855 13.9485 9.01855C15.9121 9.01855 17.0856 10.5138 17.0856 11.9594C17.0856 12.6718 16.8062 13.3862 16.2663 13.9441C17.0222 14.5197 17.4068 15.4234 17.4068 16.6569ZM36.9463 24.7108C38.309 25.345 39 26.127 39 27.0349C39 28.6569 36.7092 29.6826 33.9396 30.33V34.7547C33.9396 36.5401 32.4867 37.9924 30.701 37.9924L25.2044 37.9945C24.5293 37.9945 23.9071 37.6247 23.5808 37.0295L22.3461 34.9043C22.3368 34.8995 22.3251 34.8995 22.3154 34.9046L21.0711 37.0485C20.7538 37.625 20.1316 37.9942 19.4575 37.9942L13.2897 37.9921C11.504 37.9921 10.0511 36.5398 10.0511 34.7544V30.3279C7.28385 29.6802 5 28.6551 5 27.0343C5 26.1264 5.69068 25.3447 7.05282 24.7105C7.50406 24.5008 8.04033 24.6961 8.25033 25.1473C8.46033 25.5986 8.26475 26.1348 7.8135 26.3448C7.05042 26.6999 6.85304 26.9646 6.81038 27.0373C6.97081 27.3972 8.03582 27.9545 10.0514 28.4637V25.0521C10.0514 23.2663 11.5046 21.8135 13.2903 21.8135H30.7007C32.4864 21.8135 33.9393 23.2663 33.9393 25.0521V26.1862C33.9393 26.684 33.5358 27.0875 33.038 27.0875C32.5402 27.0875 32.1367 26.684 32.1367 26.1862V25.0521C32.1367 24.2605 31.4926 23.616 30.7007 23.616H13.2897C12.4978 23.616 11.8534 24.2602 11.8534 25.0521V28.8528C13.3528 29.1298 15.1917 29.3671 17.3827 29.5122L16.9093 29.0394C16.5572 28.6876 16.5569 28.1167 16.9087 27.7646C17.2608 27.4128 17.8316 27.4125 18.1834 27.764L20.2813 29.8598C20.4504 30.029 20.5456 30.2582 20.5456 30.4973C20.5456 30.7365 20.4507 30.9657 20.2816 31.1348L18.1906 33.2258C18.0148 33.4019 17.7838 33.4899 17.5534 33.4899C17.3229 33.4899 17.0919 33.4019 16.9162 33.2258C16.5641 32.874 16.5641 32.3032 16.9162 31.9514L17.5402 31.3274C16.0251 31.2313 13.9149 31.0459 11.854 30.6911V34.755C11.854 35.5463 12.4984 36.1901 13.2903 36.1901L19.4581 36.1922C19.4818 36.1922 19.4959 36.1733 19.5022 36.1619L20.8052 33.9162C20.8256 33.8808 20.8488 33.8468 20.874 33.8144C21.2294 33.3592 21.7603 33.0981 22.3314 33.0981C22.9025 33.0981 23.4333 33.3592 23.7881 33.815C23.8134 33.8471 23.8362 33.8808 23.8566 33.9159L25.1509 36.1439C25.1656 36.17 25.1794 36.1922 25.2044 36.1922L30.701 36.1901C31.4929 36.1901 32.1373 35.5463 32.1373 34.755V30.692C29.4506 31.1541 26.6816 31.3298 25.2849 31.3923L25.2684 31.3929C25.2601 31.3931 25.2519 31.3932 25.2437 31.3932C24.7645 31.3932 24.3656 31.0156 24.3439 30.5322C24.3217 30.035 24.7069 29.6138 25.2041 29.5915C33.0008 29.2418 36.8703 27.7499 37.1899 27.0376C37.147 26.9649 36.9493 26.7005 36.1859 26.3454C35.7346 26.1354 35.5388 25.5992 35.7488 25.1479C35.9588 24.6964 36.495 24.5011 36.9463 24.7108ZM33.1696 16.7298C32.7664 18.5246 31.5677 19.5526 29.8805 19.5526C28.1912 19.5526 26.9937 18.524 26.595 16.7301C26.4433 16.0541 26.4268 14.8095 26.4268 14.3057C26.4268 13.8018 26.4433 12.5569 26.5956 11.8809C26.9943 10.0883 28.1918 9.05838 29.8805 9.05838C31.5674 9.05838 32.7664 10.0873 33.1693 11.8815C33.3204 12.5593 33.3366 13.8027 33.3366 14.3057C33.3366 14.8083 33.3201 16.0514 33.1696 16.7298ZM29.8805 10.8606C29.5491 10.8606 28.6689 10.8606 28.3546 12.2745C28.2678 12.659 28.2294 13.5711 28.2294 14.3054C28.2294 15.0399 28.2681 15.9529 28.3543 16.3368C28.6686 17.7501 29.5488 17.7501 29.8805 17.7501C30.2122 17.7501 31.0927 17.7501 31.4103 16.3368C31.4956 15.9532 31.5341 15.0399 31.5341 14.3057C31.5341 13.5714 31.4956 12.659 31.41 12.2751C31.0924 10.8606 30.2122 10.8606 29.8805 10.8606Z" fill="white"/>
</svg>
