<svg width="60" height="60" viewBox="0 0 60 60" fill="none" xmlns="http://www.w3.org/2000/svg">
<g clip-path="url(#clip0_312_8171)">
<mask id="path-1-outside-1_312_8171" maskUnits="userSpaceOnUse" x="8.40228" y="-1" width="43" height="62" fill="black">
<rect fill="white" x="8.40228" y="-1" width="43" height="62"/>
<path fill-rule="evenodd" clip-rule="evenodd" d="M12.2314 35.2313C12.4718 35.6286 12.9019 35.868 13.361 35.868C13.3938 35.868 13.4265 35.8669 13.4582 35.8648L27.1107 34.853C27.4631 34.8266 27.7902 34.6601 28.0189 34.3912C28.2483 34.1222 28.3597 33.7719 28.3291 33.42C28.3239 33.3569 27.8207 27.1304 30.3829 21.3488C30.5183 21.1797 30.6127 20.9773 30.6521 20.7575C32.9972 15.5032 32.6527 8.7598 29.7874 4.26117C27.9328 1.34987 25.3148 -0.176569 22.3961 0.0162837C17.9499 0.312696 9.57531 6.4148 9.40676 19.7798C9.27467 30.2245 12.1104 35.0316 12.2314 35.2313ZM29.4163 15.5249C29.2362 16.8127 28.9041 18.079 28.4174 19.2676L24.6995 19.543C24.8766 18.8728 25.0835 18.261 25.3249 17.7332C25.6477 17.0273 25.868 16.3762 26.0068 15.7775L29.4163 15.5249ZM29.5727 12.864C29.5168 10.2414 28.8393 7.68965 27.5598 5.68089C26.8365 4.54543 25.2678 2.64121 22.8811 2.64121C22.7792 2.64121 22.6761 2.64492 22.5725 2.65179C19.7248 2.84178 14.5999 6.50349 12.7427 14.1113L16.7799 13.8119C17.7526 9.90352 20.5143 9.3507 21.4737 9.27989C22.6541 9.19588 24.2867 9.76705 25.3154 11.2444C25.6453 11.7182 25.9504 12.3384 26.1009 13.1211L29.5727 12.864ZM21.6697 11.9143C20.3697 12.0104 19.504 13.1814 19.1998 15.189C19.1959 15.2274 19.1904 15.2654 19.1832 15.3029C19.1213 15.749 19.0863 16.235 19.0797 16.7584C19.0683 17.6645 19.0759 19.3538 19.093 21.3369C19.0938 21.36 19.094 21.383 19.0936 21.4058C19.1277 25.3315 19.1985 30.3785 19.234 32.7874L21.0762 32.6509C20.9855 29.4032 20.9595 20.9273 22.9225 16.6347C23.6706 14.9978 23.7499 13.6199 23.1475 12.7533C22.7143 12.1309 22.0211 11.8837 21.6697 11.9143ZM16.4373 16.7251C16.4383 16.6446 16.4399 16.5651 16.442 16.4864L12.252 16.7971C12.1326 17.7515 12.0624 18.7564 12.0491 19.8126C12.0462 20.0381 12.0448 20.2607 12.0448 20.4804L16.4411 20.1553C16.431 18.6867 16.4282 17.4627 16.4373 16.7251ZM12.1137 23.1247L16.4639 22.803C16.4759 23.9978 16.4903 25.249 16.5053 26.4672L12.4657 26.7667C12.3103 25.6848 12.1858 24.4724 12.1137 23.1247ZM27.2836 22.001L24.1729 22.2314C24.0015 23.4297 23.8874 24.6927 23.8134 25.9264L26.257 25.7456C26.4986 24.5462 26.8304 23.2805 27.2836 22.001ZM16.5394 29.1141L12.9462 29.3805C13.3642 31.2146 13.8363 32.4603 14.1478 33.1643L16.594 32.983C16.5802 32.0529 16.5604 30.6815 16.5394 29.1141ZM23.7076 28.5837L25.8392 28.4259C25.6598 30.0264 25.6296 31.382 25.6418 32.3126L23.7157 32.4553C23.6919 31.5093 23.6745 30.1388 23.7076 28.5837ZM20.7982 50.5209C16.5491 50.5209 12.9747 47.1985 12.6608 42.9579L12.4463 40.0698C12.4204 39.7206 12.5345 39.3756 12.7633 39.1103C12.9921 38.8445 13.3171 38.6807 13.6663 38.6554L18.2063 38.3189C18.2169 38.3179 18.2275 38.317 18.2382 38.3162L20.2274 38.1691L27.3187 37.6436C27.6653 37.6156 28.013 37.7313 28.2788 37.9606C28.544 38.1894 28.7078 38.5143 28.7332 38.8636L28.9466 41.7516C29.2795 46.2401 25.8974 50.1642 21.4074 50.4987C21.2029 50.513 20.9995 50.5209 20.7982 50.5209ZM24.261 40.5187L26.196 40.3752L26.3122 41.9461C26.5378 44.9826 24.2495 47.6371 21.2124 47.8632C18.1664 48.0851 15.5177 45.7682 15.2953 42.7624L15.1785 41.1921L17.1151 41.0485L17.21 42.3376C17.3489 44.1974 18.9171 45.6547 20.7801 45.6547C20.8689 45.6547 20.9582 45.6515 21.0475 45.6451C22.0017 45.5743 22.8714 45.1363 23.4965 44.4125C24.122 43.6875 24.4274 42.7624 24.3566 41.8076L24.261 40.5187ZM19.8449 42.1421L19.7498 40.8534L21.6266 40.715L21.7222 42.0031C21.7602 42.5199 21.3698 42.9721 20.8525 43.0102C20.3315 43.0445 19.883 42.6535 19.8449 42.1421ZM45.6815 48.3617C45.6044 48.3617 45.5257 48.3548 45.448 48.3411L34.1172 46.3027C33.769 46.2398 33.4604 46.0401 33.2607 45.7484C33.061 45.4562 32.9865 45.097 33.0541 44.7493C33.0639 44.6986 34.0147 39.5973 32.4031 34.5983C32.3015 34.4313 32.2366 34.2416 32.217 34.0417C30.7668 29.5836 31.5013 24.2151 34.0749 20.6041C35.9511 17.9723 38.5544 16.7111 41.1751 17.1607C44.9349 17.8074 51.5268 23.7188 50.4881 35.0522C50.2218 37.957 49.7358 40.3193 49.1998 42.1867C49.1895 42.2304 49.1771 42.2732 49.1627 42.3149C48.0814 46.0206 46.8137 47.7331 46.7346 47.8381C46.4825 48.171 46.091 48.3617 45.6815 48.3617ZM35.8571 38.3733C35.7669 37.4831 35.6242 36.5476 35.4094 35.5929L37.5017 35.9694C37.5293 36.8423 37.5199 37.7569 37.4859 38.6664L35.8571 38.3733ZM36.9453 31.9989C37.0692 32.3666 37.1696 32.784 37.2496 33.2393L34.5877 32.7603C34.3226 31.828 34.1751 30.8938 34.1252 29.9788L36.561 30.4168C36.6296 30.9004 36.7527 31.4271 36.9453 31.9989ZM36.7638 27.7687C36.9816 27.1357 37.2936 26.6753 37.5588 26.3681C38.6028 25.1592 40.1118 24.8031 41.14 24.9922C41.963 25.14 44.2835 25.8561 44.8188 29.2173L47.7373 29.7422C46.7927 23.5056 43.0034 20.1553 40.7281 19.764C39.1118 19.4876 37.5035 20.3457 36.2264 22.1363C35.3007 23.4357 34.5495 25.2599 34.2482 27.3163L36.7638 27.7687ZM47.8584 34.8107C47.9329 33.9965 47.9631 33.2148 47.9541 32.4658L44.8716 31.9114C44.8173 32.4989 44.7177 33.437 44.593 34.5617L47.8266 35.1438C47.8375 35.0337 47.8481 34.9227 47.8584 34.8107ZM44.2958 37.192L47.4816 37.7655C47.3237 38.7184 47.1422 39.5848 46.949 40.3678L43.9897 39.836C44.0924 38.9558 44.1964 38.0586 44.2958 37.192ZM41.8323 35.4769C41.8307 35.4893 41.8293 35.5018 41.828 35.5143C41.4699 38.6793 40.9914 42.7204 40.7427 44.81L39.6291 44.6096C39.9991 41.7518 40.6992 34.8673 39.4488 31.1556C38.9907 29.7946 39.0292 28.7072 39.5587 28.0943C39.9296 27.6647 40.4653 27.5538 40.6724 27.5918C42.3965 27.9009 42.3452 30.5285 42.2438 31.6433C42.1741 32.4026 42.02 33.8172 41.8323 35.4769ZM46.1927 42.9164C45.7533 44.1621 45.3269 45.0402 45.03 45.5815L43.3474 45.2787C43.4332 44.5587 43.5499 43.5771 43.6811 42.4651L46.1927 42.9164ZM35.8365 43.9271C35.9147 43.2056 35.9878 42.2273 35.9896 41.0818L37.323 41.3217C37.2359 42.3684 37.13 43.3372 37.0279 44.1415L35.8365 43.9271ZM38.7805 60.0004C38.361 60.0004 37.9378 59.9629 37.523 59.8884C33.6813 59.1962 31.1187 55.5093 31.8098 51.6681L32.2393 49.273C32.3012 48.928 32.4977 48.6221 32.7852 48.4219C33.0731 48.2221 33.4303 48.145 33.7732 48.2063L37.5141 48.8791C37.5318 48.8815 37.5494 48.8844 37.5671 48.8876L41.3111 49.5607C41.3294 49.564 41.3477 49.5677 41.3659 49.5718L45.1045 50.2442C45.822 50.3736 46.3002 51.06 46.1713 51.778L45.7412 54.1741C45.133 57.5504 42.2059 60.0004 38.7805 60.0004ZM42.1424 52.3963L43.3371 52.6113L43.14 53.7071C42.7596 55.8232 40.9257 57.3591 38.7794 57.3586C38.5163 57.3586 38.2505 57.3348 37.9901 57.2883C35.5828 56.8551 33.9766 54.5435 34.4099 52.1352L34.6059 51.0404L35.7998 51.2552L35.6454 52.1159C35.4927 52.9634 35.6787 53.8198 36.1701 54.5263C36.6615 55.2327 37.3985 55.7066 38.245 55.8583C38.4346 55.8931 38.628 55.9101 38.8198 55.9101C40.3801 55.9101 41.7132 54.7931 41.9874 53.2566L42.1424 52.3963ZM38.4001 51.723L39.5429 51.9286L39.3878 52.7901C39.3382 53.0669 39.0993 53.2682 38.8198 53.2682C38.7855 53.2682 38.7496 53.265 38.7136 53.2582C38.5076 53.2217 38.3913 53.0923 38.3401 53.0188C38.2883 52.9454 38.2085 52.7906 38.2455 52.584L38.4001 51.723Z"/>
</mask>
<path fill-rule="evenodd" clip-rule="evenodd" d="M12.2314 35.2313C12.4718 35.6286 12.9019 35.868 13.361 35.868C13.3938 35.868 13.4265 35.8669 13.4582 35.8648L27.1107 34.853C27.4631 34.8266 27.7902 34.6601 28.0189 34.3912C28.2483 34.1222 28.3597 33.7719 28.3291 33.42C28.3239 33.3569 27.8207 27.1304 30.3829 21.3488C30.5183 21.1797 30.6127 20.9773 30.6521 20.7575C32.9972 15.5032 32.6527 8.7598 29.7874 4.26117C27.9328 1.34987 25.3148 -0.176569 22.3961 0.0162837C17.9499 0.312696 9.57531 6.4148 9.40676 19.7798C9.27467 30.2245 12.1104 35.0316 12.2314 35.2313ZM29.4163 15.5249C29.2362 16.8127 28.9041 18.079 28.4174 19.2676L24.6995 19.543C24.8766 18.8728 25.0835 18.261 25.3249 17.7332C25.6477 17.0273 25.868 16.3762 26.0068 15.7775L29.4163 15.5249ZM29.5727 12.864C29.5168 10.2414 28.8393 7.68965 27.5598 5.68089C26.8365 4.54543 25.2678 2.64121 22.8811 2.64121C22.7792 2.64121 22.6761 2.64492 22.5725 2.65179C19.7248 2.84178 14.5999 6.50349 12.7427 14.1113L16.7799 13.8119C17.7526 9.90352 20.5143 9.3507 21.4737 9.27989C22.6541 9.19588 24.2867 9.76705 25.3154 11.2444C25.6453 11.7182 25.9504 12.3384 26.1009 13.1211L29.5727 12.864ZM21.6697 11.9143C20.3697 12.0104 19.504 13.1814 19.1998 15.189C19.1959 15.2274 19.1904 15.2654 19.1832 15.3029C19.1213 15.749 19.0863 16.235 19.0797 16.7584C19.0683 17.6645 19.0759 19.3538 19.093 21.3369C19.0938 21.36 19.094 21.383 19.0936 21.4058C19.1277 25.3315 19.1985 30.3785 19.234 32.7874L21.0762 32.6509C20.9855 29.4032 20.9595 20.9273 22.9225 16.6347C23.6706 14.9978 23.7499 13.6199 23.1475 12.7533C22.7143 12.1309 22.0211 11.8837 21.6697 11.9143ZM16.4373 16.7251C16.4383 16.6446 16.4399 16.5651 16.442 16.4864L12.252 16.7971C12.1326 17.7515 12.0624 18.7564 12.0491 19.8126C12.0462 20.0381 12.0448 20.2607 12.0448 20.4804L16.4411 20.1553C16.431 18.6867 16.4282 17.4627 16.4373 16.7251ZM12.1137 23.1247L16.4639 22.803C16.4759 23.9978 16.4903 25.249 16.5053 26.4672L12.4657 26.7667C12.3103 25.6848 12.1858 24.4724 12.1137 23.1247ZM27.2836 22.001L24.1729 22.2314C24.0015 23.4297 23.8874 24.6927 23.8134 25.9264L26.257 25.7456C26.4986 24.5462 26.8304 23.2805 27.2836 22.001ZM16.5394 29.1141L12.9462 29.3805C13.3642 31.2146 13.8363 32.4603 14.1478 33.1643L16.594 32.983C16.5802 32.0529 16.5604 30.6815 16.5394 29.1141ZM23.7076 28.5837L25.8392 28.4259C25.6598 30.0264 25.6296 31.382 25.6418 32.3126L23.7157 32.4553C23.6919 31.5093 23.6745 30.1388 23.7076 28.5837ZM20.7982 50.5209C16.5491 50.5209 12.9747 47.1985 12.6608 42.9579L12.4463 40.0698C12.4204 39.7206 12.5345 39.3756 12.7633 39.1103C12.9921 38.8445 13.3171 38.6807 13.6663 38.6554L18.2063 38.3189C18.2169 38.3179 18.2275 38.317 18.2382 38.3162L20.2274 38.1691L27.3187 37.6436C27.6653 37.6156 28.013 37.7313 28.2788 37.9606C28.544 38.1894 28.7078 38.5143 28.7332 38.8636L28.9466 41.7516C29.2795 46.2401 25.8974 50.1642 21.4074 50.4987C21.2029 50.513 20.9995 50.5209 20.7982 50.5209ZM24.261 40.5187L26.196 40.3752L26.3122 41.9461C26.5378 44.9826 24.2495 47.6371 21.2124 47.8632C18.1664 48.0851 15.5177 45.7682 15.2953 42.7624L15.1785 41.1921L17.1151 41.0485L17.21 42.3376C17.3489 44.1974 18.9171 45.6547 20.7801 45.6547C20.8689 45.6547 20.9582 45.6515 21.0475 45.6451C22.0017 45.5743 22.8714 45.1363 23.4965 44.4125C24.122 43.6875 24.4274 42.7624 24.3566 41.8076L24.261 40.5187ZM19.8449 42.1421L19.7498 40.8534L21.6266 40.715L21.7222 42.0031C21.7602 42.5199 21.3698 42.9721 20.8525 43.0102C20.3315 43.0445 19.883 42.6535 19.8449 42.1421ZM45.6815 48.3617C45.6044 48.3617 45.5257 48.3548 45.448 48.3411L34.1172 46.3027C33.769 46.2398 33.4604 46.0401 33.2607 45.7484C33.061 45.4562 32.9865 45.097 33.0541 44.7493C33.0639 44.6986 34.0147 39.5973 32.4031 34.5983C32.3015 34.4313 32.2366 34.2416 32.217 34.0417C30.7668 29.5836 31.5013 24.2151 34.0749 20.6041C35.9511 17.9723 38.5544 16.7111 41.1751 17.1607C44.9349 17.8074 51.5268 23.7188 50.4881 35.0522C50.2218 37.957 49.7358 40.3193 49.1998 42.1867C49.1895 42.2304 49.1771 42.2732 49.1627 42.3149C48.0814 46.0206 46.8137 47.7331 46.7346 47.8381C46.4825 48.171 46.091 48.3617 45.6815 48.3617ZM35.8571 38.3733C35.7669 37.4831 35.6242 36.5476 35.4094 35.5929L37.5017 35.9694C37.5293 36.8423 37.5199 37.7569 37.4859 38.6664L35.8571 38.3733ZM36.9453 31.9989C37.0692 32.3666 37.1696 32.784 37.2496 33.2393L34.5877 32.7603C34.3226 31.828 34.1751 30.8938 34.1252 29.9788L36.561 30.4168C36.6296 30.9004 36.7527 31.4271 36.9453 31.9989ZM36.7638 27.7687C36.9816 27.1357 37.2936 26.6753 37.5588 26.3681C38.6028 25.1592 40.1118 24.8031 41.14 24.9922C41.963 25.14 44.2835 25.8561 44.8188 29.2173L47.7373 29.7422C46.7927 23.5056 43.0034 20.1553 40.7281 19.764C39.1118 19.4876 37.5035 20.3457 36.2264 22.1363C35.3007 23.4357 34.5495 25.2599 34.2482 27.3163L36.7638 27.7687ZM47.8584 34.8107C47.9329 33.9965 47.9631 33.2148 47.9541 32.4658L44.8716 31.9114C44.8173 32.4989 44.7177 33.437 44.593 34.5617L47.8266 35.1438C47.8375 35.0337 47.8481 34.9227 47.8584 34.8107ZM44.2958 37.192L47.4816 37.7655C47.3237 38.7184 47.1422 39.5848 46.949 40.3678L43.9897 39.836C44.0924 38.9558 44.1964 38.0586 44.2958 37.192ZM41.8323 35.4769C41.8307 35.4893 41.8293 35.5018 41.828 35.5143C41.4699 38.6793 40.9914 42.7204 40.7427 44.81L39.6291 44.6096C39.9991 41.7518 40.6992 34.8673 39.4488 31.1556C38.9907 29.7946 39.0292 28.7072 39.5587 28.0943C39.9296 27.6647 40.4653 27.5538 40.6724 27.5918C42.3965 27.9009 42.3452 30.5285 42.2438 31.6433C42.1741 32.4026 42.02 33.8172 41.8323 35.4769ZM46.1927 42.9164C45.7533 44.1621 45.3269 45.0402 45.03 45.5815L43.3474 45.2787C43.4332 44.5587 43.5499 43.5771 43.6811 42.4651L46.1927 42.9164ZM35.8365 43.9271C35.9147 43.2056 35.9878 42.2273 35.9896 41.0818L37.323 41.3217C37.2359 42.3684 37.13 43.3372 37.0279 44.1415L35.8365 43.9271ZM38.7805 60.0004C38.361 60.0004 37.9378 59.9629 37.523 59.8884C33.6813 59.1962 31.1187 55.5093 31.8098 51.6681L32.2393 49.273C32.3012 48.928 32.4977 48.6221 32.7852 48.4219C33.0731 48.2221 33.4303 48.145 33.7732 48.2063L37.5141 48.8791C37.5318 48.8815 37.5494 48.8844 37.5671 48.8876L41.3111 49.5607C41.3294 49.564 41.3477 49.5677 41.3659 49.5718L45.1045 50.2442C45.822 50.3736 46.3002 51.06 46.1713 51.778L45.7412 54.1741C45.133 57.5504 42.2059 60.0004 38.7805 60.0004ZM42.1424 52.3963L43.3371 52.6113L43.14 53.7071C42.7596 55.8232 40.9257 57.3591 38.7794 57.3586C38.5163 57.3586 38.2505 57.3348 37.9901 57.2883C35.5828 56.8551 33.9766 54.5435 34.4099 52.1352L34.6059 51.0404L35.7998 51.2552L35.6454 52.1159C35.4927 52.9634 35.6787 53.8198 36.1701 54.5263C36.6615 55.2327 37.3985 55.7066 38.245 55.8583C38.4346 55.8931 38.628 55.9101 38.8198 55.9101C40.3801 55.9101 41.7132 54.7931 41.9874 53.2566L42.1424 52.3963ZM38.4001 51.723L39.5429 51.9286L39.3878 52.7901C39.3382 53.0669 39.0993 53.2682 38.8198 53.2682C38.7855 53.2682 38.7496 53.265 38.7136 53.2582C38.5076 53.2217 38.3913 53.0923 38.3401 53.0188C38.2883 52.9454 38.2085 52.7906 38.2455 52.584L38.4001 51.723Z" fill="#548B6C"/>
<path d="M12.2314 35.2313L12.4025 35.1278L12.4025 35.1277L12.2314 35.2313ZM13.4582 35.8648L13.4715 36.0644L13.473 36.0643L13.4582 35.8648ZM27.1107 34.853L27.1255 35.0524L27.1256 35.0524L27.1107 34.853ZM28.0189 34.3912L27.8668 34.2614L27.8666 34.2616L28.0189 34.3912ZM28.3291 33.42L28.1297 33.4364L28.1298 33.4374L28.3291 33.42ZM30.3829 21.3488L30.2268 21.2237L30.2106 21.244L30.2001 21.2677L30.3829 21.3488ZM30.6521 20.7575L30.4695 20.676L30.4596 20.6982L30.4553 20.7221L30.6521 20.7575ZM29.7874 4.26117L29.9561 4.15372L29.9561 4.15371L29.7874 4.26117ZM22.3961 0.0162837L22.3829 -0.183281L22.3828 -0.183273L22.3961 0.0162837ZM9.40676 19.7798L9.60674 19.7823L9.60674 19.7823L9.40676 19.7798ZM28.4174 19.2676L28.4322 19.467L28.5556 19.4579L28.6025 19.3434L28.4174 19.2676ZM29.4163 15.5249L29.6143 15.5526L29.6487 15.3072L29.4015 15.3255L29.4163 15.5249ZM24.6995 19.543L24.5062 19.4919L24.4345 19.7632L24.7143 19.7424L24.6995 19.543ZM25.3249 17.7332L25.5068 17.8164L25.5068 17.8164L25.3249 17.7332ZM26.0068 15.7775L25.992 15.578L25.8452 15.5889L25.8119 15.7323L26.0068 15.7775ZM27.5598 5.68089L27.7285 5.57344L27.7285 5.57343L27.5598 5.68089ZM29.5727 12.864L29.5875 13.0634L29.7767 13.0494L29.7727 12.8597L29.5727 12.864ZM22.5725 2.65179L22.5593 2.45223L22.5592 2.45223L22.5725 2.65179ZM12.7427 14.1113L12.5484 14.0639L12.4832 14.3311L12.7575 14.3108L12.7427 14.1113ZM16.7799 13.8119L16.7947 14.0113L16.939 14.0006L16.974 13.8602L16.7799 13.8119ZM21.4737 9.27989L21.4595 9.08039L21.459 9.08043L21.4737 9.27989ZM25.3154 11.2444L25.4796 11.1301L25.4796 11.1301L25.3154 11.2444ZM26.1009 13.1211L25.9045 13.1589L25.9382 13.3337L26.1157 13.3205L26.1009 13.1211ZM19.1998 15.189L19.0018 15.159L19.0008 15.169L19.1998 15.189ZM21.6697 11.9143L21.6844 12.1138L21.6871 12.1136L21.6697 11.9143ZM19.1832 15.3029L18.9865 15.2654L18.9851 15.2754L19.1832 15.3029ZM19.0797 16.7584L18.8797 16.7558L18.8797 16.7559L19.0797 16.7584ZM19.093 21.3369L18.8929 21.3386L18.8931 21.3438L19.093 21.3369ZM19.0936 21.4058L18.8936 21.4024L18.8936 21.4076L19.0936 21.4058ZM19.234 32.7874L19.034 32.7904L19.0371 33.0026L19.2487 32.9869L19.234 32.7874ZM21.0762 32.6509L21.091 32.8504L21.2815 32.8362L21.2761 32.6453L21.0762 32.6509ZM22.9225 16.6347L23.1044 16.7179L23.1044 16.7179L22.9225 16.6347ZM23.1475 12.7533L23.3118 12.6392L23.3117 12.6391L23.1475 12.7533ZM16.442 16.4864L16.642 16.4918L16.6479 16.2705L16.4272 16.2869L16.442 16.4864ZM16.4373 16.7251L16.2373 16.7225L16.2373 16.7226L16.4373 16.7251ZM12.252 16.7971L12.2372 16.5977L12.0738 16.6098L12.0535 16.7723L12.252 16.7971ZM12.0491 19.8126L12.2491 19.8151L12.2491 19.8151L12.0491 19.8126ZM12.0448 20.4804L11.8448 20.4804L11.8447 20.6958L12.0595 20.6799L12.0448 20.4804ZM16.4411 20.1553L16.4558 20.3547L16.6423 20.3409L16.6411 20.1539L16.4411 20.1553ZM16.4639 22.803L16.6639 22.801L16.6618 22.5878L16.4492 22.6035L16.4639 22.803ZM12.1137 23.1247L12.0989 22.9252L11.9035 22.9397L11.9139 23.1354L12.1137 23.1247ZM16.5053 26.4672L16.5201 26.6667L16.7076 26.6528L16.7052 26.4647L16.5053 26.4672ZM12.4657 26.7667L12.2677 26.7952L12.2943 26.98L12.4805 26.9662L12.4657 26.7667ZM24.1729 22.2314L24.1582 22.0319L23.9977 22.0438L23.975 22.2031L24.1729 22.2314ZM27.2836 22.001L27.4722 22.0677L27.5745 21.7789L27.2689 21.8015L27.2836 22.001ZM23.8134 25.9264L23.6138 25.9145L23.6001 26.1428L23.8282 26.1259L23.8134 25.9264ZM26.257 25.7456L26.2717 25.9451L26.4231 25.9339L26.453 25.7851L26.257 25.7456ZM12.9462 29.3805L12.9314 29.1811L12.6995 29.1983L12.7512 29.425L12.9462 29.3805ZM16.5394 29.1141L16.7394 29.1114L16.7365 28.8989L16.5246 28.9146L16.5394 29.1141ZM14.1478 33.1643L13.9649 33.2452L14.0219 33.3742L14.1625 33.3638L14.1478 33.1643ZM16.594 32.983L16.6087 33.1825L16.7967 33.1686L16.7939 32.9801L16.594 32.983ZM25.8392 28.4259L26.0379 28.4482L26.0648 28.2087L25.8244 28.2265L25.8392 28.4259ZM23.7076 28.5837L23.6928 28.3842L23.5115 28.3976L23.5077 28.5794L23.7076 28.5837ZM25.6418 32.3126L25.6566 32.512L25.8443 32.4981L25.8418 32.31L25.6418 32.3126ZM23.7157 32.4553L23.5158 32.4603L23.5211 32.6703L23.7305 32.6548L23.7157 32.4553ZM12.6608 42.9579L12.8603 42.9431L12.8603 42.943L12.6608 42.9579ZM12.4463 40.0698L12.2469 40.0846L12.2469 40.0846L12.4463 40.0698ZM12.7633 39.1103L12.9148 39.2409L12.9149 39.2408L12.7633 39.1103ZM13.6663 38.6554L13.6808 38.8549L13.6811 38.8548L13.6663 38.6554ZM18.2063 38.3189L18.221 38.5184L18.2258 38.518L18.2063 38.3189ZM18.2382 38.3162L18.2234 38.1167L18.2234 38.1167L18.2382 38.3162ZM20.2274 38.1691L20.2422 38.3686L20.2422 38.3686L20.2274 38.1691ZM27.3187 37.6436L27.3335 37.843L27.3348 37.8429L27.3187 37.6436ZM28.2788 37.9606L28.1481 38.112L28.1482 38.112L28.2788 37.9606ZM28.7332 38.8636L28.5337 38.8781L28.5337 38.8783L28.7332 38.8636ZM28.9466 41.7516L28.7472 41.7664L28.7472 41.7664L28.9466 41.7516ZM21.4074 50.4987L21.4213 50.6982L21.4223 50.6982L21.4074 50.4987ZM26.196 40.3752L26.3954 40.3605L26.3807 40.161L26.1812 40.1758L26.196 40.3752ZM24.261 40.5187L24.2462 40.3192L24.0467 40.334L24.0615 40.5335L24.261 40.5187ZM26.3122 41.9461L26.1127 41.9608L26.1127 41.9609L26.3122 41.9461ZM21.2124 47.8632L21.227 48.0627L21.2273 48.0626L21.2124 47.8632ZM15.2953 42.7624L15.4947 42.7476L15.4947 42.7475L15.2953 42.7624ZM15.1785 41.1921L15.1637 40.9926L14.9642 41.0074L14.9791 41.2069L15.1785 41.1921ZM17.1151 41.0485L17.3146 41.0338L17.2999 40.8342L17.1003 40.849L17.1151 41.0485ZM17.21 42.3376L17.0105 42.3522L17.0105 42.3525L17.21 42.3376ZM21.0475 45.6451L21.0616 45.8446L21.0623 45.8446L21.0475 45.6451ZM23.4965 44.4125L23.6478 44.5432L23.6479 44.5431L23.4965 44.4125ZM24.3566 41.8076L24.5561 41.7928L24.5561 41.7928L24.3566 41.8076ZM19.7498 40.8534L19.7351 40.6539L19.5356 40.6686L19.5504 40.8681L19.7498 40.8534ZM19.8449 42.1421L19.6455 42.1568L19.6455 42.1569L19.8449 42.1421ZM21.6266 40.715L21.826 40.7002L21.8112 40.5008L21.6119 40.5155L21.6266 40.715ZM21.7222 42.0031L21.9217 41.9884L21.9216 41.9883L21.7222 42.0031ZM20.8525 43.0102L20.8657 43.2098L20.8672 43.2096L20.8525 43.0102ZM45.448 48.3411L45.4126 48.5379L45.4132 48.538L45.448 48.3411ZM34.1172 46.3027L34.0817 46.4995L34.0818 46.4995L34.1172 46.3027ZM33.2607 45.7484L33.0956 45.8613L33.0957 45.8614L33.2607 45.7484ZM33.0541 44.7493L33.2504 44.7875L33.2505 44.7874L33.0541 44.7493ZM32.4031 34.5983L32.5934 34.5369L32.5862 34.5145L32.574 34.4943L32.4031 34.5983ZM32.217 34.0417L32.4161 34.0223L32.4139 34.0006L32.4072 33.9799L32.217 34.0417ZM34.0749 20.6041L33.9121 20.488L33.9121 20.488L34.0749 20.6041ZM41.1751 17.1607L41.209 16.9636L41.2089 16.9636L41.1751 17.1607ZM50.4881 35.0522L50.6872 35.0705L50.6872 35.0705L50.4881 35.0522ZM49.1998 42.1867L49.0073 42.1314L49.0051 42.1408L49.1998 42.1867ZM49.1627 42.3149L48.9734 42.2496L48.9707 42.2589L49.1627 42.3149ZM46.7346 47.8381L46.894 47.9588L46.8943 47.9585L46.7346 47.8381ZM35.4094 35.5929L35.4448 35.396L35.1481 35.3426L35.2143 35.6367L35.4094 35.5929ZM35.8571 38.3733L35.6581 38.3934L35.6733 38.5434L35.8216 38.5701L35.8571 38.3733ZM37.5017 35.9694L37.7016 35.9631L37.6965 35.8012L37.5371 35.7725L37.5017 35.9694ZM37.4859 38.6664L37.4505 38.8632L37.6772 38.904L37.6858 38.6738L37.4859 38.6664ZM37.2496 33.2393L37.2142 33.4362L37.4962 33.4869L37.4466 33.2047L37.2496 33.2393ZM36.9453 31.9989L37.1349 31.9351L37.1349 31.9351L36.9453 31.9989ZM34.5877 32.7603L34.3953 32.815L34.4294 32.9351L34.5522 32.9572L34.5877 32.7603ZM34.1252 29.9788L34.1606 29.7819L33.9117 29.7372L33.9255 29.9896L34.1252 29.9788ZM36.561 30.4168L36.759 30.3887L36.7387 30.2455L36.5964 30.22L36.561 30.4168ZM36.7638 27.7687L36.7284 27.9655L36.8971 27.9958L36.9529 27.8337L36.7638 27.7687ZM37.5588 26.3681L37.4074 26.2374L37.4074 26.2374L37.5588 26.3681ZM41.14 24.9922L41.1039 25.1889L41.1047 25.1891L41.14 24.9922ZM44.8188 29.2173L44.6213 29.2488L44.6436 29.389L44.7834 29.4142L44.8188 29.2173ZM47.7373 29.7422L47.7019 29.939L47.9769 29.9885L47.9351 29.7122L47.7373 29.7422ZM40.7281 19.764L40.762 19.5669L40.7618 19.5668L40.7281 19.764ZM36.2264 22.1363L36.0636 22.0202L36.0635 22.0203L36.2264 22.1363ZM34.2482 27.3163L34.0503 27.2873L34.0222 27.4788L34.2128 27.5131L34.2482 27.3163ZM47.9541 32.4658L48.1541 32.4634L48.1521 32.2982L47.9895 32.2689L47.9541 32.4658ZM47.8584 34.8107L48.0575 34.829L48.0575 34.829L47.8584 34.8107ZM44.8716 31.9114L44.907 31.7146L44.6925 31.676L44.6724 31.893L44.8716 31.9114ZM44.593 34.5617L44.3943 34.5397L44.3737 34.7254L44.5576 34.7586L44.593 34.5617ZM47.8266 35.1438L47.7911 35.3406L48.0042 35.379L48.0256 35.1636L47.8266 35.1438ZM47.4816 37.7655L47.6789 37.7982L47.7112 37.6036L47.5171 37.5687L47.4816 37.7655ZM44.2958 37.192L44.3312 36.9952L44.1214 36.9574L44.0971 37.1692L44.2958 37.192ZM46.949 40.3678L46.9136 40.5646L47.0982 40.5978L47.1431 40.4157L46.949 40.3678ZM43.9897 39.836L43.791 39.8129L43.7692 39.9996L43.9543 40.0329L43.9897 39.836ZM41.828 35.5143L42.0268 35.5367L42.0271 35.5339L41.828 35.5143ZM41.8323 35.4769L42.0307 35.5022L42.031 35.4993L41.8323 35.4769ZM40.7427 44.81L40.7073 45.0068L40.9162 45.0444L40.9413 44.8336L40.7427 44.81ZM39.6291 44.6096L39.4308 44.5839L39.4064 44.7727L39.5937 44.8064L39.6291 44.6096ZM39.4488 31.1556L39.2592 31.2194L39.2592 31.2195L39.4488 31.1556ZM39.5587 28.0943L39.71 28.225L39.71 28.225L39.5587 28.0943ZM40.6724 27.5918L40.6363 27.7885L40.6371 27.7887L40.6724 27.5918ZM42.2438 31.6433L42.443 31.6616L42.443 31.6614L42.2438 31.6433ZM45.03 45.5815L44.9946 45.7783L45.1362 45.8038L45.2054 45.6776L45.03 45.5815ZM46.1927 42.9164L46.3814 42.983L46.4596 42.7612L46.2281 42.7196L46.1927 42.9164ZM43.3474 45.2787L43.1488 45.255L43.1265 45.4421L43.312 45.4755L43.3474 45.2787ZM43.6811 42.4651L43.7165 42.2683L43.5074 42.2307L43.4825 42.4417L43.6811 42.4651ZM35.9896 41.0818L36.025 40.8849L35.79 40.8426L35.7896 41.0815L35.9896 41.0818ZM35.8365 43.9271L35.6376 43.9056L35.6176 44.091L35.8011 44.124L35.8365 43.9271ZM37.323 41.3217L37.5224 41.3383L37.5374 41.1571L37.3585 41.1249L37.323 41.3217ZM37.0279 44.1415L36.9924 44.3384L37.1997 44.3757L37.2263 44.1667L37.0279 44.1415ZM37.523 59.8884L37.4875 60.0852L37.4876 60.0853L37.523 59.8884ZM31.8098 51.6681L32.0066 51.7035L32.0066 51.7034L31.8098 51.6681ZM32.2393 49.273L32.4362 49.3083L32.4362 49.3083L32.2393 49.273ZM32.7852 48.4219L32.6712 48.2575L32.6708 48.2578L32.7852 48.4219ZM33.7732 48.2063L33.8086 48.0094L33.8084 48.0094L33.7732 48.2063ZM37.5141 48.8791L37.4786 49.076L37.4865 49.0771L37.5141 48.8791ZM37.5671 48.8876L37.5313 49.0843L37.5317 49.0844L37.5671 48.8876ZM41.3111 49.5607L41.3466 49.3639L41.3464 49.3638L41.3111 49.5607ZM41.3659 49.5718L41.322 49.7671L41.3305 49.7686L41.3659 49.5718ZM45.1045 50.2442L45.14 50.0473L45.1399 50.0473L45.1045 50.2442ZM46.1713 51.778L45.9744 51.7427L45.9744 51.7427L46.1713 51.778ZM45.7412 54.1741L45.938 54.2096L45.938 54.2095L45.7412 54.1741ZM43.3371 52.6113L43.534 52.6467L43.5694 52.4498L43.3725 52.4144L43.3371 52.6113ZM42.1424 52.3963L42.1778 52.1995L41.981 52.1641L41.9455 52.3609L42.1424 52.3963ZM43.14 53.7071L42.9432 53.6717L42.9432 53.6717L43.14 53.7071ZM38.7794 57.3586L38.7795 57.1586H38.7794V57.3586ZM37.9901 57.2883L37.9546 57.4852L37.9549 57.4852L37.9901 57.2883ZM34.4099 52.1352L34.6067 52.1706L34.6067 52.1705L34.4099 52.1352ZM34.6059 51.0404L34.6413 50.8436L34.4443 50.8081L34.409 51.0052L34.6059 51.0404ZM35.7998 51.2552L35.9967 51.2905L36.0319 51.0938L35.8352 51.0584L35.7998 51.2552ZM35.6454 52.1159L35.8422 52.1513L35.8423 52.1512L35.6454 52.1159ZM36.1701 54.5263L36.0059 54.6405L36.0059 54.6405L36.1701 54.5263ZM38.245 55.8583L38.2811 55.6616L38.2802 55.6614L38.245 55.8583ZM41.9874 53.2566L41.7905 53.2211L41.7905 53.2215L41.9874 53.2566ZM39.5429 51.9286L39.7397 51.9641L39.7752 51.7672L39.5783 51.7318L39.5429 51.9286ZM38.4001 51.723L38.4355 51.5262L38.2386 51.4908L38.2032 51.6877L38.4001 51.723ZM39.3878 52.7901L39.191 52.7546L39.191 52.7547L39.3878 52.7901ZM38.7136 53.2582L38.7512 53.0617L38.7485 53.0612L38.7136 53.2582ZM38.3401 53.0188L38.5041 52.9044L38.5035 52.9036L38.3401 53.0188ZM38.2455 52.584L38.0486 52.5486L38.0486 52.5487L38.2455 52.584ZM13.361 35.668C12.9714 35.668 12.6064 35.4648 12.4025 35.1278L12.0603 35.3348C12.3372 35.7925 12.8324 36.068 13.361 36.068V35.668ZM13.4449 35.6652C13.4179 35.667 13.3896 35.668 13.361 35.668V36.068C13.398 36.068 13.4352 36.0668 13.4715 36.0644L13.4449 35.6652ZM27.0959 34.6535L13.4435 35.6653L13.473 36.0643L27.1255 35.0524L27.0959 34.6535ZM27.8666 34.2616C27.6724 34.4899 27.3948 34.6311 27.0957 34.6536L27.1256 35.0524C27.5314 35.022 27.9079 34.8304 28.1713 34.5208L27.8666 34.2616ZM28.1298 33.4374C28.1559 33.7361 28.0612 34.0334 27.8668 34.2614L28.1711 34.521C28.4353 34.2111 28.5636 33.8077 28.5283 33.4027L28.1298 33.4374ZM30.2001 21.2677C27.6165 27.0974 28.124 33.3664 28.1298 33.4364L28.5284 33.4037C28.5238 33.3473 28.0248 27.1634 30.5658 21.4298L30.2001 21.2677ZM30.4553 20.7221C30.4219 20.9083 30.3419 21.0801 30.2268 21.2237L30.539 21.4738C30.6948 21.2794 30.8035 21.0463 30.849 20.7928L30.4553 20.7221ZM29.6187 4.36861C32.4445 8.80517 32.7899 15.4769 30.4695 20.676L30.8348 20.839C33.2045 15.5295 32.861 8.71443 29.9561 4.15372L29.6187 4.36861ZM22.4093 0.215849C25.2391 0.0288687 27.7939 1.50413 29.6187 4.36862L29.9561 4.15371C28.0717 1.19562 25.3905 -0.382008 22.3829 -0.183281L22.4093 0.215849ZM9.60674 19.7823C9.7743 6.49604 18.091 0.503732 22.4094 0.215841L22.3828 -0.183273C17.8088 0.12166 9.37631 6.33356 9.20677 19.7773L9.60674 19.7823ZM12.4025 35.1277C12.2999 34.9584 9.47514 30.1879 9.60674 19.7823L9.20677 19.7773C9.07419 30.2611 11.9209 35.1048 12.0603 35.3349L12.4025 35.1277ZM28.6025 19.3434C29.0959 18.1383 29.4322 16.8558 29.6143 15.5526L29.2182 15.4972C29.0403 16.7695 28.7123 18.0196 28.2323 19.1918L28.6025 19.3434ZM24.7143 19.7424L28.4322 19.467L28.4026 19.0681L24.6848 19.3435L24.7143 19.7424ZM25.1431 17.65C24.8956 18.191 24.6852 18.8142 24.5062 19.4919L24.8929 19.5941C25.068 18.9314 25.2714 18.331 25.5068 17.8164L25.1431 17.65ZM25.8119 15.7323C25.6765 16.3167 25.4608 16.9551 25.1431 17.6501L25.5068 17.8164C25.8346 17.0995 26.0595 16.4357 26.2016 15.8226L25.8119 15.7323ZM29.4015 15.3255L25.992 15.578L26.0216 15.9769L29.431 15.7244L29.4015 15.3255ZM27.3911 5.78834C28.6474 7.76072 29.3175 10.2751 29.3728 12.8682L29.7727 12.8597C29.7161 10.2076 29.0311 7.61858 27.7285 5.57344L27.3911 5.78834ZM22.8811 2.84121C25.1564 2.84121 26.673 4.66117 27.3911 5.78834L27.7285 5.57343C26.9999 4.4297 25.3791 2.44121 22.8811 2.44121V2.84121ZM22.5858 2.85135C22.6854 2.84474 22.784 2.84121 22.8811 2.84121V2.44121C22.7743 2.44121 22.6668 2.44509 22.5593 2.45223L22.5858 2.85135ZM12.937 14.1587C13.8572 10.3893 15.5851 7.60432 17.4284 5.7405C19.2773 3.87094 21.2274 2.94198 22.5859 2.85134L22.5592 2.45223C21.0699 2.55159 19.0337 3.54848 17.144 5.45923C15.2486 7.37572 13.4854 10.2255 12.5484 14.0639L12.937 14.1587ZM16.7651 13.6124L12.7279 13.9119L12.7575 14.3108L16.7947 14.0113L16.7651 13.6124ZM21.459 9.08043C20.9574 9.11745 19.9894 9.27982 19.0191 9.94158C18.0443 10.6064 17.0834 11.7645 16.5858 13.7636L16.974 13.8602C17.4492 11.9509 18.3554 10.8784 19.2445 10.272C20.138 9.66259 21.0306 9.51314 21.4884 9.47935L21.459 9.08043ZM25.4796 11.1301C24.4085 9.59194 22.7065 8.99164 21.4595 9.08039L21.4879 9.47939C22.6017 9.40012 24.1649 9.94216 25.1513 11.3586L25.4796 11.1301ZM26.2973 13.0833C26.1408 12.2699 25.8234 11.6239 25.4796 11.1301L25.1513 11.3586C25.4672 11.8124 25.7599 12.407 25.9045 13.1589L26.2973 13.0833ZM29.558 12.6645L26.0861 12.9216L26.1157 13.3205L29.5875 13.0634L29.558 12.6645ZM19.3975 15.2189C19.5467 14.2343 19.831 13.475 20.2213 12.9549C20.6075 12.4401 21.0983 12.1571 21.6844 12.1138L21.655 11.7149C20.9411 11.7676 20.349 12.1181 19.9013 12.7148C19.4577 13.3061 19.157 14.1361 19.002 15.159L19.3975 15.2189ZM19.3797 15.3403C19.3879 15.2971 19.3943 15.2533 19.3988 15.209L19.0008 15.169C18.9975 15.2015 18.9928 15.2337 18.9867 15.2655L19.3797 15.3403ZM19.2797 16.7609C19.2862 16.2448 19.3207 15.7672 19.3813 15.3304L18.9851 15.2754C18.9219 15.7309 18.8864 16.2253 18.8797 16.7558L19.2797 16.7609ZM19.293 21.3352C19.2759 19.3518 19.2683 17.6645 19.2797 16.7609L18.8797 16.7559C18.8683 17.6645 18.8759 19.3559 18.893 21.3386L19.293 21.3352ZM19.2936 21.4093C19.294 21.383 19.2938 21.3565 19.2929 21.33L18.8931 21.3438C18.8938 21.3634 18.894 21.383 18.8936 21.4024L19.2936 21.4093ZM19.4339 32.7845C19.3985 30.3756 19.3277 25.3292 19.2936 21.4041L18.8936 21.4076C18.9278 25.3339 18.9986 30.3814 19.034 32.7904L19.4339 32.7845ZM21.0614 32.4514L19.2192 32.588L19.2487 32.9869L21.091 32.8504L21.0614 32.4514ZM22.7406 16.5515C21.7432 18.7326 21.2575 21.9557 21.0298 25.0198C20.8015 28.0908 20.8308 31.0292 20.8763 32.6565L21.2761 32.6453C21.2309 31.0249 21.2018 28.1015 21.4287 25.0495C21.656 21.9906 22.1388 18.8294 23.1044 16.7179L22.7406 16.5515ZM22.9833 12.8675C23.523 13.6438 23.4805 14.9327 22.7406 16.5516L23.1044 16.7179C23.8608 15.0629 23.9768 13.5959 23.3118 12.6392L22.9833 12.8675ZM21.6871 12.1136C21.8149 12.1024 22.0385 12.1428 22.2884 12.2678C22.5338 12.3906 22.7882 12.5872 22.9834 12.8676L23.3117 12.6391C23.0736 12.2971 22.7648 12.0589 22.4674 11.9101C22.1745 11.7635 21.8759 11.6956 21.6523 11.7151L21.6871 12.1136ZM16.2421 16.481C16.2399 16.5606 16.2384 16.6412 16.2373 16.7225L16.6373 16.7276C16.6383 16.6481 16.6399 16.5695 16.642 16.4918L16.2421 16.481ZM12.2667 16.9966L16.4568 16.6858L16.4272 16.2869L12.2372 16.5977L12.2667 16.9966ZM12.2491 19.8151C12.2623 18.7662 12.332 17.7688 12.4504 16.8219L12.0535 16.7723C11.9332 17.7343 11.8625 18.7467 11.8491 19.81L12.2491 19.8151ZM12.2448 20.4805C12.2448 20.2616 12.2462 20.0398 12.2491 19.8151L11.8491 19.81C11.8462 20.0364 11.8448 20.2598 11.8448 20.4804L12.2448 20.4805ZM16.4263 19.9558L12.03 20.281L12.0595 20.6799L16.4558 20.3547L16.4263 19.9558ZM16.2373 16.7226C16.2282 17.4623 16.231 18.6881 16.2411 20.1566L16.6411 20.1539C16.631 18.6853 16.6282 17.463 16.6373 16.7276L16.2373 16.7226ZM16.4492 22.6035L12.0989 22.9252L12.1284 23.3242L16.4787 23.0024L16.4492 22.6035ZM16.7052 26.4647C16.6902 25.2466 16.6759 23.9956 16.6639 22.801L16.2639 22.805C16.2759 24 16.2903 25.2514 16.3053 26.4697L16.7052 26.4647ZM12.4805 26.9662L16.5201 26.6667L16.4905 26.2678L12.4509 26.5673L12.4805 26.9662ZM11.9139 23.1354C11.9864 24.4889 12.1115 25.7073 12.2677 26.7952L12.6637 26.7383C12.5091 25.6623 12.3852 24.4558 12.3134 23.114L11.9139 23.1354ZM24.1877 22.4309L27.2984 22.2004L27.2689 21.8015L24.1582 22.0319L24.1877 22.4309ZM24.013 25.9384C24.0869 24.7085 24.2005 23.4511 24.3709 22.2597L23.975 22.2031C23.8025 23.4082 23.688 24.6769 23.6138 25.9145L24.013 25.9384ZM26.2422 25.5462L23.7986 25.727L23.8282 26.1259L26.2717 25.9451L26.2422 25.5462ZM27.0951 21.9342C26.6383 23.2238 26.3041 24.4988 26.0609 25.7061L26.453 25.7851C26.693 24.5937 27.0225 23.3372 27.4722 22.0677L27.0951 21.9342ZM12.961 29.58L16.5542 29.3135L16.5246 28.9146L12.9314 29.1811L12.961 29.58ZM14.3307 33.0834C14.0243 32.3909 13.5563 31.1574 13.1412 29.3361L12.7512 29.425C13.1721 31.2718 13.6483 32.5297 13.9649 33.2452L14.3307 33.0834ZM16.5792 32.7836L14.133 32.9649L14.1625 33.3638L16.6087 33.1825L16.5792 32.7836ZM16.3394 29.1168C16.3605 30.6843 16.3802 32.0558 16.394 32.986L16.7939 32.9801C16.7802 32.05 16.7604 30.6787 16.7394 29.1114L16.3394 29.1168ZM25.8244 28.2265L23.6928 28.3842L23.7224 28.7831L25.8539 28.6254L25.8244 28.2265ZM25.8418 32.31C25.8297 31.3861 25.8597 30.0389 26.0379 28.4482L25.6404 28.4036C25.46 30.0139 25.4295 31.378 25.4418 32.3152L25.8418 32.31ZM23.7305 32.6548L25.6566 32.512L25.627 32.1131L23.7009 32.2559L23.7305 32.6548ZM23.5077 28.5794C23.4744 30.1384 23.4919 31.512 23.5158 32.4603L23.9157 32.4503C23.8919 31.5065 23.8745 30.1393 23.9076 28.5879L23.5077 28.5794ZM12.4614 42.9726C12.783 47.3176 16.4442 50.7209 20.7982 50.7209V50.3209C16.654 50.3209 13.1664 47.0795 12.8603 42.9431L12.4614 42.9726ZM12.2469 40.0846L12.4614 42.9727L12.8603 42.943L12.6458 40.055L12.2469 40.0846ZM12.6119 38.9797C12.3485 39.285 12.2171 39.6823 12.2469 40.0846L12.6458 40.055C12.6238 39.7588 12.7206 39.4661 12.9148 39.2409L12.6119 38.9797ZM13.6518 38.4559C13.2494 38.4851 12.8752 38.6739 12.6118 38.9798L12.9149 39.2408C13.1091 39.0152 13.3848 38.8764 13.6808 38.8549L13.6518 38.4559ZM18.1915 38.1195L13.6515 38.4559L13.6811 38.8548L18.221 38.5184L18.1915 38.1195ZM18.2234 38.1167C18.2111 38.1176 18.1989 38.1187 18.1868 38.1199L18.2258 38.518C18.2348 38.5171 18.2439 38.5163 18.2529 38.5156L18.2234 38.1167ZM20.2127 37.9697L18.2234 38.1167L18.2529 38.5156L20.2422 38.3686L20.2127 37.9697ZM27.304 37.4441L20.2126 37.9697L20.2422 38.3686L27.3335 37.843L27.304 37.4441ZM28.4094 37.8092C28.104 37.5456 27.7037 37.4118 27.3026 37.4442L27.3348 37.8429C27.627 37.8193 27.922 37.9169 28.1481 38.112L28.4094 37.8092ZM28.9327 38.8491C28.9034 38.4467 28.7148 38.0725 28.4094 37.8091L28.1482 38.112C28.3733 38.3062 28.5122 38.582 28.5337 38.8781L28.9327 38.8491ZM29.1461 41.7369L28.9326 38.8488L28.5337 38.8783L28.7472 41.7664L29.1461 41.7369ZM21.4223 50.6982C26.0224 50.3555 29.4871 46.3355 29.1461 41.7368L28.7472 41.7664C29.0719 46.1447 25.7725 49.973 21.3925 50.2993L21.4223 50.6982ZM20.7982 50.7209C21.0047 50.7209 21.2128 50.7128 21.4213 50.6982L21.3935 50.2992C21.193 50.3132 20.9943 50.3209 20.7982 50.3209V50.7209ZM26.1812 40.1758L24.2462 40.3192L24.2757 40.7181L26.2108 40.5747L26.1812 40.1758ZM26.5116 41.9313L26.3954 40.3605L25.9965 40.39L26.1127 41.9608L26.5116 41.9313ZM21.2273 48.0626C24.3744 47.8283 26.7454 45.078 26.5116 41.9312L26.1127 41.9609C26.3302 44.8872 24.1246 47.4458 21.1976 47.6637L21.2273 48.0626ZM15.0958 42.7771C15.3264 45.8925 18.0703 48.2926 21.227 48.0627L21.1979 47.6637C18.2625 47.8776 15.7091 45.644 15.4947 42.7476L15.0958 42.7771ZM14.9791 41.2069L15.0958 42.7772L15.4947 42.7475L15.378 41.1772L14.9791 41.2069ZM17.1003 40.849L15.1637 40.9926L15.1933 41.3915L17.1299 41.2479L17.1003 40.849ZM17.4094 42.3229L17.3146 41.0338L16.9157 41.0632L17.0105 42.3522L17.4094 42.3229ZM20.7801 45.4547C19.022 45.4547 17.5406 44.0783 17.4094 42.3227L17.0105 42.3525C17.1573 44.3165 18.8122 45.8547 20.7801 45.8547V45.4547ZM21.0333 45.4456C20.9487 45.4517 20.8641 45.4547 20.7801 45.4547V45.8547C20.8736 45.8547 20.9677 45.8513 21.0616 45.8446L21.0333 45.4456ZM23.3451 44.2817C22.7546 44.9655 21.9341 45.3788 21.0327 45.4457L21.0623 45.8446C22.0694 45.7699 22.9882 45.3071 23.6478 44.5432L23.3451 44.2817ZM24.1572 41.8224C24.2241 42.7243 23.9359 43.5971 23.345 44.2818L23.6479 44.5431C24.3082 43.778 24.6308 42.8005 24.5561 41.7928L24.1572 41.8224ZM24.0615 40.5335L24.1572 41.8224L24.5561 41.7928L24.4604 40.5039L24.0615 40.5335ZM19.5504 40.8681L19.6455 42.1568L20.0444 42.1274L19.9493 40.8387L19.5504 40.8681ZM21.6119 40.5155L19.7351 40.6539L19.7645 41.0528L21.6413 40.9144L21.6119 40.5155ZM21.9216 41.9883L21.826 40.7002L21.4271 40.7298L21.5227 42.0179L21.9216 41.9883ZM20.8672 43.2096C21.4945 43.1635 21.9678 42.6155 21.9217 41.9884L21.5227 42.0178C21.5527 42.4243 21.2451 42.7808 20.8378 42.8107L20.8672 43.2096ZM19.6455 42.1569C19.6917 42.7788 20.236 43.2513 20.8657 43.2098L20.8394 42.8106C20.427 42.8378 20.0742 42.5283 20.0444 42.1272L19.6455 42.1569ZM45.4132 48.538C45.5023 48.5538 45.5926 48.5617 45.6815 48.5617V48.1617C45.6161 48.1617 45.5491 48.1559 45.4828 48.1442L45.4132 48.538ZM34.0818 46.4995L45.4126 48.5379L45.4834 48.1443L34.1526 46.1058L34.0818 46.4995ZM33.0957 45.8614C33.3256 46.1972 33.6809 46.4271 34.0817 46.4995L34.1527 46.1059C33.8571 46.0525 33.5952 45.8829 33.4257 45.6354L33.0957 45.8614ZM32.8578 44.7111C32.7799 45.1113 32.8657 45.525 33.0956 45.8613L33.4258 45.6356C33.2562 45.3875 33.193 45.0826 33.2504 44.7875L32.8578 44.7111ZM32.2127 34.6596C33.0095 37.1309 33.1739 39.6321 33.1367 41.5255C33.1181 42.4714 33.0492 43.2635 32.9845 43.8218C32.9521 44.1008 32.9208 44.3213 32.8974 44.4731C32.8857 44.549 32.8759 44.6077 32.869 44.648C32.8656 44.6681 32.8628 44.6836 32.8609 44.6944C32.8599 44.6997 32.8591 44.7039 32.8586 44.7068C32.858 44.7099 32.8578 44.7113 32.8578 44.7112L33.2505 44.7874C33.2619 44.7284 34.2211 39.5857 32.5934 34.5369L32.2127 34.6596ZM32.018 34.0612C32.0405 34.2916 32.1154 34.5101 32.2322 34.7022L32.574 34.4943C32.4877 34.3524 32.4326 34.1915 32.4161 34.0223L32.018 34.0612ZM33.9121 20.488C31.299 24.1543 30.5585 29.5897 32.0268 34.1036L32.4072 33.9799C30.9752 29.5776 31.7036 24.2758 34.2378 20.7202L33.9121 20.488ZM41.2089 16.9636C38.4946 16.4979 35.8212 17.81 33.9121 20.488L34.2378 20.7202C36.081 18.1346 38.6142 16.9242 41.1413 17.3578L41.2089 16.9636ZM50.6872 35.0705C51.7333 23.6576 45.0942 17.6319 41.209 16.9636L41.1412 17.3578C44.7756 17.983 51.3204 23.7799 50.2889 35.0339L50.6872 35.0705ZM49.392 42.2418C49.9316 40.3622 50.4198 37.9876 50.6872 35.0705L50.2889 35.0339C50.0237 37.9265 49.5401 40.2764 49.0076 42.1315L49.392 42.2418ZM49.3517 42.3802C49.3683 42.3321 49.3826 42.2829 49.3945 42.2325L49.0051 42.1408C48.9964 42.178 48.9858 42.2143 48.9736 42.2497L49.3517 42.3802ZM46.8943 47.9585C46.9867 47.8358 48.266 46.1017 49.3547 42.371L48.9707 42.2589C47.8967 45.9394 46.6406 47.6304 46.5748 47.7178L46.8943 47.9585ZM45.6815 48.5617C46.153 48.5617 46.6038 48.3422 46.894 47.9588L46.5751 47.7174C46.3613 47.9998 46.029 48.1617 45.6815 48.1617V48.5617ZM35.2143 35.6367C35.4271 36.5827 35.5686 37.5103 35.6581 38.3934L36.056 38.3531C35.9652 37.4559 35.8212 36.5124 35.6045 35.549L35.2143 35.6367ZM37.5371 35.7725L35.4448 35.396L35.374 35.7897L37.4663 36.1662L37.5371 35.7725ZM37.6858 38.6738C37.7199 37.7609 37.7293 36.8416 37.7016 35.9631L37.3018 35.9757C37.3292 36.843 37.3199 37.7529 37.2861 38.6589L37.6858 38.6738ZM35.8216 38.5701L37.4505 38.8632L37.5213 38.4695L35.8925 38.1764L35.8216 38.5701ZM37.4466 33.2047C37.3653 32.7423 37.2627 32.3147 37.1349 31.9351L36.7558 32.0627C36.8756 32.4185 36.9738 32.8258 37.0526 33.274L37.4466 33.2047ZM34.5522 32.9572L37.2142 33.4362L37.285 33.0425L34.6231 32.5635L34.5522 32.9572ZM33.9255 29.9896C33.9761 30.9187 34.126 31.8677 34.3953 32.815L34.78 32.7056C34.5193 31.7884 34.374 30.8689 34.3249 29.9679L33.9255 29.9896ZM36.5964 30.22L34.1606 29.7819L34.0898 30.1756L36.5256 30.6136L36.5964 30.22ZM37.1349 31.9351C36.9459 31.374 36.8258 30.8593 36.759 30.3887L36.363 30.4449C36.4334 30.9415 36.5596 31.4802 36.7558 32.0628L37.1349 31.9351ZM36.9529 27.8337C37.1611 27.2285 37.4588 26.7899 37.7102 26.4988L37.4074 26.2374C37.1283 26.5607 36.802 27.0429 36.5747 27.7036L36.9529 27.8337ZM37.7101 26.4988C38.7058 25.346 40.1423 25.0121 41.1039 25.1889L41.1762 24.7955C40.0814 24.5941 38.4999 24.9724 37.4074 26.2374L37.7101 26.4988ZM41.1047 25.1891C41.4952 25.2592 42.2452 25.4652 42.9602 26.0541C43.671 26.6395 44.361 27.6145 44.6213 29.2488L45.0163 29.1859C44.7413 27.4589 44.0034 26.3951 43.2145 25.7453C42.4296 25.0989 41.6079 24.873 41.1754 24.7954L41.1047 25.1891ZM44.7834 29.4142L47.7019 29.939L47.7727 29.5453L44.8542 29.0205L44.7834 29.4142ZM47.9351 29.7122C47.4576 26.5597 46.2599 24.1296 44.8871 22.4352C43.5193 20.7469 41.964 19.7736 40.762 19.5669L40.6942 19.9611C41.7675 20.1457 43.2445 21.0431 44.5763 22.687C45.9032 24.3247 47.0725 26.6881 47.5396 29.7721L47.9351 29.7122ZM40.7618 19.5668C39.0426 19.2729 37.3665 20.1934 36.0636 22.0202L36.3893 22.2525C37.6405 20.498 39.181 19.7024 40.6944 19.9611L40.7618 19.5668ZM36.0635 22.0203C35.1177 23.3478 34.3558 25.2024 34.0503 27.2873L34.446 27.3453C34.7432 25.3173 35.4836 23.5236 36.3893 22.2524L36.0635 22.0203ZM34.2128 27.5131L36.7284 27.9655L36.7992 27.5718L34.2836 27.1194L34.2128 27.5131ZM47.7541 32.4682C47.763 33.2101 47.7331 33.9849 47.6592 34.7925L48.0575 34.829C48.1327 34.008 48.1632 33.2194 48.1541 32.4634L47.7541 32.4682ZM44.8362 32.1083L47.9187 32.6626L47.9895 32.2689L44.907 31.7146L44.8362 32.1083ZM44.7918 34.5837C44.9164 33.459 45.0162 32.5193 45.0707 31.9298L44.6724 31.893C44.6183 32.4785 44.5189 33.415 44.3943 34.5397L44.7918 34.5837ZM47.862 34.947L44.6285 34.3649L44.5576 34.7586L47.7911 35.3406L47.862 34.947ZM47.6592 34.7925C47.649 34.9039 47.6384 35.0144 47.6275 35.124L48.0256 35.1636C48.0366 35.0529 48.0472 34.9414 48.0575 34.829L47.6592 34.7925ZM47.5171 37.5687L44.3312 36.9952L44.2603 37.3889L47.4462 37.9623L47.5171 37.5687ZM47.1431 40.4157C47.3376 39.6277 47.5201 38.7562 47.6789 37.7982L47.2843 37.7328C47.1272 38.6807 46.9468 39.542 46.7548 40.3198L47.1431 40.4157ZM43.9543 40.0329L46.9136 40.5646L46.9843 40.1709L44.0251 39.6392L43.9543 40.0329ZM44.0971 37.1692C43.9977 38.0356 43.8937 38.9327 43.791 39.8129L44.1883 39.8592C44.2911 38.9789 44.3951 38.0815 44.4945 37.2148L44.0971 37.1692ZM42.0271 35.5339C42.0281 35.5234 42.0293 35.5128 42.0307 35.5022L41.6339 35.4516C41.632 35.4659 41.6304 35.4802 41.629 35.4946L42.0271 35.5339ZM40.9413 44.8336C41.19 42.744 41.6685 38.7024 42.0268 35.5367L41.6293 35.4918C41.2712 38.6562 40.7928 42.6968 40.5441 44.7863L40.9413 44.8336ZM39.5937 44.8064L40.7073 45.0068L40.7781 44.6131L39.6646 44.4128L39.5937 44.8064ZM39.2592 31.2195C39.8724 33.0397 40.0115 35.6585 39.9466 38.1977C39.8819 40.7304 39.6153 43.1585 39.4308 44.5839L39.8275 44.6353C40.0129 43.2029 40.2813 40.7598 40.3465 38.2079C40.4116 35.6625 40.2755 32.9832 39.6383 31.0918L39.2592 31.2195ZM39.4073 27.9636C38.8044 28.6615 38.7961 29.8435 39.2592 31.2194L39.6383 31.0918C39.1852 29.7456 39.254 28.7529 39.71 28.225L39.4073 27.9636ZM40.7086 27.3951C40.5572 27.3673 40.3331 27.3963 40.1073 27.4803C39.875 27.5666 39.6183 27.7192 39.4073 27.9636L39.71 28.225C39.8699 28.0398 40.0665 27.9222 40.2467 27.8552C40.4332 27.7858 40.5806 27.7783 40.6363 27.7885L40.7086 27.3951ZM42.443 31.6614C42.4943 31.0977 42.5348 30.137 42.3377 29.271C42.142 28.4111 41.6913 27.5713 40.7077 27.395L40.6371 27.7887C41.3776 27.9214 41.7634 28.55 41.9477 29.3598C42.1306 30.1636 42.0948 31.0741 42.0446 31.6252L42.443 31.6614ZM42.031 35.4993C42.2187 33.8401 42.373 32.4233 42.443 31.6616L42.0446 31.625C41.9752 32.3819 41.8213 33.7944 41.6335 35.4544L42.031 35.4993ZM45.2054 45.6776C45.5073 45.1271 45.9382 44.2392 46.3814 42.983L46.0041 42.8499C45.5684 44.0851 45.1465 44.9532 44.8547 45.4853L45.2054 45.6776ZM43.312 45.4755L44.9946 45.7783L45.0655 45.3846L43.3828 45.0818L43.312 45.4755ZM43.4825 42.4417C43.3513 43.5536 43.2346 44.5351 43.1488 45.255L43.546 45.3024C43.6318 44.5823 43.7485 43.6007 43.8797 42.4886L43.4825 42.4417ZM46.2281 42.7196L43.7165 42.2683L43.6457 42.662L46.1574 43.1133L46.2281 42.7196ZM35.7896 41.0815C35.7878 42.2188 35.7152 43.1899 35.6376 43.9056L36.0353 43.9487C36.1141 43.2213 36.1878 42.2359 36.1896 41.0821L35.7896 41.0815ZM37.3585 41.1249L36.025 40.8849L35.9542 41.2786L37.2876 41.5186L37.3585 41.1249ZM37.2263 44.1667C37.3287 43.3597 37.435 42.3881 37.5224 41.3383L37.1237 41.3051C37.0369 42.3487 36.9312 43.3146 36.8295 44.1163L37.2263 44.1667ZM35.8011 44.124L36.9924 44.3384L37.0633 43.9447L35.8719 43.7303L35.8011 44.124ZM37.4876 60.0853C37.9141 60.1619 38.3492 60.2004 38.7805 60.2004V59.8004C38.3728 59.8004 37.9614 59.764 37.5584 59.6916L37.4876 60.0853ZM31.6129 51.6327C30.9023 55.5826 33.5371 59.3735 37.4875 60.0852L37.5585 59.6916C33.8254 59.019 31.3351 55.436 32.0066 51.7035L31.6129 51.6327ZM32.0425 49.2377L31.6129 51.6328L32.0066 51.7034L32.4362 49.3083L32.0425 49.2377ZM32.6708 48.2578C32.34 48.4882 32.1137 48.8404 32.0425 49.2378L32.4362 49.3083C32.4886 49.0156 32.6554 48.756 32.8995 48.586L32.6708 48.2578ZM33.8084 48.0094C33.4135 47.9388 33.0027 48.0276 32.6712 48.2575L32.8991 48.5862C33.1435 48.4167 33.447 48.3511 33.738 48.4031L33.8084 48.0094ZM37.5495 48.6822L33.8086 48.0094L33.7378 48.4031L37.4787 49.0759L37.5495 48.6822ZM37.6028 48.6908C37.5825 48.6871 37.5621 48.6838 37.5417 48.681L37.4865 49.0771C37.5014 49.0792 37.5164 49.0816 37.5313 49.0843L37.6028 48.6908ZM41.3464 49.3638L37.6025 48.6907L37.5317 49.0844L41.2757 49.7575L41.3464 49.3638ZM41.4097 49.3766C41.3888 49.372 41.3678 49.3677 41.3466 49.3639L41.2755 49.7575C41.2911 49.7603 41.3067 49.7635 41.3221 49.7669L41.4097 49.3766ZM45.1399 50.0473L41.4013 49.3749L41.3305 49.7686L45.0691 50.441L45.1399 50.0473ZM46.3681 51.8134C46.5166 50.9864 45.9659 50.1964 45.14 50.0473L45.069 50.441C45.6781 50.5509 46.0838 51.1335 45.9744 51.7427L46.3681 51.8134ZM45.938 54.2095L46.3681 51.8134L45.9744 51.7427L45.5443 54.1388L45.938 54.2095ZM38.7805 60.2004C42.3029 60.2004 45.3128 57.6809 45.938 54.2096L45.5444 54.1387C44.9533 57.4199 42.1089 59.8004 38.7805 59.8004V60.2004ZM43.3725 52.4144L42.1778 52.1995L42.1069 52.5932L43.3017 52.8081L43.3725 52.4144ZM43.3369 53.7425L43.534 52.6467L43.1403 52.5759L42.9432 53.6717L43.3369 53.7425ZM38.7794 57.5586C41.0227 57.5592 42.9394 55.9536 43.3369 53.7425L42.9432 53.6717C42.5798 55.6928 40.8286 57.1591 38.7795 57.1586L38.7794 57.5586ZM37.9549 57.4852C38.2268 57.5338 38.5044 57.5586 38.7794 57.5586V57.1586C38.5283 57.1586 38.2742 57.1359 38.0252 57.0915L37.9549 57.4852ZM34.213 52.0998C33.7602 54.6167 35.4386 57.0324 37.9546 57.4852L38.0255 57.0915C35.727 56.6778 34.193 54.4703 34.6067 52.1706L34.213 52.0998ZM34.409 51.0052L34.213 52.1L34.6067 52.1705L34.8028 51.0757L34.409 51.0052ZM35.8352 51.0584L34.6413 50.8436L34.5705 51.2373L35.7644 51.4521L35.8352 51.0584ZM35.8423 52.1512L35.9967 51.2905L35.6029 51.2199L35.4486 52.0805L35.8423 52.1512ZM36.3343 54.4121C35.8733 53.7493 35.6989 52.9467 35.8422 52.1513L35.4486 52.0804C35.2865 52.98 35.4841 53.8903 36.0059 54.6405L36.3343 54.4121ZM38.2802 55.6614C37.4862 55.5192 36.7955 55.0751 36.3343 54.4121L36.0059 54.6405C36.5275 55.3903 37.3108 55.8941 38.2097 56.0551L38.2802 55.6614ZM38.8198 55.7101C38.6397 55.7101 38.4584 55.6942 38.2811 55.6616L38.2088 56.055C38.4109 56.0921 38.6164 56.1101 38.8198 56.1101V55.7101ZM41.7905 53.2215C41.5333 54.6626 40.2831 55.7101 38.8198 55.7101V56.1101C40.4771 56.1101 41.893 54.9235 42.1843 53.2917L41.7905 53.2215ZM41.9455 52.3609L41.7905 53.2211L42.1842 53.2921L42.3392 52.4318L41.9455 52.3609ZM39.5783 51.7318L38.4355 51.5262L38.3647 51.9199L39.5075 52.1255L39.5783 51.7318ZM39.5847 52.8255L39.7397 51.9641L39.3461 51.8932L39.191 52.7546L39.5847 52.8255ZM38.8198 53.4682C39.1973 53.4682 39.5181 53.1964 39.5847 52.8254L39.191 52.7547C39.1582 52.9374 39.0014 53.0682 38.8198 53.0682V53.4682ZM38.6761 53.4546C38.7248 53.4639 38.7733 53.4682 38.8198 53.4682V53.0682C38.7977 53.0682 38.7744 53.0662 38.7512 53.0617L38.6761 53.4546ZM38.1761 53.1333C38.2438 53.2304 38.4006 53.4059 38.6788 53.4551L38.7485 53.0612C38.6146 53.0375 38.5388 52.9542 38.5041 52.9044L38.1761 53.1333ZM38.0486 52.5487C37.999 52.8259 38.1065 53.0346 38.1766 53.1341L38.5035 52.9036C38.4701 52.8562 38.418 52.7552 38.4424 52.6192L38.0486 52.5487ZM38.2032 51.6877L38.0486 52.5486L38.4423 52.6193L38.5969 51.7584L38.2032 51.6877Z" fill="#548B6C" mask="url(#path-1-outside-1_312_8171)"/>
</g>
<defs>
<clipPath id="clip0_312_8171">
<rect width="60" height="60" fill="white"/>
</clipPath>
</defs>
</svg>
