<svg width="30" height="31" viewBox="0 0 30 31" fill="none" xmlns="http://www.w3.org/2000/svg">
<g clip-path="url(#clip0_1_45811)">
<mask id="path-1-outside-1_1_45811" maskUnits="userSpaceOnUse" x="3.74316" y="-0.5" width="22" height="32" fill="black">
<rect fill="white" x="3.74316" y="-0.5" width="22" height="32"/>
<path fill-rule="evenodd" clip-rule="evenodd" d="M6.15104 18.0701C6.24806 18.2303 6.42157 18.327 6.60707 18.327C6.62013 18.327 6.63346 18.3265 6.64652 18.3257L8.94147 18.1555C8.94898 18.1551 8.95645 18.1545 8.96388 18.1538L13.5332 17.815C13.6756 17.8046 13.8078 17.7377 13.9003 17.6287C13.9927 17.5197 14.0375 17.3784 14.025 17.2364C14.0221 17.2039 13.7585 14.0294 15.0791 11.0651C15.1421 10.991 15.1849 10.8998 15.2 10.8003C16.3736 8.18643 16.2062 4.82652 14.7803 2.58819C13.872 1.16201 12.5922 0.410669 11.1737 0.508484C8.97355 0.655339 4.82962 3.69187 4.7454 10.3465C4.67957 15.5775 6.09081 17.9707 6.15104 18.0701ZM14.858 8.05326C14.7689 8.79798 14.5811 9.53168 14.2931 10.2133L12.1523 10.3717C12.2529 9.95529 12.3742 9.57682 12.5201 9.25773C12.6967 8.87151 12.8107 8.51958 12.8764 8.20003L14.858 8.05326ZM14.9184 6.9798C14.9092 5.58827 14.5597 4.22675 13.8811 3.16148C13.2262 2.13296 12.348 1.5666 11.4091 1.5666C11.3544 1.5666 11.3 1.56846 11.2446 1.57219C9.75045 1.67201 7.04275 3.60731 6.12456 7.63129L8.43923 7.45963C8.89005 5.49039 10.2424 5.21638 10.7086 5.18178C11.2595 5.13593 12.0383 5.41338 12.5273 6.11621C12.7005 6.36477 12.859 6.69827 12.9211 7.12774L14.9184 6.9798ZM9.41884 8.0167C9.41732 8.0313 9.41521 8.04574 9.41252 8.06C9.37957 8.29315 9.36102 8.54658 9.35755 8.81903C9.35183 9.2763 9.35564 10.128 9.36424 11.1277C9.36491 11.1418 9.36503 11.1558 9.3646 11.1697C9.38254 13.2308 9.42041 15.9016 9.43731 17.05L10.6349 16.9612C10.5869 15.4378 10.5445 11.0134 11.5502 8.81423C11.9538 7.9315 11.9889 7.20922 11.6521 6.72521C11.3895 6.34754 10.9786 6.22948 10.7872 6.24467C10.0624 6.29837 9.58211 6.93263 9.41884 8.0167ZM8.29173 8.80571C8.29289 8.71454 8.29551 8.62565 8.29949 8.53899L5.92945 8.71475C5.85981 9.23358 5.81883 9.78197 5.8115 10.3603C5.80943 10.5236 5.80888 10.6839 5.80975 10.8413L8.29446 10.6577C8.2887 9.86282 8.28687 9.19774 8.29173 8.80571ZM5.83846 11.9082L8.30365 11.726C8.31034 12.4118 8.31869 13.1396 8.3274 13.8416L6.04497 14.0108C5.95128 13.3951 5.87704 12.695 5.83846 11.9082ZM13.8252 11.3169L11.945 11.4561C11.8419 12.1452 11.7772 12.8795 11.7379 13.589L13.2224 13.4791C13.3563 12.7911 13.5492 12.0568 13.8252 11.3169ZM11.7002 16.8822L12.9368 16.7905C12.9255 16.2987 12.9359 15.5084 13.0517 14.5607L11.6956 14.6611C11.6729 15.5799 11.6859 16.3818 11.7002 16.8822ZM8.34114 14.9096C8.35342 15.8342 8.36505 16.6372 8.37235 17.1289L6.92318 17.2364C6.75804 16.8733 6.47732 16.1578 6.23902 15.0655L8.34114 14.9096ZM10.3575 25.7185C8.28371 25.7185 6.53878 24.097 6.38579 22.0266L6.27812 20.5698C6.25626 20.2761 6.47667 20.0205 6.77038 19.9989L9.07656 19.8281L13.6571 19.4888C13.9471 19.4648 14.2064 19.6871 14.228 19.981L14.336 21.4379C14.4985 23.629 12.8477 25.5439 10.6555 25.7073C10.5556 25.7148 10.4562 25.7185 10.3575 25.7185ZM11.9617 20.6836L13.204 20.5916L13.2728 21.517C13.3919 23.1218 12.1822 24.5247 10.5766 24.6444C8.96415 24.7588 7.5665 23.537 7.44896 21.9482L7.38046 21.0229L8.62354 20.9308L8.6813 21.7132C8.74553 22.5826 9.47822 23.2636 10.3495 23.2636C10.3905 23.2636 10.4324 23.262 10.4742 23.2591C11.3945 23.1908 12.0883 22.3865 12.0198 21.4659L11.9617 20.6836ZM9.68666 20.8521L10.8983 20.7624L10.9566 21.5448C10.9814 21.879 10.7296 22.1708 10.3953 22.1959C10.059 22.2191 9.76899 21.9653 9.74447 21.6346L9.68666 20.8521ZM22.9097 24.6291C22.8786 24.6291 22.8468 24.6262 22.8154 24.6208L17.0998 23.5926C16.9596 23.5672 16.8351 23.4868 16.7543 23.3689C16.6736 23.2511 16.6437 23.1059 16.6709 22.9657C16.6762 22.9395 17.1649 20.323 16.3327 17.7605C16.2866 17.6882 16.2578 17.6047 16.2508 17.5166C15.5231 15.3023 15.8854 12.6314 17.1637 10.8375C18.08 9.5523 19.3415 8.9345 20.6142 9.15492C22.4681 9.47341 25.7176 12.4057 25.2018 18.0363C25.0674 19.5034 24.822 20.6924 24.5522 21.6287C24.5497 21.6384 24.5469 21.648 24.5439 21.6575C24.0056 23.5125 23.3742 24.3656 23.3346 24.4177C23.2328 24.5523 23.0747 24.6291 22.9097 24.6291ZM17.8315 19.8376C17.7817 19.3035 17.6943 18.7347 17.5522 18.1544L18.917 18.4C18.938 18.9309 18.9298 19.4888 18.9053 20.0306L17.8315 19.8376ZM18.6291 16.4656C18.7116 16.7103 18.774 16.9922 18.8199 17.2993L17.2089 17.0093C17.0407 16.4456 16.9567 15.8797 16.9406 15.329L18.4265 15.5963C18.4576 15.8584 18.5221 16.1474 18.6291 16.4656ZM18.4981 14.5259C18.5942 14.195 18.7516 13.9426 18.9132 13.7553C19.4052 13.1852 20.1131 13.0178 20.5953 13.1047C20.9933 13.1763 22.1258 13.5294 22.3563 15.2195L24.1034 15.5337C23.6626 12.2031 21.6383 10.4124 20.4332 10.205C19.5646 10.0552 18.7058 10.5102 18.0318 11.4556C17.535 12.1529 17.1356 13.1428 16.9935 14.2553L18.4981 14.5259ZM24.1403 17.9388C24.182 17.4834 24.1964 17.0478 24.187 16.632L22.3808 16.3072C22.3777 16.3503 22.3741 16.3941 22.3701 16.4384C22.3412 16.7541 22.2851 17.2801 22.215 17.9103L24.1094 18.2513C24.1203 18.1487 24.1306 18.0445 24.1403 17.9388ZM22.0949 18.972L23.97 19.3096C23.8769 19.8955 23.7662 20.4192 23.6477 20.8833L21.9098 20.571C21.9719 20.0397 22.0354 19.4928 22.0949 18.972ZM21.1022 18.2664C21.1001 18.2804 21.0985 18.2943 21.0975 18.3082C20.9086 19.978 20.654 22.125 20.5346 23.1269L19.7083 22.9783C19.8881 21.6332 20.281 18.0301 19.6395 16.1255C19.3893 15.3819 19.4172 14.8033 19.7205 14.452C19.9372 14.2006 20.2509 14.1257 20.4066 14.1543C21.0953 14.2779 21.4242 15.0751 21.3085 16.3414C21.2736 16.7234 21.1963 17.4332 21.1022 18.2664ZM23.3442 21.9119C23.0784 22.6969 22.8148 23.2202 22.6507 23.5075L21.5854 23.3159C21.6329 22.9183 21.7043 22.3186 21.7853 21.6318L23.3442 21.9119ZM17.7967 22.6344C17.8445 22.2367 17.8944 21.6423 17.8873 20.9308L18.8363 21.1014C18.7801 21.7856 18.7094 22.385 18.6566 22.7891L17.7967 22.6344ZM19.4294 30.4998C19.2255 30.4998 19.0203 30.4814 18.8183 30.4452C17.9145 30.2826 17.1283 29.7778 16.6043 29.0238C16.0806 28.2698 15.8815 27.357 16.044 26.4535L16.2607 25.245C16.2858 25.1062 16.3652 24.9825 16.4811 24.9018C16.5973 24.8207 16.7405 24.7906 16.8799 24.8146L20.5497 25.4748L20.6818 25.4986L20.6843 25.499L22.5955 25.8429C22.8849 25.8951 23.0776 26.172 23.0257 26.4617L22.809 27.6704C22.5145 29.3098 21.0928 30.4998 19.4294 30.4998ZM21.0176 26.6424L21.8825 26.7981L21.7597 27.482C21.5563 28.6128 20.5763 29.4337 19.4292 29.4337C19.2887 29.4337 19.1461 29.4209 19.0067 29.3956C18.3836 29.2837 17.8409 28.9353 17.4798 28.4154C17.1187 27.8954 16.9811 27.2656 17.0936 26.6422L17.2162 25.9583L18.0802 26.1138L17.9785 26.6801C17.9079 27.0724 17.9942 27.469 18.2218 27.7963C18.4494 28.1236 18.7909 28.3424 19.1821 28.4128C19.2703 28.4288 19.3599 28.437 19.4492 28.437C20.1717 28.437 20.7885 27.9197 20.9159 27.2081L21.0176 26.6424ZM19.9686 26.4536L19.8666 27.0196C19.8303 27.2227 19.6547 27.3707 19.4492 27.3707C19.4236 27.3707 19.398 27.3685 19.3713 27.3635C19.2594 27.3435 19.1624 27.2811 19.0974 27.1876C19.0326 27.0943 19.0078 26.9813 19.0281 26.8688L19.1296 26.3027L19.4973 26.3688L19.9686 26.4536Z"/>
</mask>
<path fill-rule="evenodd" clip-rule="evenodd" d="M6.15104 18.0701C6.24806 18.2303 6.42157 18.327 6.60707 18.327C6.62013 18.327 6.63346 18.3265 6.64652 18.3257L8.94147 18.1555C8.94898 18.1551 8.95645 18.1545 8.96388 18.1538L13.5332 17.815C13.6756 17.8046 13.8078 17.7377 13.9003 17.6287C13.9927 17.5197 14.0375 17.3784 14.025 17.2364C14.0221 17.2039 13.7585 14.0294 15.0791 11.0651C15.1421 10.991 15.1849 10.8998 15.2 10.8003C16.3736 8.18643 16.2062 4.82652 14.7803 2.58819C13.872 1.16201 12.5922 0.410669 11.1737 0.508484C8.97355 0.655339 4.82962 3.69187 4.7454 10.3465C4.67957 15.5775 6.09081 17.9707 6.15104 18.0701ZM14.858 8.05326C14.7689 8.79798 14.5811 9.53168 14.2931 10.2133L12.1523 10.3717C12.2529 9.95529 12.3742 9.57682 12.5201 9.25773C12.6967 8.87151 12.8107 8.51958 12.8764 8.20003L14.858 8.05326ZM14.9184 6.9798C14.9092 5.58827 14.5597 4.22675 13.8811 3.16148C13.2262 2.13296 12.348 1.5666 11.4091 1.5666C11.3544 1.5666 11.3 1.56846 11.2446 1.57219C9.75045 1.67201 7.04275 3.60731 6.12456 7.63129L8.43923 7.45963C8.89005 5.49039 10.2424 5.21638 10.7086 5.18178C11.2595 5.13593 12.0383 5.41338 12.5273 6.11621C12.7005 6.36477 12.859 6.69827 12.9211 7.12774L14.9184 6.9798ZM9.41884 8.0167C9.41732 8.0313 9.41521 8.04574 9.41252 8.06C9.37957 8.29315 9.36102 8.54658 9.35755 8.81903C9.35183 9.2763 9.35564 10.128 9.36424 11.1277C9.36491 11.1418 9.36503 11.1558 9.3646 11.1697C9.38254 13.2308 9.42041 15.9016 9.43731 17.05L10.6349 16.9612C10.5869 15.4378 10.5445 11.0134 11.5502 8.81423C11.9538 7.9315 11.9889 7.20922 11.6521 6.72521C11.3895 6.34754 10.9786 6.22948 10.7872 6.24467C10.0624 6.29837 9.58211 6.93263 9.41884 8.0167ZM8.29173 8.80571C8.29289 8.71454 8.29551 8.62565 8.29949 8.53899L5.92945 8.71475C5.85981 9.23358 5.81883 9.78197 5.8115 10.3603C5.80943 10.5236 5.80888 10.6839 5.80975 10.8413L8.29446 10.6577C8.2887 9.86282 8.28687 9.19774 8.29173 8.80571ZM5.83846 11.9082L8.30365 11.726C8.31034 12.4118 8.31869 13.1396 8.3274 13.8416L6.04497 14.0108C5.95128 13.3951 5.87704 12.695 5.83846 11.9082ZM13.8252 11.3169L11.945 11.4561C11.8419 12.1452 11.7772 12.8795 11.7379 13.589L13.2224 13.4791C13.3563 12.7911 13.5492 12.0568 13.8252 11.3169ZM11.7002 16.8822L12.9368 16.7905C12.9255 16.2987 12.9359 15.5084 13.0517 14.5607L11.6956 14.6611C11.6729 15.5799 11.6859 16.3818 11.7002 16.8822ZM8.34114 14.9096C8.35342 15.8342 8.36505 16.6372 8.37235 17.1289L6.92318 17.2364C6.75804 16.8733 6.47732 16.1578 6.23902 15.0655L8.34114 14.9096ZM10.3575 25.7185C8.28371 25.7185 6.53878 24.097 6.38579 22.0266L6.27812 20.5698C6.25626 20.2761 6.47667 20.0205 6.77038 19.9989L9.07656 19.8281L13.6571 19.4888C13.9471 19.4648 14.2064 19.6871 14.228 19.981L14.336 21.4379C14.4985 23.629 12.8477 25.5439 10.6555 25.7073C10.5556 25.7148 10.4562 25.7185 10.3575 25.7185ZM11.9617 20.6836L13.204 20.5916L13.2728 21.517C13.3919 23.1218 12.1822 24.5247 10.5766 24.6444C8.96415 24.7588 7.5665 23.537 7.44896 21.9482L7.38046 21.0229L8.62354 20.9308L8.6813 21.7132C8.74553 22.5826 9.47822 23.2636 10.3495 23.2636C10.3905 23.2636 10.4324 23.262 10.4742 23.2591C11.3945 23.1908 12.0883 22.3865 12.0198 21.4659L11.9617 20.6836ZM9.68666 20.8521L10.8983 20.7624L10.9566 21.5448C10.9814 21.879 10.7296 22.1708 10.3953 22.1959C10.059 22.2191 9.76899 21.9653 9.74447 21.6346L9.68666 20.8521ZM22.9097 24.6291C22.8786 24.6291 22.8468 24.6262 22.8154 24.6208L17.0998 23.5926C16.9596 23.5672 16.8351 23.4868 16.7543 23.3689C16.6736 23.2511 16.6437 23.1059 16.6709 22.9657C16.6762 22.9395 17.1649 20.323 16.3327 17.7605C16.2866 17.6882 16.2578 17.6047 16.2508 17.5166C15.5231 15.3023 15.8854 12.6314 17.1637 10.8375C18.08 9.5523 19.3415 8.9345 20.6142 9.15492C22.4681 9.47341 25.7176 12.4057 25.2018 18.0363C25.0674 19.5034 24.822 20.6924 24.5522 21.6287C24.5497 21.6384 24.5469 21.648 24.5439 21.6575C24.0056 23.5125 23.3742 24.3656 23.3346 24.4177C23.2328 24.5523 23.0747 24.6291 22.9097 24.6291ZM17.8315 19.8376C17.7817 19.3035 17.6943 18.7347 17.5522 18.1544L18.917 18.4C18.938 18.9309 18.9298 19.4888 18.9053 20.0306L17.8315 19.8376ZM18.6291 16.4656C18.7116 16.7103 18.774 16.9922 18.8199 17.2993L17.2089 17.0093C17.0407 16.4456 16.9567 15.8797 16.9406 15.329L18.4265 15.5963C18.4576 15.8584 18.5221 16.1474 18.6291 16.4656ZM18.4981 14.5259C18.5942 14.195 18.7516 13.9426 18.9132 13.7553C19.4052 13.1852 20.1131 13.0178 20.5953 13.1047C20.9933 13.1763 22.1258 13.5294 22.3563 15.2195L24.1034 15.5337C23.6626 12.2031 21.6383 10.4124 20.4332 10.205C19.5646 10.0552 18.7058 10.5102 18.0318 11.4556C17.535 12.1529 17.1356 13.1428 16.9935 14.2553L18.4981 14.5259ZM24.1403 17.9388C24.182 17.4834 24.1964 17.0478 24.187 16.632L22.3808 16.3072C22.3777 16.3503 22.3741 16.3941 22.3701 16.4384C22.3412 16.7541 22.2851 17.2801 22.215 17.9103L24.1094 18.2513C24.1203 18.1487 24.1306 18.0445 24.1403 17.9388ZM22.0949 18.972L23.97 19.3096C23.8769 19.8955 23.7662 20.4192 23.6477 20.8833L21.9098 20.571C21.9719 20.0397 22.0354 19.4928 22.0949 18.972ZM21.1022 18.2664C21.1001 18.2804 21.0985 18.2943 21.0975 18.3082C20.9086 19.978 20.654 22.125 20.5346 23.1269L19.7083 22.9783C19.8881 21.6332 20.281 18.0301 19.6395 16.1255C19.3893 15.3819 19.4172 14.8033 19.7205 14.452C19.9372 14.2006 20.2509 14.1257 20.4066 14.1543C21.0953 14.2779 21.4242 15.0751 21.3085 16.3414C21.2736 16.7234 21.1963 17.4332 21.1022 18.2664ZM23.3442 21.9119C23.0784 22.6969 22.8148 23.2202 22.6507 23.5075L21.5854 23.3159C21.6329 22.9183 21.7043 22.3186 21.7853 21.6318L23.3442 21.9119ZM17.7967 22.6344C17.8445 22.2367 17.8944 21.6423 17.8873 20.9308L18.8363 21.1014C18.7801 21.7856 18.7094 22.385 18.6566 22.7891L17.7967 22.6344ZM19.4294 30.4998C19.2255 30.4998 19.0203 30.4814 18.8183 30.4452C17.9145 30.2826 17.1283 29.7778 16.6043 29.0238C16.0806 28.2698 15.8815 27.357 16.044 26.4535L16.2607 25.245C16.2858 25.1062 16.3652 24.9825 16.4811 24.9018C16.5973 24.8207 16.7405 24.7906 16.8799 24.8146L20.5497 25.4748L20.6818 25.4986L20.6843 25.499L22.5955 25.8429C22.8849 25.8951 23.0776 26.172 23.0257 26.4617L22.809 27.6704C22.5145 29.3098 21.0928 30.4998 19.4294 30.4998ZM21.0176 26.6424L21.8825 26.7981L21.7597 27.482C21.5563 28.6128 20.5763 29.4337 19.4292 29.4337C19.2887 29.4337 19.1461 29.4209 19.0067 29.3956C18.3836 29.2837 17.8409 28.9353 17.4798 28.4154C17.1187 27.8954 16.9811 27.2656 17.0936 26.6422L17.2162 25.9583L18.0802 26.1138L17.9785 26.6801C17.9079 27.0724 17.9942 27.469 18.2218 27.7963C18.4494 28.1236 18.7909 28.3424 19.1821 28.4128C19.2703 28.4288 19.3599 28.437 19.4492 28.437C20.1717 28.437 20.7885 27.9197 20.9159 27.2081L21.0176 26.6424ZM19.9686 26.4536L19.8666 27.0196C19.8303 27.2227 19.6547 27.3707 19.4492 27.3707C19.4236 27.3707 19.398 27.3685 19.3713 27.3635C19.2594 27.3435 19.1624 27.2811 19.0974 27.1876C19.0326 27.0943 19.0078 26.9813 19.0281 26.8688L19.1296 26.3027L19.4973 26.3688L19.9686 26.4536Z" fill="white"/>
<path d="M6.15104 18.0701L6.20237 18.039L6.20236 18.039L6.15104 18.0701ZM6.64652 18.3257L6.65018 18.3856L6.65095 18.3855L6.64652 18.3257ZM8.94147 18.1555L8.93828 18.0956L8.93703 18.0957L8.94147 18.1555ZM8.96388 18.1538L8.95944 18.094L8.95818 18.0941L8.96388 18.1538ZM13.5332 17.815L13.5289 17.7552L13.5288 17.7552L13.5332 17.815ZM14.025 17.2364L14.0848 17.2311L14.0848 17.2311L14.025 17.2364ZM15.0791 11.0651L15.0334 11.0262L15.0278 11.0328L15.0243 11.0407L15.0791 11.0651ZM15.2 10.8003L15.1452 10.7757L15.1419 10.7832L15.1406 10.7913L15.2 10.8003ZM14.7803 2.58819L14.7297 2.62042L14.7297 2.62042L14.7803 2.58819ZM11.1737 0.508484L11.1777 0.568351L11.1778 0.568342L11.1737 0.508484ZM4.7454 10.3465L4.6854 10.3457L4.6854 10.3457L4.7454 10.3465ZM14.2931 10.2133L14.2975 10.2732L14.3341 10.2705L14.3483 10.2367L14.2931 10.2133ZM14.858 8.05326L14.9176 8.06039L14.9262 7.98805L14.8536 7.99343L14.858 8.05326ZM12.1523 10.3717L12.0939 10.3576L12.0746 10.4376L12.1567 10.4316L12.1523 10.3717ZM12.5201 9.25773L12.5747 9.28269L12.5747 9.28268L12.5201 9.25773ZM12.8764 8.20003L12.872 8.1402L12.8268 8.14355L12.8176 8.18795L12.8764 8.20003ZM13.8811 3.16148L13.8305 3.19371L13.8305 3.19372L13.8811 3.16148ZM14.9184 6.9798L14.9229 7.03963L14.9788 7.03549L14.9784 6.9794L14.9184 6.9798ZM11.2446 1.57219L11.2486 1.63206L11.2486 1.63206L11.2446 1.57219ZM6.12456 7.63129L6.06606 7.61795L6.04799 7.69714L6.129 7.69113L6.12456 7.63129ZM8.43923 7.45963L8.44367 7.51947L8.48784 7.51619L8.49772 7.47302L8.43923 7.45963ZM10.7086 5.18178L10.713 5.24161L10.7135 5.24157L10.7086 5.18178ZM12.5273 6.11621L12.4781 6.15048L12.4781 6.15051L12.5273 6.11621ZM12.9211 7.12774L12.8617 7.13632L12.8697 7.19171L12.9255 7.18758L12.9211 7.12774ZM9.41252 8.06L9.3535 8.04888L9.35311 8.0516L9.41252 8.06ZM9.41884 8.0167L9.35944 8.00776L9.35916 8.0105L9.41884 8.0167ZM9.35755 8.81903L9.29755 8.81827L9.29755 8.81828L9.35755 8.81903ZM9.36424 11.1277L9.3042 11.1282L9.30431 11.1305L9.36424 11.1277ZM9.3646 11.1697L9.30459 11.1678L9.30461 11.1702L9.3646 11.1697ZM9.43731 17.05L9.37732 17.0508L9.37826 17.1145L9.44175 17.1098L9.43731 17.05ZM10.6349 16.9612L10.6393 17.021L10.6966 17.0168L10.6948 16.9593L10.6349 16.9612ZM11.5502 8.81423L11.6048 8.83919L11.6048 8.83918L11.5502 8.81423ZM11.6521 6.72521L11.6028 6.75946L11.6028 6.75949L11.6521 6.72521ZM10.7872 6.24467L10.7916 6.30451L10.7919 6.30448L10.7872 6.24467ZM8.29949 8.53899L8.35943 8.54175L8.36254 8.47415L8.29506 8.47916L8.29949 8.53899ZM8.29173 8.80571L8.23173 8.80494L8.23173 8.80497L8.29173 8.80571ZM5.92945 8.71475L5.92501 8.65491L5.87646 8.65852L5.86998 8.70677L5.92945 8.71475ZM5.8115 10.3603L5.7515 10.3596L5.8115 10.3603ZM5.80975 10.8413L5.74975 10.8417L5.75011 10.9059L5.81417 10.9012L5.80975 10.8413ZM8.29446 10.6577L8.29888 10.7176L8.35486 10.7134L8.35445 10.6573L8.29446 10.6577ZM8.30365 11.726L8.36365 11.7255L8.36303 11.6615L8.29923 11.6662L8.30365 11.726ZM5.83846 11.9082L5.83404 11.8483L5.77567 11.8526L5.77853 11.9111L5.83846 11.9082ZM8.3274 13.8416L8.33184 13.9014L8.3881 13.8973L8.3874 13.8408L8.3274 13.8416ZM6.04497 14.0108L5.98565 14.0199L5.994 14.0748L6.0494 14.0707L6.04497 14.0108ZM11.945 11.4561L11.9406 11.3962L11.8928 11.3998L11.8857 11.4472L11.945 11.4561ZM13.8252 11.3169L13.8814 11.3379L13.9141 11.2502L13.8208 11.2571L13.8252 11.3169ZM11.7379 13.589L11.678 13.5856L11.6742 13.6538L11.7423 13.6488L11.7379 13.589ZM13.2224 13.4791L13.2268 13.5389L13.2725 13.5355L13.2813 13.4905L13.2224 13.4791ZM12.9368 16.7905L12.9412 16.8503L12.9981 16.8461L12.9968 16.7891L12.9368 16.7905ZM11.7002 16.8822L11.6403 16.8839L11.6421 16.9467L11.7047 16.942L11.7002 16.8822ZM13.0517 14.5607L13.1113 14.568L13.1202 14.4955L13.0473 14.5009L13.0517 14.5607ZM11.6956 14.6611L11.6911 14.6013L11.6369 14.6053L11.6356 14.6596L11.6956 14.6611ZM8.37235 17.1289L8.37679 17.1888L8.43318 17.1846L8.43235 17.128L8.37235 17.1289ZM8.34114 14.9096L8.40113 14.9088L8.40029 14.845L8.3367 14.8497L8.34114 14.9096ZM6.92318 17.2364L6.86856 17.2612L6.88588 17.2993L6.92761 17.2962L6.92318 17.2364ZM6.23902 15.0655L6.23459 15.0056L6.16568 15.0107L6.1804 15.0782L6.23902 15.0655ZM6.38579 22.0266L6.44563 22.0222L6.44563 22.0222L6.38579 22.0266ZM6.27812 20.5698L6.33795 20.5654L6.33795 20.5653L6.27812 20.5698ZM6.77038 19.9989L6.77478 20.0587L6.77482 20.0587L6.77038 19.9989ZM9.07656 19.8281L9.081 19.8879H9.081L9.07656 19.8281ZM13.6571 19.4888L13.6615 19.5486L13.6621 19.5486L13.6571 19.4888ZM14.228 19.981L14.1682 19.9854L14.1682 19.9855L14.228 19.981ZM14.336 21.4379L14.2761 21.4423V21.4423L14.336 21.4379ZM10.6555 25.7073L10.6511 25.6475H10.6511L10.6555 25.7073ZM13.204 20.5916L13.2639 20.5872L13.2594 20.5274L13.1996 20.5318L13.204 20.5916ZM11.9617 20.6836L11.9573 20.6238L11.8975 20.6282L11.9019 20.6881L11.9617 20.6836ZM13.2728 21.517L13.3326 21.5126V21.5126L13.2728 21.517ZM10.5766 24.6444L10.5809 24.7043L10.5811 24.7043L10.5766 24.6444ZM7.44896 21.9482L7.5088 21.9438L7.5088 21.9438L7.44896 21.9482ZM7.38046 21.0229L7.37603 20.963L7.31619 20.9675L7.32062 21.0273L7.38046 21.0229ZM8.62354 20.9308L8.68338 20.9264L8.67896 20.8666L8.61911 20.871L8.62354 20.9308ZM8.6813 21.7132L8.62146 21.7176L8.62146 21.7176L8.6813 21.7132ZM10.4742 23.2591L10.4784 23.3189L10.4786 23.3189L10.4742 23.2591ZM12.0198 21.4659L11.96 21.4703L11.96 21.4703L12.0198 21.4659ZM10.8983 20.7624L10.9581 20.7579L10.9536 20.6981L10.8938 20.7025L10.8983 20.7624ZM9.68666 20.8521L9.68223 20.7923L9.62241 20.7967L9.62683 20.8565L9.68666 20.8521ZM10.9566 21.5448L11.0165 21.5403L11.0165 21.5403L10.9566 21.5448ZM10.3953 22.1959L10.3995 22.2557L10.3998 22.2557L10.3953 22.1959ZM9.74447 21.6346L9.68463 21.639L9.68463 21.639L9.74447 21.6346ZM22.8154 24.6208L22.8048 24.6799L22.8054 24.68L22.8154 24.6208ZM17.0998 23.5926L17.0891 23.6516L17.0891 23.6516L17.0998 23.5926ZM16.7543 23.3689L16.8038 23.335L16.8038 23.335L16.7543 23.3689ZM16.6709 22.9657L16.6121 22.9539L16.612 22.9543L16.6709 22.9657ZM16.3327 17.7605L16.3897 17.7419L16.3874 17.7347L16.3833 17.7282L16.3327 17.7605ZM16.2508 17.5166L16.3106 17.5118L16.31 17.5047L16.3078 17.4978L16.2508 17.5166ZM17.1637 10.8375L17.1149 10.8027L17.1149 10.8027L17.1637 10.8375ZM20.6142 9.15492L20.6039 9.21404L20.604 9.21405L20.6142 9.15492ZM25.2018 18.0363L25.2616 18.0418V18.0418L25.2018 18.0363ZM24.5522 21.6287L24.4946 21.6121L24.4942 21.6137L24.5522 21.6287ZM24.5439 21.6575L24.4868 21.6392L24.4863 21.6407L24.5439 21.6575ZM23.3346 24.4177L23.2868 24.3814L23.2867 24.3815L23.3346 24.4177ZM17.5522 18.1544L17.5628 18.0953L17.4719 18.079L17.4939 18.1687L17.5522 18.1544ZM17.8315 19.8376L17.7718 19.8432L17.776 19.8886L17.8209 19.8966L17.8315 19.8376ZM18.917 18.4L18.977 18.3977L18.9751 18.3495L18.9276 18.341L18.917 18.4ZM18.9053 20.0306L18.8947 20.0897L18.9621 20.1018L18.9652 20.0333L18.9053 20.0306ZM18.8199 17.2993L18.8093 17.3583L18.8916 17.3731L18.8792 17.2904L18.8199 17.2993ZM18.6291 16.4656L18.5723 16.4847L18.5723 16.4847L18.6291 16.4656ZM17.2089 17.0093L17.1514 17.0264L17.1619 17.0618L17.1982 17.0683L17.2089 17.0093ZM16.9406 15.329L16.9512 15.27L16.8785 15.2569L16.8806 15.3308L16.9406 15.329ZM18.4265 15.5963L18.4861 15.5893L18.4809 15.5451L18.4372 15.5373L18.4265 15.5963ZM18.4981 14.5259L18.4875 14.5849L18.5407 14.5945L18.5557 14.5426L18.4981 14.5259ZM18.9132 13.7553L18.8678 13.7161L18.8678 13.7161L18.9132 13.7553ZM20.5953 13.1047L20.5847 13.1637L20.5847 13.1637L20.5953 13.1047ZM22.3563 15.2195L22.2969 15.2276L22.3027 15.2708L22.3457 15.2785L22.3563 15.2195ZM24.1034 15.5337L24.0928 15.5928L24.1736 15.6073L24.1629 15.5258L24.1034 15.5337ZM20.4332 10.205L20.423 10.2642L20.423 10.2642L20.4332 10.205ZM18.0318 11.4556L17.9829 11.4207L17.9829 11.4207L18.0318 11.4556ZM16.9935 14.2553L16.934 14.2477L16.9268 14.3042L16.9829 14.3143L16.9935 14.2553ZM24.187 16.632L24.247 16.6307L24.2459 16.5817L24.1977 16.573L24.187 16.632ZM24.1403 17.9388L24.2 17.9443L24.2 17.9443L24.1403 17.9388ZM22.3808 16.3072L22.3915 16.2481L22.3258 16.2363L22.321 16.3028L22.3808 16.3072ZM22.3701 16.4384L22.4298 16.4439V16.4438L22.3701 16.4384ZM22.215 17.9103L22.1553 17.9037L22.1491 17.9594L22.2043 17.9694L22.215 17.9103ZM24.1094 18.2513L24.0988 18.3104L24.1623 18.3218L24.1691 18.2577L24.1094 18.2513ZM23.97 19.3096L24.0292 19.319L24.0384 19.2609L23.9806 19.2505L23.97 19.3096ZM22.0949 18.972L22.1056 18.913L22.0426 18.9017L22.0353 18.9652L22.0949 18.972ZM23.6477 20.8833L23.6371 20.9424L23.692 20.9522L23.7058 20.8981L23.6477 20.8833ZM21.9098 20.571L21.8502 20.5641L21.8437 20.6201L21.8992 20.6301L21.9098 20.571ZM21.0975 18.3082L21.1571 18.3149L21.1573 18.3125L21.0975 18.3082ZM21.1022 18.2664L21.1616 18.2755L21.1618 18.2732L21.1022 18.2664ZM20.5346 23.1269L20.524 23.186L20.5867 23.1972L20.5942 23.134L20.5346 23.1269ZM19.7083 22.9783L19.6488 22.9703L19.6412 23.0272L19.6976 23.0373L19.7083 22.9783ZM19.6395 16.1255L19.5827 16.1446L19.5827 16.1446L19.6395 16.1255ZM19.7205 14.452L19.766 14.4912L19.766 14.4912L19.7205 14.452ZM20.4066 14.1543L20.3958 14.2133L20.396 14.2133L20.4066 14.1543ZM21.3085 16.3414L21.3683 16.3468L21.3683 16.3468L21.3085 16.3414ZM22.6507 23.5075L22.64 23.5666L22.6817 23.5741L22.7028 23.5373L22.6507 23.5075ZM23.3442 21.9119L23.401 21.9312L23.4234 21.8652L23.3548 21.8529L23.3442 21.9119ZM21.5854 23.3159L21.5259 23.3088L21.5192 23.365L21.5748 23.375L21.5854 23.3159ZM21.7853 21.6318L21.7959 21.5728L21.7332 21.5615L21.7257 21.6248L21.7853 21.6318ZM17.8873 20.9308L17.8979 20.8717L17.8266 20.8589L17.8273 20.9314L17.8873 20.9308ZM17.7967 22.6344L17.7371 22.6273L17.7304 22.6834L17.7861 22.6935L17.7967 22.6344ZM18.8363 21.1014L18.8961 21.1063L18.9005 21.052L18.8469 21.0423L18.8363 21.1014ZM18.6566 22.7891L18.646 22.8481L18.708 22.8593L18.7161 22.7969L18.6566 22.7891ZM18.8183 30.4452L18.8077 30.5042L18.8077 30.5043L18.8183 30.4452ZM16.6043 29.0238L16.555 29.0581L16.555 29.0581L16.6043 29.0238ZM16.044 26.4535L16.1031 26.4641L16.1031 26.464L16.044 26.4535ZM16.2607 25.245L16.2017 25.2344L16.2017 25.2344L16.2607 25.245ZM16.4811 24.9018L16.5154 24.951L16.5154 24.951L16.4811 24.9018ZM16.8799 24.8146L16.8905 24.7555L16.89 24.7555L16.8799 24.8146ZM20.5497 25.4748L20.539 25.5339L20.539 25.5339L20.5497 25.4748ZM20.6818 25.4986L20.6927 25.4396L20.6925 25.4395L20.6818 25.4986ZM20.6843 25.499L20.6734 25.558L20.6736 25.5581L20.6843 25.499ZM22.5955 25.8429L22.6061 25.7838L22.6061 25.7838L22.5955 25.8429ZM23.0257 26.4617L22.9666 26.4511L22.9666 26.4511L23.0257 26.4617ZM22.809 27.6704L22.868 27.681L22.868 27.681L22.809 27.6704ZM21.8825 26.7981L21.9416 26.8087L21.9522 26.7497L21.8932 26.739L21.8825 26.7981ZM21.0176 26.6424L21.0283 26.5834L20.9692 26.5727L20.9586 26.6318L21.0176 26.6424ZM21.7597 27.482L21.8187 27.4926L21.8187 27.4926L21.7597 27.482ZM19.0067 29.3956L19.0174 29.3366L19.0173 29.3366L19.0067 29.3956ZM17.4798 28.4154L17.5291 28.3811V28.3811L17.4798 28.4154ZM17.0936 26.6422L17.1527 26.6528L17.1527 26.6527L17.0936 26.6422ZM17.2162 25.9583L17.2268 25.8992L17.1678 25.8886L17.1572 25.9477L17.2162 25.9583ZM18.0802 26.1138L18.1393 26.1244L18.1499 26.0653L18.0908 26.0547L18.0802 26.1138ZM17.9785 26.6801L18.0375 26.6907L18.0376 26.6907L17.9785 26.6801ZM18.2218 27.7963L18.1726 27.8306L18.2218 27.7963ZM19.1821 28.4128L19.1928 28.3537L19.1927 28.3537L19.1821 28.4128ZM20.9159 27.2081L20.8568 27.1974L20.8568 27.1975L20.9159 27.2081ZM19.8666 27.0196L19.8075 27.009L19.8075 27.0091L19.8666 27.0196ZM19.9686 26.4536L20.0277 26.4643L20.0383 26.4052L19.9792 26.3946L19.9686 26.4536ZM19.3713 27.3635L19.3825 27.3045L19.3819 27.3044L19.3713 27.3635ZM19.0974 27.1876L19.0481 27.2218L19.0481 27.2218L19.0974 27.1876ZM19.0281 26.8688L19.0871 26.8794L19.0871 26.8794L19.0281 26.8688ZM19.1296 26.3027L19.1402 26.2436L19.0812 26.233L19.0706 26.2921L19.1296 26.3027ZM19.4973 26.3688L19.5079 26.3097L19.5079 26.3097L19.4973 26.3688ZM6.60707 18.267C6.44244 18.267 6.28845 18.1811 6.20237 18.039L6.09972 18.1012C6.20767 18.2794 6.4007 18.387 6.60707 18.387V18.267ZM6.64285 18.2658C6.6306 18.2665 6.61855 18.267 6.60707 18.267V18.387C6.62171 18.387 6.63632 18.3864 6.65018 18.3856L6.64285 18.2658ZM8.93703 18.0957L6.64208 18.2658L6.65095 18.3855L8.94591 18.2153L8.93703 18.0957ZM8.95818 18.0941C8.9516 18.0947 8.94497 18.0952 8.93828 18.0956L8.94467 18.2154C8.953 18.215 8.9613 18.2144 8.96957 18.2136L8.95818 18.0941ZM13.5288 17.7552L8.95944 18.094L8.96831 18.2137L13.5377 17.8748L13.5288 17.7552ZM13.8545 17.5899C13.7725 17.6866 13.6552 17.7459 13.5289 17.7552L13.5376 17.8748C13.6959 17.8633 13.8431 17.7889 13.946 17.6675L13.8545 17.5899ZM13.9652 17.2416C13.9763 17.3677 13.9366 17.4931 13.8545 17.5899L13.946 17.6675C14.0489 17.5463 14.0987 17.3891 14.0848 17.2311L13.9652 17.2416ZM15.0243 11.0407C13.6972 14.0194 13.9621 17.2067 13.9652 17.2417L14.0848 17.2311C14.0821 17.2011 13.8198 14.0393 15.1339 11.0895L15.0243 11.0407ZM15.1406 10.7913C15.1273 10.8795 15.0893 10.9604 15.0334 11.0262L15.1248 11.104C15.1948 11.0216 15.2425 10.9201 15.2593 10.8093L15.1406 10.7913ZM14.7297 2.62042C16.1437 4.84007 16.3115 8.17843 15.1452 10.7757L15.2547 10.8249C16.4358 8.19443 16.2687 4.81296 14.8309 2.55595L14.7297 2.62042ZM11.1778 0.568342C12.5693 0.472391 13.8302 1.20804 14.7297 2.62042L14.8309 2.55596C13.9138 1.11599 12.6151 0.348948 11.1696 0.448626L11.1778 0.568342ZM4.80539 10.3472C4.88932 3.71591 9.01617 0.712628 11.1777 0.568351L11.1697 0.448617C8.93093 0.598051 4.76992 3.66783 4.6854 10.3457L4.80539 10.3472ZM6.20236 18.039C6.1477 17.9488 4.73971 15.5666 4.80539 10.3472L4.6854 10.3457C4.61942 15.5885 6.03392 17.9926 6.09973 18.1012L6.20236 18.039ZM14.3483 10.2367C14.6387 9.54949 14.8278 8.81029 14.9176 8.06039L14.7984 8.04613C14.7099 8.78568 14.5235 9.51387 14.2378 10.19L14.3483 10.2367ZM12.1567 10.4316L14.2975 10.2732L14.2886 10.1535L12.1478 10.3119L12.1567 10.4316ZM12.4656 9.23277C12.3175 9.55645 12.1951 9.93885 12.0939 10.3576L12.2106 10.3858C12.3106 9.97174 12.4308 9.5972 12.5747 9.28269L12.4656 9.23277ZM12.8176 8.18795C12.7529 8.50259 12.6405 8.85021 12.4656 9.23279L12.5747 9.28268C12.7529 8.89281 12.8685 8.53658 12.9352 8.21212L12.8176 8.18795ZM14.8536 7.99343L12.872 8.1402L12.8808 8.25987L14.8624 8.1131L14.8536 7.99343ZM13.8305 3.19372C14.502 4.24777 14.8493 5.59776 14.8584 6.98019L14.9784 6.9794C14.9692 5.57879 14.6175 4.20573 13.9317 3.12924L13.8305 3.19372ZM11.4091 1.6266C12.3215 1.6266 13.1829 2.17667 13.8305 3.19371L13.9317 3.12926C13.2695 2.08925 12.3746 1.5066 11.4091 1.5066V1.6266ZM11.2486 1.63206C11.3028 1.62841 11.3558 1.6266 11.4091 1.6266V1.5066C11.353 1.5066 11.2973 1.50851 11.2406 1.51233L11.2486 1.63206ZM6.18306 7.64464C6.63973 5.64325 7.5409 4.1634 8.51147 3.17216C9.48377 2.17916 10.5212 1.68065 11.2486 1.63206L11.2406 1.51233C10.4738 1.56355 9.41037 2.0826 8.42573 3.0882C7.43936 4.09557 6.52758 5.59536 6.06606 7.61795L6.18306 7.64464ZM8.4348 7.3998L6.12012 7.57146L6.129 7.69113L8.44367 7.51947L8.4348 7.3998ZM10.7041 5.12194C10.4643 5.13975 9.998 5.21893 9.53358 5.54617C9.06783 5.87434 8.60919 6.44835 8.38075 7.44624L8.49772 7.47302C8.72009 6.50167 9.16303 5.95405 9.6027 5.64426C10.0437 5.33353 10.4867 5.25841 10.713 5.24161L10.7041 5.12194ZM12.5766 6.08194C12.0751 5.36128 11.2755 5.07439 10.7036 5.12198L10.7135 5.24157C11.2434 5.19748 12.0014 5.46548 12.4781 6.15048L12.5766 6.08194ZM12.9805 7.11916C12.9169 6.67937 12.7544 6.33719 12.5766 6.08191L12.4781 6.15051C12.6466 6.39234 12.8011 6.71717 12.8617 7.13632L12.9805 7.11916ZM14.914 6.91996L12.9167 7.06791L12.9255 7.18758L14.9229 7.03963L14.914 6.91996ZM9.47148 8.07111C9.47447 8.05524 9.47683 8.03916 9.47852 8.02291L9.35916 8.0105C9.35781 8.02345 9.35594 8.03625 9.35356 8.04889L9.47148 8.07111ZM9.41754 8.8198C9.42098 8.54956 9.43938 8.29871 9.47193 8.06839L9.35311 8.0516C9.31976 8.2876 9.30105 8.5436 9.29755 8.81827L9.41754 8.8198ZM9.42424 11.1272C9.41564 10.1273 9.41184 9.27631 9.41754 8.81978L9.29755 8.81828C9.29183 9.27629 9.29564 10.1286 9.30424 11.1282L9.42424 11.1272ZM9.42458 11.1715C9.42505 11.1561 9.42492 11.1405 9.42417 11.1248L9.30431 11.1305C9.30491 11.1431 9.30501 11.1555 9.30463 11.1678L9.42458 11.1715ZM9.49731 17.0491C9.4804 15.9008 9.44253 13.2301 9.4246 11.1692L9.30461 11.1702C9.32254 13.2315 9.36041 15.9025 9.37732 17.0508L9.49731 17.0491ZM10.6304 16.9013L9.43288 16.9901L9.44175 17.1098L10.6393 17.021L10.6304 16.9013ZM11.4957 8.78928C10.988 9.89951 10.7467 11.5649 10.6376 13.137C10.5283 14.7112 10.5509 16.2004 10.5749 16.9631L10.6948 16.9593C10.6709 16.1986 10.6484 14.7139 10.7573 13.1453C10.8664 11.5745 11.1068 9.9281 11.6048 8.83919L11.4957 8.78928ZM11.6028 6.75949C11.9212 7.21693 11.8963 7.9129 11.4957 8.78929L11.6048 8.83918C12.0112 7.95011 12.0567 7.20151 11.7013 6.69093L11.6028 6.75949ZM10.7919 6.30448C10.8749 6.2979 11.015 6.32041 11.1675 6.39194C11.3187 6.4629 11.4783 6.58041 11.6028 6.75946L11.7013 6.69096C11.5633 6.49234 11.3861 6.36199 11.2184 6.2833C11.0519 6.20518 10.8909 6.17625 10.7824 6.18486L10.7919 6.30448ZM9.47817 8.02564C9.5589 7.48962 9.71722 7.07086 9.94002 6.78085C10.1616 6.49242 10.4477 6.32999 10.7916 6.30451L10.7828 6.18483C10.4019 6.21305 10.0854 6.3946 9.84486 6.70774C9.6055 7.01931 9.44205 7.45972 9.35951 8.00777L9.47817 8.02564ZM8.23956 8.53624C8.23554 8.62357 8.23291 8.71312 8.23173 8.80494L8.35172 8.80648C8.35288 8.71595 8.35548 8.62773 8.35943 8.54175L8.23956 8.53624ZM5.93389 8.77459L8.30393 8.59883L8.29506 8.47916L5.92501 8.65491L5.93389 8.77459ZM5.87149 10.3611C5.87879 9.78508 5.9196 9.23911 5.98892 8.72273L5.86998 8.70677C5.80001 9.22806 5.75886 9.77885 5.7515 10.3596L5.87149 10.3611ZM5.86975 10.841C5.86888 10.684 5.86943 10.524 5.87149 10.3611L5.7515 10.3596C5.74943 10.5232 5.74888 10.6839 5.74975 10.8417L5.86975 10.841ZM8.29003 10.5979L5.80533 10.7815L5.81417 10.9012L8.29888 10.7176L8.29003 10.5979ZM8.23173 8.80497C8.22687 9.19767 8.22871 9.8633 8.23446 10.6582L8.35445 10.6573C8.3487 9.86235 8.34687 9.19782 8.35172 8.80645L8.23173 8.80497ZM8.29923 11.6662L5.83404 11.8483L5.84288 11.968L8.30807 11.7859L8.29923 11.6662ZM8.3874 13.8408C8.37869 13.1389 8.37034 12.4111 8.36365 11.7255L8.24366 11.7266C8.25034 12.4124 8.2587 13.1403 8.26741 13.8423L8.3874 13.8408ZM6.0494 14.0707L8.33184 13.9014L8.32297 13.7818L6.04053 13.951L6.0494 14.0707ZM5.77853 11.9111C5.81721 12.7 5.89166 13.402 5.98565 14.0199L6.10428 14.0018C6.01091 13.3881 5.93687 12.69 5.89839 11.9052L5.77853 11.9111ZM11.9495 11.5159L13.8296 11.3768L13.8208 11.2571L11.9406 11.3962L11.9495 11.5159ZM11.7978 13.5923C11.837 12.8841 11.9016 12.1517 12.0044 11.4649L11.8857 11.4472C11.7822 12.1387 11.7173 12.875 11.678 13.5856L11.7978 13.5923ZM13.218 13.4192L11.7335 13.5291L11.7423 13.6488L13.2268 13.5389L13.218 13.4192ZM13.769 11.296C13.4916 12.0394 13.2979 12.7769 13.1635 13.4676L13.2813 13.4905C13.4146 12.8052 13.6067 12.0742 13.8814 11.3379L13.769 11.296ZM12.9323 16.7307L11.6958 16.8223L11.7047 16.942L12.9412 16.8503L12.9323 16.7307ZM12.9922 14.5534C12.876 15.5045 12.8655 16.2979 12.8768 16.7919L12.9968 16.7891C12.9856 16.2996 12.9959 15.5122 13.1113 14.568L12.9922 14.5534ZM11.7 14.7209L13.0562 14.6205L13.0473 14.5009L11.6911 14.6013L11.7 14.7209ZM11.7602 16.8805C11.7459 16.3809 11.7329 15.58 11.7555 14.6626L11.6356 14.6596C11.6129 15.5797 11.6259 16.3828 11.6403 16.8839L11.7602 16.8805ZM8.43235 17.128C8.42505 16.6363 8.41342 15.8333 8.40113 14.9088L8.28115 14.9104C8.29343 15.835 8.30506 16.6381 8.31236 17.1298L8.43235 17.128ZM6.92761 17.2962L8.37679 17.1888L8.36792 17.0691L6.91874 17.1765L6.92761 17.2962ZM6.1804 15.0782C6.41963 16.1749 6.70172 16.8944 6.86856 17.2612L6.97779 17.2115C6.81435 16.8522 6.535 16.1408 6.29765 15.0527L6.1804 15.0782ZM8.3367 14.8497L6.23459 15.0056L6.24346 15.1253L8.34558 14.9694L8.3367 14.8497ZM6.32595 22.031C6.48125 24.1327 8.25225 25.7785 10.3575 25.7785V25.6585C8.31517 25.6585 6.5963 24.0613 6.44563 22.0222L6.32595 22.031ZM6.21828 20.5742L6.32595 22.031L6.44563 22.0222L6.33795 20.5654L6.21828 20.5742ZM6.76599 19.9391C6.43921 19.9631 6.19397 20.2475 6.21828 20.5742L6.33795 20.5653C6.31856 20.3047 6.51414 20.0779 6.77478 20.0587L6.76599 19.9391ZM9.07213 19.7682L6.76595 19.9391L6.77482 20.0587L9.081 19.8879L9.07213 19.7682ZM13.6527 19.4289L9.07213 19.7682L9.081 19.8879L13.6615 19.5486L13.6527 19.4289ZM14.2879 19.9766C14.2639 19.6498 13.9757 19.4022 13.6522 19.429L13.6621 19.5486C13.9184 19.5274 14.149 19.7244 14.1682 19.9854L14.2879 19.9766ZM14.3958 21.4334L14.2879 19.9766L14.1682 19.9855L14.2761 21.4423L14.3958 21.4334ZM10.66 25.7671C12.8852 25.6013 14.5608 23.6576 14.3958 21.4334L14.2761 21.4423C14.4362 23.6003 12.8102 25.4866 10.6511 25.6475L10.66 25.7671ZM10.3575 25.7785C10.4577 25.7785 10.5586 25.7747 10.66 25.7671L10.6511 25.6475C10.5526 25.6548 10.4546 25.6585 10.3575 25.6585V25.7785ZM13.1996 20.5318L11.9573 20.6238L11.9662 20.7435L13.2085 20.6515L13.1996 20.5318ZM13.3326 21.5126L13.2639 20.5872L13.1442 20.5961L13.213 21.5215L13.3326 21.5126ZM10.5811 24.7043C12.2196 24.5821 13.4542 23.1504 13.3326 21.5126L13.213 21.5215C13.3296 23.0931 12.1447 24.4674 10.5722 24.5846L10.5811 24.7043ZM7.38912 21.9527C7.5091 23.5743 8.93535 24.821 10.5809 24.7043L10.5724 24.5846C8.99295 24.6966 7.6239 23.4997 7.5088 21.9438L7.38912 21.9527ZM7.32062 21.0273L7.38912 21.9527L7.5088 21.9438L7.4403 21.0184L7.32062 21.0273ZM8.61911 20.871L7.37603 20.963L7.38489 21.0827L8.62797 20.9907L8.61911 20.871ZM8.74114 21.7088L8.68338 20.9264L8.56371 20.9352L8.62146 21.7176L8.74114 21.7088ZM10.3495 23.2036C9.50967 23.2036 8.80306 22.5469 8.74114 21.7088L8.62146 21.7176C8.68801 22.6183 9.44676 23.3236 10.3495 23.3236V23.2036ZM10.47 23.1992C10.4294 23.202 10.389 23.2036 10.3495 23.2036V23.3236C10.3921 23.3236 10.4353 23.3219 10.4784 23.3189L10.47 23.1992ZM11.96 21.4703C12.026 22.3578 11.3571 23.1334 10.4698 23.1992L10.4786 23.3189C11.432 23.2482 12.1506 22.4151 12.0796 21.4614L11.96 21.4703ZM11.9019 20.6881L11.96 21.4703L12.0796 21.4614L12.0216 20.6792L11.9019 20.6881ZM10.8938 20.7025L9.68223 20.7923L9.69109 20.9119L10.9027 20.8222L10.8938 20.7025ZM11.0165 21.5403L10.9581 20.7579L10.8384 20.7668L10.8968 21.5492L11.0165 21.5403ZM10.3998 22.2557C10.767 22.2282 11.0437 21.9077 11.0165 21.5403L10.8968 21.5492C10.9191 21.8503 10.6921 22.1135 10.3908 22.1361L10.3998 22.2557ZM9.68463 21.639C9.7116 22.0027 10.0302 22.2812 10.3995 22.2557L10.3912 22.136C10.0878 22.1569 9.82639 21.928 9.80431 21.6301L9.68463 21.639ZM9.62683 20.8565L9.68463 21.639L9.80431 21.6302L9.7465 20.8477L9.62683 20.8565ZM22.8054 24.68C22.8397 24.6858 22.8748 24.6891 22.9097 24.6891V24.5691C22.8823 24.5691 22.8539 24.5665 22.8254 24.5617L22.8054 24.68ZM17.0891 23.6516L22.8048 24.6799L22.826 24.5618L17.1104 23.5335L17.0891 23.6516ZM16.7049 23.4029C16.7947 23.5339 16.9331 23.6234 17.0891 23.6516L17.1104 23.5335C16.986 23.511 16.8755 23.4396 16.8038 23.335L16.7049 23.4029ZM16.612 22.9543C16.5818 23.1101 16.615 23.2717 16.7049 23.4029L16.8038 23.335C16.7322 23.2305 16.7057 23.1016 16.7298 22.9771L16.612 22.9543ZM16.2756 17.779C16.689 19.0518 16.7746 20.3393 16.7559 21.3131C16.7465 21.7997 16.7111 22.2073 16.6777 22.4948C16.661 22.6385 16.6449 22.7521 16.6327 22.8304C16.6267 22.8696 16.6216 22.9 16.618 22.9209C16.6162 22.9313 16.6148 22.9394 16.6137 22.945C16.6132 22.9478 16.6128 22.95 16.6125 22.9516C16.6122 22.9532 16.6121 22.9539 16.6121 22.9539L16.7298 22.9775C16.7356 22.9484 17.2269 20.3194 16.3897 17.7419L16.2756 17.779ZM16.191 17.5213C16.1987 17.6194 16.2308 17.7123 16.2821 17.7927L16.3833 17.7282C16.3423 17.664 16.3168 17.5899 16.3106 17.5118L16.191 17.5213ZM17.1149 10.8027C15.8247 12.6132 15.4606 15.3042 16.1938 17.5353L16.3078 17.4978C15.5856 15.3004 15.9461 12.6496 17.2126 10.8723L17.1149 10.8027ZM20.6244 9.0958C19.3233 8.87046 18.0409 9.50388 17.1149 10.8027L17.2126 10.8723C18.1192 9.60073 19.3597 8.99854 20.6039 9.21404L20.6244 9.0958ZM25.2616 18.0418C25.7795 12.3878 22.5162 9.4208 20.6243 9.09578L20.604 9.21405C22.42 9.52602 25.6557 12.4237 25.1421 18.0308L25.2616 18.0418ZM24.6099 21.6453C24.8807 20.7053 25.1268 19.5126 25.2616 18.0418L25.1421 18.0308C25.008 19.4943 24.7632 20.6795 24.4946 21.6121L24.6099 21.6453ZM24.6011 21.6757C24.6044 21.6652 24.6075 21.6546 24.6103 21.6438L24.4942 21.6137C24.4919 21.6223 24.4895 21.6308 24.4868 21.6392L24.6011 21.6757ZM23.3824 24.454C23.4262 24.3963 24.061 23.5367 24.6015 21.6742L24.4863 21.6407C23.9501 23.4883 23.3222 24.3348 23.2868 24.3814L23.3824 24.454ZM22.9097 24.6891C23.0933 24.6891 23.2691 24.6037 23.3824 24.4539L23.2867 24.3815C23.1964 24.5009 23.0561 24.5691 22.9097 24.5691V24.6891ZM17.4939 18.1687C17.6353 18.7457 17.7222 19.3116 17.7718 19.8432L17.8913 19.832C17.8412 19.2954 17.7534 18.7236 17.6104 18.1401L17.4939 18.1687ZM18.9276 18.341L17.5628 18.0953L17.5415 18.2134L18.9064 18.4591L18.9276 18.341ZM18.9652 20.0333C18.9898 19.4903 18.998 18.9307 18.977 18.3977L18.8571 18.4024C18.8779 18.9311 18.8698 19.4872 18.8453 20.0279L18.9652 20.0333ZM17.8209 19.8966L18.8947 20.0897L18.9159 19.9716L17.8422 19.7785L17.8209 19.8966ZM18.8792 17.2904C18.833 16.981 18.7699 16.6955 18.686 16.4464L18.5723 16.4847C18.6533 16.7252 18.715 17.0035 18.7606 17.3081L18.8792 17.2904ZM17.1982 17.0683L18.8093 17.3583L18.8305 17.2402L17.2195 16.9502L17.1982 17.0683ZM16.8806 15.3308C16.8969 15.8863 16.9816 16.4574 17.1514 17.0264L17.2664 16.9921C17.0997 16.4338 17.0166 15.873 17.0006 15.3273L16.8806 15.3308ZM18.4372 15.5373L16.9512 15.27L16.93 15.3881L18.4159 15.6554L18.4372 15.5373ZM18.686 16.4464C18.5801 16.1318 18.5167 15.8468 18.4861 15.5893L18.367 15.6034C18.3986 15.87 18.464 16.1631 18.5723 16.4847L18.686 16.4464ZM18.5557 14.5426C18.6491 14.221 18.802 13.9761 18.9587 13.7945L18.8678 13.7161C18.7013 13.9091 18.5393 14.169 18.4405 14.5092L18.5557 14.5426ZM18.9587 13.7945C19.4362 13.2412 20.1224 13.0804 20.5847 13.1637L20.6059 13.0456C20.1039 12.9552 19.3743 13.1292 18.8678 13.7161L18.9587 13.7945ZM20.5847 13.1637C20.7772 13.1984 21.1487 13.3015 21.4997 13.6008C21.8495 13.8992 22.1835 14.3963 22.2969 15.2276L22.4158 15.2114C22.2986 14.3527 21.9512 13.8282 21.5776 13.5095C21.2052 13.192 20.8115 13.0826 20.6059 13.0456L20.5847 13.1637ZM22.3457 15.2785L24.0928 15.5928L24.114 15.4746L22.3669 15.1604L22.3457 15.2785ZM24.1629 15.5258C23.9411 13.8499 23.3205 12.5593 22.6017 11.6607C21.8845 10.7639 21.0653 10.2529 20.4434 10.1459L20.423 10.2642C21.0061 10.3645 21.8017 10.8525 22.508 11.7356C23.2129 12.6168 23.8249 13.8869 24.0439 15.5416L24.1629 15.5258ZM20.4434 10.1459C19.5442 9.99083 18.665 10.4642 17.9829 11.4207L18.0807 11.4904C18.7467 10.5562 19.585 10.1196 20.423 10.2642L20.4434 10.1459ZM17.9829 11.4207C17.4799 12.1268 17.0772 13.1262 16.934 14.2477L17.053 14.2629C17.1939 13.1593 17.5901 12.1789 18.0807 11.4904L17.9829 11.4207ZM16.9829 14.3143L18.4875 14.5849L18.5087 14.4668L17.0041 14.1962L16.9829 14.3143ZM24.127 16.6334C24.1364 17.0468 24.122 17.4801 24.0805 17.9333L24.2 17.9443C24.2419 17.4866 24.2564 17.0487 24.247 16.6307L24.127 16.6334ZM22.3702 16.3662L24.1764 16.6911L24.1977 16.573L22.3915 16.2481L22.3702 16.3662ZM22.4298 16.4438C22.4339 16.3992 22.4375 16.3551 22.4407 16.3115L22.321 16.3028C22.3179 16.3456 22.3143 16.389 22.3103 16.4329L22.4298 16.4438ZM22.2746 17.917C22.3447 17.2867 22.4009 16.7602 22.4298 16.4439L22.3103 16.4329C22.2815 16.748 22.2255 17.2734 22.1553 17.9037L22.2746 17.917ZM24.12 18.1923L22.2256 17.8513L22.2043 17.9694L24.0988 18.3104L24.12 18.1923ZM24.0805 17.9333C24.0709 18.0388 24.0606 18.1427 24.0497 18.245L24.1691 18.2577C24.18 18.1547 24.1903 18.0503 24.2 17.9443L24.0805 17.9333ZM23.9806 19.2505L22.1056 18.913L22.0843 19.0311L23.9593 19.3686L23.9806 19.2505ZM23.7058 20.8981C23.8248 20.4322 23.9359 19.9067 24.0292 19.319L23.9107 19.3002C23.818 19.8842 23.7076 20.4061 23.5896 20.8685L23.7058 20.8981ZM21.8992 20.6301L23.6371 20.9424L23.6583 20.8242L21.9205 20.512L21.8992 20.6301ZM22.0353 18.9652C21.9758 19.4859 21.9123 20.0328 21.8502 20.5641L21.9694 20.578C22.0315 20.0467 22.095 19.4997 22.1546 18.9789L22.0353 18.9652ZM21.1573 18.3125C21.1582 18.3003 21.1596 18.2879 21.1615 18.2755L21.0429 18.2574C21.0405 18.2729 21.0388 18.2883 21.0376 18.3038L21.1573 18.3125ZM20.5942 23.134C20.7136 22.1321 20.9682 19.9849 21.1571 18.3149L21.0379 18.3014C20.849 19.9711 20.5944 22.1179 20.475 23.1198L20.5942 23.134ZM19.6976 23.0373L20.524 23.186L20.5452 23.0679L19.7189 22.9192L19.6976 23.0373ZM19.5827 16.1446C19.8997 17.086 19.9624 18.4536 19.9219 19.7598C19.8815 21.064 19.7386 22.2988 19.6488 22.9703L19.7677 22.9862C19.8578 22.3126 20.0012 21.0734 20.0418 19.7635C20.0824 18.4558 20.0208 17.0696 19.6964 16.1063L19.5827 16.1446ZM19.6751 14.4128C19.3504 14.7889 19.3304 15.3952 19.5827 16.1446L19.6964 16.1063C19.4481 15.3686 19.4841 14.8176 19.766 14.4912L19.6751 14.4128ZM20.4174 14.0952C20.326 14.0785 20.1974 14.0928 20.0655 14.142C19.9323 14.1916 19.7909 14.2785 19.6751 14.4128L19.766 14.4912C19.8669 14.3741 19.9906 14.2979 20.1074 14.2544C20.2254 14.2104 20.3315 14.2015 20.3958 14.2133L20.4174 14.0952ZM21.3683 16.3468C21.4265 15.7087 21.3736 15.1819 21.2147 14.7965C21.0547 14.4087 20.7858 14.1614 20.4172 14.0952L20.396 14.2133C20.7161 14.2708 20.9559 14.4839 21.1037 14.8422C21.2524 15.2028 21.3061 15.7078 21.2488 16.3359L21.3683 16.3468ZM21.1618 18.2732C21.256 17.4401 21.3332 16.7296 21.3683 16.3468L21.2488 16.3359C21.2139 16.7172 21.1367 17.4264 21.0426 18.2597L21.1618 18.2732ZM22.7028 23.5373C22.8688 23.2467 23.1339 22.7199 23.401 21.9312L23.2874 21.8927C23.0228 22.6739 22.7609 23.1937 22.5986 23.4778L22.7028 23.5373ZM21.5748 23.375L22.64 23.5666L22.6613 23.4485L21.5961 23.2569L21.5748 23.375ZM21.7257 21.6248C21.6447 22.3116 21.5733 22.9113 21.5259 23.3088L21.645 23.323C21.6925 22.9254 21.7639 22.3257 21.8449 21.6388L21.7257 21.6248ZM23.3548 21.8529L21.7959 21.5728L21.7747 21.6909L23.3336 21.971L23.3548 21.8529ZM17.8273 20.9314C17.8344 21.6398 17.7847 22.2316 17.7371 22.6273L17.8563 22.6416C17.9043 22.2418 17.9544 21.6447 17.9473 20.9302L17.8273 20.9314ZM18.8469 21.0423L17.8979 20.8717L17.8767 20.9899L18.8257 21.1605L18.8469 21.0423ZM18.7161 22.7969C18.769 22.392 18.8398 21.7917 18.8961 21.1063L18.7765 21.0965C18.7204 21.7795 18.6498 22.3779 18.5971 22.7813L18.7161 22.7969ZM17.7861 22.6935L18.646 22.8481L18.6673 22.73L17.8073 22.5754L17.7861 22.6935ZM18.8077 30.5043C19.0132 30.5411 19.2219 30.5598 19.4294 30.5598V30.4398C19.2291 30.4398 19.0275 30.4218 18.8289 30.3861L18.8077 30.5043ZM16.555 29.0581C17.0881 29.8251 17.8882 30.3389 18.8077 30.5042L18.8289 30.3861C17.9408 30.2264 17.1685 29.7305 16.6535 28.9896L16.555 29.0581ZM15.985 26.4428C15.8196 27.362 16.0222 28.291 16.555 29.0581L16.6536 28.9896C16.1389 28.2487 15.9433 27.3519 16.1031 26.4641L15.985 26.4428ZM16.2017 25.2344L15.985 26.4429L16.1031 26.464L16.3198 25.2556L16.2017 25.2344ZM16.4468 24.8525C16.3179 24.9423 16.2296 25.0799 16.2017 25.2344L16.3198 25.2557C16.342 25.1325 16.4125 25.0227 16.5154 24.951L16.4468 24.8525ZM16.89 24.7555C16.7356 24.7289 16.5764 24.7622 16.4468 24.8525L16.5154 24.951C16.6183 24.8793 16.7453 24.8523 16.8697 24.8737L16.89 24.7555ZM20.5603 25.4158L16.8905 24.7556L16.8692 24.8737L20.539 25.5339L20.5603 25.4158ZM20.6925 25.4395L20.5603 25.4158L20.539 25.5339L20.6712 25.5576L20.6925 25.4395ZM20.6952 25.44L20.6927 25.4396L20.6709 25.5576L20.6734 25.558L20.6952 25.44ZM22.6061 25.7838L20.6949 25.44L20.6736 25.5581L22.5849 25.9019L22.6061 25.7838ZM23.0847 26.4723C23.1425 26.15 22.9281 25.8419 22.6061 25.7838L22.5848 25.9019C22.8417 25.9483 23.0127 26.194 22.9666 26.4511L23.0847 26.4723ZM22.868 27.681L23.0847 26.4723L22.9666 26.4511L22.7499 27.6598L22.868 27.681ZM19.4294 30.5598C21.1219 30.5598 22.5684 29.349 22.868 27.681L22.7499 27.6598C22.4605 29.2707 21.0637 30.4398 19.4294 30.4398V30.5598ZM21.8932 26.739L21.0283 26.5834L21.007 26.7015L21.8719 26.8571L21.8932 26.739ZM21.8187 27.4926L21.9416 26.8087L21.8235 26.7875L21.7006 27.4714L21.8187 27.4926ZM19.4292 29.4937C20.6054 29.4937 21.6102 28.652 21.8187 27.4926L21.7006 27.4714C21.5024 28.5737 20.5472 29.3737 19.4292 29.3737V29.4937ZM18.996 29.4547C19.1389 29.4806 19.2851 29.4937 19.4292 29.4937V29.3737C19.2923 29.3737 19.1533 29.3613 19.0174 29.3366L18.996 29.4547ZM17.4305 28.4496C17.8007 28.9827 18.3573 29.3399 18.9961 29.4547L19.0173 29.3366C18.4099 29.2274 17.8811 28.888 17.5291 28.3811L17.4305 28.4496ZM17.0346 26.6315C16.9193 27.2706 17.0603 27.9165 17.4305 28.4496L17.5291 28.3811C17.177 27.8742 17.043 27.2605 17.1527 26.6528L17.0346 26.6315ZM17.1572 25.9477L17.0346 26.6316L17.1527 26.6527L17.2753 25.9689L17.1572 25.9477ZM18.0908 26.0547L17.2268 25.8992L17.2056 26.0173L18.0696 26.1728L18.0908 26.0547ZM18.0376 26.6907L18.1393 26.1244L18.0212 26.1032L17.9194 26.6695L18.0376 26.6907ZM18.2711 27.762C18.0526 27.4478 17.9697 27.0674 18.0375 26.6907L17.9194 26.6695C17.846 27.0774 17.9359 27.4902 18.1726 27.8306L18.2711 27.762ZM19.1927 28.3537C18.8171 28.2862 18.4896 28.0763 18.2711 27.762L18.1726 27.8306C18.4093 28.1709 18.7646 28.3986 19.1715 28.4718L19.1927 28.3537ZM19.4492 28.377C19.3636 28.377 19.2776 28.3691 19.1928 28.3537L19.1714 28.4718C19.2631 28.4884 19.3562 28.497 19.4492 28.497V28.377ZM20.8568 27.1975C20.7345 27.8806 20.1426 28.377 19.4492 28.377V28.497C20.2009 28.497 20.8424 27.9588 20.9749 27.2186L20.8568 27.1975ZM20.9586 26.6318L20.8568 27.1974L20.9749 27.2187L21.0767 26.653L20.9586 26.6318ZM19.9256 27.0303L20.0277 26.4643L19.9096 26.443L19.8075 27.009L19.9256 27.0303ZM19.4492 27.4307C19.684 27.4307 19.8843 27.2617 19.9256 27.0302L19.8075 27.0091C19.7763 27.1838 19.6253 27.3107 19.4492 27.3107V27.4307ZM19.3601 27.4224C19.3908 27.4282 19.4201 27.4307 19.4492 27.4307V27.3107C19.427 27.3107 19.4052 27.3088 19.3825 27.3045L19.3601 27.4224ZM19.0481 27.2218C19.1222 27.3284 19.2331 27.3997 19.3608 27.4225L19.3819 27.3044C19.2857 27.2872 19.2026 27.2338 19.1466 27.1533L19.0481 27.2218ZM18.969 26.8582C18.9459 26.9863 18.9743 27.1154 19.0481 27.2218L19.1467 27.1533C19.091 27.0731 19.0697 26.9762 19.0871 26.8794L18.969 26.8582ZM19.0706 26.2921L18.969 26.8582L19.0871 26.8794L19.1887 26.3133L19.0706 26.2921ZM19.5079 26.3097L19.1402 26.2436L19.119 26.3617L19.4866 26.4278L19.5079 26.3097ZM19.9792 26.3946L19.5079 26.3097L19.4866 26.4278L19.958 26.5127L19.9792 26.3946Z" fill="white" mask="url(#path-1-outside-1_1_45811)"/>
</g>
<defs>
<clipPath id="clip0_1_45811">
<rect width="30" height="30" fill="white" transform="translate(0 0.5)"/>
</clipPath>
</defs>
</svg>
