<svg width="16" height="17" viewBox="0 0 16 17" fill="none" xmlns="http://www.w3.org/2000/svg">
<path d="M15.8252 9.47804C15.7482 9.25977 15.5089 9.1454 15.2909 9.22192C15.0726 9.29887 14.958 9.53808 15.0348 9.75621C15.1194 9.99654 15.1623 10.2487 15.1623 10.506C15.1623 11.751 14.1494 12.7639 12.9043 12.7639H4.0088C3.24564 12.7639 2.62463 12.143 2.62463 11.3797C2.62463 10.695 3.13615 10.1066 3.81455 10.0111C3.92641 9.99542 4.02695 9.9351 4.09384 9.84419C4.16073 9.75328 4.18796 9.63905 4.16953 9.52775C4.1342 9.31437 4.11632 9.10002 4.11632 8.89055C4.11632 6.75495 5.85379 5.01762 7.98939 5.01762C9.80757 5.01762 11.3597 6.25405 11.764 8.02461C11.7897 8.13674 11.8601 8.23324 11.9589 8.29189C12.0578 8.3504 12.1765 8.36534 12.2871 8.33434C12.7377 8.20587 13.2202 8.22249 13.6548 8.3754C13.8728 8.4522 14.1121 8.33755 14.1891 8.11957C14.2659 7.9013 14.1514 7.66209 13.9331 7.58528C13.4677 7.42106 12.9638 7.37051 12.472 7.44061C11.8507 5.50136 10.062 4.17975 7.98925 4.17975C7.50147 4.17975 7.03072 4.25433 6.58791 4.39257C5.86259 3.74965 4.93716 3.39746 3.96188 3.39746C1.77727 3.39746 0 5.17473 0 7.35934C0 8.74839 0.715403 10.0141 1.88535 10.7332C1.82195 10.9389 1.78662 11.1559 1.78662 11.3799C1.78662 12.6051 2.78341 13.6019 4.00866 13.6019H12.9042C14.6112 13.6019 16 12.2131 16 10.5061C16.0001 10.1539 15.9412 9.80802 15.8252 9.47804ZM0.837872 7.35934C0.837872 5.63667 2.23935 4.23533 3.96188 4.23533C4.59252 4.23533 5.19578 4.42385 5.70828 4.77059C4.26044 5.57537 3.27817 7.12013 3.27817 8.89069C3.27817 9.01874 3.28362 9.14805 3.29451 9.27764C2.89052 9.41547 2.54154 9.6674 2.28069 9.99109C1.38458 9.41953 0.837872 8.4367 0.837872 7.35934Z" fill="white"/>
</svg>
