<svg width="34" height="44" viewBox="0 0 34 44" fill="none" xmlns="http://www.w3.org/2000/svg">
<path d="M32.3368 23.9175C32.186 23.4897 31.7169 23.2656 31.2896 23.4155C30.8618 23.5664 30.6371 24.0352 30.7877 24.4627C30.9535 24.9337 31.0376 25.428 31.0376 25.9322C31.0376 28.3724 29.0524 30.3576 26.6122 30.3576H9.17752C7.68178 30.3576 6.46466 29.1407 6.46466 27.6447C6.46466 26.3028 7.4672 25.1494 8.79681 24.9622C9.01604 24.9315 9.2131 24.8133 9.3442 24.6351C9.4753 24.457 9.52867 24.2331 9.49255 24.0149C9.4233 23.5967 9.38827 23.1766 9.38827 22.7661C9.38827 18.5805 12.7936 15.1754 16.9792 15.1754C20.5427 15.1754 23.5848 17.5987 24.3772 21.0689C24.4275 21.2887 24.5655 21.4778 24.7593 21.5927C24.953 21.7074 25.1857 21.7367 25.4024 21.6759C26.2857 21.4241 27.2313 21.4567 28.083 21.7564C28.5103 21.9069 28.9794 21.6822 29.1302 21.255C29.2807 20.8272 29.0563 20.3584 28.6285 20.2078C27.7163 19.886 26.7288 19.7869 25.7648 19.9243C24.5471 16.1235 21.0414 13.5332 16.9789 13.5332C16.0229 13.5332 15.1003 13.6794 14.2324 13.9504C12.8108 12.6903 10.9971 12 9.08556 12C4.80388 12 1.32056 15.4833 1.32056 19.765C1.32056 22.4875 2.7227 24.9682 5.01572 26.3775C4.89146 26.7806 4.82221 27.206 4.82221 27.645C4.82221 30.0464 6.77585 32 9.17725 32H26.6119C29.9576 32 32.6795 29.2781 32.6795 25.9325C32.6797 25.2422 32.5642 24.5642 32.3368 23.9175ZM2.96273 19.765C2.96273 16.3887 5.70953 13.6422 9.08556 13.6422C10.3216 13.6422 11.5039 14.0117 12.5084 14.6912C9.67072 16.2686 7.74555 19.2962 7.74555 22.7663C7.74555 23.0173 7.75623 23.2708 7.77757 23.5248C6.98577 23.7949 6.30181 24.2886 5.79055 24.9231C4.03424 23.8028 2.96273 21.8766 2.96273 19.765Z" fill="white"/>
</svg>
